<svg width="257" height="186" viewBox="0 0 257 186" fill="none" xmlns="http://www.w3.org/2000/svg">
<g clip-path="url(#clip0_147_13338)">
<path d="M40.2832 24.5629C40.4965 24.4489 40.8314 24.5963 41.052 24.4946C41.2725 24.3929 41.476 24.3184 41.7038 24.2291C41.9317 24.1397 41.9278 23.436 42.1629 23.359C42.398 23.2819 42.6112 23.1259 42.8439 23.0588C43.0766 22.9916 43.3189 22.8849 43.5565 22.84C43.7941 22.7951 44.0265 22.602 44.2617 22.5669C44.4969 22.5319 44.8057 22.914 45.0482 22.8913C45.2907 22.8685 45.5055 22.3249 45.7456 22.312C45.9856 22.2992 46.2582 22.7875 46.4959 22.7846C46.7336 22.7816 46.9998 22.4922 47.2351 22.4991C47.4801 22.5085 47.7348 22.5623 47.975 22.5914C48.2176 22.6107 48.3672 23.4351 48.6073 23.4642C48.8475 23.4934 49.0946 23.3669 49.3324 23.406C49.5702 23.445 49.8271 23.363 50.0624 23.4119C50.2954 23.4706 50.5741 23.3417 50.807 23.4005C51.04 23.4592 51.3235 23.3525 51.5565 23.4113C51.7894 23.47 51.8055 24.2503 52.0337 24.3288C52.2642 24.3975 52.7237 23.7373 52.9592 23.8282C53.1873 23.9067 53.2876 24.3411 53.5133 24.4295C53.7391 24.5179 54.1096 24.2233 54.3353 24.3118C54.561 24.4002 54.8302 24.3947 55.0536 24.493C55.2769 24.5913 55.1767 25.4262 55.3976 25.5344C55.6209 25.6327 56.0664 25.2416 56.2776 25.3473C56.4986 25.4555 56.6856 25.6181 56.9066 25.7263C57.1275 25.8345 57.1067 26.3852 57.3253 26.5033C57.5341 26.6189 58.2093 25.8767 58.4157 26.0023C58.6245 26.1179 58.5844 26.7057 58.8005 26.8336C59.0069 26.9591 59.3681 26.83 59.5745 26.9555C59.7809 27.081 60.1033 27.026 60.3073 27.1614C60.5137 27.2869 60.5098 27.7684 60.7162 27.8939C60.9202 28.0293 60.9598 28.4169 61.1638 28.5523C61.3678 28.6877 61.6226 28.7415 61.8266 28.8769C62.0306 29.0123 62.0895 29.3628 62.2911 29.5081C62.4951 29.6435 62.9748 29.3659 63.1763 29.5112C63.3779 29.6565 63.207 30.3161 63.4086 30.4614C63.6102 30.6067 64.0851 30.3489 64.2867 30.4942C64.4883 30.6394 64.9728 30.3841 65.1744 30.5294C65.3663 30.6722 65.4543 30.9881 65.6461 31.1309C65.8356 31.2836 66.1703 31.2632 66.3622 31.406C66.5517 31.5587 66.4485 32.1096 66.6379 32.2623C66.8274 32.415 67.2612 32.2412 67.4507 32.3939C67.6402 32.5466 67.4087 33.2435 67.5982 33.3962C67.7877 33.5489 67.8683 33.8524 68.0481 34.0027C68.2352 34.1653 68.6448 34.0484 68.8343 34.2011C69.0214 34.3637 69.281 34.4397 69.4608 34.5899C69.6479 34.7525 69.9947 34.7247 70.1817 34.8872C70.3688 35.0498 70.1856 35.633 70.3606 35.803C70.5453 35.9754 71.1026 35.7175 71.28 35.8776C71.4549 36.0477 71.3613 36.517 71.5362 36.687C71.7112 36.8571 71.6224 37.3066 71.7876 37.4742C71.9602 37.6541 72.7911 37.161 72.9539 37.3385C73.1265 37.5184 72.8149 38.1635 72.9778 38.341C73.1503 38.5209 73.7562 38.2752 73.919 38.4526C74.0819 38.6301 73.7242 39.295 73.8871 39.4725C74.0475 39.6598 74.697 39.4042 74.8575 39.5915C75.0179 39.7788 75.1784 39.9662 75.3267 40.1609C75.4847 40.3581 75.3134 40.8079 75.4618 41.0027C75.6101 41.1974 76.1144 41.1149 76.2627 41.3097C76.4111 41.5045 76.2034 41.9765 76.3493 42.1812C76.4977 42.3759 76.6339 42.5781 76.7701 42.7803C76.9063 42.9825 76.7325 43.4002 76.8688 43.6024C77.005 43.8046 77.1775 43.9845 77.3041 44.1843C77.4403 44.3865 78.291 44.1082 78.4151 44.3178C78.5514 44.52 78.208 45.0417 78.3321 45.2514C78.4562 45.461 78.7038 45.5864 78.8377 45.7985C78.9618 46.0081 78.8533 46.3689 78.9775 46.5785C79.1016 46.7881 79.8918 46.589 80.0159 46.7986C80.1401 47.0082 79.4308 47.7208 79.5549 47.9305C79.6791 48.1401 80.6002 47.8691 80.7243 48.0787C80.8484 48.2883 80.5389 48.7557 80.6606 48.9752C80.7847 49.1848 80.6447 49.5481 80.7688 49.7577C80.8929 49.9674 81.6202 49.8152 81.7419 50.0347C81.8661 50.2444 81.3894 50.8059 81.5135 51.0155C81.6376 51.2252 81.8344 51.3902 81.9561 51.6097C82.0802 51.8193 82.4684 51.8753 82.5925 52.085C82.7166 52.2946 83.204 52.2813 83.3257 52.5008C83.4499 52.7104 82.8618 53.3487 82.9956 53.5608C83.1197 53.7704 83.2074 54.0023 83.3413 54.2144C83.4654 54.4241 83.4054 54.7551 83.5295 54.9647C83.6536 55.1743 84.3009 55.0545 84.4348 55.2666C84.5589 55.4762 85.073 55.4381 85.1971 55.6477C85.3212 55.8574 85.1401 56.2627 85.2739 56.4748C85.398 56.6844 84.9699 57.2582 85.1037 57.4703C85.2302 57.67 86.0761 57.4115 86.21 57.6235C86.3462 57.8257 86.5454 57.9809 86.6792 58.193C86.8154 58.3952 86.3703 58.9961 86.5041 59.2082C86.6404 59.4104 87.3797 59.2089 87.5135 59.421C87.64 59.6207 87.66 59.9195 87.7865 60.1192C87.913 60.319 87.4558 60.8854 87.5799 61.095C87.6943 61.3022 87.8208 61.5019 87.9352 61.7091C88.0496 61.9163 88.6486 61.8682 88.7533 62.0729C88.8653 62.29 88.4491 62.7723 88.5514 62.987C88.6536 63.2016 89.2817 63.1608 89.384 63.3754C89.4863 63.59 89.6565 63.7798 89.7588 63.9944C89.8611 64.209 89.5538 64.6245 89.6464 64.8367C89.7463 65.0612 89.7929 65.2932 89.8927 65.5177C89.9829 65.7397 90.2694 65.8749 90.3596 66.097C90.4497 66.319 91.0246 66.3277 91.1245 66.5522C91.2146 66.7743 90.5802 67.3065 90.6801 67.531C90.7703 67.753 90.9186 67.9478 91.0088 68.1699C91.099 68.3919 91.2013 68.6065 91.3012 68.831C91.3914 69.0531 91.3192 69.3495 91.4094 69.5716C91.4995 69.7936 92.1883 69.7577 92.2882 69.9822C92.3783 70.2042 92.2843 70.5057 92.3842 70.7302C92.4841 70.9546 92.2399 71.3231 92.3398 71.5476C92.4397 71.7721 93.1114 71.7213 93.2113 71.9458C93.3111 72.1703 93.0063 72.5759 93.1183 72.793C93.2206 73.0076 93.1437 73.3238 93.246 73.5384C93.3482 73.753 94.0466 73.6775 94.1513 73.8823C94.2633 74.0993 94.4504 74.2619 94.5648 74.4691C94.6768 74.6862 93.9796 75.3494 94.0916 75.5664C94.206 75.7736 94.7613 75.7354 94.8854 75.9451C95.0095 76.1547 95.3177 76.243 95.4442 76.4427C95.5683 76.6523 95.4018 77.0404 95.538 77.2426C95.6742 77.4448 95.9485 77.5455 96.0847 77.7477C96.2209 77.9499 96.4855 78.0481 96.6265 78.2305C96.7748 78.4253 96.6592 78.8157 96.8099 79.0006C96.9607 79.1854 97.3584 79.1599 97.5212 79.3374C97.6817 79.5247 97.554 79.9645 97.7169 80.142C97.8797 80.3194 98.5872 79.9525 98.7597 80.1324C98.9347 80.3024 98.3667 81.2814 98.5441 81.4416C98.719 81.6116 99.2013 81.4501 99.3908 81.6028C99.5779 81.7654 99.915 81.7351 100.104 81.8878C100.294 82.0405 100.435 82.2649 100.627 82.4077C100.816 82.5604 100.897 82.864 101.101 82.9994C101.303 83.1447 101.461 83.3419 101.662 83.4871C101.866 83.6225 102.15 83.6417 102.354 83.7771C102.558 83.9125 103.088 83.5114 103.295 83.6369C103.501 83.7624 103.534 84.1796 103.742 84.2953C103.949 84.4208 104.158 84.5364 104.374 84.6644C104.583 84.78 104.63 85.2219 104.838 85.3375C105.057 85.4556 105.184 85.7393 105.402 85.8574C105.623 85.9656 105.928 85.8958 106.149 86.004C106.37 86.1122 106.618 86.1537 106.839 86.2619C107.06 86.3701 107.447 86.0902 107.67 86.1885C107.891 86.2967 107.745 87.2354 107.969 87.3337C108.192 87.432 108.671 86.9446 108.894 87.0429C109.118 87.1412 109.324 87.2667 109.548 87.365C109.771 87.4633 109.813 88.0089 110.037 88.1072C110.26 88.2056 110.826 87.4463 111.052 87.5348C111.277 87.6232 111.199 88.495 111.425 88.5834C111.65 88.6719 111.97 88.5428 112.196 88.6312C112.422 88.7197 112.715 88.6573 112.941 88.7458C113.167 88.8342 113.474 88.7126 113.7 88.801C113.926 88.8894 114.149 88.9877 114.375 89.0762C114.601 89.1646 114.65 89.7226 114.876 89.811C115.102 89.8994 115.373 89.884 115.599 89.9725C115.825 90.0609 116.133 89.9393 116.358 90.0277C116.584 90.1161 116.728 90.4146 116.954 90.503C117.179 90.5915 117.371 90.7763 117.597 90.8647C117.82 90.963 118.044 91.0613 118.257 91.1572C118.481 91.2555 118.873 90.9559 119.096 91.0542C119.32 91.1525 119.786 91.396 120.009 91.4944C119.869 91.6897 119.768 92.2727 119.625 92.4779C119.485 92.6733 118.602 92.3245 118.461 92.5198C118.321 92.7152 118.581 93.211 118.431 93.4039C118.291 93.5992 118.209 93.8513 118.069 94.0466C117.919 94.2396 117.502 94.2182 117.361 94.4136C117.211 94.6065 117.528 95.1688 117.378 95.3617C117.228 95.5546 116.383 95.1736 116.233 95.3665C116.083 95.5595 116.672 96.3583 116.522 96.5512C116.372 96.7441 115.916 96.671 115.756 96.8614C115.606 97.0544 115.074 96.9098 114.915 97.1002C114.757 97.2808 114.651 97.5057 114.492 97.6962C114.334 97.8768 114.092 97.9834 113.935 98.164C113.777 98.3446 114.067 98.9317 113.91 99.1123C113.753 99.2929 113.736 99.6139 113.579 99.7945C113.422 99.9751 113.009 99.9339 112.852 100.115C112.695 100.295 112.336 100.288 112.169 100.467C112.002 100.645 112.129 101.096 111.971 101.277C111.804 101.455 111.863 101.848 111.696 102.026C111.529 102.204 110.82 101.857 110.663 102.038C110.496 102.216 110.366 102.414 110.199 102.592C110.032 102.77 109.743 102.812 109.576 102.991C109.409 103.169 109.733 103.827 109.568 103.996C109.401 104.174 109.021 104.13 108.844 104.306C108.677 104.484 108.585 104.733 108.421 104.902C108.256 105.07 108.121 105.288 107.946 105.453C107.779 105.631 107.374 105.561 107.2 105.726C107.035 105.895 107.223 106.435 107.046 106.611C106.882 106.779 106.805 107.053 106.638 107.231C106.471 107.41 106.296 107.575 106.132 107.744C105.958 107.909 105.297 107.575 105.13 107.753C104.956 107.919 104.682 107.986 104.517 108.154C104.343 108.32 104.555 108.888 104.378 109.063C104.204 109.229 103.716 109.075 103.552 109.243C103.387 109.411 103.376 109.754 103.209 109.932C103.034 110.098 102.86 110.264 102.683 110.44C102.509 110.606 102.417 110.855 102.241 111.031C102.066 111.197 102.121 111.609 101.956 111.777C101.782 111.943 101.104 111.594 100.93 111.759C100.756 111.925 101.223 112.756 101.046 112.932C100.872 113.098 100.788 113.36 100.613 113.526C100.439 113.691 99.9513 113.537 99.7843 113.715C99.6198 113.883 99.5184 114.13 99.3514 114.309C99.1844 114.487 99.151 114.793 98.9767 114.959C98.8097 115.137 98.7108 115.374 98.5365 115.54C98.3622 115.706 97.6994 115.381 97.5324 115.559C97.3654 115.737 97.541 116.243 97.3643 116.419C97.1973 116.597 97.1397 116.876 96.9727 117.054C96.8057 117.232 96.1502 116.92 95.9832 117.098C95.8162 117.276 96.1085 117.896 95.9415 118.074C95.7745 118.252 95.7436 118.548 95.5766 118.726C95.4096 118.905 94.725 118.585 94.5604 118.753C94.3934 118.931 94.4103 118.904 94.253 119.085C94.1653 118.853 93.9521 118.967 93.8667 118.725C93.7886 118.496 93.9044 118.189 93.8288 117.95C93.7507 117.72 93.8956 117.421 93.82 117.182C93.754 116.945 93.4433 116.783 93.3773 116.546C93.3113 116.309 93.5533 115.992 93.497 115.758C93.4408 115.523 92.5264 115.513 92.4628 115.266C92.4066 115.031 93.1648 114.583 93.1086 114.349C93.0523 114.114 92.1573 114.067 92.101 113.832C92.0472 113.588 92.9607 113.136 92.9068 112.892C92.853 112.648 91.764 112.635 91.7198 112.393C91.666 112.149 91.7309 111.882 91.6868 111.64C91.6427 111.398 92.1634 111.037 92.1095 110.792C92.0654 110.55 91.7619 110.358 91.7177 110.117C91.6736 109.875 92.2598 109.498 92.2059 109.254C92.1618 109.012 91.6207 108.865 91.5765 108.623C91.5324 108.381 91.3792 108.164 91.3253 107.92C91.2715 107.675 91.7607 107.316 91.7068 107.072C91.653 106.828 90.9349 106.73 90.8811 106.486C90.8272 106.242 90.7613 106.005 90.7074 105.76C90.6536 105.516 91.3076 105.115 91.2538 104.87C91.1999 104.626 90.1716 104.618 90.1177 104.374C90.0639 104.129 90.2719 103.825 90.2156 103.591C90.1618 103.347 90.6461 102.965 90.5923 102.721C90.5287 102.474 90.407 102.255 90.341 102.018C90.2751 101.781 89.5013 101.743 89.4354 101.506C89.3694 101.269 89.4028 101.005 89.3272 100.765C89.2515 100.526 89.0038 100.359 88.9281 100.119C88.8525 99.8799 88.8399 99.6354 88.7521 99.4035C88.6643 99.1716 89.2334 98.6963 89.1456 98.4644C89.0578 98.2324 88.8803 98.0303 88.7805 97.8058C88.683 97.5714 88.932 97.1832 88.8321 96.9587C88.7323 96.7343 88.4409 96.5768 88.3289 96.3597C88.2193 96.1328 88.1242 95.8885 88.0098 95.6813C87.8978 95.4643 87.3449 95.4926 87.2208 95.2829C87.0967 95.0733 86.9096 94.9107 86.7758 94.6986C86.642 94.4866 87.0289 93.9129 86.883 93.7082C86.7444 93.5159 86.4942 93.3584 86.3435 93.1735C86.183 92.9862 85.6062 93.1973 85.441 93.0297C85.2757 92.8621 85.1928 92.6104 85.013 92.4602C84.8356 92.3 84.4986 92.3723 84.3091 92.2196C84.1173 92.0768 84.0899 91.7237 83.8956 91.5908C83.7013 91.4579 83.42 91.4708 83.2136 91.3453C83.0072 91.2198 82.7815 91.1733 82.5727 91.0577C82.3639 90.9421 82.2808 90.6064 82.0599 90.4982C81.8486 90.3925 81.5626 90.4671 81.3417 90.3589C81.128 90.2631 81.1896 89.5024 80.9736 89.4164C80.76 89.3206 80.3218 89.7659 80.0985 89.6676C79.8825 89.5816 79.7967 89.1299 79.5807 89.044C79.3646 88.958 79.1076 88.956 78.8818 88.8676C78.6658 88.7816 78.2012 89.3357 77.9731 89.2572C77.7449 89.1786 77.7484 88.4872 77.5324 88.4012C77.3067 88.3128 77.1413 88.1032 76.9156 88.0148C76.6899 87.9264 76.2952 88.2778 76.0792 88.1918C75.8656 88.096 75.8885 87.4095 75.6748 87.3136C75.4612 87.2177 75.1389 87.3567 74.9277 87.2509C74.7165 87.1452 74.2492 87.5412 74.038 87.4355C73.8267 87.3298 74.0214 86.4453 73.815 86.3198C73.6062 86.2042 72.9382 86.8748 72.7439 86.7418C72.5375 86.6163 72.7566 85.843 72.5526 85.7076C72.3583 85.5746 72.0068 85.6643 71.815 85.5214C71.6255 85.3687 71.0997 85.6242 70.9223 85.464C70.7449 85.3039 71.1023 84.513 70.9226 84.3627C70.7452 84.2026 70.6428 83.946 70.4654 83.7858C70.2881 83.6257 69.5493 84.1211 69.372 83.9609C69.1849 83.7983 69.1091 83.517 68.9318 83.3569C68.7447 83.1943 68.9472 82.5741 68.7698 82.4139C68.5827 82.2513 68.3763 82.1258 68.1869 81.9731C67.9998 81.8105 67.6894 81.8161 67.4999 81.6634C67.3104 81.5107 66.7774 81.7958 66.5879 81.6431C66.3984 81.4904 66.5984 80.8381 66.4187 80.6878C66.2292 80.5351 65.6962 80.8202 65.514 80.6798C65.3245 80.5271 65.5559 79.8303 65.3665 79.6776C65.177 79.5248 64.8037 79.6194 64.6118 79.4766C64.4223 79.3239 64.3223 79.0574 64.1329 78.9047C63.941 78.7619 63.8434 78.4856 63.6515 78.3427C63.4596 78.1999 62.992 78.428 62.8001 78.2852C62.6082 78.1424 62.7477 77.5273 62.5534 77.3943C62.3518 77.249 62.1768 77.079 61.9849 76.9362C61.793 76.7934 61.0836 77.3801 60.8893 77.2471C60.6974 77.1043 60.6506 76.7463 60.4587 76.6035C60.2668 76.4607 60.3675 75.8777 60.1732 75.7448C59.9814 75.602 59.7604 75.4938 59.5661 75.3608C59.3743 75.218 58.8148 75.6118 58.6229 75.4689C58.4286 75.336 58.6744 74.5379 58.4825 74.3951C58.2882 74.2622 58.0939 74.1292 57.8923 73.9839C57.698 73.851 57.2522 74.0741 57.0579 73.9412C56.8636 73.8083 56.3888 74.066 56.1945 73.9331C56.0026 73.7903 56.1735 73.1306 55.9816 72.9878C55.7897 72.845 55.639 72.6601 55.4471 72.5173C55.2552 72.3744 54.6353 72.8474 54.4434 72.7045C54.2515 72.5617 54.674 71.5879 54.4821 71.4451C54.2999 71.3047 53.738 71.6664 53.5461 71.5236C53.3639 71.3832 52.9615 71.5124 52.7818 71.3622C52.5996 71.2218 52.877 70.4632 52.6851 70.3203C52.5053 70.1701 51.9046 70.5639 51.7151 70.4112C51.5354 70.261 51.5515 69.856 51.3621 69.7033C51.1823 69.553 51.0049 69.3929 50.8275 69.2327C50.6478 69.0825 50.226 69.2068 50.0462 69.0566C49.8665 68.9063 49.6044 68.8402 49.4149 68.6875C49.2375 68.5273 49.5925 67.7463 49.4151 67.5862C49.2378 67.426 48.9273 67.4316 48.7403 67.269C48.5629 67.1089 47.9596 67.4287 47.7822 67.2685C47.6049 67.1084 48.1632 66.1269 47.9882 65.9569C47.8109 65.7968 47.2535 66.0547 47.0762 65.8946C46.8988 65.7344 46.8618 65.4209 46.6868 65.2509C46.5192 65.0932 46.0804 65.2028 45.9151 65.0352C45.7499 64.8676 45.8387 64.418 45.6638 64.248C45.4985 64.0804 45.5003 63.7347 45.3253 63.5647C45.16 63.3971 44.835 63.378 44.66 63.208C44.4948 63.0404 43.935 63.2663 43.7697 63.0987C43.6045 62.9312 43.6352 62.5508 43.4603 62.3808C43.295 62.2132 43.3355 61.8354 43.1629 61.6555C42.9904 61.4756 42.5709 61.548 42.3984 61.3681C42.2331 61.2005 42.0727 61.0132 41.9122 60.8259C41.7494 60.6484 41.8746 60.2185 41.7142 60.0312C41.5635 59.8463 40.8437 60.1367 40.693 59.9518C40.5422 59.7669 40.9968 59.0844 40.8485 58.8897C40.7002 58.6949 40.3436 58.6784 40.1953 58.4836C40.0567 58.2913 39.8696 58.1287 39.7334 57.9265C39.5947 57.7342 39.1243 57.7623 38.988 57.5601C38.8518 57.3579 39.2824 56.7743 39.1583 56.5646C39.0318 56.3649 38.5177 56.403 38.3935 56.1933C38.2694 55.9837 38.3755 55.6328 38.2513 55.4232C38.1272 55.2136 37.5695 55.2616 37.4454 55.052C37.3213 54.8424 37.9046 54.2238 37.7902 54.0167C37.6758 53.8095 37.336 53.7237 37.224 53.5067C37.112 53.2896 36.8232 53.1643 36.7112 52.9472C36.5992 52.7301 36.8627 52.3246 36.7629 52.1001C36.6606 51.8855 36.3136 51.7875 36.204 51.5605C36.1041 51.336 36.2562 51.0073 36.1563 50.7828C36.0565 50.5583 35.3653 50.6042 35.2775 50.3722C35.1874 50.1502 35.148 49.8885 35.0579 49.6665C34.9677 49.4444 34.6061 49.3217 34.5183 49.0898C34.4305 48.8578 35.2394 48.2858 35.1614 48.0563C35.0833 47.8268 34.5423 47.7637 34.4546 47.5318C34.3765 47.3023 34.1094 47.13 34.0434 46.8931C33.9653 46.6636 34.3696 46.2726 34.2915 46.0431C34.2256 45.8062 33.9682 45.6364 33.9022 45.3995C33.8362 45.1625 34.0903 44.8385 34.034 44.6041C33.9681 44.3672 33.1531 44.3293 33.0871 44.0924C33.0309 43.8579 32.914 43.6187 32.8698 43.3768C32.816 43.1324 33.2276 42.7957 33.1835 42.5538C33.1394 42.3119 33.3522 42.03 33.3081 41.7881C33.264 41.5462 32.8853 41.3667 32.8411 41.1248C32.8067 40.8854 33.0826 40.5984 33.0603 40.3515C33.0283 40.1022 33.0763 39.8625 33.054 39.6157C33.0317 39.3688 32.9948 39.1392 32.9822 38.8948C32.9696 38.6504 32.6442 38.4214 32.6315 38.1769C32.6189 37.9325 32.7203 37.6854 32.7295 37.436C32.7266 37.194 32.7358 36.9446 32.7426 36.705C32.7518 36.4556 32.8605 36.2208 32.877 35.9837C32.8959 35.7368 32.8809 35.5022 32.8998 35.2552C32.9284 35.0107 32.7848 34.7542 32.8135 34.5097C32.8421 34.2652 32.5165 33.9522 32.5645 33.7126C32.6125 33.473 33.2501 33.3507 33.2982 33.1111C33.3559 32.8739 33.4889 32.6662 33.5563 32.4315C33.6141 32.1943 32.9365 31.7191 33.0136 31.4869C33.0908 31.2546 33.9252 31.2973 34.012 31.0675C34.0989 30.8377 34.2538 30.667 34.36 30.4421C34.4663 30.2171 34.1818 29.8202 34.2977 29.5977C34.4113 29.3851 34.1776 28.9485 34.3106 28.7408C34.4339 28.5307 34.6615 28.3574 34.8018 28.162C34.9421 27.9667 35.4928 28.0742 35.6428 27.8813C35.7928 27.6883 36.1664 27.7197 36.3334 27.5415C36.5004 27.3634 36.0939 26.621 36.2706 26.4453C36.4449 26.2795 36.7066 26.1777 36.8906 26.0144C37.0722 25.8609 37.6623 26.2301 37.8512 26.089C38.0401 25.9478 37.9785 25.4393 38.1868 25.303C38.383 25.1742 38.915 25.6127 39.1282 25.4986C39.3317 25.3822 39.3356 24.9007 39.5585 24.7891C39.7693 24.6849 40.0166 24.6425 40.2371 24.5408L40.2832 24.5629Z" fill="#C6A66B"/>
<path d="M58.3256 50.3249C58.1197 50.4512 58.1813 50.9178 57.9754 51.0442C57.7695 51.1705 57.2692 50.8135 57.0633 50.9399C56.8573 51.0662 56.7853 51.4047 56.5769 51.5409C56.371 51.6673 56.4182 52.1931 56.2196 52.3318C56.021 52.4705 55.8613 52.661 55.6627 52.7996C55.4641 52.9383 55.1924 52.9537 54.9938 53.0924C54.7952 53.2311 54.6842 53.4758 54.4831 53.6243C54.2845 53.763 53.8257 53.5319 53.6368 53.673C53.4479 53.8141 53.58 54.4139 53.3912 54.555C53.2023 54.6962 52.4881 54.1593 52.2968 54.3104C52.1055 54.4614 51.8413 54.5311 51.6597 54.6845C51.4684 54.8355 51.3549 55.0901 51.1636 55.2411C50.982 55.3946 51.2186 56.0732 51.0346 56.2365C50.853 56.39 50.4526 56.2994 50.2783 56.4652C50.0943 56.6286 49.8641 56.7278 49.6801 56.8912C49.4961 57.0545 49.3291 57.2327 49.1548 57.3985C48.9805 57.5643 48.8062 57.7301 48.6295 57.9058C48.4528 58.0814 48.0987 58.055 47.9244 58.2208C47.7501 58.3866 48.1178 59.1192 47.9508 59.2974C47.7838 59.4755 47.0821 59.0991 46.9054 59.2748C46.7287 59.4505 46.8946 59.9539 46.73 60.1221C46.563 60.3003 46.3134 60.3946 46.1464 60.5727C45.9794 60.7509 46.0578 61.1483 45.8981 61.3387C45.7408 61.5193 45.1438 61.3057 44.9768 61.4838C44.8195 61.6644 45.0242 62.1776 44.8669 62.3582C44.7096 62.5388 44.4406 62.6282 44.2809 62.8187C44.1212 63.0092 43.7598 63.0124 43.6098 63.2053C43.4599 63.3982 43.2321 63.5295 43.0821 63.7224C42.9321 63.9154 42.7044 64.0467 42.5544 64.2396C42.4044 64.4325 42.2715 64.6402 42.1312 64.8356C41.9909 65.0309 42.5186 65.741 42.3783 65.9364C42.238 66.1317 41.3715 65.7977 41.2385 66.0054C41.0983 66.2007 41.3417 66.6817 41.2015 66.8771C41.0612 67.0725 40.9015 67.2629 40.7709 67.4607C40.6403 67.6586 40.2499 67.6964 40.1169 67.9041C39.984 68.1118 39.8437 68.3071 39.7107 68.5148C39.5777 68.7225 39.2674 68.8121 39.1442 69.0222C39.0209 69.2323 38.968 69.4917 38.8448 69.7019C38.7215 69.912 39.1446 70.4593 39.0213 70.6695C38.898 70.8796 38.7747 71.0898 38.6612 71.3023C38.5476 71.5149 38.3515 71.6857 38.2379 71.8983C38.1244 72.1109 38.0739 72.3604 37.9676 72.5853C37.8614 72.8102 37.8303 73.0646 37.7168 73.2772C37.6032 73.4898 37.3513 73.636 37.2377 73.8486C37.1241 74.0612 37.0008 74.2714 36.8946 74.4963C36.7883 74.7212 36.8519 75.01 36.7457 75.2349C36.6394 75.4598 36.4627 75.6355 36.3661 75.8629C36.2696 76.0902 35.8695 76.1676 35.773 76.395C35.6764 76.6224 35.4026 76.7736 35.3085 76.991C35.2119 77.2184 35.2464 77.4998 35.1596 77.7297C35.0727 77.9595 35.1072 78.2409 35.0204 78.4707C34.9335 78.7006 35.1015 79.0262 35.0147 79.256C34.9278 79.4858 34.6346 79.6321 34.5575 79.8644C34.4803 80.0966 33.9469 80.1718 33.8697 80.4041C33.7926 80.6363 34.4193 81.1092 34.3421 81.3414C34.265 81.5737 33.5301 81.5876 33.4627 81.8223C33.3855 82.0546 33.3254 82.3016 33.2579 82.5363C33.1905 82.771 33.1109 83.0132 33.0435 83.2479C32.9857 83.4851 33.4862 83.8841 33.4284 84.1213C33.3707 84.3584 33.4585 84.6323 33.3911 84.8671C33.3333 85.1042 33.3338 85.3561 33.2761 85.5933C33.2184 85.8304 32.7336 85.9598 32.6758 86.197C32.6181 86.4342 33.1378 86.7961 33.0801 87.0333C33.0223 87.2704 32.7414 87.4513 32.703 87.6933C32.655 87.9329 32.5779 88.1652 32.5298 88.4048C32.4818 88.6445 32.2955 88.8597 32.2571 89.1017C32.2188 89.3438 32.4886 89.6322 32.4503 89.8742C32.4119 90.1163 32.4319 90.3731 32.3935 90.6151C32.3552 90.8572 31.492 90.975 31.4537 91.2171C31.4154 91.4592 32.0224 91.8011 31.9938 92.0457C31.9554 92.2877 31.7376 92.5055 31.709 92.75C31.6706 92.9921 32.069 93.3024 32.0307 93.5444C32.0021 93.789 31.9128 94.0287 31.8745 94.2707C31.8459 94.5152 30.8784 94.6382 30.8498 94.8827C30.8211 95.1273 30.972 95.3961 30.9434 95.6406C30.9148 95.8851 30.6945 96.1128 30.6659 96.3573C30.6373 96.6018 31.1982 96.9217 31.1696 97.1662C31.141 97.4107 30.6611 97.6043 30.6422 97.8513C30.6136 98.0958 30.4443 98.3258 30.4157 98.5703C30.387 98.8148 30.3172 99.0594 30.2983 99.3064C30.2794 99.5533 30.8548 99.8559 30.8359 100.103C30.8169 100.35 30.798 100.597 30.7791 100.844C30.7602 101.091 30.4987 101.318 30.4798 101.565C30.4609 101.812 30.4032 102.05 30.3939 102.299C30.375 102.546 30.2761 102.783 30.2669 103.033C30.2479 103.28 31.0853 103.564 31.0663 103.811C31.0571 104.061 30.3979 104.272 30.3886 104.521C30.3794 104.771 29.9627 105.001 29.9632 105.253C29.954 105.502 30.818 105.762 30.8088 106.012C30.7996 106.261 30.8437 106.503 30.8466 106.745C30.8495 106.987 30.8524 107.229 30.8529 107.481C30.8558 107.723 30.1142 107.976 30.1147 108.228C30.1176 108.47 30.5425 108.714 30.5454 108.956C30.5483 109.198 30.1753 109.46 30.1782 109.702C30.1908 109.947 30.3805 110.183 30.3907 110.438C30.4033 110.682 30.9179 110.896 30.9402 111.143C30.9528 111.387 30.6623 111.65 30.6749 111.894C30.6875 112.138 30.6783 112.388 30.7006 112.635C30.7229 112.882 30.6943 113.126 30.7166 113.373C30.739 113.62 30.3272 113.915 30.3617 114.154C30.384 114.401 30.3408 114.663 30.3656 114.9C30.3976 115.149 31.3267 115.268 31.3612 115.508C31.3956 115.747 30.6469 116.114 30.6813 116.353C30.7231 116.605 31.1115 116.787 31.1556 117.029C31.1973 117.281 30.8972 117.583 30.9413 117.825C30.9831 118.076 31.5024 118.228 31.5465 118.47C31.5907 118.712 31.0723 119.064 31.1165 119.306C31.1606 119.548 32.223 119.585 32.2671 119.827C32.321 120.071 32.0499 120.381 32.0965 120.613C32.1503 120.857 32.2817 121.079 32.3356 121.323C32.3894 121.568 32.2808 121.844 32.3371 122.079C32.3909 122.323 32.1054 122.65 32.1592 122.894C32.2228 123.141 31.9809 123.457 32.0468 123.694C32.1128 123.931 32.586 124.061 32.6519 124.298C32.7179 124.535 33.0383 124.7 33.1164 124.929C33.1921 125.169 33.4834 125.326 33.5615 125.556C33.6372 125.795 32.896 126.3 32.9838 126.532C33.0618 126.762 33.1472 127.003 33.2253 127.233C33.3033 127.462 33.808 127.548 33.886 127.777C33.9738 128.009 34.5778 128.025 34.6752 128.26C34.763 128.491 34.5915 128.815 34.6889 129.05C34.7791 129.272 34.9372 129.469 35.0346 129.703C35.1248 129.925 35.2126 130.157 35.3125 130.382C35.4124 130.606 35.6067 130.781 35.7066 131.006C35.8065 131.23 35.1649 131.792 35.2745 132.019C35.3744 132.244 35.8959 132.26 36.0054 132.487C36.1077 132.701 36.4402 132.817 36.5401 133.041C36.6424 133.256 36.5436 133.577 36.6532 133.804C36.7652 134.021 37.088 134.134 37.2 134.351C37.3023 134.566 36.8473 135.08 36.9593 135.297C37.0713 135.514 36.9459 135.86 37.0579 136.077C37.1699 136.294 37.3424 136.474 37.4617 136.704C37.5737 136.921 37.916 137.039 38.0353 137.268C38.0523 137.283 37.9517 136.722 38.1862 136.31C38.2925 136.127 39.2195 136.382 39.3548 136.122C39.4636 135.929 38.8463 135.291 38.9743 135.061C39.0855 134.858 40.027 135.096 40.1454 134.864C40.259 134.651 40.2997 134.399 40.4278 134.169C40.5414 133.956 40.3757 133.579 40.4917 133.357C40.6052 133.144 40.4031 132.747 40.5288 132.527C40.6424 132.314 40.8312 132.131 40.9569 131.911C41.0705 131.698 41.1864 131.476 41.3024 131.254C41.416 131.041 41.7044 130.914 41.8203 130.692C41.9339 130.479 41.8969 130.166 42.0105 129.953C42.124 129.741 42.3663 129.592 42.4823 129.37C42.5958 129.157 43.1488 129.171 43.2624 128.958C43.3784 128.736 42.6033 128.026 42.7193 127.804C42.8352 127.581 43.8836 127.888 43.9996 127.665C44.1156 127.443 44.149 127.178 44.265 126.956C44.3809 126.733 44.123 126.312 44.2487 126.092C44.3647 125.869 44.2718 125.531 44.3951 125.321C44.5111 125.098 45.052 125.12 45.168 124.897C45.2839 124.675 45.4728 124.491 45.596 124.281C45.712 124.059 45.3472 123.568 45.4705 123.358C45.5962 123.138 45.5932 122.854 45.7068 122.642C45.8325 122.421 46.6259 122.59 46.7395 122.378C46.8651 122.158 46.8816 121.879 46.9951 121.666C47.1232 121.436 46.7852 120.963 46.9084 120.752C47.0365 120.523 47.0894 120.263 47.2102 120.063C47.3383 119.833 47.6534 119.724 47.7622 119.531C47.8854 119.321 48.1447 119.187 48.268 118.977C48.3912 118.767 48.7209 118.682 48.8442 118.472C48.9675 118.262 48.5104 117.685 48.6336 117.475C48.7569 117.265 48.7126 116.939 48.8359 116.729C48.9592 116.518 49.6482 116.65 49.7812 116.443C49.9045 116.232 49.8869 115.924 50.0102 115.714C50.1335 115.504 50.6622 115.532 50.7855 115.322C50.9088 115.112 51.0612 114.909 51.1845 114.699C51.3078 114.489 51.1906 114.124 51.3139 113.913C51.4372 113.703 51.8203 113.653 51.9435 113.443C52.0668 113.233 51.583 112.639 51.7063 112.429C51.8295 112.218 52.2855 112.208 52.4088 111.997C52.5321 111.787 52.2813 111.336 52.4046 111.126C52.5279 110.916 52.4909 110.602 52.6239 110.394C52.7472 110.184 53.2468 110.206 53.3701 109.995C53.4934 109.785 53.5826 109.546 53.7156 109.338C53.8389 109.128 53.6513 108.713 53.7746 108.503C53.9076 108.295 54.7011 108.506 54.8317 108.308C54.9647 108.101 55.0078 107.839 55.1311 107.629C55.2641 107.421 55.414 107.228 55.5373 107.018C55.6703 106.81 56.1141 106.807 56.2471 106.599C56.3801 106.391 56.263 106.026 56.3959 105.819C56.5289 105.611 56.2248 105.125 56.3578 104.917C56.4908 104.71 56.7306 104.571 56.8612 104.373C56.9942 104.165 57.0203 103.889 57.1533 103.681C57.2863 103.473 57.2954 103.182 57.426 102.984C57.5589 102.776 57.7624 102.618 57.8929 102.42C58.0259 102.213 58.8292 102.468 58.9622 102.26C59.0952 102.052 59.2355 101.857 59.3684 101.649C59.5014 101.442 58.9034 100.724 59.0339 100.526C59.1669 100.319 59.3266 100.128 59.4669 99.9329C59.6096 99.7276 59.9005 99.6332 60.031 99.4354C60.1737 99.2301 60.3577 99.0668 60.5004 98.8616C60.6431 98.6563 60.8441 98.5077 60.9771 98.3C61.1174 98.1047 61.0755 97.7689 61.2182 97.5637C61.3585 97.3683 61.4137 97.0991 61.554 96.9037C61.6943 96.7084 62.16 96.742 62.3003 96.5466C62.4406 96.3512 62.5468 96.1263 62.6968 95.9334C62.8371 95.7381 63.4316 95.8776 63.5816 95.6847C63.7219 95.4893 63.2306 94.7989 63.3806 94.606C63.5306 94.4131 63.9405 94.4221 64.0905 94.2292C64.2405 94.0363 64.0188 93.5503 64.1688 93.3574C64.3188 93.1645 64.9084 93.3238 65.0487 93.1284C65.189 92.9331 65.39 92.7845 65.54 92.5916C65.69 92.3987 65.6335 92.0383 65.7835 91.8453C65.9335 91.6524 66.3046 91.6517 66.4546 91.4588C66.6045 91.2659 66.8129 91.1296 66.9725 90.9391C67.1225 90.7462 66.947 90.2824 67.1067 90.0919C67.2664 89.9014 67.1346 89.4696 67.2821 89.2866C67.4394 89.106 67.8785 89.1643 68.0382 88.9739C68.1955 88.7933 68.3625 88.6152 68.5222 88.4247C68.6795 88.2441 69.0239 88.2261 69.1812 88.0455C69.3385 87.865 69.4471 87.6302 69.6044 87.4496C69.7617 87.269 69.6007 86.7878 69.758 86.6072C69.9153 86.4267 70.4856 86.623 70.6526 86.4449C70.8196 86.2668 71.1349 86.2414 71.3019 86.0633C71.4689 85.8852 71.6431 85.7194 71.8004 85.5388C71.9674 85.3607 71.9814 85.0495 72.1484 84.8714C72.3154 84.6932 72.6209 84.6654 72.7879 84.4873C72.9549 84.3092 72.5387 83.5643 72.7057 83.3862C72.8727 83.208 73.013 83.0127 73.1897 82.837C73.3543 82.6688 73.7205 82.6878 73.8948 82.522C74.0594 82.3537 74.1608 82.1066 74.3375 81.9309C74.5021 81.7626 75.0069 81.932 75.1812 81.7662C75.3555 81.6004 75.0315 80.8998 75.2058 80.734C75.3801 80.5682 76.2252 81.1171 76.3995 80.9513C76.5738 80.7855 76.5999 80.4669 76.7742 80.3011C76.9485 80.1353 76.8627 79.6836 77.037 79.5178C77.2113 79.352 77.4269 79.2281 77.6012 79.0623C77.7755 78.8965 77.7966 78.5557 77.9806 78.3923C78.1549 78.2265 78.4921 78.2382 78.6761 78.0748C78.8504 77.909 79.0344 77.7457 79.2184 77.5823C79.4024 77.419 79.4625 77.13 79.6465 76.9666C79.8305 76.8033 80.4132 77.1181 80.5972 76.9548C80.7812 76.7914 80.4012 75.9823 80.5852 75.8189C80.7668 75.6655 81.3033 75.9162 81.4849 75.7628C81.6665 75.6093 81.532 75.0614 81.716 74.898C81.8976 74.7446 82.6068 75.2172 82.7908 75.0539C82.9724 74.9004 82.9108 74.4338 83.0924 74.2803C83.274 74.1269 83.7765 74.3481 83.9581 74.1946C84.1397 74.0411 84.3553 73.9172 84.5369 73.7638C84.7185 73.6103 84.815 73.341 85.0063 73.1899C85.1976 73.0389 84.9002 72.2716 85.0915 72.1206C85.2828 71.9695 85.6954 72.0946 85.8867 71.9436C86.078 71.7926 86.0966 71.4197 86.2903 71.2588C86.4816 71.1078 86.7289 71.0233 86.9226 70.8624C87.1139 70.7114 87.4997 70.8192 87.691 70.6682C87.8823 70.5172 88.0104 70.2873 88.2017 70.1363C88.393 69.9853 88.4895 69.7159 88.6808 69.5649C88.8721 69.4139 88.937 69.1051 89.1283 68.954C89.3196 68.803 89.4477 68.5731 89.639 68.4221C89.8303 68.2711 90.2794 68.4578 90.4683 68.3167C90.6596 68.1657 90.756 67.8963 90.9473 67.7453C91.1386 67.5943 91.2667 67.3644 91.458 67.2134C91.6493 67.0623 92.254 67.4562 92.4356 67.3027C92.6269 67.1517 92.6991 66.8552 92.8904 66.7042C93.0817 66.5532 93.3022 66.4515 93.4935 66.3005C93.6848 66.1495 93.8275 65.9442 94.0188 65.7932C94.2101 65.6422 94.3698 65.4517 94.5611 65.3007C94.7524 65.1497 95.0824 65.191 95.2737 65.04C95.465 64.8889 95.5079 64.5431 95.6993 64.3921C95.8906 64.2411 96.0965 64.1148 96.2878 63.9637C96.4791 63.8127 96.5366 63.4916 96.7377 63.343C96.929 63.192 96.9184 62.7698 97.1073 62.6286C97.2986 62.4776 97.4194 62.2354 97.618 62.0967C97.8093 61.9457 98.2463 62.1399 98.4473 61.9913C98.6386 61.8403 98.7813 61.635 98.9726 61.484C99.1639 61.333 99.2774 61.0784 99.4663 60.9373C99.6576 60.7863 99.9316 60.761 100.13 60.6223C100.319 60.4812 100.727 60.626 100.918 60.475C101.107 60.3339 101.109 59.9042 101.298 59.7631C101.486 59.6219 102.086 60.0355 102.275 59.8944C102.464 59.7533 102.526 59.4124 102.715 59.2712C102.904 59.1301 102.76 58.4958 102.949 58.3547C103.147 58.216 103.293 58.0008 103.491 57.8622C103.69 57.7235 104.36 58.2703 104.559 58.1316C104.757 57.9929 104.924 57.8148 105.123 57.6761C105.322 57.5374 105.275 57.0535 105.473 56.9148C105.672 56.7761 105.732 56.4451 105.93 56.3064C106.129 56.1677 106.418 56.1672 106.616 56.0285C106.815 55.8898 107.021 55.7634 107.217 55.6346C107.416 55.4959 107.575 55.3055 107.774 55.1668C107.972 55.0281 108.254 55.0152 108.45 54.8864C108.649 54.7477 108.558 54.1898 108.756 54.0511C108.955 53.9124 109.732 54.6541 109.931 54.5154C110.13 54.3767 109.771 53.3947 109.97 53.256C110.168 53.1173 110.469 53.1512 110.678 53.015C110.876 52.8763 111.05 52.7105 111.259 52.5743C111.455 52.4455 111.768 52.472 111.964 52.3432C112.16 52.2144 112.532 52.3395 112.738 52.2132C112.934 52.0844 113.028 51.7829 113.236 51.6467C113.432 51.5179 113.794 51.6406 114 51.5143C114.206 51.3879 114.27 51.0371 114.476 50.9108C114.682 50.7844 114.842 50.594 115.048 50.4676C115.254 50.3412 115.282 49.9288 115.481 49.7901C115.687 49.6638 116.236 50.117 116.441 49.9906C116.647 49.8643 116.89 49.7996 117.096 49.6732C117.302 49.5469 117.469 49.3687 117.675 49.2424C117.88 49.116 118.04 48.9256 118.246 48.7992C118.452 48.6728 118.738 48.6821 118.942 48.5657C119.148 48.4393 119.193 48.0417 119.399 47.9153C119.605 47.7889 119.665 47.416 119.878 47.3019C120.084 47.1756 120.217 46.9259 120.43 46.8119C120.633 46.6954 120.827 46.5345 121.03 46.418C121.234 46.3016 121.501 46.264 121.704 46.1475C121.908 46.031 122.087 45.8455 122.3 45.7314C122.503 45.615 122.726 45.5034 122.93 45.3869C123.133 45.2704 123.631 45.6793 123.845 45.5653C124.048 45.4488 124.176 45.1769 124.389 45.0629C124.603 44.9489 125.025 45.2443 125.238 45.1303C125.452 45.0163 125.633 44.8628 125.846 44.7488C126.06 44.6348 125.939 43.9016 126.152 43.7876C126.366 43.6736 126.647 43.7026 126.86 43.5886C127.073 43.4746 127.209 43.215 127.42 43.1109C127.633 42.9969 127.741 42.6781 127.955 42.5641C128.168 42.45 128.386 42.3582 128.599 42.2442C128.812 42.1302 129.232 42.4355 129.443 42.3314C129.656 42.2173 130.055 42.4857 130.275 42.384C130.486 42.2798 130.636 42.0449 130.859 41.9334C131.07 41.8292 131.256 41.656 131.467 41.5519C131.678 41.4477 131.869 41.2967 132.092 41.1851C132.303 41.081 132.258 40.4193 132.471 40.3053C132.682 40.2011 133 40.2918 133.21 40.1877C133.421 40.0836 133.729 40.1718 133.95 40.0701C134.161 39.966 134.569 40.2787 134.789 40.177C135 40.0729 134.97 39.4359 135.19 39.3342C135.411 39.2325 135.816 39.5551 136.037 39.4535C136.257 39.3518 136.222 38.6925 136.433 38.5884C136.653 38.4867 136.903 38.4763 137.124 38.3746C137.344 38.2729 137.455 37.9443 137.676 37.8426C137.896 37.7409 138.472 38.4632 138.703 38.364C138.923 38.2623 139.029 37.9114 139.25 37.8097C139.47 37.708 139.564 37.3226 139.785 37.2209C140.005 37.1192 140.389 37.4049 140.609 37.3032C140.83 37.2015 141.038 37.0653 141.256 36.9734C141.477 36.8718 141.695 36.7799 141.925 36.6807C142.146 36.579 142.456 36.6994 142.677 36.5977C142.897 36.496 143.018 36.0019 143.248 35.9026C143.085 35.7252 142.798 35.5899 142.623 35.4199C142.449 35.2499 142.547 34.8028 142.372 34.6327C142.197 34.4627 141.879 34.456 141.702 34.2958C141.525 34.1357 141.437 33.8618 141.259 33.7016C141.082 33.5415 140.791 33.51 140.604 33.3474C140.427 33.1873 140.06 33.2522 139.883 33.0921C139.694 32.9394 139.531 32.7619 139.341 32.6092C139.152 32.4565 138.897 32.4027 138.705 32.2599C138.513 32.1171 138.333 31.9668 138.142 31.824C137.95 31.6812 138.14 30.9844 137.948 30.8416C137.756 30.6988 137.424 30.7513 137.22 30.6159C137.026 30.483 136.708 30.5182 136.514 30.3853C136.31 30.2499 136.164 30.0452 135.96 29.9098C135.753 29.7843 135.296 30.0989 135.089 29.9734C134.883 29.8478 135.102 28.9906 134.895 28.8651C134.689 28.7395 134.333 28.8909 134.124 28.7753C133.915 28.6596 133.668 28.6182 133.447 28.51C133.238 28.3944 133.01 28.3158 132.799 28.2101C132.587 28.1043 132.424 27.8849 132.213 27.7791C132.002 27.6734 131.885 27.3502 131.664 27.242C131.453 27.1362 131.022 27.51 130.801 27.4018C130.587 27.3059 130.263 27.4547 130.049 27.3589C129.835 27.263 129.969 26.2898 129.756 26.194C129.53 26.1055 129.309 25.9973 129.083 25.9089C128.857 25.8205 128.294 26.6538 128.068 26.5654C127.843 26.4769 127.964 25.4272 127.736 25.3487C127.508 25.2701 127.145 25.5771 126.926 25.501C126.698 25.4224 126.504 25.2475 126.276 25.169C126.047 25.0904 125.778 25.1379 125.558 25.0717C125.327 25.003 125.031 25.1592 124.808 25.1028C124.575 25.0441 124.506 24.3972 124.273 24.3385C124.04 24.2797 123.716 24.5544 123.492 24.4981C123.259 24.4393 123.019 24.4102 122.786 24.3514C122.553 24.2926 122.198 24.8218 121.963 24.7729C121.73 24.7141 121.598 24.1983 121.362 24.1494C121.129 24.0906 120.93 23.8935 120.695 23.8446C120.459 23.7957 120.159 24.0975 119.931 24.061C119.693 24.0219 119.47 23.9656 119.232 23.9266C118.995 23.8876 118.869 23.1322 118.629 23.1031C118.391 23.0641 118.154 23.025 117.914 22.9959C117.676 22.9569 117.428 22.9574 117.198 22.9307C116.958 22.9016 116.684 23.1787 116.442 23.1594C116.201 23.1303 115.928 23.4914 115.686 23.4721C115.445 23.443 115.239 23.1496 114.996 23.1303C114.753 23.111 114.544 22.7855 114.302 22.7663C114.069 22.7495 113.767 23.6489 113.525 23.6296C113.292 23.6128 113.115 22.4773 112.873 22.4581C112.64 22.4413 112.388 22.5035 112.152 22.4966C111.917 22.4897 111.67 22.4482 111.434 22.4413C111.199 22.4344 110.936 23.3436 110.691 23.3342C110.456 23.3273 110.22 22.7327 109.984 22.7258C109.747 22.7287 109.508 22.3958 109.271 22.3988C109.033 22.4018 108.793 22.4986 108.556 22.5015C108.318 22.5045 108.088 23.0235 107.848 23.0363C107.611 23.0393 107.36 22.7139 107.123 22.7168C106.885 22.7198 106.675 23.4536 106.438 23.4565C106.198 23.4694 105.917 22.5489 105.677 22.5618C105.437 22.5746 105.247 23.3973 105.007 23.4101C104.766 23.4229 104.521 23.2876 104.288 23.3128C104.048 23.3256 103.761 22.7287 103.531 22.744C103.288 22.7667 103.073 23.1005 102.84 23.1256C102.598 23.1484 102.36 23.1093 102.117 23.1321C101.885 23.1572 101.696 23.6762 101.464 23.7013C101.228 23.7364 100.887 22.979 100.652 23.0141C100.417 23.0491 100.194 23.2447 99.9591 23.2797C99.7239 23.3148 99.506 23.4905 99.2684 23.5355C99.0332 23.5705 98.7367 23.265 98.4991 23.3099C98.2615 23.3548 98.1343 24.0045 97.8967 24.0494C97.6591 24.0944 97.468 24.3713 97.2401 24.4187C97.0025 24.4636 96.6547 23.9458 96.4244 24.0031C96.1941 24.0603 95.9614 24.1275 95.7214 24.1823C95.4911 24.2396 95.3244 24.5856 95.0941 24.6429C94.8638 24.7002 94.6165 24.7007 94.3838 24.7678C94.1535 24.8251 94.0747 25.445 93.842 25.5122C93.6092 25.5793 93.1737 24.8715 92.941 24.9387C92.7083 25.0058 92.4707 25.0508 92.2477 25.1204C92.015 25.1875 91.7798 25.2226 91.5447 25.2996C91.3096 25.3766 91.1159 25.5375 90.8905 25.617C90.6651 25.6965 90.3372 25.4774 90.1094 25.5668C89.884 25.6462 89.8245 26.2291 89.5991 26.3086C89.3737 26.3881 89.3044 26.8845 89.0766 26.9739C88.8512 27.0534 88.577 26.9947 88.3516 27.0742C88.1238 27.1635 87.7618 26.8729 87.5437 26.9647C87.3256 27.0565 87.3099 27.6714 87.0918 27.7632C86.8737 27.855 86.485 27.5472 86.2669 27.639C86.0488 27.7308 85.5993 27.2922 85.3787 27.3939C85.1582 27.4956 85.1229 28.0216 84.9121 28.1257C84.6916 28.2274 84.3444 28.0454 84.1239 28.1471C83.9034 28.2488 83.8558 28.6983 83.6329 28.8099C83.4221 28.914 83.0117 28.6531 82.8009 28.7573C82.5877 28.8713 82.4158 29.0692 82.205 29.1733C81.9918 29.2874 81.8297 29.4877 81.6165 29.6017C81.4033 29.7158 81.3946 30.217 81.1911 30.3335C80.9779 30.4475 80.7038 30.4308 80.4906 30.5448C80.2871 30.6613 80.0642 30.7729 79.8607 30.8894C79.6548 31.0157 79.4951 31.2062 79.2892 31.3325C79.0833 31.4589 78.7484 31.3534 78.5425 31.4798C78.3366 31.6061 78.0942 31.6708 77.8956 31.8095C77.6897 31.9359 77.3134 31.7885 77.1075 31.9148C76.9113 32.0436 76.8903 32.4684 76.682 32.6046C76.4834 32.7433 76.5184 33.2347 76.3222 33.3635C76.1236 33.5021 75.7668 33.4016 75.5682 33.5403C75.3696 33.679 74.9886 33.5514 74.79 33.6901C74.5914 33.8288 74.8695 34.6332 74.6709 34.7719C74.482 34.913 73.8116 34.4082 73.6227 34.5493C73.4338 34.6905 73.5051 35.2015 73.3138 35.3525C73.1225 35.5035 73.1378 35.906 72.9465 36.057C72.7552 36.208 72.4399 36.1914 72.2583 36.3448C72.0767 36.4983 71.8003 36.5334 71.6066 36.6943C71.425 36.8478 70.9784 36.6932 70.7968 36.8466C70.6152 37.0001 70.9417 37.7748 70.7602 37.9282C70.5761 38.0916 69.9205 37.6954 69.7486 37.8513C69.5646 38.0147 69.4243 38.21 69.25 38.3758C69.0757 38.5416 69.1834 39.0303 69.0091 39.1961C68.8348 39.3619 68.3105 39.1457 68.1362 39.3115C67.9619 39.4773 68.3272 40.2198 68.1529 40.3856C67.9786 40.5514 67.8383 40.7468 67.6713 40.9249C67.5067 41.0931 67.3811 41.3132 67.2165 41.4814C67.0495 41.6595 66.9116 41.845 66.7446 42.0232C66.5776 42.2013 65.8371 41.8151 65.6798 41.9957C65.5128 42.1738 65.5475 42.5392 65.3902 42.7198C65.2329 42.9004 64.9809 43.0046 64.8236 43.1852C64.5792 43.4697 64.6642 43.5436 64.4222 43.8182C64.1778 44.1026 64.1535 44.0755 63.9091 44.36C63.6647 44.6445 63.7668 44.7331 63.5224 45.0176C63.278 45.3021 63.2877 45.3045 63.0433 45.589C62.7989 45.8735 63.1293 46.1666 62.8849 46.4511C62.6405 46.7356 62.3708 46.4892 62.1264 46.7737C61.882 47.0581 61.9841 47.1468 61.7397 47.4313C61.4953 47.7158 61.3276 47.5581 61.0832 47.8425C60.8388 48.127 60.6104 47.9225 60.3684 48.1971C60.124 48.4816 60.0487 48.4101 59.8043 48.6946C59.5599 48.9791 59.7616 49.1663 59.5172 49.4508C59.2728 49.7353 59.4235 49.9201 59.1329 50.1405C58.8181 50.3757 58.6552 50.1563 58.3938 50.426L58.3256 50.3249Z" fill="#C6A66B"/>
<path d="M47.3326 30.0969C47.1065 29.7986 46.901 30.1348 46.5631 29.7873C46.4246 29.637 46.7071 28.9845 46.4981 28.7849C46.3401 28.6297 46.1313 28.4721 45.9272 28.2947C45.7571 28.1469 45.1321 28.5137 44.9256 28.3462C44.7458 28.1959 44.6459 27.9294 44.4467 27.7743C44.2645 27.6339 43.8283 27.8175 43.6267 27.6723C43.4348 27.5294 43.5767 26.9044 43.3654 26.7567C43.1711 26.6237 43.1895 26.1249 42.9758 25.9871C42.7718 25.8517 42.4686 25.8696 42.2525 25.7416C42.0461 25.6161 41.5231 26.0296 41.3046 25.9115C41.0982 25.786 40.8724 25.6976 40.6563 25.5696C40.4475 25.454 40.5286 24.7822 40.3004 24.6616C40.0916 24.546 39.6532 24.8654 39.4347 24.7474C39.2235 24.6416 39.1789 24.1479 38.9579 24.0397C38.737 23.9315 38.3157 24.2657 38.0948 24.1575C37.8714 24.0592 37.8703 23.4715 37.6372 23.3707C37.4139 23.2724 37.2195 23.0975 36.9865 22.9967C36.7632 22.8984 36.2309 23.5613 35.9955 23.4704C35.7697 23.382 35.5802 23.2293 35.3545 23.1408C35.1288 23.0524 34.8718 23.0924 34.6533 23.0163C34.4155 22.9353 34.1875 22.9408 33.957 22.8721C33.7167 22.801 33.7053 21.959 33.4845 21.8928C33.2418 21.8315 32.8815 22.3385 32.6485 22.2797C32.4059 22.2184 32.2282 21.9324 32.0026 21.8859C31.7551 21.8445 31.5246 21.7758 31.2941 21.7491C31.0442 21.7175 30.8159 21.513 30.5927 21.4987C30.338 21.4869 30.0907 21.5293 29.8627 21.5347C29.6032 21.5427 29.3188 21.1877 29.0981 21.2054C28.8435 21.2356 28.7019 21.9865 28.4837 22.0364C28.234 22.0887 28.0035 22.0621 27.7902 22.1341C27.543 22.2186 27.3443 22.3153 27.165 22.4169C26.9155 22.5532 26.9162 22.889 26.7612 23.0177C26.4125 23.3074 25.4322 23.06 25.5784 23.3906C25.7245 23.7212 26.5916 23.1218 26.8347 23.3929C27.0802 23.6542 26.9204 23.8027 27.1635 24.0738C27.409 24.335 27.6099 24.1445 27.853 24.4156C28.0984 24.6768 27.8176 24.9416 28.0607 25.2127C28.3062 25.474 27.9697 25.7981 28.2152 26.0594C28.4607 26.3206 28.6495 26.1375 28.8925 26.4086C29.138 26.6699 29.3656 26.4546 29.6087 26.7257C29.8541 26.9869 29.3046 27.5091 29.5477 27.7802C29.7932 28.0414 29.8343 27.9994 30.0774 28.2705C30.3229 28.5317 30.7102 28.168 30.946 28.4268C31.1915 28.688 31.3536 28.5296 31.5991 28.7909C31.8446 29.0521 31.404 29.4654 31.6471 29.7365C31.8926 29.9977 32.0669 29.8319 32.3123 30.0932C32.5578 30.3544 32.4513 30.4534 32.6944 30.7245C32.9374 30.9957 32.7922 31.1268 33.0377 31.3881C33.2831 31.6493 33.7794 31.1766 34.0225 31.4478C34.268 31.709 33.7596 32.1891 34.0051 32.4503C34.2505 32.7116 34.3692 32.6051 34.6146 32.8664C34.8577 33.1375 35.0611 32.9371 35.3041 33.2082C35.5496 33.4694 35.1744 33.8258 35.4175 34.0969C35.6605 34.368 35.9292 34.1107 36.1723 34.3818C36.4154 34.6529 36.3331 34.737 36.5786 34.9983C36.824 35.2595 36.9717 35.1185 37.2148 35.3896C37.4579 35.6607 37.4724 35.6434 37.7179 35.9046C37.9633 36.1659 37.8157 36.3069 38.0612 36.5682C38.3042 36.8393 38.694 36.4656 38.937 36.7367C39.1801 37.0079 38.9816 37.1885 39.2344 37.4621C39.4774 37.7332 39.1555 38.0401 39.3986 38.3112C39.6416 38.5823 39.9103 38.325 40.1655 38.5887" fill="#C6A66B"/>
<path d="M47.7482 30.5059C47.9449 30.671 47.8513 31.1403 47.9972 31.345C48.1431 31.5496 48.5072 31.6625 48.6022 31.9067C48.6876 32.1485 48.8119 32.4421 48.8294 32.7088C48.842 32.9532 48.3331 33.1814 48.2876 33.4531C48.2493 33.6952 48.4075 33.9764 48.3037 34.2334C48.2168 34.4632 48.1616 34.7325 48.0335 34.9624C47.9078 35.1824 47.5805 35.2572 47.416 35.4674C47.2539 35.6677 47.2911 36.0652 47.1071 36.2286C46.911 36.3994 46.525 36.2495 46.2997 36.371C46.0744 36.4924 45.9858 37.068 45.7288 37.108C45.4815 37.1505 45.2091 36.7881 44.9423 36.7417C44.7263 36.6977 44.4886 36.7006 44.258 36.59C44.0444 36.4941 43.7969 36.4527 43.5856 36.3049C43.3913 36.172 43.2913 35.9055 43.114 35.7454C42.9366 35.5852 42.9142 35.2964 42.7538 35.1091C42.5933 34.9217 42.479 34.7565 42.3549 34.5469C42.2211 34.3348 42.1043 34.1795 42.0142 33.9574C41.9264 33.7255 41.783 33.5529 41.7461 33.3234C41.7141 33.074 41.4274 32.8129 41.4754 32.5733C41.538 32.3163 41.7097 32.0764 41.7941 31.8565C41.8955 31.6094 42.1402 31.4508 42.2707 31.253C42.4158 31.0379 42.5585 30.8327 42.7425 30.6693C42.9289 30.4961 43.1081 30.3105 43.3237 30.1866C43.549 30.0651 43.8598 30.2695 44.1022 30.2048C44.3446 30.1401 44.5263 30.0286 44.7785 30.0083C45.0307 29.988 45.2823 29.6319 45.5321 29.6635C45.782 29.6951 46.0634 29.7242 46.3037 29.7953C46.5439 29.8664 46.6104 30.3552 46.8289 30.4732C47.0474 30.5913 47.5465 30.3187 47.7336 30.4813L47.7482 30.5059Z" fill="#253038"/>
<path d="M110.186 99.683C109.972 99.6291 109.773 99.5159 109.608 99.3483C109.508 99.2498 109.348 99.1464 109.17 99.0282C108.93 98.8731 108.692 98.7082 108.481 98.5185C108.092 98.1686 107.902 97.7221 107.765 97.394C107.746 97.3471 107.719 97.2879 107.7 97.241C107.641 97.2263 107.59 97.2239 107.532 97.2092C107.195 97.1556 106.741 97.0726 106.319 96.7771C105.745 96.3808 105.598 95.5884 105.997 95.0073C106.387 94.4238 107.163 94.2839 107.736 94.6803C107.755 94.6852 107.859 94.68 107.956 94.7045C108.323 94.7655 108.827 94.8509 109.267 95.2031C109.726 95.5602 109.926 96.0512 110.068 96.4015C110.106 96.4953 110.136 96.5866 110.187 96.6729C110.248 96.7197 110.391 96.8083 110.524 96.8944C110.782 97.0643 111.073 97.2637 111.355 97.5446C111.844 98.035 111.853 98.8449 111.371 99.3422C111.054 99.6713 110.593 99.7858 110.176 99.6805L110.186 99.683Z" fill="#CEBC94"/>
<path d="M107.229 104.675C106.987 104.613 106.761 104.483 106.586 104.271L105.397 102.849C105.117 102.516 104.923 102.173 104.752 101.857C104.623 101.625 104.509 101.418 104.39 101.273C104.309 101.179 104.115 101.046 103.918 100.923C103.617 100.721 103.234 100.478 102.913 100.103C102.465 99.5704 102.517 98.7653 103.04 98.3099C103.563 97.8545 104.354 97.9072 104.801 98.4396C104.881 98.5333 105.076 98.6662 105.272 98.7893C105.574 98.9912 105.957 99.2348 106.278 99.6095C106.558 99.9423 106.75 100.295 106.923 100.601C107.052 100.833 107.166 101.04 107.285 101.185L108.474 102.608C108.922 103.14 108.87 103.945 108.347 104.401C108.032 104.678 107.608 104.77 107.229 104.675Z" fill="#CEBC94"/>
<path d="M101.148 110.105C100.895 110.041 100.662 109.898 100.487 109.686C100.407 109.593 100.261 109.472 100.096 109.346C99.8189 109.13 99.4739 108.854 99.1894 108.457C99.0751 108.291 98.9486 108.134 98.8222 107.976C98.584 107.685 98.3505 107.374 98.1267 107.024C97.915 106.667 97.7202 106.282 97.5327 105.909C97.4572 105.754 97.3817 105.598 97.2965 105.441C96.9751 104.814 97.2137 104.046 97.8194 103.716C98.4348 103.389 99.1895 103.632 99.5133 104.248C99.6058 104.419 99.6862 104.596 99.769 104.764C99.92 105.075 100.071 105.386 100.256 105.684C100.402 105.931 100.584 106.155 100.767 106.379C100.925 106.576 101.073 106.771 101.219 106.976C101.287 107.077 101.462 107.205 101.625 107.341C101.875 107.54 102.152 107.757 102.405 108.072C102.85 108.615 102.769 109.412 102.236 109.865C101.914 110.13 101.512 110.217 101.133 110.122L101.148 110.105Z" fill="#CEBC94"/>
<path d="M67.3692 87.9554C67.1654 87.904 66.9736 87.8031 66.8156 87.6479C66.7743 87.606 66.5874 87.5274 66.4661 87.4758C66.1311 87.3283 65.7038 87.1366 65.3417 86.762C65.0622 86.4712 64.8506 86.1556 64.6705 85.8794C64.5562 85.7142 64.454 85.5415 64.3252 85.3936C64.1866 85.2433 64.0263 85.0979 63.8732 84.9649C63.6351 84.758 63.3654 84.5116 63.1174 84.2183C62.8063 83.846 62.6405 83.4266 62.5137 83.1009C62.448 82.948 62.3821 82.753 62.3262 82.6865C62.2849 82.6446 62.1173 82.5289 62.0007 82.4575C61.6875 82.2631 61.2965 82.0071 60.9973 81.5854C60.6885 81.1613 60.5736 80.7023 60.4758 80.342C60.4465 80.2087 60.3903 80.0162 60.3635 79.957C60.349 79.9743 60.2008 79.8635 60.1013 79.8069C59.7686 79.6076 59.3218 79.327 59.0176 78.8412C58.6478 78.2444 58.8184 77.4588 59.4046 77.0823C59.9787 76.7132 60.7212 76.8795 61.1007 77.4368C61.1517 77.4812 61.2949 77.5698 61.3848 77.6239C61.6981 77.8183 62.1206 78.0718 62.4222 78.5255C62.6947 78.9299 62.8071 79.3569 62.8878 79.7024C62.9172 79.8357 62.9733 80.0282 63.0001 80.0874C63.0341 80.117 63.2041 80.2228 63.311 80.2917C63.6048 80.4812 63.9715 80.7101 64.2706 81.0898C64.5453 81.4423 64.6989 81.8272 64.8184 82.1406C64.8768 82.2812 64.9597 82.4909 65.0059 82.555C65.1494 82.7276 65.3291 82.8778 65.5065 83.038C65.7349 83.2425 65.9536 83.4445 66.1578 83.6638C66.3935 83.9226 66.5833 84.2013 66.739 84.4503C66.8752 84.6525 66.9944 84.84 67.1086 84.9632C67.1524 84.9952 67.3369 85.0837 67.4582 85.1353C67.7738 85.2779 68.1744 85.4524 68.5243 85.7924C69.0249 86.2754 69.0459 87.0779 68.5715 87.5875C68.2496 87.9363 67.789 88.0509 67.3619 87.9431L67.3692 87.9554Z" fill="#CEBC94"/>
<path d="M58.7055 97.559C58.3658 97.4733 58.0621 97.2393 57.8868 96.9014C57.7773 96.6744 57.6555 96.4549 57.5338 96.2354C57.378 95.9443 57.2125 95.6508 57.0713 95.3425C57.0177 95.224 56.8815 95.0638 56.7381 94.8913C56.5241 94.6275 56.2543 94.2972 56.057 93.8803C55.8475 93.4288 55.7932 92.9746 55.7489 92.6067C55.7315 92.4241 55.702 92.2068 55.6606 92.1229C55.5851 91.9675 55.4659 91.7801 55.3297 91.5779C55.1399 91.2993 54.9283 90.9836 54.7723 90.6086C54.6821 90.3866 54.558 90.177 54.4436 89.9698C54.2805 89.6664 54.1077 89.3605 53.981 89.0349C53.7153 88.3909 54.0122 87.6372 54.6543 87.3692C55.2868 87.0987 56.0272 87.4009 56.2904 88.0547C56.3879 88.2891 56.5096 88.5086 56.6289 88.738C56.7871 89.0192 56.9332 89.3078 57.0574 89.6014C57.1305 89.7667 57.2595 89.9566 57.3933 90.1687C57.5757 90.435 57.7703 90.7358 57.9311 91.0911C58.1236 91.5277 58.1802 91.9721 58.2173 92.3276C58.2371 92.5004 58.2618 92.7374 58.3056 92.8114C58.3592 92.9298 58.5026 93.1024 58.6364 93.2725C58.86 93.5387 59.1056 93.8419 59.298 94.2366C59.4295 94.5005 59.5634 94.7546 59.707 95.0111C59.8433 95.2553 59.9675 95.5069 60.1014 95.761C60.413 96.385 60.1648 97.151 59.5518 97.4684C59.2707 97.6072 58.9652 97.635 58.6934 97.5664L58.7055 97.559Z" fill="#CEBC94"/>
<path d="M49.7563 111.213C49.271 111.09 48.887 110.679 48.8204 110.148C48.781 109.844 48.6615 109.489 48.5273 109.109C48.4663 108.936 48.4151 108.766 48.3517 108.603C48.3297 108.524 48.162 108.325 48.0598 108.194C47.8459 107.93 47.5857 107.602 47.4079 107.19C47.23 106.778 47.1661 106.363 47.1169 106.015C47.0777 105.796 47.0505 105.569 46.9969 105.45C46.8216 105.07 46.7092 104.685 46.6043 104.355C46.5335 104.137 46.4725 103.923 46.3896 103.713C46.3189 103.538 46.2167 103.365 46.1218 103.205C45.9198 102.85 45.6862 102.455 45.5615 101.952C45.4075 101.357 45.3942 100.777 45.3835 100.27L45.3779 99.9124C45.3523 99.2137 45.8896 98.615 46.5759 98.5889C47.2622 98.5628 47.8502 99.1098 47.8759 99.8085L47.8815 100.209C47.892 100.631 47.8952 100.999 47.9831 101.315C48.0271 101.473 48.1512 101.682 48.2802 101.914C48.4262 102.161 48.5844 102.442 48.7112 102.767C48.8209 103.036 48.9063 103.32 48.9942 103.594C49.0723 103.866 49.1626 104.13 49.2747 104.389C49.4769 104.828 49.5432 105.275 49.5997 105.635C49.6293 105.852 49.6685 106.072 49.7124 106.188C49.7514 106.282 49.8851 106.452 50.0139 106.6C50.2668 106.915 50.5829 107.31 50.7513 107.845C50.7977 107.993 50.8465 108.131 50.9025 108.282C51.0587 108.741 51.2392 109.269 51.3179 109.834C51.4066 110.528 50.9301 111.173 50.239 111.261C50.079 111.284 49.9165 111.274 49.7709 111.237L49.7563 111.213Z" fill="#CEBC94"/>
<path d="M101.376 57.5381C101.143 57.4793 100.936 57.3538 100.756 57.1616C100.642 57.0383 100.448 56.9054 100.237 56.7577C99.9451 56.5582 99.6196 56.3293 99.3158 56.0114C99.029 55.7082 98.8198 55.3827 98.6325 55.0942C98.4914 54.8698 98.3575 54.6577 98.2239 54.5296C98.1632 54.4828 97.9398 54.3845 97.7918 54.3156C97.4276 54.1608 96.981 53.9642 96.5897 53.5822C96.2665 53.2594 96.0524 52.9117 95.8602 52.601C95.7264 52.3889 95.5999 52.1891 95.4905 52.0881C95.3812 51.9871 95.1797 51.8838 94.9611 51.7657C94.6431 51.5911 94.2789 51.3943 93.9314 51.0863C93.4188 50.6108 93.3759 49.8133 93.843 49.2913C94.3101 48.7694 95.0934 48.7258 95.6061 49.2013C95.7154 49.3023 95.9169 49.4056 96.1257 49.5212C96.4632 49.7008 96.8468 49.9025 97.187 50.2401C97.5297 50.5678 97.7584 50.9402 97.9579 51.2632C98.082 51.4729 98.2109 51.6628 98.3179 51.7736C98.3762 51.8303 98.6019 51.9188 98.75 51.9876C99.1238 52.1449 99.5899 52.3464 99.9763 52.7481C100.29 53.0684 100.506 53.4063 100.708 53.7195C100.852 53.934 100.976 54.1436 101.11 54.2718C101.224 54.395 101.418 54.5279 101.622 54.6633C101.931 54.8775 102.275 55.1114 102.584 55.4515C103.056 55.9691 103.026 56.7692 102.517 57.2493C102.195 57.5561 101.761 57.6459 101.363 57.5455L101.376 57.5381Z" fill="#CEBC94"/>
<path d="M112.667 52.3318C112.522 52.2951 112.374 52.2263 112.243 52.1302C112.068 52.0022 111.888 51.8939 111.708 51.7856C111.412 51.606 111.118 51.4164 110.849 51.2121C110.581 50.9978 110.329 50.7662 110.076 50.5346C109.916 50.3892 109.765 50.2463 109.605 50.101C109.34 49.8768 109.099 49.6378 108.861 49.3889C108.713 49.2361 108.555 49.0808 108.404 48.9379C108.244 48.7926 108.079 48.667 107.904 48.5389C107.624 48.3321 107.357 48.1178 107.107 47.8763C106.774 47.5511 106.565 47.1836 106.402 46.8802C106.307 46.7199 106.214 46.5497 106.141 46.4684C106.107 46.4388 105.94 46.3651 105.828 46.3159C105.493 46.1684 105.049 45.9619 104.684 45.5553C104.222 45.0401 104.255 44.2301 104.77 43.7624C105.276 43.2922 106.072 43.3251 106.531 43.8501C106.558 43.8673 106.726 43.9411 106.847 43.9927C107.182 44.1402 107.59 44.327 107.942 44.6991C108.239 45.0047 108.424 45.3451 108.582 45.6263C108.677 45.7866 108.777 45.9691 108.842 46.0381C109.017 46.2081 109.219 46.3534 109.408 46.5061C109.634 46.6785 109.86 46.8509 110.072 47.0406C110.266 47.2155 110.455 47.4102 110.645 47.6049C110.827 47.7872 111.007 47.9794 111.214 48.1469C111.41 48.312 111.595 48.4844 111.78 48.6569C111.981 48.8442 112.183 49.0314 112.39 49.1989C112.589 49.354 112.795 49.4796 113.011 49.6075C113.254 49.7527 113.487 49.8954 113.713 50.0678C114.274 50.4716 114.409 51.2714 114.003 51.8402C113.701 52.2779 113.172 52.4592 112.687 52.3367L112.667 52.3318Z" fill="#CEBC94"/>
<path d="M124.069 44.7302C123.913 44.691 123.765 44.6222 123.627 44.5138C123.165 44.1666 122.699 43.7971 122.249 43.4425C121.79 43.0854 121.334 42.7184 120.887 42.3539C120.43 41.9869 120.211 41.491 120.043 41.1234C119.989 41.005 119.909 40.8274 119.87 40.7756C119.809 40.7288 119.624 40.6403 119.43 40.5493C119.117 40.3969 118.729 40.215 118.371 39.9046C118.194 39.7444 117.995 39.5893 117.805 39.4366C117.538 39.2223 117.278 39.0203 117.026 38.7887C116.705 38.498 116.476 38.1676 116.279 37.8766C116.15 37.6868 116.029 37.5092 115.919 37.4082C115.827 37.322 115.647 37.2137 115.448 37.1005C115.142 36.9184 114.788 36.7241 114.465 36.4013C113.966 35.9084 113.955 35.1084 114.439 34.6012C114.923 34.094 115.709 34.0825 116.207 34.5754C116.297 34.6715 116.489 34.7723 116.688 34.8855C116.987 35.0553 117.312 35.2423 117.63 35.5429C117.932 35.8287 118.143 36.1443 118.335 36.4131C118.464 36.6029 118.593 36.7928 118.703 36.8938C118.904 37.0811 119.13 37.2535 119.346 37.4234C119.57 37.6057 119.796 37.7781 120.017 37.9702C120.102 38.0441 120.296 38.1351 120.49 38.226C120.796 38.3662 121.165 38.5432 121.508 38.8289C121.935 39.1886 122.15 39.6622 122.318 40.0298C122.371 40.1482 122.452 40.3258 122.491 40.3776C122.896 40.7003 123.346 41.0549 123.785 41.4071C124.225 41.7593 124.677 42.1041 125.129 42.4489C125.685 42.8724 125.801 43.6673 125.385 44.2336C125.075 44.659 124.559 44.8329 124.083 44.7129L124.069 44.7302Z" fill="#CEBC94"/>
<path d="M168.728 89.9743C168.912 89.8109 169.262 89.8991 169.451 89.7579C169.64 89.6168 169.821 89.5053 170.017 89.3765C170.223 89.2502 170.093 88.5566 170.297 88.4401C170.51 88.3261 170.701 88.1331 170.919 88.0412C171.14 87.9396 171.36 87.7959 171.586 87.7164C171.811 87.6369 172.019 87.4167 172.242 87.3471C172.475 87.28 172.815 87.6176 173.055 87.5628C173.286 87.5055 173.442 86.9471 173.68 86.9022C173.915 86.8671 174.229 87.3134 174.471 87.2907C174.704 87.2655 174.926 86.9441 175.166 86.9312C175.407 86.9184 175.659 86.9401 175.897 86.9371C176.134 86.9342 176.361 87.7362 176.597 87.7431C176.832 87.7501 177.064 87.599 177.307 87.6182C177.54 87.635 177.782 87.5284 178.022 87.5575C178.263 87.5866 178.514 87.4404 178.755 87.4696C178.992 87.5086 179.254 87.3648 179.492 87.4038C179.73 87.4429 179.818 88.2205 180.054 88.2694C180.287 88.3282 180.678 87.6088 180.911 87.6676C181.144 87.7264 181.288 88.1508 181.521 88.2096C181.754 88.2684 182.093 87.9343 182.323 88.003C182.556 88.0618 182.823 88.0242 183.051 88.1027C183.282 88.1714 183.271 89.0184 183.49 89.0945C183.718 89.173 184.115 88.7278 184.343 88.8063C184.571 88.8849 184.775 89.0202 185.001 89.1087C185.227 89.1971 185.279 89.7452 185.495 89.8312C185.72 89.9196 186.291 89.0986 186.514 89.1969C186.74 89.2854 186.761 89.8779 186.986 89.9664C187.21 90.0647 187.542 89.8862 187.765 89.9845C187.988 90.0828 188.289 89.9909 188.512 90.0892C188.736 90.1875 188.785 90.6615 189.008 90.7598C189.232 90.8581 189.315 91.2357 189.536 91.3439C189.747 91.4497 190.002 91.4615 190.213 91.5672C190.434 91.6754 190.536 92.016 190.748 92.1217C190.969 92.2299 191.402 91.8883 191.613 91.994C191.832 92.1121 191.748 92.7938 191.959 92.8995C192.178 93.0176 192.609 92.6858 192.815 92.8114C193.024 92.927 193.482 92.6124 193.679 92.7355C193.885 92.861 194 93.1521 194.206 93.2777C194.412 93.4032 194.737 93.3383 194.934 93.4614C195.14 93.5869 195.074 94.1574 195.27 94.2805C195.474 94.4159 195.896 94.2076 196.088 94.3504C196.292 94.4858 196.099 95.1924 196.291 95.3352C196.493 95.4805 196.568 95.7618 196.758 95.9145C196.95 96.0574 197.342 95.9257 197.532 96.0784C197.721 96.2311 197.974 96.2948 198.163 96.4475C198.353 96.6002 198.702 96.5624 198.879 96.7226C199.057 96.8827 198.873 97.4658 199.051 97.626C199.228 97.7861 199.786 97.5282 199.963 97.6883C200.138 97.8583 200.037 98.3154 200.202 98.4829C200.377 98.6529 200.269 99.0976 200.444 99.2677C200.609 99.4352 201.428 98.9496 201.603 99.1196C201.768 99.2872 201.454 99.9422 201.619 100.11C201.782 100.287 202.39 100.032 202.556 100.199C202.719 100.377 202.373 101.034 202.536 101.212C202.699 101.389 203.334 101.109 203.496 101.286C203.659 101.464 203.822 101.641 203.985 101.819C204.148 101.996 204.003 102.463 204.166 102.64C204.329 102.818 204.816 102.679 204.979 102.856C205.142 103.034 204.973 103.515 205.136 103.693C205.299 103.87 205.462 104.048 205.625 104.225C205.787 104.403 205.669 104.845 205.842 105.025C206.007 105.192 206.197 105.345 206.362 105.513C206.527 105.68 207.302 105.247 207.475 105.426C207.64 105.594 207.406 106.175 207.571 106.342C207.737 106.51 208.006 106.588 208.181 106.758C208.346 106.926 208.318 107.296 208.49 107.476C208.656 107.644 209.37 107.247 209.545 107.417C209.72 107.587 209.23 108.46 209.405 108.63C209.58 108.8 210.403 108.295 210.576 108.475C210.739 108.652 210.548 109.181 210.718 109.371C210.881 109.548 210.809 109.928 210.967 110.126C211.128 110.313 211.821 110.047 211.979 110.245C212.127 110.439 211.748 111.067 211.896 111.262C212.044 111.457 212.258 111.595 212.406 111.789C212.555 111.984 212.943 111.998 213.091 112.193C213.239 112.388 213.727 112.332 213.873 112.537C214.009 112.739 213.491 113.427 213.627 113.629C213.764 113.831 213.876 114.048 214.022 114.253C214.158 114.455 214.129 114.784 214.266 114.986C214.411 115.191 215.051 115.016 215.197 115.221C215.343 115.426 215.848 115.343 215.994 115.548C216.139 115.752 215.987 116.165 216.133 116.37C216.282 116.565 215.905 117.183 216.053 117.377C216.201 117.572 217.018 117.222 217.176 117.42C217.334 117.617 217.553 117.735 217.711 117.932C217.871 118.119 217.506 118.772 217.669 118.949C217.829 119.137 218.527 118.809 218.7 118.989C218.872 119.169 218.929 119.446 219.104 119.616C219.279 119.786 218.989 120.468 219.176 120.63C219.361 120.803 219.56 120.958 219.747 121.121C219.934 121.283 220.469 120.988 220.669 121.143C220.87 121.289 220.726 121.924 220.928 122.069C221.132 122.204 221.652 121.843 221.859 121.968C222.065 122.094 222.31 122.145 222.529 122.263C222.747 122.381 222.755 122.897 222.976 123.005C223.197 123.114 223.406 123.271 223.63 123.37C223.853 123.468 224.163 123.378 224.389 123.467C224.615 123.555 225.024 123.144 225.249 123.233C225.475 123.321 225.448 124.154 225.676 124.232C225.904 124.311 226.166 124.335 226.396 124.403C226.627 124.472 226.87 124.533 227.11 124.604C227.343 124.663 227.537 124.922 227.78 124.983C228.013 125.042 228.412 124.461 228.645 124.52C228.878 124.579 229.073 124.837 229.308 124.886C229.541 124.945 229.711 125.345 229.956 125.396C230.192 125.445 230.559 124.867 230.797 124.906C231.032 124.954 231.203 125.438 231.441 125.477C231.679 125.516 231.897 125.76 232.135 125.799C232.373 125.838 232.728 125.225 232.966 125.264C233.204 125.303 233.466 125.243 233.703 125.282C233.941 125.321 234.045 126.292 234.292 126.333C234.53 126.372 234.849 125.907 235.087 125.946C235.325 125.985 235.608 125.794 235.846 125.834C236.084 125.873 236.279 126.257 236.516 126.296C236.764 126.338 237.033 126.206 237.271 126.245C237.508 126.284 237.782 126.175 238.02 126.214C238.267 126.256 238.445 126.626 238.681 126.675C238.916 126.724 239.352 126.54 239.578 126.586C239.481 126.814 239.043 127.049 238.946 127.277C238.85 127.504 239.442 128.031 239.346 128.259C239.249 128.486 238.162 128.254 238.058 128.469C237.962 128.696 238.256 129.095 238.15 129.32C238.046 129.535 238.161 129.869 238.057 130.084C237.953 130.299 237.774 130.484 237.658 130.707C237.554 130.922 237.275 131.051 237.159 131.273C237.046 131.486 236.876 131.674 236.763 131.886C236.649 132.099 236.662 132.385 236.548 132.598C236.435 132.81 236.855 133.326 236.742 133.538C236.628 133.751 236.223 133.806 236.1 134.016C235.986 134.229 235.863 134.439 235.74 134.649C235.617 134.859 235.187 134.887 235.064 135.097C234.941 135.308 234.657 135.414 234.534 135.624C234.411 135.835 234.467 136.153 234.344 136.363C234.221 136.573 234.16 136.82 234.037 137.03C233.914 137.241 234.14 137.665 234.017 137.875C233.894 138.085 233.003 137.808 232.87 138.016C232.737 138.223 233.16 138.771 233.027 138.978C232.894 139.186 232.744 139.379 232.614 139.577C232.481 139.784 231.949 139.724 231.816 139.932C231.683 140.139 232.318 140.834 232.195 141.044C232.062 141.252 231.246 141.004 231.113 141.212C230.98 141.42 231.054 141.753 230.93 141.963C230.807 142.173 230.808 142.467 230.677 142.665C230.544 142.873 230.608 143.203 230.477 143.401C230.344 143.609 230.204 143.804 230.071 144.012C229.938 144.22 229.399 144.147 229.266 144.354C229.133 144.562 229.1 144.826 228.967 145.034C228.834 145.242 228.898 145.572 228.767 145.77C228.634 145.978 228.324 146.067 228.203 146.268C228.07 146.475 227.867 146.634 227.736 146.832C227.603 147.039 227.473 147.237 227.34 147.445C227.207 147.653 227.44 148.089 227.317 148.299C227.194 148.509 227.151 148.771 227.027 148.981C226.904 149.192 226.871 149.456 226.747 149.666C226.624 149.876 225.714 149.594 225.591 149.804C225.467 150.014 225.764 150.488 225.643 150.688C225.52 150.898 225.479 151.15 225.356 151.36C225.233 151.57 224.98 151.507 224.857 151.717C224.731 151.517 224.27 151.716 224.146 151.506C224.022 151.296 224.668 150.631 224.547 150.411C224.432 150.204 223.472 150.465 223.36 150.248C223.248 150.031 223.48 149.628 223.368 149.411C223.256 149.194 223.59 148.754 223.478 148.537C223.376 148.322 223.215 148.135 223.106 147.908C223.004 147.693 223.008 147.422 222.908 147.197C222.808 146.973 222.161 147.009 222.061 146.784C221.961 146.56 221.684 146.427 221.584 146.202C221.484 145.978 221.685 145.619 221.585 145.395C221.485 145.17 221.628 144.839 221.528 144.615C221.428 144.39 220.979 144.329 220.879 144.105C220.779 143.88 220.41 143.787 220.31 143.563C220.211 143.338 220.784 142.801 220.684 142.577C220.585 142.352 220.451 142.14 220.339 141.923C220.239 141.699 220.292 141.397 220.192 141.173C220.092 140.948 219.369 141.039 219.26 140.812C219.148 140.595 219.307 140.236 219.207 140.012C219.095 139.795 218.889 139.627 218.767 139.408C218.655 139.191 218.495 139.003 218.373 138.784C218.251 138.564 218.415 138.186 218.291 137.976C218.167 137.767 217.607 137.825 217.48 137.625C217.347 137.413 217.106 137.3 216.97 137.098C216.834 136.895 216.695 136.703 216.557 136.511C216.408 136.316 216.819 135.686 216.671 135.491C216.523 135.296 216.461 134.997 216.299 134.82C216.138 134.633 215.573 134.836 215.401 134.656C215.226 134.486 215.351 133.972 215.174 133.812C214.987 133.65 214.63 133.675 214.438 133.532C214.237 133.387 214.035 133.242 213.826 133.126C213.62 133.001 213.346 132.984 213.132 132.888C212.911 132.78 212.579 133 212.354 132.912C212.128 132.823 212.131 132.048 211.901 131.979C211.67 131.911 211.201 132.736 210.968 132.678C210.735 132.619 210.493 132.684 210.257 132.635C210.022 132.586 209.885 132.09 209.648 132.051C209.41 132.012 209.158 132.074 208.92 132.035C208.682 131.996 208.425 132.162 208.188 132.123C207.95 132.084 207.698 132.146 207.458 132.117C207.217 132.088 207.08 131.34 206.842 131.301C206.605 131.262 206.29 131.707 206.055 131.658C205.817 131.619 205.546 131.718 205.31 131.669C205.077 131.611 204.984 130.895 204.751 130.836C204.518 130.777 204.114 131.336 203.883 131.267C203.653 131.199 203.345 131.278 203.119 131.19C202.893 131.102 202.936 130.336 202.715 130.228C202.491 130.129 202.365 129.888 202.156 129.772C201.947 129.656 201.54 129.889 201.341 129.776C201.123 129.658 201.01 129.357 200.802 129.242C200.583 129.123 200.473 128.813 200.264 128.697C200.046 128.579 199.719 128.696 199.508 128.59C199.289 128.472 199.22 128.077 199.009 127.971C198.788 127.863 198.188 128.551 197.977 128.445C197.756 128.337 197.917 127.465 197.705 127.359C197.485 127.251 196.894 127.941 196.69 127.847C196.469 127.739 196.673 126.731 196.462 126.626C196.241 126.517 195.583 127.4 195.37 127.304C195.146 127.206 194.981 126.997 194.767 126.901C194.544 126.802 194.567 126.158 194.353 126.062C194.13 125.964 193.808 126.103 193.594 126.007C193.371 125.908 193.396 125.212 193.183 125.116C192.959 125.018 192.548 125.397 192.334 125.301C192.111 125.202 191.851 125.21 191.635 125.124C191.409 125.036 191.394 124.424 191.178 124.338C190.952 124.249 190.478 124.801 190.262 124.715C190.046 124.629 189.817 124.55 189.592 124.462C189.376 124.376 189.432 123.593 189.216 123.507C189.003 123.411 188.396 124.254 188.182 124.159C187.968 124.063 187.859 123.71 187.635 123.611C187.422 123.516 187.44 122.891 187.216 122.793C187.003 122.697 186.765 122.658 186.554 122.552C186.34 122.456 185.82 123.028 185.597 122.929C185.385 122.823 185.218 122.624 184.997 122.516C184.785 122.41 184.492 122.472 184.274 122.354C184.062 122.248 183.878 122.076 183.667 121.97C183.455 121.864 183.575 121.118 183.354 121.01C183.145 120.895 182.893 120.873 182.684 120.757C182.475 120.642 182.462 120.187 182.244 120.069C182.035 119.954 181.732 120.014 181.526 119.888C181.317 119.772 181.135 119.632 180.919 119.504C180.719 119.391 180.264 119.696 180.058 119.57C179.861 119.447 179.618 119.386 179.412 119.26C179.215 119.137 179.342 118.445 179.136 118.32C178.939 118.197 178.682 118.153 178.478 118.018C178.281 117.895 177.773 118.249 177.576 118.126C177.379 118.003 177.231 117.766 177.027 117.63C176.833 117.498 176.479 117.597 176.275 117.462C176.08 117.329 176.024 116.968 175.822 116.823C175.628 116.69 175.344 116.671 175.155 116.518C174.973 116.378 174.73 116.275 174.54 116.122C174.361 115.972 174.333 115.619 174.156 115.458C173.979 115.298 173.675 115.274 173.498 115.114C173.321 114.954 173.632 114.267 173.457 114.097C173.292 113.929 172.727 114.175 172.555 113.995C172.389 113.827 172.498 113.383 172.335 113.205C172.172 113.028 171.951 112.92 171.788 112.742C171.625 112.565 170.964 112.828 170.811 112.653C170.66 112.468 170.981 111.867 170.831 111.682C170.68 111.497 170.633 111.223 170.495 111.031C170.346 110.836 169.827 110.936 169.689 110.744C169.55 110.552 169.918 109.973 169.781 109.771C169.643 109.578 169.303 109.535 169.167 109.333C169.031 109.13 168.437 109.243 168.31 109.043C168.184 108.843 168.772 108.163 168.645 107.963C168.521 107.754 167.619 108.029 167.495 107.82C167.371 107.61 167.906 107.021 167.782 106.812C167.667 106.605 167.306 106.524 167.192 106.317C167.08 106.1 166.497 106.121 166.395 105.906C166.293 105.691 166.92 105.105 166.827 104.893C166.727 104.668 166.749 104.411 166.659 104.189C166.568 103.967 165.691 104.06 165.61 103.841C165.522 103.609 165.582 103.32 165.504 103.09C165.426 102.861 165.92 102.44 165.852 102.213C165.786 101.976 165.681 101.771 165.615 101.534C165.549 101.298 165.304 101.12 165.248 100.886C165.191 100.651 164.595 100.522 164.55 100.28C164.506 100.038 165.085 99.691 165.051 99.4515C165.016 99.2121 164.444 99.0256 164.419 98.7886C164.397 98.5417 165.063 98.2588 165.06 98.0168C165.057 97.7749 164.754 97.5409 164.76 97.3014C164.767 97.0618 164.937 96.8318 164.965 96.5873C164.984 96.3404 165.166 96.1449 165.214 95.9053C165.252 95.6632 164.846 95.3406 164.904 95.1034C164.962 94.8662 165.566 94.7983 165.64 94.5759C165.717 94.3437 165.812 94.1682 165.908 93.9408C166.002 93.7233 165.305 93.1173 165.409 92.9022C165.523 92.6897 165.876 92.5902 166.009 92.3825C166.13 92.1822 166.7 92.2946 166.85 92.1017C166.991 91.9063 167.097 91.7234 167.254 91.5428C167.412 91.3622 167.119 90.743 167.294 90.5772C167.458 90.409 168.155 90.8471 168.347 90.6961C168.528 90.5426 168.525 90.1747 168.724 90.036L168.728 89.9743Z" fill="#EBBE8C"/>
<path d="M186.468 106.146C186.294 106.312 186.464 106.754 186.28 106.917C186.096 107.08 185.545 106.847 185.381 107.015C185.216 107.183 185.212 107.539 185.047 107.707C184.88 107.885 185.049 108.379 184.891 108.559C184.724 108.738 184.628 108.965 184.471 109.146C184.313 109.326 184.056 109.408 183.899 109.589C183.742 109.769 183.686 110.039 183.539 110.222C183.382 110.402 182.882 110.297 182.734 110.48C182.587 110.663 182.867 111.206 182.717 111.399C182.567 111.592 181.744 111.248 181.603 111.443C181.463 111.638 181.226 111.767 181.085 111.963C180.945 112.158 180.89 112.427 180.759 112.625C180.619 112.82 181.033 113.407 180.9 113.615C180.767 113.823 180.364 113.826 180.231 114.034C180.098 114.241 179.904 114.402 179.774 114.6C179.641 114.808 179.537 115.023 179.414 115.233C179.29 115.443 179.167 115.653 179.053 115.866C178.93 116.076 178.581 116.156 178.468 116.368C178.354 116.581 178.911 117.172 178.797 117.385C178.683 117.597 177.905 117.453 177.801 117.668C177.697 117.883 177.994 118.315 177.88 118.528C177.776 118.743 177.561 118.908 177.457 119.123C177.353 119.339 177.543 119.701 177.449 119.919C177.354 120.136 176.721 120.113 176.625 120.34C176.528 120.567 176.881 120.982 176.787 121.199C176.692 121.417 176.465 121.59 176.38 121.81C176.296 122.03 175.945 122.161 175.867 122.394C175.781 122.623 175.609 122.821 175.534 123.044C175.457 123.276 175.275 123.471 175.198 123.704C175.121 123.936 175.063 124.173 174.986 124.405C174.909 124.638 175.645 125.128 175.58 125.352C175.512 125.587 174.591 125.564 174.526 125.789C174.468 126.026 174.844 126.384 174.777 126.618C174.719 126.855 174.623 127.083 174.567 127.31C174.51 127.547 174.161 127.711 174.103 127.948C174.045 128.185 173.988 128.423 173.93 128.66C173.872 128.897 173.618 129.095 173.57 129.335C173.522 129.574 173.571 129.838 173.523 130.078C173.484 130.32 174.07 130.667 174.031 130.909C173.993 131.151 173.957 131.383 173.919 131.625C173.88 131.867 173.764 132.09 173.736 132.334C173.707 132.579 173.751 132.821 173.732 133.068C173.704 133.312 173.779 133.552 173.751 133.796C173.732 134.043 173.546 134.258 173.527 134.505C173.51 134.742 173.462 134.982 173.453 135.231C173.436 135.468 173.612 135.722 173.595 135.96C173.588 136.199 173.48 136.434 173.482 136.676C173.476 136.915 173.139 137.156 173.142 137.398C173.145 137.64 172.951 137.884 172.952 138.136C172.955 138.378 173.101 138.625 173.104 138.867C173.106 139.109 173.265 139.348 173.277 139.593C173.29 139.837 173.576 140.056 173.589 140.301C173.602 140.545 173.394 140.807 173.409 141.042C173.421 141.286 172.973 141.561 172.986 141.806C172.998 142.05 173.768 142.234 173.78 142.478C173.802 142.725 173.131 143.028 173.146 143.262C173.169 143.509 173.193 143.746 173.216 143.993C173.238 144.24 173.251 144.484 173.275 144.721C173.298 144.968 173.914 145.145 173.936 145.392C173.959 145.638 174.141 145.863 174.166 146.1C174.19 146.337 174.276 146.579 174.31 146.818C174.335 147.055 173.921 147.36 173.955 147.599C173.99 147.838 174.589 148 174.621 148.25C174.655 148.489 174.445 148.761 174.479 149C174.514 149.24 174.517 149.482 174.551 149.721C174.586 149.961 174.479 150.228 174.514 150.467C174.548 150.707 174.896 150.889 174.94 151.131C174.984 151.372 175.084 151.597 175.13 151.829C175.177 152.061 174.397 152.472 174.441 152.714C174.485 152.956 175.171 153.056 175.228 153.291C175.284 153.525 175.154 153.807 175.2 154.039C175.256 154.273 175.73 154.403 175.786 154.638C175.842 154.872 175.845 155.114 175.911 155.351C175.967 155.585 175.126 156.076 175.195 156.303C175.261 156.54 175.504 156.727 175.572 156.954C175.638 157.191 175.537 157.48 175.603 157.717C175.671 157.944 176.307 158 176.385 158.229C176.463 158.459 176.112 158.842 176.18 159.069C176.258 159.299 176.198 159.588 176.288 159.81C176.366 160.039 176.418 160.293 176.508 160.516C176.596 160.747 177.253 160.756 177.343 160.978C177.441 161.212 177.529 161.444 177.628 161.669C177.726 161.903 177.605 162.229 177.695 162.451C177.793 162.686 177.856 162.933 177.956 163.157C178.054 163.392 178.083 163.651 178.193 163.878C178.303 164.105 179.161 163.965 179.263 164.179C179.373 164.406 178.896 164.926 179.008 165.143C179.118 165.37 178.874 165.78 178.995 166C179.117 166.219 179.99 166.02 180.104 166.227C180.226 166.446 180.386 166.634 180.51 166.843C180.632 167.063 180.771 167.255 180.895 167.465C181.019 167.675 180.53 168.285 180.664 168.498C180.798 168.71 181.28 168.674 181.417 168.876C181.553 169.078 181.377 169.506 181.513 169.708C181.649 169.91 181.945 170.006 182.091 170.211C182.23 170.403 182.78 170.301 182.928 170.495C183.077 170.69 182.973 171.073 183.122 171.268C183.27 171.463 183.394 171.672 183.542 171.867C183.691 172.062 183.8 172.289 183.961 172.476C184.109 172.671 183.923 173.138 184.081 173.335C184.232 173.52 184.327 173.764 184.485 173.962C184.636 174.147 185.496 173.745 185.654 173.942C185.805 174.127 185.362 174.844 185.52 175.041C185.54 175.046 185.983 174.539 186.11 174.099C186.168 173.904 186.563 173.762 186.64 173.488C186.693 173.271 186.309 172.901 186.381 172.647C186.437 172.419 187.062 172.346 187.132 172.102C187.188 171.874 186.265 171.348 186.335 171.103C186.39 170.876 186.778 170.722 186.845 170.487C186.903 170.25 186.893 169.996 186.963 169.751C187.02 169.514 187.25 169.331 187.32 169.086C187.378 168.849 187.802 168.715 187.87 168.48C187.927 168.243 188.303 168.097 188.361 167.859C188.419 167.622 188.093 167.267 188.151 167.03C188.208 166.793 188.026 166.485 188.096 166.24C188.153 166.003 188 165.702 188.07 165.457C188.128 165.22 189.023 165.226 189.09 164.991C189.148 164.754 189.227 164.512 189.292 164.287C189.352 164.04 189.007 163.68 189.072 163.455C189.142 163.211 188.673 162.809 188.738 162.584C188.808 162.34 189.145 162.183 189.21 161.959C189.28 161.714 189.292 161.455 189.357 161.23C189.429 160.975 189.516 160.746 189.578 160.531C189.66 160.279 189.626 159.997 189.696 159.795C189.773 159.562 190.615 159.575 190.692 159.343C190.769 159.111 190.399 158.724 190.477 158.492C190.554 158.259 190.395 157.936 190.473 157.704C190.55 157.472 190.848 157.306 190.915 157.071C190.992 156.839 190.834 156.515 190.911 156.283C190.988 156.051 191.667 156.012 191.744 155.78C191.822 155.548 192.146 155.399 192.226 155.157C192.303 154.925 192.315 154.665 192.392 154.433C192.469 154.201 192.311 153.878 192.388 153.645C192.465 153.413 191.906 152.957 191.983 152.725C192.061 152.493 193.021 152.568 193.098 152.335C193.175 152.103 192.456 151.586 192.543 151.356C192.621 151.124 193.591 151.201 193.668 150.969C193.745 150.736 193.747 150.475 193.834 150.245C193.911 150.012 193.685 149.672 193.772 149.442C193.849 149.21 193.596 148.853 193.683 148.623C193.77 148.393 193.922 148.19 194.009 147.96C194.096 147.73 194.173 147.498 194.26 147.268C194.347 147.039 194.613 146.875 194.69 146.643C194.777 146.413 194.694 146.119 194.783 145.88C194.87 145.65 195.09 145.464 195.177 145.234C195.264 145.004 195.812 144.954 195.899 144.724C195.986 144.494 195.136 143.881 195.223 143.651C195.31 143.422 196.389 143.6 196.476 143.37C196.563 143.14 196.565 142.878 196.652 142.648C196.748 142.421 196.442 142.029 196.538 141.802C196.635 141.574 196.508 141.249 196.593 141.029C196.689 140.801 197.223 140.768 197.319 140.541C197.416 140.313 197.585 140.125 197.682 139.898C197.778 139.671 197.372 139.222 197.469 138.995C197.566 138.767 197.55 138.491 197.647 138.263C197.753 138.038 198.549 138.155 198.655 137.93C198.762 137.705 198.754 137.441 198.86 137.216C198.966 136.991 198.602 136.543 198.706 136.328C198.812 136.103 198.853 135.851 198.956 135.636C199.06 135.421 199.358 135.297 199.474 135.074C199.578 134.859 199.83 134.713 199.946 134.49C200.06 134.278 200.375 134.169 200.488 133.956C200.602 133.743 200.108 133.189 200.222 132.976C200.336 132.764 200.279 132.445 200.393 132.233C200.506 132.02 201.2 132.132 201.323 131.922C201.437 131.709 201.407 131.408 201.531 131.198C201.654 130.988 202.173 131.014 202.296 130.804C202.419 130.594 202.56 130.398 202.683 130.188C202.806 129.978 202.677 129.62 202.81 129.413C202.933 129.203 203.314 129.162 203.437 128.952C203.561 128.742 203.077 128.148 203.21 127.94C203.343 127.733 203.787 127.729 203.917 127.531C204.05 127.324 203.799 126.872 203.932 126.665C204.065 126.457 204.038 126.146 204.171 125.938C204.304 125.73 204.799 125.771 204.932 125.564C205.062 125.366 205.161 125.129 205.304 124.923C205.435 124.726 205.262 124.294 205.402 124.098C205.542 123.903 206.324 124.163 206.466 123.958C206.607 123.763 206.66 123.503 206.802 123.298C206.942 123.103 207.1 122.922 207.242 122.717C207.383 122.521 207.829 122.55 207.969 122.355C208.11 122.159 208.024 121.792 208.164 121.596C208.305 121.401 208.047 120.895 208.189 120.69C208.329 120.495 208.584 120.381 208.736 120.178C208.886 119.985 208.932 119.713 209.084 119.51C209.234 119.317 209.263 119.031 209.413 118.838C209.563 118.645 209.773 118.499 209.923 118.306C210.073 118.113 210.853 118.425 211.003 118.232C211.153 118.039 211.303 117.846 211.462 117.656C211.612 117.463 211.07 116.686 211.23 116.496C211.38 116.303 211.554 116.137 211.704 115.944C211.854 115.751 212.157 115.691 212.307 115.499C212.457 115.306 212.658 115.157 212.805 114.974C212.955 114.781 213.164 114.645 213.323 114.454C213.473 114.262 213.451 113.931 213.601 113.738C213.751 113.545 213.823 113.29 213.973 113.097C214.123 112.905 214.579 112.978 214.739 112.787C214.889 112.594 215.012 112.384 215.162 112.191C215.312 111.998 215.897 112.177 216.057 111.987C216.207 111.794 215.749 111.091 215.899 110.898C216.049 110.705 216.462 110.747 216.621 110.556C216.781 110.366 216.579 109.884 216.729 109.692C216.889 109.501 217.461 109.688 217.621 109.497C217.778 109.317 217.979 109.168 218.129 108.975C218.287 108.795 218.242 108.427 218.39 108.244C218.547 108.063 218.918 108.062 219.068 107.869C219.225 107.689 219.434 107.553 219.593 107.362C219.751 107.182 219.578 106.708 219.735 106.527C219.892 106.347 219.763 105.905 219.93 105.727C220.087 105.546 220.524 105.614 220.683 105.424C220.841 105.243 221.008 105.065 221.165 104.885C221.322 104.704 221.667 104.686 221.824 104.506C221.981 104.325 222.09 104.09 222.247 103.91C222.405 103.729 222.244 103.248 222.401 103.067C222.558 102.887 223.128 103.083 223.286 102.902C223.443 102.722 223.768 102.699 223.935 102.521C224.092 102.34 224.267 102.174 224.434 101.996C224.601 101.818 224.615 101.507 224.772 101.326C224.939 101.148 225.247 101.111 225.402 100.94C225.569 100.762 225.14 100.024 225.307 99.8462C225.474 99.6681 225.615 99.4727 225.782 99.2946C225.949 99.1165 226.315 99.1355 226.479 98.9672C226.646 98.7891 226.736 98.5494 226.912 98.3737C227.077 98.2055 227.584 98.3649 227.751 98.1868C227.916 98.0185 227.58 97.3254 227.744 97.1571C227.909 96.9889 228.769 97.5205 228.936 97.3423C229.1 97.1741 229.126 96.8555 229.303 96.6798C229.467 96.5116 229.372 96.0574 229.546 95.8916C229.721 95.7258 229.929 95.5896 230.093 95.4213C230.268 95.2555 230.279 94.9123 230.444 94.744C230.618 94.5782 230.948 94.5775 231.122 94.4117C231.297 94.2459 231.471 94.0801 231.645 93.9143C231.819 93.7485 231.879 93.4595 232.054 93.2937C232.228 93.1279 232.816 93.423 232.987 93.2671C233.162 93.1013 232.77 92.2996 232.942 92.1437C233.116 91.9779 233.662 92.2311 233.836 92.0653C234.011 91.8995 233.862 91.3689 234.046 91.2055C234.22 91.0397 234.941 91.5049 235.116 91.3391C235.297 91.1857 235.214 90.7241 235.398 90.5607C235.579 90.4073 236.075 90.6161 236.256 90.4627C236.438 90.3092 236.644 90.1829 236.828 90.0195C237.009 89.866 237.096 89.5942 237.278 89.4408C237.459 89.2873 237.15 88.5274 237.331 88.3739C237.513 88.2205 237.925 88.3455 238.107 88.1921C238.289 88.0386 238.298 87.6633 238.489 87.5122C238.671 87.3588 238.918 87.2743 239.099 87.1208C239.281 86.9674 239.677 87.0777 239.861 86.9143C240.042 86.7609 240.17 86.5309 240.362 86.3799C240.553 86.2289 240.649 85.9596 240.831 85.8061C241.022 85.6551 241.087 85.3463 241.266 85.2027C241.458 85.0517 241.586 84.8218 241.775 84.6806C241.966 84.5296 242.413 84.7262 242.604 84.5752C242.795 84.4242 242.899 84.1672 243.09 84.0162C243.282 83.8651 243.41 83.6352 243.598 83.4941C243.79 83.3431 244.382 83.7443 244.574 83.5933C244.763 83.4522 244.844 83.1582 245.036 83.0072C245.225 82.866 245.445 82.7643 245.646 82.6158C245.835 82.4746 245.987 82.2718 246.188 82.1233C246.377 81.9821 246.537 81.7917 246.738 81.6431C246.937 81.5044 247.267 81.5457 247.458 81.3947C247.659 81.2461 247.757 80.799 247.958 80.6504C247.754 80.515 247.507 80.2636 247.3 80.1381C247.094 80.0126 246.781 80.0701 246.572 79.9544C246.366 79.8289 245.99 80.0174 245.781 79.9017C245.573 79.7861 245.316 79.7842 245.107 79.6685C244.898 79.5529 244.87 79.0739 244.659 78.9682C244.448 78.8624 244.198 78.8309 243.975 78.7325C243.751 78.6342 243.487 78.6619 243.264 78.5636C243.04 78.4653 242.877 78.2459 242.664 78.15C242.438 78.0616 242.348 77.6297 242.119 77.5511C241.894 77.4627 241.557 77.7029 241.329 77.6243C241.101 77.5458 241.085 76.8075 240.866 76.7314C240.638 76.6529 240.333 76.8066 240.102 76.7379C239.872 76.6692 239.48 77.1787 239.249 77.1101C239.016 77.0513 238.776 77.0641 238.543 77.0053C238.31 76.9465 238.267 76.0651 238.034 76.0063C237.801 75.9475 237.547 75.9357 237.311 75.8868C237.078 75.828 236.761 76.1991 236.524 76.16C236.286 76.121 236.015 76.3043 235.777 76.2653C235.539 76.2263 235.33 76.0267 235.092 75.9877C234.852 75.9585 234.619 75.8997 234.389 75.8731C234.149 75.8439 233.911 75.8889 233.671 75.8597C233.428 75.8405 233.205 75.6582 232.972 75.6414C232.729 75.6221 232.464 76.1215 232.231 76.1047C231.998 76.0879 231.802 75.0314 231.557 75.022C231.321 75.0151 231.054 76.0281 230.809 76.0187C230.574 76.0118 230.343 75.8172 230.096 75.8177C229.858 75.8206 229.621 75.8656 229.383 75.8685C229.145 75.8715 228.902 75.6843 228.665 75.6873C228.425 75.7001 228.169 75.3945 227.929 75.4073C227.689 75.4201 227.462 75.6354 227.219 75.6582C226.979 75.671 226.716 75.395 226.474 75.4177C226.231 75.4404 226.021 75.7125 225.779 75.7352C225.546 75.7604 225.306 75.8572 225.073 75.8823C224.838 75.9174 224.647 76.2783 224.402 76.3109C224.167 76.3459 223.838 75.7071 223.593 75.7397C223.358 75.7747 223.108 75.7431 222.871 75.7881C222.633 75.833 222.403 75.9323 222.165 75.9772C221.928 76.0221 221.712 76.146 221.472 76.2009C221.234 76.2458 220.97 76.1476 220.732 76.1925C220.504 76.2399 220.33 76.6156 220.1 76.6728C219.87 76.7301 219.696 77.0638 219.466 77.1211C219.235 77.1784 219.042 77.3812 218.811 77.4385C218.581 77.4958 218.361 77.5975 218.128 77.6646C217.895 77.7318 217.648 77.6903 217.415 77.7574C217.182 77.8246 216.976 77.9509 216.741 78.028C216.509 78.0951 216.278 78.1524 216.053 78.2319C215.818 78.3089 215.414 77.8085 215.179 77.8855C214.944 77.9625 214.77 78.2123 214.544 78.2918C214.319 78.3712 213.93 78.0214 213.695 78.0984C213.467 78.1878 213.249 78.3216 213.022 78.4109C212.794 78.5003 212.817 79.2509 212.599 79.3427C212.371 79.4321 212.092 79.3932 211.874 79.485C211.654 79.5867 211.501 79.8314 211.271 79.9307C211.051 80.0324 210.932 80.3487 210.712 80.4504C210.491 80.5521 210.273 80.6439 210.05 80.7555C209.827 80.867 209.417 80.5642 209.196 80.6659C208.983 80.7799 208.573 80.519 208.357 80.6429C208.144 80.7569 207.992 81.0017 207.776 81.1256C207.56 81.2495 207.384 81.4252 207.178 81.5515C206.972 81.6779 206.786 81.8511 206.57 81.975C206.364 82.1014 206.472 82.758 206.276 82.8868C206.07 83.0132 205.752 82.9644 205.553 83.1031C205.355 83.2418 205.037 83.1931 204.829 83.3293C204.63 83.468 204.174 83.2269 203.973 83.3755C203.774 83.5142 203.909 84.1461 203.71 84.2847C203.509 84.4333 203.041 84.1997 202.852 84.3408C202.66 84.4919 202.834 85.1335 202.643 85.2845C202.451 85.4356 202.206 85.5101 202.015 85.6611C201.824 85.8122 201.8 86.1629 201.607 86.3238C201.425 86.4772 200.667 85.9504 200.476 86.1014C200.292 86.2647 200.283 86.6401 200.101 86.7935C199.92 86.947 199.952 87.3643 199.768 87.5276C199.584 87.691 199.133 87.5561 198.956 87.7318C198.782 87.8976 198.627 88.1102 198.453 88.276C198.276 88.4517 198.102 88.6175 197.935 88.7956C197.758 88.9713 197.433 88.9942 197.256 89.1699C197.089 89.348 197.187 89.7923 197.02 89.9704C196.853 90.1486 196.786 90.4253 196.628 90.6058C196.461 90.784 196.015 90.7133 195.858 90.8939C195.701 91.0744 195.691 91.4078 195.532 91.5983C195.372 91.7887 195.11 91.8905 194.953 92.0711C194.796 92.2517 194.772 92.5604 194.612 92.7509C194.462 92.9438 194.529 93.3066 194.379 93.4995C194.229 93.6924 194.062 93.8706 193.912 94.0635C193.762 94.2564 193.716 94.5281 193.576 94.7235C193.436 94.9188 193.295 95.1142 193.153 95.3194C193.01 95.5247 192.326 95.331 192.183 95.5363C192.04 95.7415 192.101 96.0821 191.959 96.2874C191.826 96.4951 191.86 96.8185 191.727 97.0262C191.594 97.2339 191.391 97.3923 191.258 97.6C191.135 97.8101 191.441 98.2861 191.318 98.4962C191.195 98.7064 190.35 98.4933 190.227 98.7034C190.104 98.9136 190.25 99.2861 190.124 99.5062C189.95 99.8399 190.033 99.8817 189.849 100.213C189.666 100.544 189.702 100.564 189.53 100.888C189.356 101.221 189.247 101.162 189.076 101.486C188.902 101.82 188.693 101.704 188.512 102.026C188.338 102.359 188.782 102.608 188.601 102.929C188.427 103.263 188.655 103.383 188.481 103.717C188.307 104.051 187.482 103.591 187.298 103.922C187.124 104.256 187.114 104.253 186.931 104.585C186.757 104.918 187.609 105.522 187.365 105.806C187.106 106.108 186.63 105.694 186.429 106.01L186.468 106.146Z" fill="#EBBE8C"/>
<path d="M174.941 92.853C174.659 92.6141 174.536 92.9921 174.135 92.7337C173.965 92.6278 174.087 91.914 173.842 91.7786C173.653 91.6679 173.41 91.5647 173.17 91.4516C172.968 91.3483 172.46 91.8704 172.219 91.7573C172.016 91.6639 171.845 91.4321 171.612 91.3314C171.396 91.2454 171.035 91.5424 170.8 91.4515C170.584 91.3656 170.554 90.7286 170.316 90.6476C170.097 90.5715 169.987 90.0926 169.747 90.0215C169.526 89.9553 169.235 90.0497 168.993 89.9885C168.76 89.9297 168.37 90.4713 168.137 90.4125C167.904 90.3537 167.674 90.327 167.431 90.2658C167.198 90.207 167.093 89.5405 166.848 89.4892C166.612 89.4403 166.281 89.8706 166.046 89.8217C165.808 89.7827 165.642 89.3213 165.394 89.2798C165.157 89.2408 164.864 89.6809 164.643 89.6567C164.403 89.6275 164.23 89.0698 164.009 89.0456C163.767 89.0263 163.534 88.9256 163.31 88.9112C163.065 88.9019 162.827 89.7123 162.601 89.7078C162.364 89.7108 162.152 89.647 161.934 89.6548C161.694 89.6677 161.505 89.8088 161.282 89.8364C161.037 89.8691 160.868 89.9731 160.65 90.0229C160.41 90.0778 159.986 89.3625 159.785 89.4272C159.55 89.5042 159.551 90.1338 159.364 90.2231C159.142 90.3347 158.838 90.2267 158.676 90.3431C158.46 90.5089 158.274 90.6402 158.148 90.7763C157.862 91.1028 157.424 91.1704 157.635 91.444C157.864 91.7325 157.999 91.6408 158.298 91.8526C158.597 92.0643 158.389 92.3685 158.69 92.5703C158.991 92.7722 159.383 92.1788 159.684 92.3806C159.985 92.5825 159.934 92.6641 160.226 92.8635C160.525 93.0752 160.527 93.0653 160.828 93.2672C161.127 93.479 161.277 93.2441 161.576 93.4558C161.874 93.6676 161.371 94.4217 161.66 94.631C161.959 94.8428 162.493 94.0441 162.792 94.2558C163.091 94.4676 162.965 94.6456 163.266 94.8475C163.565 95.0592 163.715 94.8243 164.014 95.0361C164.312 95.2478 164.102 95.5619 164.401 95.7736C164.7 95.9853 164.441 96.3711 164.742 96.5729C165.041 96.7847 165.188 96.5597 165.489 96.7615C165.788 96.9733 165.965 96.7136 166.266 96.9155C166.564 97.1273 166.144 97.7553 166.442 97.9671C166.741 98.1788 166.775 98.1244 167.074 98.3362C167.373 98.5479 167.677 98.1003 167.978 98.3022C168.277 98.5139 168.408 98.3161 168.706 98.5279C169.005 98.7396 168.667 99.2416 168.968 99.4434C169.267 99.6552 169.412 99.4401 169.71 99.6518C170.009 99.8635 169.929 99.9798 170.238 100.194C170.546 100.408 170.435 100.569 170.734 100.781" fill="#EBBE8C"/>
<path d="M175.324 93.0547C175.543 93.1728 175.541 93.6444 175.704 93.8219C175.867 93.9993 176.245 94.0529 176.352 94.2897C176.445 94.5019 176.591 94.7905 176.618 95.0596C176.646 95.2867 176.134 95.5248 176.101 95.7891C176.065 96.0213 176.238 96.2851 176.16 96.5174C176.086 96.7398 176.045 96.9917 175.931 97.2043C175.808 97.4145 175.5 97.4521 175.336 97.6204C175.169 97.7985 175.162 98.164 174.951 98.2681C174.74 98.3723 174.468 98.0938 174.218 98.1042C173.99 98.1096 173.686 98.5991 173.436 98.5256C173.213 98.4692 173.093 98.03 172.865 97.9094C172.644 97.8012 172.413 97.7326 172.212 97.5873C172.012 97.4322 171.77 97.3289 171.609 97.1416C171.442 96.9419 171.426 96.6654 171.327 96.4409C171.219 96.2041 171.343 95.9939 171.34 95.7519C171.342 95.4902 171.366 95.3074 171.409 95.0876C171.469 94.8405 171.493 94.6577 171.604 94.455C171.72 94.2326 171.761 94.0226 171.935 93.8568C172.112 93.6811 172.135 93.2884 172.348 93.1744C172.562 93.0604 172.853 93.0499 173.083 92.9927C173.313 92.9354 173.575 93.0435 173.813 93.0405C174.051 93.0376 174.288 93.0346 174.521 93.0934C174.754 93.1522 175.12 92.9613 175.329 93.0769L175.324 93.0547Z" fill="#253038"/>
<path d="M233.341 134.6C233.215 134.568 233.094 134.516 232.977 134.445C232.807 134.339 232.572 134.248 232.317 134.152C232.052 134.054 231.78 133.944 231.533 133.818C231.084 133.589 230.777 133.239 230.527 132.956C230.437 132.86 230.311 132.702 230.257 132.668C229.619 132.412 229.324 131.677 229.575 131.027C229.826 130.377 230.582 130.064 231.218 130.33C231.771 130.553 232.133 130.97 232.398 131.278C232.488 131.374 232.615 131.532 232.668 131.566C232.824 131.647 233.013 131.716 233.192 131.783C233.532 131.91 233.918 132.06 234.292 132.301C234.882 132.67 235.051 133.458 234.689 134.059C234.396 134.541 233.841 134.747 233.327 134.617L233.341 134.6Z" fill="#CEBC94"/>
<path d="M231.957 138.845C231.802 138.806 231.654 138.737 231.516 138.628L230.386 137.766C230.073 137.53 229.844 137.242 229.662 137.017C229.567 136.899 229.458 136.756 229.397 136.709C229.377 136.704 229.222 136.665 229.125 136.641C228.824 136.565 228.421 136.442 228.047 136.159C227.491 135.735 227.375 134.94 227.789 134.384C228.205 133.818 228.986 133.7 229.532 134.121C229.552 134.126 229.707 134.165 229.804 134.19C230.105 134.266 230.508 134.388 230.882 134.671C231.195 134.908 231.424 135.196 231.606 135.421C231.701 135.539 231.81 135.682 231.871 135.729L233.001 136.591C233.557 137.014 233.672 137.809 233.259 138.365C232.949 138.791 232.433 138.965 231.957 138.845Z" fill="#CEBC94"/>
<path d="M228.322 143.917C228.157 143.875 227.999 143.804 227.863 143.686C227.725 143.577 227.526 143.464 227.307 143.346C226.933 143.147 226.516 142.915 226.122 142.543C225.981 142.403 225.828 142.27 225.685 142.139C225.33 141.819 224.968 141.486 224.632 141.087C224.185 140.555 224.247 139.752 224.769 139.297C225.292 138.841 226.081 138.904 226.528 139.436C226.752 139.702 227.039 139.964 227.342 140.239C227.51 140.397 227.68 140.545 227.848 140.703C227.981 140.831 228.217 140.964 228.472 141.101C228.753 141.256 229.081 141.434 229.385 141.667C229.929 142.098 230.032 142.901 229.609 143.455C229.292 143.868 228.788 144.034 228.322 143.917Z" fill="#CEBC94"/>
<path d="M199.182 133.27C199.066 133.24 198.954 133.191 198.845 133.132C198.655 133.021 198.451 132.928 198.25 132.825C197.937 132.672 197.575 132.508 197.23 132.274C196.815 131.991 196.533 131.626 196.295 131.335C196.168 131.177 196.034 131.007 195.949 130.933C195.879 130.884 195.66 130.808 195.5 130.746C195.139 130.624 194.682 130.467 194.272 130.122C193.861 129.777 193.625 129.35 193.428 129.017C193.34 128.869 193.236 128.664 193.168 128.605C193.124 128.573 192.925 128.502 192.791 128.458C192.393 128.316 191.91 128.141 191.497 127.722C191.011 127.222 191.01 126.424 191.494 125.917C191.975 125.42 192.759 125.418 193.25 125.899C193.313 125.936 193.502 126.004 193.633 126.059C194.002 126.194 194.446 126.358 194.842 126.72C195.195 127.05 195.421 127.433 195.591 127.748C195.669 127.894 195.793 128.104 195.854 128.15C195.915 128.197 196.143 128.276 196.296 128.325C196.628 128.44 197.048 128.578 197.43 128.873C197.787 129.142 198.047 129.469 198.251 129.731C198.377 129.889 198.519 130.071 198.606 130.135C198.8 130.268 199.041 130.381 199.298 130.509C199.575 130.642 199.842 130.772 200.102 130.932C200.694 131.291 200.894 132.076 200.542 132.679C200.256 133.174 199.687 133.397 199.163 133.265L199.182 133.27Z" fill="#CEBC94"/>
<path d="M194.334 141.843C194.082 141.78 193.848 141.637 193.676 141.415C193.605 141.324 193.438 141.208 193.282 141.085C193.013 140.88 192.68 140.639 192.398 140.274C192.091 139.882 191.947 139.458 191.835 139.115C191.786 138.977 191.716 138.76 191.669 138.695C191.577 138.567 191.417 138.422 191.259 138.267C191.016 138.037 190.746 137.791 190.508 137.458C190.376 137.278 190.223 137.103 190.077 136.941C189.851 136.684 189.625 136.428 189.435 136.149C189.039 135.577 189.171 134.782 189.733 134.378C190.295 133.974 191.076 134.109 191.472 134.681C191.609 134.883 191.771 135.06 191.934 135.238C192.136 135.467 192.347 135.699 192.523 135.953C192.615 136.081 192.783 136.239 192.95 136.396C193.176 136.611 193.429 136.842 193.662 137.153C193.952 137.53 194.088 137.942 194.203 138.275C194.252 138.414 194.323 138.631 194.369 138.695C194.439 138.786 194.605 138.912 194.772 139.027C195.025 139.217 195.348 139.456 195.618 139.786C196.053 140.326 195.982 141.126 195.449 141.579C195.127 141.844 194.725 141.931 194.356 141.838L194.334 141.843Z" fill="#CEBC94"/>
<path d="M189.846 153.633C189.458 153.535 189.125 153.252 188.969 152.835C188.947 152.798 188.796 152.655 188.694 152.567C188.485 152.367 188.218 152.111 188.004 151.763C187.79 151.415 187.68 151.062 187.585 150.776C187.531 150.616 187.463 150.389 187.407 150.322C187.205 150.051 187.037 149.767 186.869 149.484C186.752 149.286 186.645 149.092 186.514 148.912C186.414 148.771 186.288 148.655 186.171 148.542C185.914 148.288 185.588 147.975 185.354 147.539C185.065 146.993 184.93 146.446 184.81 145.964L184.742 145.695C184.568 145.012 184.962 144.324 185.627 144.135C186.288 143.956 186.983 144.362 187.159 145.036L187.23 145.337C187.323 145.717 187.408 146.043 187.542 146.297C187.6 146.396 187.758 146.551 187.907 146.704C188.106 146.901 188.332 147.115 188.531 147.396C188.709 147.64 188.86 147.909 189.023 148.171C189.137 148.378 189.261 148.587 189.402 148.77C189.704 149.182 189.845 149.616 189.965 149.971C190.016 150.141 190.075 150.324 190.126 150.41C190.162 150.472 190.303 150.613 190.403 150.711C190.695 150.994 191.096 151.379 191.305 151.956C191.547 152.615 191.213 153.349 190.566 153.595C190.326 153.692 190.067 153.7 189.834 153.641L189.846 153.633Z" fill="#CEBC94"/>
<path d="M219.629 104.633C219.484 104.597 219.345 104.53 219.221 104.447C218.886 104.215 218.624 103.939 218.393 103.703C218.22 103.523 218.055 103.355 217.914 103.257C217.858 103.232 217.642 103.188 217.494 103.161C217.118 103.098 216.636 103.007 216.191 102.717C215.817 102.476 215.538 102.185 215.302 101.926C215.146 101.761 214.991 101.596 214.874 101.525C214.767 101.456 214.554 101.402 214.34 101.348C214.01 101.265 213.603 101.162 213.217 100.928C212.61 100.586 212.397 99.8086 212.743 99.193C213.088 98.5774 213.842 98.3586 214.447 98.7105C214.556 98.7695 214.767 98.8333 214.981 98.8872C215.32 98.9729 215.755 99.093 216.158 99.3415C216.561 99.5901 216.865 99.908 217.11 100.169C217.266 100.334 217.414 100.487 217.531 100.559C217.586 100.583 217.802 100.627 217.95 100.654C218.346 100.722 218.838 100.815 219.3 101.12C219.664 101.359 219.944 101.65 220.189 101.911C220.354 102.079 220.52 102.246 220.651 102.342C221.224 102.739 221.359 103.539 220.972 104.112C220.667 104.56 220.136 104.751 219.641 104.626L219.629 104.633Z" fill="#CEBC94"/>
<path d="M227.376 98.5851C227.318 98.5704 227.25 98.5533 227.187 98.5164C226.973 98.4205 226.745 98.342 226.517 98.2634C226.148 98.1284 225.769 97.9909 225.383 97.799C225.007 97.6097 224.648 97.3931 224.288 97.1766C224.101 97.056 223.902 96.9428 223.703 96.8296C223.341 96.6229 223.006 96.3915 222.664 96.1477C222.469 96.0148 222.285 95.8843 222.09 95.7514C221.884 95.6259 221.675 95.5102 221.466 95.3946C221.122 95.2027 220.777 95.0108 220.415 94.7622C219.854 94.3584 219.717 93.5685 220.116 92.9874C220.512 92.4161 221.288 92.2763 221.859 92.6825C222.114 92.8623 222.386 93.0148 222.66 93.1575C222.915 93.2952 223.168 93.4428 223.418 93.6004C223.641 93.7407 223.869 93.9032 224.09 94.0533C224.362 94.2478 224.637 94.4325 224.926 94.5998C225.142 94.7278 225.368 94.8582 225.584 94.9861C225.88 95.1658 226.176 95.3454 226.487 95.5078C226.771 95.6529 227.067 95.7485 227.361 95.8541C227.626 95.9524 227.9 96.053 228.162 96.1611C228.795 96.4364 229.098 97.184 228.827 97.829C228.581 98.4172 227.963 98.7123 227.381 98.5654L227.376 98.5851Z" fill="#CEBC94"/>
<path d="M234.64 91.0092C234.572 90.9921 234.504 90.9749 234.431 90.9356C233.865 90.6775 233.292 90.407 232.719 90.1366C232.156 89.8686 231.586 89.5883 231.027 89.3005C230.505 89.0324 230.177 88.6034 229.91 88.2632C229.815 88.1449 229.674 87.9625 229.613 87.9157C229.494 87.8542 229.273 87.788 229.04 87.7292C228.671 87.6361 228.256 87.5209 227.831 87.2773C227.615 87.1494 227.387 87.0288 227.159 86.9083C226.831 86.7312 226.491 86.5615 226.18 86.3572C225.59 85.988 225.409 85.2081 225.762 84.6049C226.125 84.0041 226.891 83.8198 227.483 84.1791C227.753 84.3415 228.025 84.494 228.309 84.6392C228.564 84.7769 228.819 84.9147 229.074 85.0524C229.2 85.1262 229.423 85.1826 229.663 85.2537C230.013 85.3419 230.411 85.4423 230.799 85.6662C231.29 85.9368 231.613 86.3436 231.861 86.6789C231.956 86.7972 232.097 86.9796 232.158 87.0264C232.68 87.2945 233.224 87.5576 233.767 87.8207C234.311 88.0838 234.865 88.3494 235.413 88.5927C236.044 88.8778 236.325 89.6304 236.045 90.273C235.791 90.8488 235.186 91.1365 234.603 90.9896L234.64 91.0092Z" fill="#CEBC94"/>
</g>
<defs>
<clipPath id="clip0_147_13338">
<rect width="232.455" height="131.243" fill="white" transform="matrix(0.969605 0.244675 -0.236539 0.971622 31.0439 0.77063)"/>
</clipPath>
</defs>
</svg>
