<svg width="31" height="31" viewBox="0 0 31 31" fill="none" xmlns="http://www.w3.org/2000/svg">
<path d="M14.8541 0.645828C15.5 0.968745 16.7916 3.09999 16.7916 4.52083C16.7916 5.94166 15.9262 6.45833 14.8541 6.45833C13.782 6.45833 12.9166 6.26458 12.9166 4.84374C12.9166 3.42291 14.2083 2.58333 14.8541 0.645828ZM23.8958 11.625C27.125 11.625 29.7083 14.2083 29.7083 17.4375C29.7083 19.4525 28.6879 21.2221 27.125 22.2683V29.7083H3.87496V22.2683C2.31204 21.2221 1.29163 19.4525 1.29163 17.4375C1.29163 14.2083 3.87496 11.625 7.10413 11.625H12.9166V7.74999H16.7916V11.625H23.8958ZM15.5 20.6667C16.3564 20.6667 17.1777 20.3264 17.7833 19.7209C18.3889 19.1153 18.7291 18.2939 18.7291 17.4375H20.6666C20.6666 18.2939 21.0068 19.1153 21.6124 19.7209C22.218 20.3264 23.0394 20.6667 23.8958 20.6667C24.7522 20.6667 25.5736 20.3264 26.1792 19.7209C26.7847 19.1153 27.125 18.2939 27.125 17.4375C27.125 16.5811 26.7847 15.7597 26.1792 15.1541C25.5736 14.5485 24.7522 14.2083 23.8958 14.2083H7.10413C6.2477 14.2083 5.42635 14.5485 4.82076 15.1541C4.21517 15.7597 3.87496 16.5811 3.87496 17.4375C3.87496 18.2939 4.21517 19.1153 4.82076 19.7209C5.42635 20.3264 6.2477 20.6667 7.10413 20.6667C7.96055 20.6667 8.78191 20.3264 9.38749 19.7209C9.99308 19.1153 10.3333 18.2939 10.3333 17.4375H12.2708C12.2708 18.2939 12.611 19.1153 13.2166 19.7209C13.8222 20.3264 14.6435 20.6667 15.5 20.6667Z" fill="black"/>
</svg>
