<svg width="242" height="167" viewBox="0 0 242 167" fill="none" xmlns="http://www.w3.org/2000/svg">
<g clip-path="url(#clip0_196_20225)">
<path d="M198.993 128.066C198.993 128.066 198.983 128.063 198.973 128.061C197.856 127.819 197.005 126.923 196.777 125.786C196.254 123.208 195.452 120.355 195.094 117.074C191.564 84.6168 170.789 60.3355 135.066 46.3537C137.211 38.6753 135.913 31.175 131.923 28.5581C127.833 25.8826 113.776 27.2128 106.22 37.1991C106.012 37.4795 105.82 37.775 105.612 38.0555C69.1469 31.8501 36.2855 42.164 24.5603 63.4293C16.5472 64.3739 10.7557 67.5372 9.45135 72.4936C7.54913 79.7218 15.7777 88.5013 28.7258 94.0993C37.1361 98.9232 58.3679 100.267 79.6236 104.864C80.8093 107.242 82.2321 109.665 83.9195 112.064C91.9087 123.445 102.302 129.822 107.119 126.309C109.82 124.347 110.195 119.696 108.61 113.993C139.585 118.206 145.726 109.899 183.01 136.555C185.415 138.275 187.208 140.746 188.138 143.582C190.409 150.494 186.501 166.682 197.6 158.769C201.881 155.721 202.423 145.951 199.484 140.595C205.396 143.979 219.693 138.983 221.896 133.639C224.802 126.569 204.846 129.347 198.99 128.076L198.993 128.066Z" fill="#6AB5D2"/>
<path d="M59.3176 81.2375C66.7595 83.2675 74.4087 78.7711 76.4027 71.1944C78.3966 63.6178 73.9802 55.83 66.5383 53.8C59.0964 51.77 51.4472 56.2664 49.4532 63.843C47.4593 71.4197 51.8757 79.2074 59.3176 81.2375Z" fill="white"/>
<path d="M58.612 73.1398C62.1542 74.1061 65.7952 71.9659 66.7442 68.3595C67.6933 64.7531 65.5912 61.0463 62.0489 60.08C58.5067 59.1137 54.8658 61.254 53.9167 64.8603C52.9676 68.4667 55.0698 72.1736 58.612 73.1398Z" fill="#231815"/>
<path d="M108.623 113.986C108.623 113.986 127.507 104.856 154.228 115.75C180.949 126.644 184.418 137.698 184.418 137.698C184.418 137.698 165.9 125.173 145.27 118.397C132.881 114.332 120.275 116.796 108.623 113.986Z" fill="#EFEFEF"/>
<path d="M9.45393 72.4838C9.45393 72.4838 15.275 86.4776 46.5858 92.9528C77.8965 99.4281 79.6262 104.854 79.6262 104.854L62.9449 101.758C62.9449 101.758 38.103 98.3964 31.9546 95.5598C31.9546 95.5598 6.5544 86.4913 9.45651 72.474L9.45393 72.4838Z" fill="#EFEFEF"/>
<path d="M163.722 74.3236C163.722 74.3236 180.943 83.9856 186.217 107.769" stroke="#EFEFEF" stroke-width="6" stroke-miterlimit="10" stroke-linecap="round"/>
<path d="M189.314 119.091C190.899 119.524 192.527 118.566 192.952 116.953C193.376 115.34 192.436 113.682 190.851 113.25C189.267 112.818 187.638 113.775 187.214 115.388C186.789 117.001 187.73 118.659 189.314 119.091Z" fill="#EFEFEF"/>
</g>
<defs>
<clipPath id="clip0_196_20225">
<rect width="221.07" height="112.022" fill="white" transform="matrix(0.964749 0.26317 -0.254503 0.967072 28.5098 0.0745239)"/>
</clipPath>
</defs>
</svg>
