<svg width="469" height="131" viewBox="0 0 469 131" fill="none" xmlns="http://www.w3.org/2000/svg">
<path fill-rule="evenodd" clip-rule="evenodd" d="M65.5182 0.0866459C78.9461 1.21731 86.012 16.0527 96.6836 24.2956C106.92 32.2027 120.636 35.9188 126.708 47.351C133.334 59.8293 134.783 74.9583 130.787 88.514C126.731 102.276 116.909 113.76 104.851 121.504C93.2501 128.955 79.1491 132.461 65.5182 130.432C52.9552 128.561 44.4881 117.886 33.851 110.933C22.4383 103.473 5.42726 101.181 1.00959 88.2664C-3.40679 75.3557 7.78052 62.7728 13.0753 50.198C17.8356 38.8926 21.4361 27.1747 30.2989 18.7059C40.1453 9.29729 51.9589 -1.05508 65.5182 0.0866459Z" fill="#EFEDE7"/>
<path fill-rule="evenodd" clip-rule="evenodd" d="M233.518 0.0866459C246.946 1.21731 254.012 16.0527 264.684 24.2956C274.92 32.2027 288.636 35.9188 294.708 47.351C301.334 59.8293 302.783 74.9583 298.787 88.514C294.731 102.276 284.909 113.76 272.851 121.504C261.25 128.955 247.149 132.461 233.518 130.432C220.955 128.561 212.488 117.886 201.851 110.933C190.438 103.473 173.427 101.181 169.01 88.2664C164.593 75.3557 175.781 62.7728 181.075 50.198C185.836 38.8926 189.436 27.1747 198.299 18.7059C208.145 9.29729 219.959 -1.05508 233.518 0.0866459Z" fill="#BDB6AA"/>
<path fill-rule="evenodd" clip-rule="evenodd" d="M401.518 0.0866459C414.946 1.21731 422.012 16.0527 432.684 24.2956C442.92 32.2027 456.636 35.9188 462.708 47.351C469.334 59.8293 470.783 74.9583 466.787 88.514C462.731 102.276 452.909 113.76 440.851 121.504C429.25 128.955 415.149 132.461 401.518 130.432C388.955 128.561 380.488 117.886 369.851 110.933C358.438 103.473 341.427 101.181 337.01 88.2664C332.593 75.3557 343.781 62.7728 349.075 50.198C353.836 38.8926 357.436 27.1747 366.299 18.7059C376.145 9.29729 387.959 -1.05508 401.518 0.0866459Z" fill="#3D3F40"/>
</svg>
