<svg width="530" height="390" viewBox="0 0 530 390" fill="none" xmlns="http://www.w3.org/2000/svg">
<path d="M345.953 384.723H-378.006C-383.789 370.363 -387.066 354.469 -387.066 337.701C-387.066 274.243 -340.826 222.826 -283.789 222.826C-283.789 222.826 -283.761 222.826 -283.732 222.826C-282.963 179.146 -263.447 140.975 -230.485 126.736C-210.086 117.946 -187.92 119.752 -167.579 129.957C-151.596 56.7457 -92.3081 2.37885 -21.5674 2.37885C-5.24266 2.37885 10.4839 5.26878 25.2132 10.6272C69.3727 26.7024 104.529 64.9639 120.056 113.551C147.492 98.4389 178.147 96.2113 204.9 110.51C242.136 130.469 261.566 176.979 258.119 227.312C258.119 227.312 353.959 208.226 363.218 309.765C364.33 322.017 370.968 332.854 380.797 338.514C402.649 351.127 447.577 361.724 526.067 319.609C526.067 319.609 468.973 384.693 345.982 384.693L345.953 384.723Z" fill="#ECF3F9"/>
<path d="M348.603 388.305C345.241 388.365 346.438 388.937 345.954 389.088C351.595 388.757 348.461 388.155 348.603 388.305Z" fill="#ECF3F9"/>
<path d="M403.589 381.773L402.677 382.194C405.327 381.472 408.005 381.02 410.597 380.087C408.29 380.839 405.954 381.231 403.617 381.773H403.589Z" fill="#ECF3F9"/>
<path d="M453.532 367.805C451.053 368.136 446.666 369.912 441.737 371.748C436.751 373.404 431.253 375.27 426.78 376.444C426.267 376.535 425.754 376.535 425.241 376.565L421.367 378.371C432.307 375.662 446.01 370.454 453.503 367.805H453.532Z" fill="#ECF3F9"/>
<path d="M479.885 358.412C478.147 358.834 485.156 355.312 473.988 361.302C474.586 361.061 474.757 361.001 475.099 360.851C476.124 360.339 477.52 359.616 479.885 358.412Z" fill="#ECF3F9"/>
<path d="M475.07 360.851C470.113 363.409 478.46 359.496 475.07 360.851V360.851Z" fill="#ECF3F9"/>
<path d="M497.406 347.996C495.441 349.502 493.389 350.856 491.31 352.181C492.022 351.88 493.817 350.947 495.156 350.224C496.466 349.441 497.378 348.93 496.381 349.682C502.649 345.347 501.195 346.01 497.406 348.027V347.996Z" fill="#ECF3F9"/>
<path d="M502.848 343.511L499.743 345.739C500.341 345.468 501.224 344.926 502.848 343.511Z" fill="#ECF3F9"/>
<path d="M493.076 350.375C495.355 348.93 497.492 347.274 499.714 345.739C498.745 346.19 498.46 345.949 496.666 347.876C497.036 347.214 495.925 348.448 493.076 350.375V350.375Z" fill="#ECF3F9"/>
<path d="M489.059 352.542C485.384 354.409 480.768 356.937 486.922 352.933C483.931 354.77 481.765 355.974 480.398 356.757C479.059 357.539 478.546 357.931 478.831 357.901C479.344 357.81 483.076 356.275 489.059 352.572V352.542Z" fill="#ECF3F9"/>
<path d="M455.669 365.848L450.512 367.443L446.238 369.4C448.375 368.407 456.096 366.028 455.669 365.848Z" fill="#ECF3F9"/>
<path d="M518.859 317.923C518.546 318.345 521.253 317.381 521.851 317.411L524.272 316.027L528.859 322.469C528.204 323.251 527.634 323.914 527.036 324.576C527.606 324.064 528.261 323.432 529.059 322.649L524.187 315.816C521.851 316.87 519.23 318.044 518.888 317.923H518.859Z" fill="#ECF3F9"/>
<path d="M521.851 317.381L514.985 321.325C521.281 318.164 522.364 317.411 521.851 317.381Z" fill="#ECF3F9"/>
<path d="M503.304 341.765C499.771 344.444 496.238 347.184 492.563 349.712C494.785 348.298 496.894 346.612 499.03 345.076C501.167 343.511 503.304 341.946 505.355 340.23L503.275 341.735L503.304 341.765Z" fill="#ECF3F9"/>
<path d="M491.708 330.416L495.64 328.309L488.574 331.921L491.708 330.416Z" fill="#ECF3F9"/>
<path d="M473.19 337.159C476.153 335.744 468.745 337.791 471.965 336.527C466.865 337.942 462.62 339.688 458.688 340.832C460.797 340.35 462.934 339.658 465.298 339.056C467.663 338.484 470.255 337.852 473.19 337.159V337.159Z" fill="#ECF3F9"/>
<path d="M452.079 342.728C454.187 342.187 456.352 341.524 458.688 340.832C456.466 341.404 454.272 342.006 452.079 342.728Z" fill="#ECF3F9"/>
<path d="M502.848 326.954C502.25 327.075 501.053 327.225 496.979 328.911L500.027 328.218C500.882 327.827 501.851 327.406 502.848 326.954V326.954Z" fill="#ECF3F9"/>
<path d="M500.113 328.219H499.999C496.951 329.663 494.785 330.446 493.845 330.807C494.643 330.476 496.552 329.844 500.113 328.219V328.219Z" fill="#ECF3F9"/>
<path d="M503.56 326.653C503.304 326.774 503.104 326.864 502.848 326.984C503.133 326.924 503.304 326.864 503.56 326.653Z" fill="#ECF3F9"/>
<path d="M520.426 329.031C523.874 325.6 530.654 318.013 523.389 324.576C521.139 327.255 525.441 323.733 520.426 329.031Z" fill="#ECF3F9"/>
<path d="M507.349 325.81C509.942 324.757 512.449 323.522 514.956 322.288C514.728 322.198 513.304 322.68 515.27 321.475C512.648 322.981 510.056 324.486 507.349 325.81V325.81Z" fill="#ECF3F9"/>
<path d="M503.703 327.677L507.349 325.81L504.5 327.014L503.703 327.677Z" fill="#ECF3F9"/>
<path d="M465.896 340.139C464.216 340.711 462.421 341.344 460.54 341.825C458.631 342.247 456.609 342.698 454.472 343.18C456.78 342.728 459.144 342.277 461.481 341.855C463.788 341.253 466.096 340.621 468.347 340.019C468.945 339.658 470.797 338.755 465.925 340.109L465.896 340.139Z" fill="#ECF3F9"/>
<path d="M482.734 335.082C482.506 335.172 482.221 335.293 481.993 335.383C482.478 335.293 482.848 335.172 482.734 335.082Z" fill="#ECF3F9"/>
<path d="M411.822 345.107C412.05 345.167 412.25 345.227 412.478 345.317C412.535 345.287 412.563 345.257 412.649 345.227L411.822 345.107Z" fill="#ECF3F9"/>
<path d="M469.116 339.929C472.592 339.176 474.557 338.273 476.438 337.43C475.184 337.882 473.874 338.333 472.535 338.815C471.167 339.206 469.771 339.598 468.318 340.019C468.062 340.17 468.005 340.26 469.116 339.929V339.929Z" fill="#ECF3F9"/>
<path d="M440.284 344.775C442.107 344.745 444.187 344.474 446.352 344.294C444.557 344.324 440.911 344.595 440.284 344.775Z" fill="#ECF3F9"/>
<path d="M480.797 335.594C480.968 335.534 481.11 335.473 481.281 335.383C480.141 335.624 480.284 335.654 480.797 335.594Z" fill="#ECF3F9"/>
<path d="M480.797 335.594C479.087 336.256 477.777 336.858 476.438 337.46C478.489 336.738 480.369 336.015 481.993 335.383C481.566 335.473 481.11 335.564 480.797 335.594Z" fill="#ECF3F9"/>
<path d="M398.204 346.431C398.973 346.16 408.204 347.997 416.267 349.321C420.312 349.321 420.996 348.779 419.857 348.027C418.717 347.274 415.754 346.401 412.478 345.317C412.335 345.438 412.278 345.558 411.224 345.558C410.711 345.558 409.942 345.528 408.802 345.438C407.663 345.257 406.181 345.046 404.187 344.715C406.78 346.04 421.908 347.997 415.013 347.816C412.335 347.545 410.426 347.304 409.002 347.093C407.606 346.853 406.694 346.582 405.953 346.371C404.5 345.889 403.674 345.618 401.196 344.806C403.247 345.769 399.914 345.107 396.238 344.384C392.62 343.481 388.745 342.337 389.657 343.27C392.734 344.294 395.783 345.317 398.916 346.01C399.059 346.22 395.612 345.528 398.147 346.401L398.204 346.431Z" fill="#ECF3F9"/>
<path d="M427.748 346.281L431.053 346.19C427.264 346.07 424.557 346.1 419.657 345.197C414.159 345.227 413.047 345.016 412.649 345.227C415.327 345.679 418.033 345.829 420.74 346.01C423.446 346.281 426.153 346.19 428.888 346.19L427.748 346.281V346.281Z" fill="#ECF3F9"/>
<path d="M445.925 344.745C444.671 345.227 442.079 345.919 440.369 346.311C438.688 346.672 437.919 346.973 440.398 347.154C445.298 346.521 446.979 346.07 448.176 345.739C449.372 345.377 450.084 345.197 452.933 344.414C437.292 347.093 457.378 343.481 446.01 344.806C447.549 344.535 449.002 344.294 450.398 344.053C451.794 343.752 453.104 343.451 454.415 343.18C451.623 343.752 448.888 344.083 446.324 344.294C446.466 344.294 446.58 344.294 446.694 344.294H446.78C447.463 344.294 447.691 344.294 446.922 344.354C446.865 344.354 446.694 344.384 446.609 344.414C446.523 344.504 446.238 344.625 445.925 344.745C441.395 345.257 445.184 344.685 446.609 344.414C446.666 344.384 446.78 344.324 446.78 344.294H446.723C441.537 345.287 436.295 345.769 431.053 346.19C432.706 346.25 434.586 346.01 436.979 345.859C438.176 345.769 439.486 345.648 440.968 345.528C442.449 345.317 444.073 345.046 445.925 344.775V344.745Z" fill="#ECF3F9"/>
<path d="M522.762 321.084C522.278 321.265 522.278 321.204 522.221 321.174C521.309 321.716 520.968 321.957 522.762 321.084Z" fill="#ECF3F9"/>
<path d="M516.609 323.763C517.634 323.131 518.403 322.469 521.851 320.783C524.899 319.458 521.965 321.054 522.221 321.174C523.247 320.542 525.127 319.458 525.697 319.007L526.523 320.151C526.295 320.482 526.295 320.572 526.666 320.301L525.64 318.856C525.213 318.977 524.301 319.368 522.677 320.121L521.68 320.723C515.754 323.522 507.919 326.533 508.888 325.87C510.854 325.66 512.506 325.238 516.637 323.793L516.609 323.763Z" fill="#ECF3F9"/>
<path d="M481.48 337.46C477.264 338.935 473.104 340.621 468.774 341.795C471.025 341.374 473.275 340.982 475.469 340.41L475.042 340.2C482.335 337.912 480.654 338.032 481.452 337.49L481.48 337.46Z" fill="#ECF3F9"/>
<path d="M410.398 344.595L412.193 344.143C409.686 344.203 407.179 344.023 404.671 343.782C406.58 344.053 408.461 344.504 410.398 344.595Z" fill="#ECF3F9"/>
<path d="M394.073 340.531L394.842 340.17C393.446 339.748 391.965 339.447 390.597 338.935C391.709 339.568 392.905 339.989 394.073 340.531Z" fill="#ECF3F9"/>
<path d="M118.205 98.3486C117.749 96.8736 117.264 95.3383 116.809 93.8933C116.296 92.4785 115.783 91.1238 115.384 90.01C114.529 87.7522 113.903 86.3374 113.789 86.819L114.045 88.8359C115.014 90.7626 115.84 92.4484 116.552 94.0137C117.207 95.6092 117.72 97.0241 118.205 98.3486Z" fill="#ECF3F9"/>
<path d="M275.811 222.375C273.276 222.254 270.968 222.224 268.86 222.284C267.805 222.315 266.808 222.345 265.84 222.435C265.099 222.495 264.415 222.525 263.731 222.586C263.902 222.586 263.874 222.586 264.216 222.586C264.586 222.586 264.956 222.586 265.327 222.586C266.068 222.586 266.751 222.586 267.435 222.586C268.803 222.586 270.056 222.616 271.139 222.646C273.361 222.646 274.985 222.706 275.783 222.405L275.811 222.375Z" fill="#ECF3F9"/>
<path d="M262.221 218.01C262.136 218.913 262.05 219.756 261.965 220.689C262.022 221.472 261.965 222.254 262.079 222.826C262.62 222.706 263.133 222.646 263.76 222.586C263.219 222.525 262.791 222.495 262.335 222.555C262.307 222.194 262.392 221.713 262.335 221.291L262.278 220.508L262.221 218.04V218.01Z" fill="#ECF3F9"/>
<path d="M133.076 381.02C133.475 381.02 133.988 381.08 134.358 381.11C134.472 381.02 133.903 381.02 133.076 381.02Z" fill="#ECF3F9"/>
<path d="M298.005 387.613C296.381 387.613 293.731 387.643 291.224 387.673C292.449 387.703 294.472 387.703 298.005 387.613Z" fill="#ECF3F9"/>
<path d="M362.535 284.508C363.589 288.422 362.763 285.11 362.535 284.508V284.508Z" fill="#ECF3F9"/>
<path d="M363.931 304.076C363.76 303.263 363.589 302.631 363.446 302.54C363.646 302.841 363.788 303.383 363.931 304.076Z" fill="#ECF3F9"/>
<path d="M254.016 179.387C254.016 179.387 253.959 179.176 253.931 179.056C254.102 180.2 254.073 180.019 254.016 179.387Z" fill="#ECF3F9"/>
<path d="M363.788 290.469C363.446 288.994 363.076 287.278 362.677 285.411C362.848 286.224 363.19 287.76 363.788 290.469Z" fill="#ECF3F9"/>
<path d="M363.845 289.596C364.187 290.95 364.387 292.034 364.558 293.058C364.7 293.539 364.842 293.058 363.845 289.596Z" fill="#ECF3F9"/>
<path d="M360.797 279.15C361.538 281.347 362.25 283.394 362.677 285.411C362.506 284.629 362.478 284.298 362.535 284.508C362.278 283.364 361.709 281.769 360.797 279.15Z" fill="#ECF3F9"/>
<path d="M51.1961 26.883C51.3385 26.9734 51.424 27.0035 51.5664 27.0938C51.424 27.0035 51.253 26.8831 51.1106 26.7927L51.1961 26.9132V26.883Z" fill="#ECF3F9"/>
<path d="M39.5436 20.7118C44.7858 22.6686 47.6348 24.2339 51.1106 26.7626L48.2616 22.789L39.5436 20.7118Z" fill="#ECF3F9"/>
<path d="M-345.442 250.522C-342.935 248.776 -340.57 246.789 -337.949 245.223C-346.239 252.629 -351.766 258.288 -345.185 252.9C-345.242 252.298 -343.59 250.582 -341.054 248.294C-340.427 247.722 -339.715 247.12 -339.003 246.458C-338.234 245.886 -337.407 245.314 -336.553 244.712C-334.843 243.538 -333.02 242.273 -331.197 241.039C-329.316 239.895 -327.351 238.932 -325.556 237.908C-323.732 236.915 -322.08 235.891 -320.513 235.259C-317.464 233.874 -315.356 232.73 -315.242 232.128C-313.39 231.406 -311.396 231.135 -309.459 230.713C-311.111 231.165 -311.339 231.346 -312.963 231.797C-301.653 229.69 -305.128 227.462 -290.114 226.108C-288.405 226.047 -286.809 226.017 -285.47 225.987C-283.789 225.987 -282.45 225.987 -281.51 225.987C-281.282 225.987 -281.054 225.987 -280.883 225.987C-280.684 225.987 -280.769 225.776 -280.741 225.716C-280.712 225.536 -280.655 225.475 -280.655 225.566C-280.655 225.626 -280.513 226.017 -280.684 226.258C-281.054 226.288 -281.596 226.348 -282.308 226.409L-281.111 226.318C-280.94 226.288 -280.655 226.318 -280.57 226.228V225.596L-280.484 223.007L-280.371 217.98C-280.371 215.782 -280.314 213.825 -280.143 211.718C-279.744 208.136 -279.516 209.069 -279.886 212.621C-279.63 209.491 -279.345 206.36 -278.804 203.289C-278.405 200.189 -277.749 197.118 -277.094 194.047V194.198C-276.98 192.843 -276.581 190.676 -276.154 188.478C-275.755 186.281 -275.271 184.053 -274.843 182.608C-273.02 178.183 -275.442 184.956 -274.815 183.872C-273.846 180.531 -272.878 177.19 -271.624 173.968C-269.516 170.326 -272.593 178.333 -274.786 185.107C-272.279 180.892 -271.824 178.815 -270.598 175.534C-270 173.878 -269.402 171.831 -268.063 169.212C-266.838 166.533 -264.957 163.222 -262.023 159.097C-262.906 160.422 -263.59 161.867 -264.388 163.252C-265.157 164.636 -265.955 166.021 -266.581 167.496C-262.735 162.68 -259.402 155.936 -251.824 148.742C-252.849 149.434 -256.553 153.137 -259.032 155.816C-261.453 158.555 -263.02 159.94 -260.086 155.274C-259.202 154.01 -257.977 152.715 -256.667 151.03C-255.385 149.314 -253.732 147.477 -251.852 145.22C-251.567 145.491 -250.57 144.437 -248.775 142.992C-247.92 142.239 -246.895 141.306 -245.755 140.313C-244.587 139.35 -243.22 138.386 -241.824 137.302L-241.681 138.386C-240.228 137.152 -239.117 136.369 -238.234 135.767C-237.379 135.135 -236.752 134.653 -236.24 134.202C-235.214 133.269 -234.445 132.636 -232.536 131.493C-228.775 129.596 -226.297 128.994 -224.587 128.663C-222.878 128.392 -221.938 128.392 -220.912 128.482C-217.75 127.639 -216.695 127.398 -216.695 127.308C-216.695 127.218 -217.778 127.218 -218.775 127.308C-219.772 127.398 -220.712 127.459 -220.428 127.218C-220.143 127.007 -218.718 126.405 -214.844 125.622C-209.345 124.84 -204.644 124.599 -199.658 124.749C-194.673 124.93 -189.345 125.381 -182.792 127.007C-175.356 129.656 -184.274 127.158 -181.624 128.271C-179.345 128.693 -177.066 129.265 -174.815 129.927C-174.131 130.228 -173.419 130.589 -173.448 130.65C-173.419 130.74 -173.732 130.71 -173.96 130.65C-169.459 132.456 -169.459 132.275 -168.747 132.335C-168.405 132.335 -167.921 132.456 -166.809 132.877C-166.667 132.937 -166.524 132.998 -166.354 133.058L-166.097 133.148L-166.012 132.817C-165.926 132.365 -165.812 131.854 -165.67 131.282C-165.413 130.168 -165.1 128.783 -164.701 127.067C-164.701 126.525 -164.559 125.743 -164.331 124.749C-164.217 124.328 -164.103 123.846 -163.989 123.304C-163.846 122.853 -163.732 122.341 -163.562 121.799C-162.935 119.662 -162.137 116.922 -160.855 114.063C-159.658 111.143 -158.405 107.982 -157.237 104.791C-155.869 101.69 -154.559 98.5593 -153.619 95.6393C-152.194 92.9902 -153.676 97.2348 -153.02 96.5424C-151.624 92.5989 -150.285 89.9498 -149.288 87.8425C-148.291 85.7353 -147.579 84.2 -146.895 82.755C-145.641 79.7748 -144.103 77.4267 -140.94 71.3157L-139.26 68.9677L-137.408 66.74L-133.704 62.3148C-136.525 65.4757 -136.468 64.7833 -135.043 62.2546C-134.302 60.9902 -133.305 59.2141 -132.023 57.3778C-130.656 55.5716 -129.146 53.5848 -127.693 51.6582C-129.943 53.7052 -131.881 55.4512 -133.163 56.6855L-128.234 50.725C-126.582 48.7381 -124.986 46.6911 -123.134 44.915C-121.681 43.741 -122.593 45.0655 -124.131 47.0825C-123.448 46.2998 -122.792 45.5472 -122.251 44.9752C-118.063 41.423 -119.772 43.8313 -122.251 46.9018C-123.761 48.0157 -125.072 49.28 -126.411 50.4841C-128.519 53.7353 -130.371 56.7758 -129.459 56.565C-128.889 55.7522 -127.693 54.2772 -126.354 52.6516C-126.895 53.4945 -127.208 54.0665 -126.838 53.7955C-126.439 53.4945 -125.527 52.1398 -124.046 50.1229C-123.077 49.4907 -122.023 48.9489 -120.941 48.4371L-120.627 47.5641L-113.334 41.0016L-105.584 35.1013C-103.106 32.5726 -100.342 30.646 -97.6927 28.3882C-96.3537 27.2744 -94.9861 26.1907 -93.5616 25.0467C-92.0801 24.0533 -90.5417 23.0298 -88.9747 21.9762C-87.3793 20.9226 -85.7269 19.8388 -84.0175 18.725C-82.2796 17.6112 -80.3423 16.7382 -78.348 15.6846C-76.3252 14.661 -74.2169 13.6074 -71.9947 12.4936C-69.687 11.5604 -67.2369 10.6874 -64.6158 9.72408C-69.6015 12.2528 -65.3565 11.3196 -65.3565 12.313C-66.838 12.5538 -68.5759 13.0656 -70.5417 13.7278C-72.479 14.4202 -74.5018 15.5341 -76.724 16.6178C-78.9178 17.7617 -81.3394 18.8153 -83.6756 20.2302C-86.0118 21.645 -88.4619 23.09 -90.969 24.4447C-85.7269 21.6149 -86.6955 22.6686 -87.9206 23.5416C-82.2511 19.7786 -76.1258 16.9188 -70.0289 13.9988C-70.1998 14.8718 -65.7839 13.1559 -60.7412 11.741C-62.8209 11.6808 -59.3736 10.0552 -54.2169 8.82098C-51.6528 8.18881 -48.7469 7.28571 -45.8979 6.77395C-43.0489 6.3224 -40.3708 5.87084 -38.348 5.4795C-38.0631 5.69022 -38.405 5.99126 -40.0289 6.4127C-40.8552 6.62343 -41.9947 6.86426 -43.5617 7.10509C-45.1286 7.37602 -47.0944 7.58674 -49.5161 8.24902C-38.5759 7.37602 -35.6699 3.97433 -24.7298 4.54629C-27.1799 4.66671 -28.4905 4.66671 -29.4591 4.96774C-26.6101 4.66671 -21.7099 4.18505 -17.8922 4.48609C-14.103 4.66671 -11.4535 5.08815 -13.1059 5.20857L-15.5275 5.08816C-7.43637 5.4494 4.8143 7.10508 15.0707 9.93481C20.2274 11.2895 24.8713 12.7946 28.3756 14.0891C30.1419 14.6912 31.6519 15.1728 32.7915 15.5039C33.9026 15.8953 34.6718 16.106 35.0137 16.0759C35.0992 16.3167 32.5066 16.5275 31.5094 16.4371C40.8826 18.9658 50.1704 22.518 59.1447 27.0637C57.7772 26.7325 58.8313 28.629 58.7459 29.6225C58.6889 30.1041 58.3755 30.4052 57.3499 30.074C56.3527 29.7429 54.6148 28.8398 51.6519 27.2142C53.2473 28.328 55.0707 29.5321 57.2644 31.1878C59.4581 32.8134 62.1932 34.5895 65.441 37.1483C63.4752 35.3421 61.139 31.6394 64.045 33.8972C67.6062 37.63 68.9453 38.7438 70.3413 40.2791C71.0536 41.0317 71.8228 41.8144 72.9624 42.9884C74.0735 44.1624 75.6119 45.6977 77.5777 48.1662C74.8712 45.1257 79.2017 46.9922 83.5891 51.8087C82.7344 51.2367 82.7914 53.3741 81.082 51.7786C83.0479 53.5547 84.9852 55.391 86.951 57.1972C88.9168 59.0335 90.6832 61.0505 92.5635 62.9771C89.857 59.9968 91.1105 63.3082 92.8769 66.4691C92.535 65.6864 94.5008 68.5462 96.8655 72.0081C99.1732 75.5302 101.68 79.835 102.848 81.6111C101.823 79.5641 100.683 77.5772 99.629 75.5603C100.797 77.517 101.851 79.2028 102.82 80.6779C103.703 82.2132 104.529 83.5377 105.27 84.7419C106.808 87.12 108.148 88.9563 109.316 90.883C111.794 94.676 114.33 98.5292 117.492 107.199C116.979 106.206 116.039 105.092 115.612 105.363C115.384 105.483 115.299 105.965 115.441 106.958C115.526 107.5 115.612 107.982 115.868 108.945C116.182 110.059 116.609 111.444 117.15 113.069C117.464 113.671 117.891 114.484 118.404 115.447C118.518 115.658 118.66 115.899 118.774 116.14L118.974 116.501C118.974 116.501 119.259 116.35 119.401 116.29C119.999 115.869 120.626 115.417 121.31 114.966C122.478 114.123 123.789 113.19 125.213 112.166C126.353 111.383 127.549 110.541 128.86 109.668C133.988 106.296 140.882 102.774 148.66 100.847L151.737 100.727C153.731 100.366 155.726 99.9441 157.749 99.6431C159.771 99.4323 161.794 99.0711 163.845 98.9507C160.056 99.7334 152.934 101.299 145.783 104.098C138.603 106.808 131.481 110.661 126.638 113.611C132.763 111.353 128.432 113.19 137.521 109.668C140.883 109.005 132.734 112.046 130.199 113.37C137.093 110.42 144.301 108.223 151.595 106.988C151.025 106.567 155.185 105.513 159.43 104.941C163.675 104.249 168.033 104.219 167.606 103.737C159.43 104.008 151.367 105.513 143.589 108.012C142.991 107.711 146.21 105.905 151.737 104.309C157.264 102.744 165.213 101.57 173.333 102.352C175.384 102.774 174.558 103.135 173.304 103.436C172.051 103.827 170.341 104.159 170.484 104.339C170.996 104.279 172.222 104.219 173.731 104.279C175.27 104.399 177.122 104.52 178.974 104.731C180.797 105.032 182.62 105.303 184.045 105.634C185.469 105.995 186.523 106.296 186.865 106.446L183.532 105.874L180.17 105.513C182.335 105.995 184.301 106.326 186.182 106.778C188.09 107.109 189.914 107.53 191.766 108.042C195.498 108.975 199.401 110.48 203.959 113.37C205.555 114.364 207.777 116.08 209.714 117.494C211.538 119.06 213.048 120.414 213.475 120.354C211.338 118.096 210.455 115.989 210.512 114.785C210.569 113.551 211.823 112.828 213.76 113.792C214.244 114.303 218.518 117.284 222.364 121.378C224.415 123.274 226.267 125.532 227.834 127.429C228.632 128.392 229.344 129.235 229.942 130.017C230.484 130.83 230.911 131.493 231.224 131.974C232.934 134.774 231.025 133.238 229.059 131.643C227.036 130.108 224.871 128.663 226.466 130.83C226.637 130.83 227.407 131.342 228.204 132.095C228.974 132.847 229.828 133.72 230.341 134.262C231.538 135.918 231.11 135.707 231.082 135.948C231.082 136.068 231.167 136.309 231.623 136.911C232.107 137.513 232.848 138.537 234.102 140.343C235.954 140.764 243.446 155.666 237.122 143.263C239.543 146.845 240.569 148.952 241.766 151.12C242.734 153.438 244.016 155.816 246.011 160.542C245.697 158.887 247.036 160.783 248.917 164.155C249.942 165.81 250.74 167.978 251.709 170.175C252.164 171.289 252.62 172.433 253.076 173.517C253.418 174.661 253.788 175.805 254.102 176.858C253.731 176.407 253.931 178.454 254.016 179.447C254.643 181.645 255.013 183.782 255.384 185.799C255.726 187.816 256.153 189.743 256.381 191.609C256.751 195.342 257.35 198.774 257.464 202.236C257.634 205.667 257.919 209.069 257.834 212.651C257.834 214.458 257.834 216.294 257.834 218.251C257.748 220.328 257.634 222.495 257.549 224.783C257.521 225.114 257.435 225.686 257.35 226.348C257.321 226.71 257.264 227.071 257.236 227.462L257.179 228.064C257.179 228.245 257.065 228.576 257.264 228.516C259.885 228.245 263.19 228.034 260.284 228.757C261.794 228.426 263.361 228.125 264.899 227.824C266.324 227.583 268.062 227.342 270.54 227.221C275.327 227.492 272.563 227.613 269.543 227.793C266.523 228.004 263.247 228.426 266.894 228.636C267.179 228.335 270.341 227.854 274.33 227.643C278.318 227.402 283.133 227.462 286.637 227.643C285.612 227.071 281.509 226.649 276.808 226.74C274.444 226.8 271.965 226.92 269.6 227.161C268.432 227.312 267.293 227.402 266.238 227.553C265.099 227.733 264.016 227.884 263.048 228.034C263.304 227.372 266.21 226.318 271.424 225.566C276.637 224.783 284.073 224.422 292.649 225.385C299.429 226.318 300.825 227.071 300.854 227.252C300.854 227.492 299.515 227.402 300.683 227.583C306.894 229.148 311.281 230.563 314.643 231.827C316.352 232.399 317.834 232.941 319.144 233.513C320.455 234.055 321.708 234.446 322.82 235.018C325.099 236.072 327.293 237.065 329.914 238.841C331.253 239.654 332.677 240.738 334.244 242.062C335.897 243.327 337.577 245.013 339.515 247.03C345.013 254.014 338.746 248.414 339.686 250.281C335.669 246.307 332.392 243.477 329.344 241.099C326.295 238.721 323.446 236.794 320.085 235.078C321.481 235.771 322.763 236.674 324.073 237.517C325.412 238.33 326.694 239.203 327.919 240.196C326.409 239.233 323.988 237.968 321.538 236.614C319.03 235.41 316.495 234.085 314.643 233.242C317.691 234.958 327.777 239.323 336.78 248.173C346.01 256.693 353.133 269.637 356.039 279.391C356.723 281.077 357.663 283.334 358.29 284.87C358.831 286.435 359.173 287.188 358.945 285.712C358.404 283.605 357.549 281.618 356.865 279.571C356.21 276.621 357.378 279.451 358.432 282.04C359.515 284.629 360.255 287.037 359.23 283.003C360.654 287.157 362.193 291.613 363.218 296.67C363.503 297.934 363.76 299.229 364.045 300.553C364.216 301.878 364.415 303.263 364.615 304.648C365.013 307.477 365.241 310.457 365.64 313.227C365.469 314.01 365.355 314.792 365.241 315.575C365.327 315.425 364.956 313.528 364.757 311.21C364.557 308.952 364.187 306.002 363.845 304.316C364.102 305.581 364.301 307.417 364.472 309.524C364.614 311.571 364.814 313.829 365.298 316.087C366.238 320.632 368.318 324.937 370.284 326.774C368.973 324.365 367.948 321.837 367.207 319.218C368.803 323.011 371.367 326.834 374.643 330.085C376.267 331.711 378.119 333.186 380.056 334.48C381.936 335.744 384.273 336.858 386.438 338.092C384.614 336.617 384.102 336.377 383.304 335.955C382.506 335.504 381.424 335.052 379.116 332.584C381.082 334.841 375.982 331.5 372.706 326.713C371.025 324.395 369.8 321.867 369.173 320.572C368.518 319.278 368.318 319.187 368.973 321.626C368.033 318.044 367.293 315.063 366.865 311.692C366.694 309.886 366.552 307.989 366.352 305.912C366.153 303.744 366.124 301.336 365.868 298.657C365.64 299.048 366.01 302.48 364.415 293.178C364.244 292.787 363.988 291.823 363.76 291.221C363.703 290.95 363.674 290.83 363.617 290.589C363.646 290.77 363.674 290.92 363.703 291.101C363.56 290.71 363.532 290.68 363.731 291.282C364.045 293.509 364.216 295.315 364.187 296.098C363.788 294.984 363.389 293.238 362.848 291.191C362.25 289.144 361.566 286.796 360.854 284.448C359.287 279.782 357.549 275.116 356.324 272.949C354.273 267.801 357.52 274.935 356.637 272.015C355.583 269.758 354.216 267.62 352.905 265.513C352.962 265.272 352.62 264.279 352.164 263.135C351.623 262.021 350.996 260.757 350.569 259.884C349.686 258.108 349.8 257.716 353.389 263.255C351.367 259.823 349.287 256.452 346.808 253.351C345.868 251.846 344.643 250.401 343.361 248.896C342.706 248.143 342.079 247.361 341.395 246.608L339.23 244.501C338.518 243.808 337.777 243.116 337.093 242.454C336.324 241.852 335.612 241.25 334.871 240.678C333.446 239.534 332.079 238.51 330.825 237.788C326.438 234.296 318.546 231.496 323.019 233.182C317.634 230.473 311.993 228.365 306.295 226.8L306.181 226.589C298.689 224.362 290.797 223.218 282.677 222.947C278.603 222.766 274.501 222.796 270.313 222.947C268.233 223.037 266.125 223.188 263.988 223.338C263.133 223.398 262.307 223.459 261.452 223.519C261.452 222.706 261.68 221.622 261.794 220.84C261.794 215.03 261.538 208.437 260.74 198.262L261.025 196.185C260.683 194.228 260.455 191.76 260.028 189.141C259.572 186.522 259.059 183.722 258.603 181.073C257.35 175.835 256.182 171.139 255.298 169.634C254.786 165.299 251.566 156.087 246.609 147.026C241.766 137.874 234.729 129.385 230.028 124.358L229.144 124.509C222.592 117.705 215.384 112.016 205.042 106.928L205.384 107.831C200.911 105.814 195.156 103.165 188.432 101.118C181.737 99.0711 174.045 97.7164 166.296 97.7767C167.35 97.4455 171.281 97.7164 174.045 98.0777C164.871 96.4822 154.9 97.5358 145.669 99.9742C141.082 101.299 136.581 102.774 132.364 104.52C130.227 105.333 128.176 106.206 126.153 107.139C125.27 107.5 124.415 107.861 123.561 108.223C123.133 108.403 122.706 108.554 122.336 108.674C122.136 108.795 121.937 108.945 121.737 109.065C121.652 109.096 121.509 109.246 121.481 109.186L121.367 108.915C121.224 108.554 121.082 108.192 120.968 107.831C120.655 106.747 120.37 105.784 120.085 104.821C120.227 105.182 120.37 105.543 120.484 105.814C120.341 105.393 120.113 104.761 119.914 104.128C119.373 102.292 118.689 100.456 117.977 98.4389C118.518 100.185 119.059 101.841 119.572 103.255C118.233 100.215 116.467 95.4587 114.102 91.1539L113.817 88.9262C113.646 88.565 113.504 88.264 113.304 87.9027C112.393 85.645 111.851 84.8322 111.652 84.8924C111.452 84.9526 111.68 85.8256 111.994 87.1501C110.826 84.9827 109.544 83.0862 108.603 81.6412C108.375 80.6478 107.863 79.4437 107.179 78.1191C106.467 76.8247 105.555 75.47 104.615 74.025C103.675 72.6102 102.763 71.1351 101.908 69.7202C100.997 68.3355 100.227 66.9808 99.7145 65.7165C99.1162 65.1445 97.9766 63.549 96.4096 61.6224C94.8142 59.6958 92.9054 57.3778 90.968 55.0599C88.9168 52.8623 86.894 50.6949 85.1846 49.0091C83.4752 47.3534 82.0222 46.2998 81.3669 46.0589C81.3669 45.8181 80.4267 44.7645 82.2501 46.6008C78.6889 42.5669 74.7857 38.8642 70.9966 35.9442L69.7715 33.8068L64.8997 30.6159C63.2473 29.5924 61.5379 28.6591 59.8855 27.6958C57.2074 25.3478 55.1846 23.8727 54.7003 23.2706C54.1875 22.6987 55.2131 22.9696 58.3185 24.6253C54.6148 22.5481 52.0222 21.0731 50.0279 19.9593C47.9766 18.9056 46.5237 18.1832 45.1276 17.4908C42.3926 16.0157 39.8285 14.9019 33.1619 12.4334L34.0166 12.1625C31.6519 11.1992 28.518 10.1756 25.6405 9.18222C22.7345 8.27912 20.0565 7.46633 18.6605 6.80405C13.4183 4.5764 -0.285414 0.783361 -16.5817 0.211396C-20.6558 -0.0294314 -24.8438 0.211395 -29.0888 0.422119C-31.197 0.51243 -33.3338 0.632845 -35.4705 0.723155C-37.5788 1.02419 -39.687 1.29512 -41.7953 1.59616C-43.9036 1.86709 -45.9833 2.16812 -48.0631 2.43905C-50.0859 2.8906 -52.1087 3.34216 -54.0745 3.79371C-56.0403 4.21516 -58.0061 4.66671 -59.8864 5.05805C-61.7953 5.4494 -63.5617 6.14177 -65.328 6.62343C-62.3936 6.53312 -65.6699 7.46633 -69.7725 8.61026C-70.7981 8.91129 -71.8807 9.21233 -72.9349 9.51336C-73.9605 9.8746 -74.9292 10.296 -75.8124 10.6573C-77.5503 11.4099 -78.8038 12.1023 -78.9463 12.5237C-80.6557 12.8548 -84.5018 14.3299 -80.2853 12.0119C-81.9947 12.8247 -83.5901 13.5773 -85.1001 14.2697C-86.5531 15.0825 -87.9491 15.8351 -89.2596 16.5877C-91.9092 18.0326 -94.2739 19.297 -96.4961 20.5312C-100.741 23.3911 -104.587 25.7993 -108.433 29.4418C-110.029 30.1944 -106.211 26.9132 -107.579 27.6657C-108.49 28.5086 -111.14 31.0072 -112.507 31.82C-113.846 32.6027 -110.969 30.1342 -109.203 28.4484C-115.243 33.4155 -118.433 36.3355 -119.858 38.5331C-121.368 40.6102 -121.453 41.5434 -121.482 42.3863C-124.502 44.8849 -126.724 46.8416 -128.405 48.9489C-130.143 50.9959 -131.596 52.9526 -133.191 55.3308C-134.274 56.2038 -135.527 57.5284 -135.812 57.6488C-136.097 57.7692 -135.527 56.565 -132.308 52.9225C-134.274 54.819 -139.402 61.4418 -143.903 67.7635C-145.983 71.0448 -147.978 74.2358 -149.402 76.644C-150.855 79.0523 -151.453 80.8585 -151.368 81.0692C-152.365 82.4841 -155.015 87.8425 -155.613 89.1671C-160.741 100.456 -161.368 101.359 -165.185 112.979L-163.932 109.818C-164.16 112.317 -165.072 114.665 -165.926 117.705C-166.354 119.21 -166.838 120.896 -167.379 122.763C-167.864 124.448 -168.234 125.773 -168.69 127.639V127.278C-168.804 127.459 -168.804 127.85 -168.975 127.82C-169.203 127.699 -169.402 127.609 -169.601 127.489C-170 127.278 -170.371 127.067 -170.741 126.887C-171.453 126.495 -172.08 126.194 -172.621 125.953C-173.96 125.321 -175.442 124.689 -176.439 124.358C-178.547 123.545 -179.658 123.244 -180.769 122.973C-181.881 122.672 -182.992 122.371 -185.128 121.799C-187.237 121.197 -190.399 120.384 -195.727 119.511C-195.356 119.782 -194.986 120.053 -194.644 120.354C-195.727 121.017 -200.342 120.174 -206.354 120.083C-212.365 119.873 -219.801 120.776 -225.67 123.094C-224.217 122.732 -222.735 122.431 -221.254 122.221C-224.473 123.304 -229.117 124.268 -233.704 125.863C-235.983 126.646 -238.348 127.338 -240.371 128.392C-242.422 129.355 -244.388 130.228 -245.812 131.312C-247.123 132.125 -243.989 129.626 -242.137 128.512C-244.217 129.566 -245.698 130.589 -246.809 131.402C-247.92 132.185 -248.69 132.757 -249.231 133.178C-250.257 134.021 -250.285 134.232 -250.2 134.382C-249.972 134.683 -249.259 134.714 -254.359 139.38C-256.524 140.794 -252.906 135.978 -259.487 142.751C-261.254 144.317 -265.413 149.886 -269.345 156.719C-273.362 163.553 -276.638 171.831 -279.316 177.701C-278.69 176.407 -278.006 175.173 -277.721 175.022C-277.465 174.872 -277.721 175.775 -278.633 178.905C-279.43 181.254 -280.456 183.993 -281.339 187.003C-282.365 189.983 -283.22 193.205 -283.989 196.426C-284.843 199.647 -285.271 202.898 -285.755 205.878C-286.097 208.888 -286.211 211.658 -286.154 213.916C-286.382 215.18 -286.467 215.632 -286.553 215.692C-286.553 216.926 -286.553 218.582 -286.553 220.358C-287.123 220.508 -287.863 220.538 -288.576 220.629C-289.801 220.749 -291.026 220.84 -292.222 220.96C-294.986 221.08 -297.607 221.803 -299.801 222.254C-301.994 222.736 -303.789 223.188 -304.815 223.549C-306.553 223.308 -310.143 224.151 -314.559 225.355C-316.752 225.987 -319.031 227.101 -321.425 228.094C-322.621 228.606 -323.818 229.148 -325.043 229.66C-326.211 230.262 -327.351 230.984 -328.519 231.617C-330.798 232.971 -333.077 234.145 -335.071 235.47C-337.037 236.824 -338.832 238.089 -340.37 239.173C-343.533 241.159 -345.356 242.725 -345.698 242.183C-348.576 244.681 -351.624 246.969 -354.217 249.829L-358.234 253.923C-359.601 255.278 -360.684 256.873 -361.937 258.318L-361.709 257.686C-371.197 269.035 -372.878 274.363 -374.957 279.12C-376.724 282.04 -375.698 279.752 -375.67 279.451C-377.094 281.769 -378.034 283.997 -378.946 285.983C-379.829 287.97 -380.627 289.746 -381.368 291.372C-382.65 294.683 -383.447 297.483 -384.302 300.132C-385.214 302.751 -385.641 305.43 -386.211 308.531C-386.467 310.066 -386.781 311.722 -387.094 313.558C-387.379 315.394 -387.436 317.441 -387.664 319.729L-388.632 321.505C-388.917 323.974 -389.858 331.861 -390 341.885C-390 351.91 -388.348 364.072 -384.872 374.247C-385.014 374.066 -385.271 373.675 -385.812 372.079C-384.9 374.969 -383.932 377.979 -382.821 381.05C-382.479 381.983 -382.137 382.916 -381.795 383.85C-381.368 384.964 -380.912 386.107 -380.484 387.251C-380.427 388.064 -379.658 387.793 -379.117 387.853H-377.379L-374.131 387.914C-367.92 388.064 -361.624 388.215 -355.784 388.365C-344.131 388.666 -334.217 388.696 -330.114 387.342L-315.299 386.679C-334.473 386.469 -312.45 385.505 -320.342 385.054C-312.792 384.903 -300.855 385.867 -310.114 386.017L-311.567 385.867C-314.986 387.281 -287.721 386.378 -288.262 387.342C-250.513 387.281 -213.732 388.064 -178.376 388.124L-182.45 387.011L-170.114 387.071C-166.866 387.342 -165.784 387.944 -174.559 387.884C-169.943 388.516 -159.801 387.372 -159.544 387.131C-142.308 387.583 -166.268 388.425 -160.997 388.456L-153.818 388.365L-155.442 388.245C-149.63 387.793 -149.117 387.312 -138.547 387.372C-131.852 387.583 -135.129 388.064 -132.479 388.094C-132.479 388.124 -132.28 388.155 -131.653 388.185C-131.026 388.185 -130.029 388.185 -128.433 388.154L-112.906 388.245L-119.117 387.372C-112.223 386.95 -104.502 387.432 -111.681 386.439C-101.168 387.944 -53.7326 386.98 -47.2654 387.462C-37.6073 386.83 -28.0916 386.83 -16.2968 386.92C-19.2312 386.74 -20.9691 385.776 -10.7982 385.867C-14.5304 387.884 7.83427 386.74 16.0394 388.185C8.68897 387.221 44.9567 387.944 33.4183 386.589C41.9083 386.74 33.9311 387.342 40.3698 387.823C60.5692 387.041 84.8997 388.335 109.857 388.064C110.256 387.793 106.068 387.402 111.424 387.011L124.615 388.335C129.544 388.215 129.145 386.8 138.176 387.733C136.894 387.522 135.014 387.161 138.318 387.101C187.236 388.395 238.261 386.047 287.948 388.456C281.224 387.944 285.697 387.884 290.854 387.884C287.521 387.763 290.939 387.221 290.284 386.86L311.082 387.853C314.871 386.86 333.389 387.793 335.555 386.83L328.973 387.011C337.72 385.897 316.723 384.512 318.005 383.067C308.204 384.331 292.136 381.17 276.068 383.007C272.506 382.706 279.087 382.555 277.207 382.194C273.133 382.826 268.204 382.947 259.088 382.676L260.113 382.525C234.472 382.676 223.475 382.074 194.672 381.652L196.808 382.375C190.626 382.284 189.315 382.043 186.41 381.863C179.315 382.947 203.788 381.923 197.321 383.127C189.116 381.682 153.675 383.127 148.119 381.471C138.603 381.471 150.911 382.284 141.395 382.284L138.86 381.833L136.467 382.405C130.227 382.314 127.065 381.742 126.837 381.381C128.347 381.411 131.139 381.261 132.763 381.231C124.672 380.719 109.942 381.411 107.15 381.231L116.296 381.502C90.3128 381.923 58.5749 381.321 33.4752 382.254L35.3841 382.585C16.2103 383.218 20.028 382.224 -1.02613 382.495L-0.256892 382.405C-4.47341 382.736 -10.086 382.916 -15.8694 382.856C-10.5418 382.465 -25.8694 382.104 -18.8894 381.652C-39.6871 382.314 -29.1742 382.164 -42.9064 383.428L-46.0688 382.856C-50.7412 383.368 -51.14 383.639 -61.6528 383.759C-53.0204 383.278 -68.3765 382.916 -58.6899 382.284C-80.7411 381.05 -91.4534 383.519 -101.567 381.742C-111.71 383.278 -82.479 382.585 -88.1485 382.916C-83.3907 383.428 -96.5246 384.06 -103.448 383.91C-110.485 383.88 -115.442 381.923 -133.163 381.953C-131.396 381.953 -131.282 381.833 -129.516 381.863C-136.154 381.471 -142.507 382.405 -150.656 381.742C-155.214 382.676 -161.225 381.682 -162.536 382.886L-146.268 382.615C-155.499 382.916 -164.131 384.331 -179.317 383.639C-178.12 383.398 -173.619 383.097 -170.513 382.916C-174.958 382.555 -179.06 383.157 -183.675 382.796C-182.365 381.592 -163.903 382.525 -154.046 381.622C-158.804 381.11 -172.735 382.495 -167.778 381.201C-174.901 382.856 -185.242 380.99 -197.265 382.254L-196.467 381.532C-198.376 381.652 -202.308 381.983 -205.812 381.953L-199.487 381.02C-209.202 381.803 -218.234 380.328 -227.55 380.749C-208.034 380.749 -223.163 381.622 -214.901 382.134C-238.975 383.097 -228.747 380.267 -255.698 380.599C-252.051 380.508 -241.994 381.02 -247.692 381.351C-252.821 381.201 -259.601 380.93 -262.764 380.568C-280.627 380.719 -260.029 381.291 -267.635 381.742C-273.704 380.869 -276.41 382.104 -284.245 382.375L-284.302 381.652C-304.644 381.201 -289.687 383.157 -308.034 382.615L-300.285 381.622L-309.829 381.893L-307.863 381.08C-318.262 381.682 -321.482 381.532 -331.681 381.291C-329.316 381.803 -333.02 382.615 -342.023 382.646C-348.177 382.224 -338.576 381.953 -351.368 382.074C-348.49 381.622 -345.328 381.05 -339.772 381.712C-339.202 381.471 -336.923 381.261 -336.353 381.02C-342.963 380.538 -352.991 380.9 -357.607 380.9C-355.812 380.9 -353.704 380.96 -352.593 381.08L-371.111 382.074C-374.017 381.803 -371.709 381.592 -369.43 381.381C-371.282 381.411 -372.934 381.532 -374.672 381.622C-375.071 381.652 -375.527 381.712 -376.011 381.773C-376.125 381.773 -376.296 381.863 -376.382 381.773L-376.553 381.411C-376.667 381.14 -376.781 380.869 -376.923 380.538C-376.553 380.719 -376.268 380.629 -375.954 380.749C-375.869 380.749 -375.812 380.839 -375.698 380.839C-375.556 380.779 -375.413 380.749 -375.242 380.659C-375.1 380.629 -374.929 380.568 -374.729 380.508C-374.786 380.508 -374.131 380.478 -373.789 380.448C-373.362 380.448 -372.906 380.418 -372.422 380.388L-374.615 380.478L-375.185 380.568C-375.67 380.779 -375.755 380.297 -375.954 379.966C-376.011 379.816 -376.011 379.876 -376.154 379.545L-376.581 378.521L-377.379 376.444C-377.92 375.059 -378.376 373.645 -378.86 372.23C-379.06 371.026 -380.513 363.138 -379.744 365.336C-381.709 355.733 -384.786 341.313 -383.048 328.038C-383.162 327.345 -383.134 325.961 -382.792 323.161C-381.197 310.789 -377.806 300.283 -372.422 286.676C-371.111 284.237 -369.259 282.13 -367.749 279.872C-365.157 274.845 -366.724 277.103 -367.892 278.548C-368.49 279.27 -368.946 279.782 -368.746 279.06C-368.462 278.367 -367.778 276.26 -365.1 272.316C-363.276 269.487 -362.165 267.831 -361.453 266.898C-360.655 266.025 -360.342 265.844 -360.171 265.874C-359.858 265.934 -360.142 266.898 -358.547 265.182C-357.607 263.827 -356.467 262.202 -355.214 260.395C-353.96 258.559 -352.222 256.843 -350.513 254.856C-349.63 253.893 -348.69 252.9 -347.749 251.876C-346.695 250.973 -345.613 250.07 -344.53 249.137C-342.279 247.331 -340.029 245.344 -337.35 243.959C-338.148 244.531 -338.917 245.103 -339.658 245.615C-340.37 246.187 -341.054 246.759 -341.709 247.331C-343.048 248.444 -344.359 249.558 -345.812 250.762L-345.442 250.522ZM-260.257 155.515C-260.969 156.689 -261.994 158.435 -262.992 160.091C-263.903 161.807 -264.843 163.402 -265.499 164.155C-264.616 161.054 -263.106 159.127 -260.228 155.515H-260.257ZM-111.824 37.9912C-112.536 38.7438 -113.562 39.5265 -114.644 40.5199C-115.727 41.5133 -117.009 42.6271 -118.376 43.7711C-116.525 41.9649 -114.502 39.7974 -111.795 37.9912H-111.824ZM340.683 246.638C340.683 246.638 340.512 246.518 340.426 246.458C335.897 241.792 337.492 243.447 340.683 246.638ZM349.087 257.235C349.885 258.318 349.914 258.198 349.686 257.656C349.059 256.934 347.179 254.555 345.127 251.756C345.583 252.629 346.552 254.104 349.087 257.235V257.235ZM-130.684 387.643L-133.134 387.462C-127.636 387.251 -129.174 387.462 -130.684 387.643Z" fill="#ECF3F9"/>
<path d="M229.429 134.744C227.891 132.636 227.036 131.462 226.438 130.71C226.21 130.74 227.008 131.583 229.429 134.744Z" fill="#ECF3F9"/>
<path d="M371.338 322.649C370.113 320.512 369.144 318.224 368.404 315.846C369.486 319.278 369.914 320.512 370.654 322.198C370.711 321.957 370.284 320.602 371.338 322.649V322.649Z" fill="#ECF3F9"/>
<path d="M430.056 349.712C431.224 349.622 432.535 349.712 433.703 349.472L433.361 349.171C428.404 349.411 424.899 349.592 430.056 349.712V349.712Z" fill="#ECF3F9"/>
<path d="M373.446 329.874C373.389 330.747 376.808 334.51 381.595 337.099C381.31 336.918 381.053 336.768 380.768 336.587C382.535 336.617 377.35 334.239 373.418 329.874H373.446Z" fill="#ECF3F9"/>
<path d="M382.734 337.671C384.273 338.424 385.783 339.297 387.321 339.959C388.033 339.929 385.441 339.086 382.734 337.671Z" fill="#ECF3F9"/>
<path d="M357.634 272.166C358.632 274.905 359.03 273.551 359.458 275.146C360.427 276.501 358.318 272.076 356.808 269.216C356.01 267.801 355.241 266.807 355.27 266.988C355.27 267.199 356.067 268.523 357.634 272.166V272.166Z" fill="#ECF3F9"/>
<path d="M375.27 334.57C374.928 333.908 374.557 333.276 374.273 332.614C373.389 332.012 372.535 331.349 371.708 330.657C372.791 332.072 373.988 333.366 375.27 334.6V334.57Z" fill="#ECF3F9"/>
<path d="M360.882 291.583C361.452 294.713 361.965 297.844 362.449 300.975C362.563 300.824 362.763 301.998 362.991 303.473C362.734 300.553 362.107 297.543 361.708 295.255C361.31 292.967 360.996 291.462 360.882 291.613V291.583Z" fill="#ECF3F9"/>
<path d="M362.991 303.474C363.332 306.484 363.731 309.434 364.016 311.029C363.817 309.464 363.361 305.882 362.991 303.474V303.474Z" fill="#ECF3F9"/>
<path d="M367.35 324.696C366.979 323.823 366.58 323.011 366.295 322.107C365.412 320.091 364.728 317.953 364.216 315.786C364.899 318.856 365.954 321.867 367.378 324.696H367.35Z" fill="#ECF3F9"/>
<path d="M293.788 226.65C290.54 226.198 287.264 225.897 283.988 225.746C282.962 225.927 285.64 226.258 289.287 226.559C291.652 226.68 295.27 227.131 293.817 226.65H293.788Z" fill="#ECF3F9"/>
<path d="M321.224 237.938C318.974 236.554 318.86 236.373 317.606 235.47L316.979 236.192C318.375 236.764 319.828 237.276 321.224 237.938Z" fill="#ECF3F9"/>
<path d="M294.501 229.088C293.503 229.028 280.541 228.004 292.649 229.479C293.646 229.329 303.19 230.954 294.501 229.088Z" fill="#ECF3F9"/>
<path d="M220.484 121.95L222.392 123.605L223.076 122.221L220.484 121.95Z" fill="#ECF3F9"/>
<path d="M107.72 93.1407C110.142 98.5594 110.512 99.1614 110.94 99.5829C111.338 100.004 111.68 100.305 113.532 105.393C114.928 107.861 110.512 97.0843 111.88 99.613C108.717 93.1407 107.093 89.7391 107.72 93.1407V93.1407Z" fill="#ECF3F9"/>
<path d="M111.88 99.613C112.393 100.667 112.905 101.75 113.475 102.924C112.592 101.028 112.165 100.155 111.88 99.613Z" fill="#ECF3F9"/>
<path d="M325.355 388.425L332.848 388.757L328.005 388.215L325.355 388.425Z" fill="#ECF3F9"/>
<path d="M339.714 387.282L341.481 388.245L345.954 387.372C344.273 387.402 340.996 387.492 339.714 387.282Z" fill="#ECF3F9"/>
<path d="M25.2132 10.6573C25.2132 10.6573 -141.852 2.40895 -129.544 173.547C-129.544 173.547 -181.567 131.161 -225.271 159.85C-295.385 205.848 -263.533 374.999 -165.1 384.723H-378.006C-378.006 384.723 -406.638 312.685 -359.031 259.071C-359.031 259.071 -327.237 221.923 -283.789 222.826C-283.789 222.826 -282.023 157.953 -244.074 134.563C-244.074 134.563 -202.878 101.63 -167.579 129.957C-167.579 129.957 -156.382 65.566 -103.989 29.773C-103.989 29.773 -42.9349 -16.8573 25.2132 10.6272V10.6573Z" fill="#CCE1F0"/>
<path d="M24.1591 8.36942C26.2674 9.12201 25.6121 8.55004 25.954 8.61025C22.3927 7.46632 24.2446 8.45973 24.1591 8.36942Z" fill="#CADEEC"/>
<path d="M-217.692 362.747C-216.154 364.222 -214.701 365.848 -212.992 367.142C-219.231 362.597 -223.191 358.503 -218.974 362.928C-218.633 362.898 -217.322 363.921 -215.499 365.456C-213.675 366.992 -211.083 368.738 -208.633 370.634C-203.504 374.156 -198.12 377.197 -197.465 376.805L-193.818 378.853C-194.9 378.341 -195.071 378.25 -196.125 377.739C-194.359 378.762 -193.106 379.394 -192.08 379.846C-191.054 380.267 -190.228 380.418 -189.345 380.629C-188.462 380.839 -187.522 381.05 -186.182 381.471C-184.843 381.863 -183.163 382.555 -180.655 383.157C-177.18 384.151 -174.787 384.933 -177.18 384.422C-174.587 385.144 -171.909 385.325 -169.259 385.686C-166.952 386.047 -167.55 386.138 -169.829 385.776L-165.214 386.439L-165.071 383.097L-172.507 383.157H-172.422C-174.131 383.278 -178.034 383.549 -179.915 383.639C-182.963 383.488 -178.376 383.519 -179.174 383.398L-185.841 383.639C-188.547 383.368 -183.049 383.127 -178.433 383.157C-184.644 382.134 -183.96 383.428 -197.379 382.826L-191.083 382.706C-195.128 382.134 -200.029 382.344 -207.151 381.983C-205.47 382.164 -192.935 382.886 -200.143 383.157C-202.165 383.067 -204.872 383.037 -208.747 383.248C-208.775 382.886 -212.593 382.977 -217.351 383.007L-217.037 382.525C-222.194 382.676 -221.766 382.916 -224.815 383.127C-230.541 383.067 -231.738 382.706 -233.077 382.405C-242.251 382.314 -226.724 383.007 -237.607 383.097C-245.242 382.916 -250.598 383.097 -259.744 383.398C-265.1 383.217 -258.803 383.097 -260.741 382.977L-265.47 383.368C-266.638 383.368 -266.268 383.248 -266.068 383.187C-270.057 383.338 -266.41 383.669 -272.678 383.789C-274.359 384.331 -285.556 383.007 -293.333 383.609C-295.242 383.458 -292.422 383.308 -292.991 383.127C-303.647 383.519 -302.137 383.428 -310.883 383.94L-318.348 383.639C-312.877 384 -319.858 384.422 -326.011 384.783C-324.046 384.964 -322.393 385.084 -321.282 385.174L-331.083 385.445C-332.251 385.355 -331.282 385.204 -329.687 384.994C-330.342 385.024 -330.969 385.084 -331.481 385.114C-334.986 384.933 -333.162 384.662 -330.655 384.392C-329.459 384.482 -328.291 384.602 -327.122 384.693C-324.701 384.392 -322.45 384.091 -322.934 383.789C-323.561 383.85 -324.786 383.88 -326.154 383.91C-325.527 383.82 -325.128 383.759 -325.413 383.699C-325.755 383.639 -326.752 383.759 -328.376 383.88L-330.598 383.338L-331.14 383.549L-343.932 383.217C-353.105 383.759 -361.054 384.542 -375.612 384.783C-371.994 384.392 -374.843 384.151 -374.644 383.669C-370.684 384.151 -363.39 383.458 -355.84 383.549C-359.772 383.488 -358.917 383.278 -357.92 383.187L-371.367 383.639C-371.225 383.458 -371.937 383.368 -373.134 383.338C-373.732 383.338 -374.444 383.308 -375.242 383.278C-375.584 383.278 -375.926 383.278 -376.296 383.248L-376.866 383.187C-376.638 383.308 -376.866 383.639 -377.293 383.458C-377.436 383.218 -377.55 382.947 -377.749 382.465C-378.006 381.773 -378.291 380.99 -378.604 380.117C-379.8 376.655 -380.969 372.049 -381.738 369.31C-381.538 368.888 -381.14 370.213 -379.316 376.926C-380.855 369.4 -382.649 367.534 -383.561 359.978C-383.248 361.663 -383.134 362.567 -382.906 363.199C-383.989 359.345 -384.986 349.622 -384.473 351.88L-384.273 353.566C-384.957 347.936 -385.612 339.327 -385.47 331.921C-385.413 324.516 -384.672 318.314 -384.9 317.441C-384.815 317.351 -384.359 319.037 -384.302 319.729C-384.188 312.986 -383.504 306.183 -382.194 299.44C-382.194 301.306 -379.145 295.165 -381.396 304.226C-381.054 302.932 -380.627 301.517 -380.057 299.741C-379.544 297.965 -378.86 295.827 -377.949 293.178C-378.632 294.864 -380.228 297.182 -379.402 294.804C-377.977 291.673 -377.464 290.619 -376.838 289.385C-376.211 288.151 -375.641 286.646 -373.533 283.063C-374.786 285.472 -374.33 282.281 -372.165 278.518C-372.393 279.18 -371.282 278.638 -371.994 280.053L-369.687 275.206L-367.122 270.48C-368.433 272.828 -366.866 271.233 -365.299 269.487C-365.698 269.878 -364.33 268.042 -362.678 265.814C-360.912 263.677 -358.832 261.178 -357.949 260.094L-360.969 263.406C-357.179 258.77 -355.242 256.633 -353.333 254.345C-351.396 252.117 -349.459 249.829 -344.815 246.187C-345.84 247.21 -346.952 249.227 -342.222 245.615C-340.313 243.658 -333.59 236.584 -324.273 231.647L-322.365 230.984C-320.028 229.69 -317.521 228.727 -315.1 227.583C-316.239 228.215 -317.835 229.088 -319.687 230.111C-321.567 231.105 -323.618 232.52 -325.783 233.844C-327.92 235.199 -330.028 236.794 -332.051 238.179C-334.017 239.684 -335.84 241.099 -337.322 242.243C-333.533 240.015 -336.182 241.761 -330.627 238.269C-329.573 237.788 -330.313 238.33 -331.51 239.082C-332.707 239.895 -334.302 240.979 -335.1 241.521C-332.963 240.136 -330.826 238.781 -328.575 237.607C-326.382 236.313 -324.131 235.229 -321.852 234.145C-322.735 233.814 -311.453 229.028 -312.023 229.058C-314.615 229.931 -317.066 231.255 -319.601 232.309C-322.051 233.573 -324.501 234.838 -326.866 236.222C-327.721 236.102 -319.06 230.111 -308.632 227.101C-305.983 226.439 -310.342 228.606 -310.085 228.697C-309.43 228.456 -307.094 227.402 -304.644 226.89C-302.222 226.288 -299.858 225.716 -299.373 225.686L-303.732 226.981C-302.279 226.68 -300.969 226.379 -299.715 226.017C-298.462 225.716 -297.208 225.536 -295.954 225.295C-294.701 225.054 -293.39 224.813 -291.937 224.633C-290.484 224.542 -288.917 224.542 -287.151 224.633C-285.897 224.633 -284.16 224.633 -282.422 224.633C-282.251 222.947 -282.108 221.291 -281.994 220.027C-281.88 219.154 -281.823 218.522 -281.909 218.371C-282.365 220.237 -282.991 222.375 -283.561 222.254C-284.103 222.284 -284.587 221.321 -284.729 220.358C-284.701 220.057 -284.302 216.475 -283.732 212.802C-283.134 209.099 -282.336 205.216 -281.937 203.741C-280.798 199.556 -281.994 210.333 -281.026 206.751C-281.14 206.57 -280.912 204.192 -280.798 203.199C-280.199 200.52 -280.684 204.373 -279.573 198.533C-279.972 197.419 -276.809 186.732 -279.402 195.673C-278.148 189.953 -277.977 189.622 -276.011 183.09C-276.467 184.083 -276.325 182.518 -275.755 180.019C-275.071 177.551 -274.217 174.059 -273.105 171.349C-273.105 171.711 -272.45 170.567 -272.137 170.025C-271.539 168.67 -270.969 167.376 -270.427 166.142C-269.858 164.937 -269.202 163.854 -268.633 162.77C-267.436 160.633 -266.467 158.586 -265.128 156.779C-263.846 154.943 -262.735 153.077 -261.311 151.24C-259.829 149.464 -258.291 147.568 -256.524 145.461C-255.698 144.858 -251.852 141.336 -253.305 143.052C-252.792 142.48 -252.279 141.908 -251.624 141.216C-251.282 140.855 -250.94 140.433 -250.456 140.042C-249.943 139.681 -249.373 139.229 -248.718 138.747C-246.011 137.062 -247.493 138.145 -249.117 139.35C-250.826 140.463 -252.251 142.239 -250.37 140.704C-250.285 140.343 -247.066 137.905 -243.875 135.436L-243.818 135.376C-242.479 134.292 -241.054 133.269 -239.886 132.426C-240.456 132.606 -242.108 133.6 -244.017 135.075H-244.046C-245.413 136.128 -247.009 137.333 -248.519 138.507C-249.259 139.109 -250.029 139.651 -250.684 140.222C-251.282 140.855 -251.852 141.427 -252.365 141.938C-252.507 141.788 -251.937 140.825 -250.627 139.44C-249.231 138.175 -247.151 136.399 -244.501 134.292H-244.558C-242.593 132.636 -240.114 130.89 -237.351 129.114C-235.385 127.97 -234.217 127.248 -233.476 126.947C-232.735 126.616 -232.479 126.525 -232.45 126.586C-232.365 126.676 -233.106 127.158 -232.45 126.766C-224.872 123.033 -221.482 121.799 -218.462 120.565C-216.923 120.023 -215.47 119.481 -213.533 118.969C-212.536 118.789 -211.453 118.578 -210.143 118.337C-208.861 118.096 -207.379 117.826 -205.613 117.826C-200.029 117.826 -205.299 118.608 -204.046 118.819C-211.225 119.511 -215.071 120.324 -219.801 121.679C-217.863 121.137 -215.869 120.715 -213.932 120.234C-215.043 120.595 -216.752 121.137 -218.49 121.649C-220.228 122.16 -221.966 122.883 -223.248 123.244C-221.026 122.612 -214.359 120.174 -206.353 119.271C-198.376 118.307 -189.145 119.331 -183.248 121.98C-182.707 122.13 -182.051 122.281 -181.396 122.461C-180.769 122.672 -180.2 122.973 -179.715 123.154C-178.747 123.545 -178.262 123.726 -179.06 123.214C-180.285 122.612 -181.51 122.01 -182.849 121.709C-184.587 120.986 -182.735 121.468 -181.026 121.92C-179.402 122.612 -177.949 123.244 -180.285 122.01C-178.262 122.913 -176.126 123.816 -173.846 124.87C-172.165 125.953 -170.399 127.097 -168.49 128.362C-168.405 127.91 -168.291 127.459 -168.205 127.007C-168.063 126.465 -167.92 125.893 -167.778 125.321L-167.009 123.937C-167.009 123.937 -167.351 124.9 -167.664 126.074C-167.92 126.947 -168.148 127.97 -168.291 128.874C-168.519 128.813 -168.804 128.572 -169.003 128.482C-168.804 128.572 -168.519 128.813 -168.291 128.904C-168.148 128.181 -167.949 127.398 -167.692 126.435C-167.408 125.412 -167.009 123.846 -166.61 122.582C-165.841 119.903 -165.043 117.314 -164.815 115.658C-165.442 117.434 -166.126 119.21 -166.695 121.017C-165.385 115.387 -163.647 108.373 -160.855 101.75C-162.393 104.64 -161.425 103.316 -163.647 107.922C-162.621 105.935 -164.16 110.3 -165.47 114.364C-166.752 118.458 -167.778 122.251 -166.496 118.909C-167.92 122.281 -168.946 126.826 -169.06 127.007C-169.231 126.887 -169.43 126.676 -169.601 126.525L-169.858 126.254C-169.858 126.254 -169.886 126.164 -170.342 125.803C-170.342 125.863 -170.2 125.984 -170.086 126.104C-169.972 126.224 -170.029 126.224 -170.057 126.224C-170.057 126.255 -170.342 126.074 -170.855 125.713C-171.368 125.351 -172.194 124.779 -173.419 123.937C-173.647 123.816 -174.274 123.605 -174.644 123.455C-174.815 123.365 -174.872 123.334 -174.986 123.274C-174.872 123.334 -174.815 123.365 -174.701 123.425C-174.929 123.334 -174.957 123.334 -174.587 123.485C-173.305 124.087 -172.479 124.99 -172.108 125.291C-173.334 124.448 -176.183 123.244 -178.975 121.92C-179.687 121.619 -180.371 121.227 -181.083 120.986C-181.795 120.776 -182.507 120.565 -183.163 120.354C-184.473 119.993 -185.584 119.662 -186.353 119.451C-189.658 118.337 -184.929 119.722 -186.695 119C-188.205 118.548 -189.801 118.578 -191.339 118.337C-191.539 118.157 -193.789 117.555 -195.014 117.344C-195.613 117.254 -195.955 117.193 -195.641 117.133C-195.299 117.073 -194.331 117.043 -192.279 117.404C-194.701 116.832 -197.208 116.983 -199.658 116.802C-201.852 116.501 -204.416 116.892 -206.923 116.983C-209.402 117.223 -211.795 117.795 -213.59 118.157C-217.009 118.909 -221.966 120.836 -219.117 119.752C-222.792 120.986 -226.353 122.431 -229.829 124.117H-229.972C-235.185 126.556 -240.285 129.596 -245.271 133.449L-245.128 133.329C-247.578 135.195 -250.171 136.911 -252.621 138.928C-253.789 140.012 -254.957 141.096 -256.154 142.209L-257.977 143.865C-258.547 144.437 -259.088 145.099 -259.63 145.701C-260.855 147.267 -262.08 148.862 -263.533 150.699C-264.815 152.655 -266.268 154.913 -268.091 157.683L-268.946 158.676C-271.425 163.131 -275.954 172.343 -276.268 174.601C-276.895 175.835 -277.806 177.882 -278.689 180.471C-279.459 183.09 -280.57 186.13 -281.254 189.381C-282.963 195.824 -283.989 202.868 -284.758 207.323L-284.444 207.714C-284.786 210.153 -285.1 212.531 -285.299 215.03C-285.527 217.378 -285.727 220.779 -285.698 221.201C-285.926 221.201 -286.154 221.261 -286.41 221.261C-287.037 221.291 -287.692 221.321 -288.376 221.381L-287.92 221.713C-289.487 221.893 -291.311 221.803 -293.276 222.074C-295.242 222.315 -297.379 222.555 -299.601 222.826C-301.823 223.218 -304.16 223.76 -306.524 224.271C-308.889 224.813 -311.254 225.686 -313.647 226.439C-313.048 226.108 -310.598 225.355 -308.86 224.873C-320.655 227.583 -332.108 235.109 -341.168 241.129C-343.333 242.785 -344.9 244.019 -346.467 245.133C-346.268 244.982 -346.097 244.832 -345.954 244.712C-346.182 244.892 -346.496 245.133 -346.838 245.404C-347.835 246.096 -348.803 246.849 -349.886 247.692C-348.946 246.999 -348.063 246.337 -347.322 245.765C-348.946 247.12 -351.396 249.197 -353.647 251.425L-354.872 252.057C-355.043 252.237 -355.214 252.388 -355.385 252.569C-357.692 254.646 -357.065 254.435 -355.698 253.472C-356.809 254.616 -357.778 255.729 -358.518 256.602C-359.601 257.295 -360.94 258.951 -362.308 260.666C-363.704 262.352 -365.128 264.189 -366.353 265.423C-366.61 265.904 -367.322 266.958 -368.262 268.313C-369.117 269.697 -370.199 271.413 -371.225 273.099C-373.219 276.561 -375.014 280.053 -375.071 280.986C-375.185 281.046 -375.641 281.859 -374.872 280.324C-375.698 281.919 -376.496 283.515 -377.293 285.05C-377.977 286.646 -378.632 288.241 -379.174 289.746C-379.516 290.138 -379.829 290.559 -380.142 290.981C-380.855 293.539 -381.624 296.038 -382.137 298.627C-382.991 300.854 -383.504 302.45 -383.732 302.902C-383.96 303.353 -383.96 302.631 -383.447 300.313C-384.758 305.942 -385.128 308.23 -385.47 310.337C-385.869 312.414 -386.125 314.311 -386.496 319.187L-386.724 318.676C-387.179 322.138 -387.236 327.737 -387.464 329.844C-387.92 333.727 -388.091 343.451 -386.61 354.559C-385.897 360.098 -384.815 365.998 -383.476 371.658C-382.82 374.488 -382.08 377.257 -381.282 379.936C-380.855 381.321 -380.541 382.435 -380 383.97L-379.516 385.355L-379.259 386.047L-379.145 386.378C-379.145 386.378 -378.917 386.378 -378.803 386.378C-377.92 386.378 -377.037 386.408 -376.154 386.439C-379.829 385.566 -367.379 386.83 -366.667 386.138C-365.555 386.348 -362.934 386.469 -365.983 386.649C-356.382 386.439 -351.538 386.98 -344.9 386.408C-343.789 386.619 -346.952 386.709 -345.983 386.83C-345.214 386.8 -342.934 386.649 -341.937 386.77C-340.969 386.89 -343.333 386.95 -344.872 387.041C-335.043 387.011 -334.074 386.378 -333.333 385.776C-328.348 386.047 -325.869 386.017 -322.279 385.626C-320.541 385.837 -317.664 386.017 -323.761 386.107C-320.342 386.107 -302.792 386.408 -302.45 385.927C-301.368 386.047 -297.664 385.957 -296.752 385.927C-289.06 385.927 -288.376 385.927 -280.798 385.927L-282.906 385.836C-279.915 385.265 -276.61 385.716 -270.513 385.626L-270.684 385.686C-256.695 386.107 -264.644 385.475 -250.855 385.957L-251.596 385.596C-250.313 384.813 -239.373 386.047 -231.368 385.746L-234.245 385.535C-229.886 385.265 -222.023 386.589 -217.635 386.679C-216.667 386.74 -219.145 386.8 -220.484 386.83C-209.003 387.281 -219.003 386.348 -210.427 386.258C-208.861 386.499 -212.45 386.92 -206.695 386.95C-203.818 387.161 -189.972 386.107 -182.108 386.619C-183.846 386.408 -185.556 386.228 -181.596 386.077C-177.237 386.017 -170.655 386.439 -165.242 386.439L-165.1 383.338C-167.18 383.007 -169.088 382.796 -170.627 382.736C-171.368 382.555 -171.653 382.465 -171.681 382.435C-173.989 382.345 -177.579 381.231 -181.026 380.478C-184.445 379.635 -187.522 378.341 -188.889 378.1C-189.345 377.739 -190.114 377.408 -191.083 376.896C-192.023 376.354 -193.191 375.752 -194.502 375.09C-195.784 374.427 -197.265 373.765 -198.718 373.012C-200.143 372.17 -201.624 371.297 -203.049 370.454C-206.012 368.858 -208.547 366.811 -210.456 365.426C-212.393 364.011 -213.504 362.928 -213.276 362.687L-218.69 357.87C-220.399 356.155 -222.051 354.378 -223.732 352.632L-223.39 352.813C-229.516 345.799 -231.596 343.18 -233.675 340.621C-234.872 338.785 -233.875 340.019 -233.732 340.139C-235.727 337.34 -237.037 334.992 -238.205 333.065C-239.316 331.108 -240.37 329.603 -241.168 328.038C-242.792 324.907 -244.644 322.228 -247.18 316.99L-247.35 315.726C-248.177 314.371 -249.915 309.615 -252.023 303.624C-252.906 300.553 -254.017 297.242 -254.986 293.81C-255.841 290.348 -256.952 286.886 -257.692 283.515C-257.635 283.635 -257.493 283.906 -257.237 284.96C-259.088 277.464 -260.456 268.283 -260.883 260.275C-261.225 256.271 -261.168 252.569 -261.396 249.528C-261.482 246.488 -261.539 244.079 -261.88 242.634C-262.023 239.233 -261.709 235.831 -261.624 232.399C-262.678 245.615 -262.023 230.382 -262.65 235.801C-262.536 230.533 -260.712 222.435 -261.567 228.787L-261.766 229.78C-261.596 230.984 -260.969 226.92 -260.37 222.616C-259.573 218.341 -258.576 213.856 -258.433 214.066C-255.556 201.453 -250.484 189.562 -243.333 179.568C-236.239 169.543 -226.895 161.596 -216.467 156.9L-219.06 157.592C-216.667 156.328 -214.188 155.365 -211.653 154.461C-209.601 154.01 -208.917 153.859 -214.217 155.876C-212.792 155.395 -210.541 154.642 -208.661 153.889C-206.724 153.257 -205.128 152.715 -205.071 152.625C-199.573 151.692 -200.627 152.113 -202.621 152.565C-204.644 152.956 -207.493 153.92 -205.841 153.498C-204.359 153.077 -202.849 152.836 -201.339 152.565L-202.365 152.685C-200.541 152.234 -199.544 151.993 -198.148 151.782C-196.752 151.511 -194.986 151.361 -191.539 151.301C-187.208 151.511 -189.316 151.662 -187.635 151.782C-187.635 151.782 -187.493 151.812 -187.094 151.873C-186.695 151.873 -186.04 151.933 -185.014 152.023C-181.681 152.354 -178.376 152.896 -175.1 153.649C-176.382 153.167 -177.692 152.836 -178.975 152.445C-174.53 152.986 -169.687 154.552 -174.131 152.956C-170.826 154.01 -161.738 156.719 -153.419 160.723C-145.071 164.576 -137.55 169.453 -135.841 170.777L-134.331 171.741L-132.422 173.065C-131.168 173.938 -129.886 174.932 -128.661 175.865C-128.861 170.808 -129.06 165.479 -129.316 159.398C-129.231 161.415 -129.915 162.65 -129.801 155.605C-128.804 158.194 -129.373 142.691 -127.778 137.152C-128.234 139.651 -127.835 134.683 -127.408 130.078C-126.695 125.532 -126.04 121.287 -127.037 125.171C-125.983 119.421 -126.638 124.87 -125.67 120.565C-123.391 106.868 -117.75 90.9432 -109.089 76.4634C-109.032 76.1624 -110.769 78.4201 -108.918 75.2894C-107.094 72.9413 -105.356 70.533 -103.476 68.2753C-101.482 65.6563 -102.165 65.3853 -98.0629 60.93C-98.6897 61.502 -99.6014 62.4051 -98.2339 60.6591C-87.2083 48.4973 -73.9319 38.1116 -59.1456 30.6761C-44.4163 23.09 -28.3764 18.2433 -12.3365 15.8351C-16.6955 16.4371 -13.8465 15.7749 -10.5132 15.233C-12.6784 15.534 -10.5132 14.9019 -10.969 14.8116C-6.4676 14.1794 -1.93769 13.6977 2.56373 13.3967C4.98538 12.4936 17.0937 12.2227 18.4897 11.8313L14.1877 12.042C19.9141 11.1991 6.09652 11.2292 6.86575 10.567C0.483988 11.7109 -10.2853 11.44 -20.5417 14.7212C-22.8493 15.1126 -18.6328 14.059 -19.8864 14.1794C-22.4505 15.1427 -25.6414 15.805 -31.4818 17.4005L-30.855 17.1295C-39.0602 19.4776 -44.7582 21.6149 -50.7126 23.963C-53.6186 25.2876 -56.6955 26.3713 -59.9433 28.0872C-61.5957 28.9 -63.3336 29.773 -65.1855 30.7062C-67.0088 31.7598 -68.9462 32.8736 -71.0259 34.1079L-69.6299 33.6864C-73.2482 35.7335 -73.9604 36.2452 -75.6413 37.2687C-77.4932 38.8642 -75.043 37.2085 -72.5929 35.5227C-70.0288 33.9875 -67.4077 32.4823 -69.1456 33.8369C-70.4276 34.3788 -72.6499 35.5528 -75.1855 37.3289C-76.4675 38.2019 -77.8635 39.1351 -79.288 40.0985C-80.7125 41.122 -82.08 42.296 -83.5045 43.3797C-86.382 45.5171 -88.9746 47.9555 -91.1114 49.8821C-92.194 50.8153 -93.1627 51.6582 -93.9319 52.3506C-94.6726 53.073 -95.2709 53.5848 -95.6698 53.8858C-100.114 58.6723 -94.1028 52.772 -98.5188 57.5585L-99.8578 58.6723C-100.171 59.1238 -100.456 59.6356 -100.713 60.1172C-103.391 63.4587 -104.929 64.994 -105.185 64.994C-104.53 64.1812 -103.391 62.6158 -102.707 61.7127C-106.553 65.7767 -111.795 74.6572 -112.792 76.3129C-111.767 74.4465 -110.456 72.7908 -109.288 71.0147C-111.852 74.7174 -114.017 78.9921 -116.325 83.2969C-117.522 85.4342 -118.348 87.7823 -119.402 90.0401C-120.371 92.3279 -121.482 94.5857 -122.194 96.994C-122.992 99.3721 -123.789 101.72 -124.587 104.068C-125.413 106.386 -125.841 108.855 -126.467 111.173C-127.009 113.521 -127.664 115.839 -128.063 118.127C-128.405 120.414 -128.747 122.672 -129.06 124.84L-128.69 123.545C-129.146 126.857 -129.601 129.175 -129.801 131.011C-130 132.847 -130.143 134.232 -130.285 135.647C-130.456 137.062 -130.599 138.537 -130.826 140.524C-130.912 141.547 -131.083 142.691 -131.14 144.046C-131.14 145.4 -131.197 146.966 -131.225 148.802V148.26C-131.14 151.21 -131.225 155.154 -131.225 159.158C-131.567 155.455 -131.311 166.142 -131.71 161.295C-131.51 164.155 -131.396 166.202 -131.311 167.647C-131.225 168.7 -131.197 168.941 -131.14 169.393C-131.083 170.115 -130.883 170.567 -130.826 171.62C-131.14 171.47 -131.653 171.169 -132.821 170.507C-133.305 170.055 -133.476 169.844 -134.103 169.272C-136.866 167.737 -137.094 167.617 -143.191 164.095C-138.091 166.804 -146.895 161.445 -141.14 164.456C-147.379 160.392 -152.479 158.194 -156.638 156.539C-160.826 154.913 -164.103 153.829 -167.237 152.414C-170.598 151.812 -167.55 152.806 -164.188 153.95C-160.826 155.124 -157.18 156.599 -158.975 155.967C-156.126 157.381 -164.302 154.341 -168.718 153.107C-170.969 152.445 -172.821 151.722 -175.613 150.849C-178.405 150.096 -182.08 149.043 -188.034 148.742C-186.866 148.802 -186.781 148.802 -185.584 148.862C-190 148.32 -194.302 148.682 -199.744 149.043C-201.254 149.434 -202.992 149.795 -204.473 150.036C-205.955 150.367 -207.123 150.698 -207.493 151.09C-203.989 150.066 -200.399 149.555 -196.781 149.193C-199.858 149.555 -202.792 150.127 -206.125 151.09C-209.487 151.963 -213.219 153.318 -217.949 155.244C-217.294 154.762 -214.53 153.468 -212.621 152.655C-215.499 153.528 -217.92 154.853 -220.741 156.147C-220.484 155.696 -217.521 154.07 -213.704 152.595C-209.886 151.21 -205.271 149.946 -201.994 149.314C-202.792 149.404 -203.989 149.555 -205.214 149.856C-206.439 150.187 -207.778 150.548 -208.918 150.849C-211.14 151.602 -212.564 152.083 -211.054 151.27C-215.385 153.498 -222.308 155.365 -228.604 160.873L-228.348 160.241C-229.345 161.114 -231.51 162.71 -233.276 164.335C-232.365 163.161 -231.168 162.318 -230.143 161.265C-235.328 165.509 -240.029 169.664 -244.017 174.811C-235.185 164.486 -241.795 172.734 -237.778 168.67C-240.484 171.831 -242.222 173.848 -243.504 175.353C-244.672 176.949 -245.499 177.912 -246.353 178.905C-248.063 180.922 -250.086 183.15 -254.131 191.729C-253.276 189.261 -249.487 183.331 -251.339 186.883C-252.308 188.388 -253.191 190.285 -254.017 192C-254.872 193.716 -255.641 195.282 -256.182 196.245C-260.342 208.106 -255.214 194.559 -256.809 199.677C-257.721 201.603 -258.205 203.079 -258.633 204.704C-258.974 206.36 -259.288 208.196 -259.972 210.875L-260.313 210.815C-262.108 217.739 -261.937 218.762 -261.966 219.515C-261.966 220.298 -261.994 220.9 -262.935 227.221L-262.678 221.773L-263.447 228.456L-263.647 227.041C-264.074 230.683 -264.074 233.092 -264.274 235.44C-264.473 237.818 -264.672 240.166 -264.729 243.748C-264.416 242.093 -264.245 244.712 -264.074 251.003C-264.074 255.308 -264.501 248.595 -264.074 257.566C-264.388 255.549 -264.729 253.351 -264.587 249.438C-264.758 249.046 -264.786 247.451 -264.9 247.03C-265.128 249.348 -264.9 252.298 -264.786 255.037C-264.701 257.776 -264.416 260.335 -264.245 261.961C-264.359 260.727 -264.473 259.221 -264.501 258.469C-263.875 262.774 -263.504 267.078 -262.593 271.323C-262.422 273.37 -262.764 271.775 -263.105 270.209C-262.621 272.768 -262.279 274.604 -261.567 278.367C-262.051 277.434 -262.308 277.735 -263.248 272.347C-262.621 276.441 -261.652 280.444 -260.712 284.478C-260.741 285.321 -259.544 290.74 -260.057 289.204C-258.633 295.978 -254.929 305.219 -251.738 313.679C-251.539 314.1 -251.083 314.913 -250.256 316.659C-249.402 318.616 -248.576 320.512 -247.778 322.378C-246.866 324.215 -245.926 326.051 -244.986 327.917C-244.046 329.814 -243.049 331.711 -241.823 333.577C-240.627 335.473 -239.43 337.49 -237.949 339.507L-235.1 344.474C-232.792 347.665 -233.789 345.98 -234.388 344.836C-234.672 344.264 -234.9 343.812 -234.53 344.173C-234.16 344.504 -233.362 345.769 -231.225 348.207C-225.299 355.221 -229.402 351.157 -227.436 353.776C-225.784 355.342 -223.504 357.479 -220.94 360.008C-219.573 361.152 -218.12 362.416 -216.638 363.741C-215.898 364.403 -215.157 365.095 -214.416 365.788C-213.618 366.42 -212.821 367.082 -212.023 367.774C-214.331 366.239 -215.869 364.674 -217.835 362.988L-217.692 362.747ZM-199.972 383.097C-198.205 383.007 -194.644 382.796 -193.333 383.007C-195.356 383.428 -196.923 383.218 -199.972 383.097ZM-339.516 383.97C-338.205 383.85 -336.154 383.91 -333.846 384.06C-335.527 384.06 -337.407 384.06 -339.516 383.97ZM-205.071 117.043C-205.071 117.043 -205.214 117.043 -205.271 117.073C-209.345 117.284 -207.892 117.223 -205.071 117.043ZM-196.61 117.043C-195.755 117.043 -195.812 116.983 -196.182 116.922C-196.781 116.983 -198.69 116.922 -200.855 116.802C-200.257 116.922 -199.174 117.013 -196.638 117.043H-196.61ZM-186.553 151.541C-187.066 151.481 -187.607 151.361 -188.12 151.331C-184.559 151.481 -185.556 151.511 -186.553 151.541Z" fill="#CADEEC"/>
<path d="M11.766 12.7645C13.3899 12.7043 15.0138 12.6742 16.6378 12.7043L13.4754 12.5839L11.766 12.7946V12.7645Z" fill="#CADEEC"/>
<path d="M21.1107 11.8614L22.2503 12.3431L25.1563 11.9517C24.1022 11.9517 21.9369 11.9517 21.1107 11.8313V11.8614Z" fill="#CADEEC"/>
<path d="M46.1533 16.407C46.1533 16.407 -120.912 8.27912 -108.604 176.768C-108.604 176.768 -160.627 135.045 -204.331 163.282C-274.445 208.587 -242.593 375.12 -144.16 384.693H-357.037C-357.037 384.693 -385.67 313.739 -338.063 260.967C-338.063 260.967 -306.268 224.392 -262.821 225.295C-262.821 225.295 -261.054 161.415 -223.106 138.386C-223.106 138.386 -181.909 105.965 -146.61 133.871C-146.61 133.871 -135.413 70.4728 -83.0203 35.2518C-83.0203 35.2518 -21.9662 -10.656 46.1818 16.407H46.1533Z" fill="#D8E7F0"/>
<path d="M59.7145 112.557C59.7145 112.557 122.791 76.644 150.683 157.412C150.683 157.412 143.988 95.8199 59.7145 112.557Z" fill="#CCE1F0"/>
<path d="M60.3128 114.303C59.9709 114.303 60.1419 114.604 60.1134 114.695C60.6547 114.544 60.2843 114.243 60.3128 114.303Z" fill="#CADEEC"/>
<path d="M65.669 112.768L65.5835 112.919L66.3527 112.467L65.669 112.768Z" fill="#CADEEC"/>
<path d="M70.7972 112.016C70.2558 111.564 68.9453 112.377 68.0051 112.347L67.8342 112.256L67.4923 112.738C68.6034 112.497 69.9994 111.985 70.7972 112.016V112.016Z" fill="#CADEEC"/>
<path d="M73.6461 112.738C73.4467 112.557 74.2159 112.467 73.0193 112.768C73.0763 112.768 73.1048 112.768 73.1333 112.798C73.2472 112.798 73.3897 112.768 73.6461 112.738V112.738Z" fill="#CADEEC"/>
<path d="M73.1333 112.798C72.592 112.889 73.5036 112.919 73.1333 112.798V112.798Z" fill="#CADEEC"/>
<path d="M75.5834 112.407L74.8997 112.618C75.0706 112.738 75.6974 112.738 75.4695 112.828C76.1817 112.678 76.0393 112.588 75.6119 112.407H75.5834Z" fill="#CADEEC"/>
<path d="M76.2387 111.985L75.8683 112.076C75.8683 112.076 76.0393 112.136 76.2387 111.985Z" fill="#CADEEC"/>
<path d="M75.0991 112.287L75.8684 112.076C75.8684 112.076 75.7259 111.835 75.5265 112.166C75.5834 112.016 75.441 112.166 75.0991 112.287Z" fill="#CADEEC"/>
<path d="M74.6433 112.226C74.2444 112.166 73.7031 112.166 74.4154 111.895C73.0763 112.166 73.3043 112.527 74.6433 112.226Z" fill="#CADEEC"/>
<path d="M70.9965 111.414L70.4552 111.353L69.9994 111.594C70.2273 111.474 71.0535 111.594 70.9965 111.414V111.414Z" fill="#CADEEC"/>
<path d="M80.0279 112.467C80.0279 112.467 79.7714 112.166 79.7145 112.046L79.2017 112.196C79.4866 112.256 79.9994 112.317 80.0279 112.467V112.467Z" fill="#CADEEC"/>
<path d="M79.7145 112.016L80.4837 111.775C79.7715 111.775 79.6575 111.895 79.7145 112.016Z" fill="#CADEEC"/>
<path d="M76.3242 111.383L75.0421 111.835L76.5521 111.353L76.3242 111.383Z" fill="#CADEEC"/>
<path d="M83.0194 112.347L82.592 112.618L83.3612 112.196L83.0194 112.347Z" fill="#CADEEC"/>
<path d="M85.0136 112.196C84.7002 112.437 85.4695 112.557 85.1276 112.708C85.6689 112.648 86.1247 112.437 86.5236 112.256C86.0962 112.377 85.6119 112.377 85.0136 112.226V112.196Z" fill="#CADEEC"/>
<path d="M87.2359 111.955C87.0079 112.016 86.78 112.136 86.5521 112.226C86.78 112.166 87.0079 112.076 87.2359 111.955Z" fill="#CADEEC"/>
<path d="M81.8512 111.805C81.8512 111.805 82.0506 112.046 82.478 112.106L82.1646 111.805C82.1646 111.805 81.9652 111.805 81.8512 111.805V111.805Z" fill="#CADEEC"/>
<path d="M81.7657 111.805H81.8512C81.8512 111.805 81.7942 111.775 81.7657 111.805Z" fill="#CADEEC"/>
<path d="M78.4039 111.564C78.8598 111.353 79.8284 111.112 78.8597 110.902C78.5463 111.143 79.0877 111.263 78.4039 111.564Z" fill="#CADEEC"/>
<path d="M81.3669 111.414H80.5121C80.5121 111.414 80.6831 111.594 80.4552 111.684L81.3384 111.414H81.3669Z" fill="#CADEEC"/>
<path d="M81.7658 111.293L81.3669 111.414H81.6803L81.7658 111.293Z" fill="#CADEEC"/>
<path d="M85.8114 111.715C86.1818 111.564 86.5806 111.534 87.008 111.474C86.5236 111.444 86.0393 111.414 85.555 111.474C85.498 111.564 85.2986 111.775 85.7829 111.745L85.8114 111.715Z" fill="#CADEEC"/>
<path d="M84.0165 111.714H84.1019C84.1019 111.714 84.0165 111.655 84.0165 111.714Z" fill="#CADEEC"/>
<path d="M91.3954 111.715L91.3099 111.624V111.684L91.3954 111.715Z" fill="#CADEEC"/>
<path d="M85.4694 111.414C85.0991 111.383 84.8996 111.444 84.7002 111.564C84.9566 111.504 85.2415 111.474 85.5549 111.474C85.5834 111.414 85.5834 111.383 85.4694 111.414V111.414Z" fill="#CADEEC"/>
<path d="M88.4609 111.835C88.2899 111.745 88.062 111.684 87.8341 111.624C88.005 111.745 88.3754 111.925 88.4609 111.835Z" fill="#CADEEC"/>
<path d="M84.2159 111.775H84.1589C84.1589 111.775 84.2729 111.834 84.2159 111.775Z" fill="#CADEEC"/>
<path d="M84.2159 111.775C84.3868 111.715 84.5577 111.624 84.7002 111.564C84.4723 111.594 84.2729 111.654 84.1019 111.715C84.1589 111.715 84.1874 111.775 84.2159 111.805V111.775Z" fill="#CADEEC"/>
<path d="M92.8199 109.728C92.7344 110.029 91.7658 110.239 90.968 109.848C90.1418 110.029 90.6547 111.022 91.3099 111.624C91.3384 111.504 91.3384 111.383 92.1931 111.263C91.9082 111.082 90.3698 110.751 91.082 110.541C92.1931 110.45 91.9937 110.721 92.5065 110.902C92.0792 110.51 93.931 110.45 93.7316 109.908L92.7344 110.029C92.7344 110.029 93.0763 109.818 92.8199 109.728V109.728Z" fill="#CADEEC"/>
<path d="M89.743 111.504H89.4011C89.8 111.594 90.0564 111.745 90.5692 112.016C91.139 111.895 91.253 111.805 91.3099 111.715L89.6575 111.564H89.7715L89.743 111.504Z" fill="#CADEEC"/>
<path d="M87.8912 111.414C88.1476 111.112 88.9738 111.022 88.4894 110.631C87.4923 110.571 87.7772 110.872 87.1789 111.022C88.8028 110.872 86.7231 111.233 87.8912 111.353C87.5778 111.414 87.2928 111.444 87.0079 111.474C87.2928 111.474 87.5778 111.534 87.8342 111.594H87.8057C87.8057 111.594 87.7202 111.534 87.8057 111.534H87.8342C87.8342 111.534 87.8627 111.444 87.9196 111.414C88.3755 111.504 88.0051 111.504 87.8342 111.534C87.8342 111.534 87.8342 111.564 87.8342 111.594L89.4296 111.534C89.0877 111.474 88.6604 111.444 87.9196 111.414H87.8912Z" fill="#CADEEC"/>
<path d="M79.686 110.149L79.743 110.209C79.857 110.179 79.8855 110.149 79.686 110.149Z" fill="#CADEEC"/>
<path d="M80.3698 110.33C80.3698 110.33 80.1704 110.51 79.7715 110.51C79.4296 110.42 79.7715 110.36 79.743 110.239C79.5151 110.33 78.9453 110.51 79.686 110.631L79.8 110.571C80.4553 110.661 81.31 111.022 81.196 111.052C80.9966 110.781 80.8257 110.571 80.3698 110.3V110.33Z" fill="#CADEEC"/>
<path d="M84.1874 110.781L85.5265 110.571L84.8427 110.33V110.51C84.102 110.51 84.2729 110.691 84.1874 110.811V110.781Z" fill="#CADEEC"/>
<path d="M91.5378 111.865L91.3384 112.196L92.1361 111.775L91.5378 111.865Z" fill="#CADEEC"/>
<path d="M93.2758 111.955L93.1903 112.256L93.6461 112.106L93.2758 111.955Z" fill="#CADEEC"/>
<path d="M140.341 138.206L140.056 137.905C140.17 138.055 140.256 138.145 140.341 138.206Z" fill="#CADEEC"/>
<path d="M141.709 140.824H141.851C141.851 140.824 141.652 140.705 141.709 140.824Z" fill="#CADEEC"/>
<path d="M132.336 126.947C132.592 127.549 132.763 128.332 132.934 128.031L133.019 127.669C132.677 127.429 132.478 127.188 132.336 126.947Z" fill="#CADEEC"/>
<path d="M149.515 151.572V151.361C149.515 151.361 149.259 151.15 149.145 151.06C149.259 151.21 149.373 151.391 149.515 151.572V151.572Z" fill="#CADEEC"/>
<path d="M150.854 151.632V152.505C150.854 152.294 150.882 152.023 150.854 151.632Z" fill="#CADEEC"/>
<path d="M130.911 125.261L130.37 125.111C130.826 125.683 130.74 125.321 130.911 125.261Z" fill="#CADEEC"/>
<path d="M110.769 114.815C111.196 115.116 111.566 115.297 111.88 115.417C111.367 115.056 110.996 114.604 110.769 114.815Z" fill="#CADEEC"/>
<path d="M143.732 137.483C143.561 137.272 143.447 137.212 143.39 137.272C143.561 137.483 143.675 137.573 143.732 137.483Z" fill="#CADEEC"/>
<path d="M113.219 115.899C113.219 115.899 113.076 115.809 112.991 115.748C112.62 115.688 112.279 115.598 111.88 115.447C112.25 115.718 112.706 115.959 113.219 115.929V115.899Z" fill="#CADEEC"/>
<path d="M80.5122 107.44C80.5122 107.44 80.4267 107.44 80.3698 107.44C80.3698 107.499 80.4267 107.469 80.5122 107.44Z" fill="#CADEEC"/>
<path d="M63.6461 109.096C63.7886 109.005 64.045 108.915 64.3014 108.795C64.1875 108.795 63.988 108.915 63.6461 109.096Z" fill="#CADEEC"/>
<path d="M100.227 112.707C99.8569 112.648 100.17 112.707 100.227 112.707V112.707Z" fill="#CADEEC"/>
<path d="M98.6034 111.173C98.6034 111.173 98.7458 111.112 98.7743 111.022C98.7458 111.112 98.6889 111.143 98.6034 111.173Z" fill="#CADEEC"/>
<path d="M117.407 115.205H117.434C117.434 115.205 117.379 115.148 117.407 115.205Z" fill="#CADEEC"/>
<path d="M99.686 112.467C99.686 112.467 99.9709 112.588 100.142 112.648C100.085 112.618 99.9424 112.557 99.686 112.467Z" fill="#CADEEC"/>
<path d="M99.743 112.618C99.743 112.618 99.515 112.557 99.4296 112.527C99.3726 112.557 99.4296 112.618 99.743 112.618Z" fill="#CADEEC"/>
<path d="M100.712 112.798C100.512 112.768 100.313 112.708 100.142 112.648C100.199 112.678 100.227 112.708 100.227 112.708C100.341 112.708 100.484 112.738 100.74 112.798H100.712Z" fill="#CADEEC"/>
<path d="M110.256 109.035C110.256 109.035 110.227 109.005 110.199 108.975C109.8 108.975 109.971 108.975 110.256 109.035Z" fill="#CADEEC"/>
<path d="M141.395 132.004L141.338 131.974L141.367 132.034L141.395 132.004Z" fill="#CADEEC"/>
<path d="M142.449 132.998C141.823 132.727 141.595 132.456 141.395 132.034L140.996 132.968C141.509 132.968 141.994 132.968 142.478 132.968L142.449 132.998Z" fill="#CADEEC"/>
<path d="M136.524 132.245L136.837 133.208C135.811 132.546 135.441 131.763 135.64 132.727C136.552 132.215 137.749 135.767 138.603 135.346L138.774 136.008C138.689 135.858 138.632 135.858 138.546 135.707C138.803 137.032 139.6 136.098 140.313 137.543C140.541 138.055 140.626 138.477 140.313 138.206C140.598 138.507 140.854 138.838 141.11 139.169C141.253 139.5 141.082 139.5 140.911 139.169L141.851 140.825H141.823C142.079 140.975 142.563 141.427 142.791 141.637C142.905 142.149 142.592 141.487 142.535 141.637L143.219 142.45C143.219 142.962 142.563 142.3 142.279 141.637C141.88 142.992 142.905 142.3 143.361 144.467L142.791 143.654C142.62 144.467 143.105 145.069 143.247 146.273C143.304 145.942 143.105 143.805 143.789 144.738C143.845 145.069 143.988 145.461 144.415 145.942C144.102 146.093 144.415 146.635 144.757 147.297L144.33 147.447C144.786 148.14 144.957 147.959 145.355 148.32C145.697 149.163 145.441 149.494 145.241 149.826C145.754 151.18 145.355 148.651 146.125 150.217C146.467 151.391 146.894 152.143 147.663 153.408C147.806 154.281 147.35 153.408 147.35 153.709L147.948 154.281C148.005 154.461 147.891 154.431 147.806 154.431C148.147 154.973 148.233 154.311 148.717 155.214C149.202 155.274 148.888 156.81 149.373 157.863L151.908 157.231C151.851 156.99 151.794 156.779 151.68 156.599C151.766 156.238 151.994 156.719 152.136 156.599C151.424 154.883 151.623 155.094 150.797 153.799V152.505C150.683 153.498 150.028 152.445 149.43 151.602C149.344 151.963 149.287 152.294 149.259 152.445C149.059 151.963 148.831 151.481 148.575 151C148.575 150.789 148.774 150.909 149.059 151.09C149.002 151 148.917 150.909 148.86 150.849C148.86 150.247 149.202 150.458 149.544 150.759C149.515 150.969 149.487 151.18 149.458 151.391C149.857 151.692 150.227 151.963 150.455 151.812C150.37 151.722 150.284 151.541 150.199 151.331C150.313 151.421 150.398 151.451 150.427 151.391C150.455 151.331 150.313 151.18 150.113 150.969L150.484 150.458H150.256L149.914 148.29C148.974 146.996 147.72 146.123 146.695 144.016C147.264 144.407 147.293 143.865 147.72 143.684C147.549 144.497 148.603 145.31 148.974 146.514C148.774 145.882 149.031 145.942 149.145 146.063L147.92 144.166C148.261 144.046 148.005 143.624 147.92 142.992C147.492 143.684 146.751 141.728 146.153 141.035C146.353 140.855 146.666 140.945 147.093 141.938C147.008 140.584 145.64 140.945 145.526 139.681C145.64 139.921 145.697 140.072 145.84 140.102C145.384 139.651 144.843 138.206 145.185 138.416L145.298 138.657C144.529 137.062 142.421 134.081 141.823 134.232C141.88 134.172 142.535 133.961 142.706 133.991C141.623 133.479 140.427 133.118 139.259 132.787C139.828 132.667 140.142 131.011 141.281 131.944C141.082 131.583 140.797 131.101 140.113 130.529C140.227 130.8 139.971 131.583 139.714 131.312C139.487 130.078 139.487 130.529 139.031 129.144C139.23 129.566 138.318 129.747 137.92 129.235C138.062 129.235 138.461 128.603 138.689 128.753C138.119 128.512 137.606 128.241 137.036 128.061C137.435 128.241 137.578 127.609 137.464 127.188C137.464 127.429 136.41 126.164 136.039 125.923L136.438 126.556C135.156 125.141 134.33 126.134 133.019 124.84C133.276 124.84 134.073 124.418 133.447 123.666C133.162 123.666 132.506 123.756 131.737 123.726C130.94 123.756 130.028 123.726 129.316 123.395L129.202 123.003L128.062 122.522C129.002 122.431 131.566 122.522 132.82 122.913C132.421 122.281 132.848 122.552 131.994 121.92C131.823 121.528 132.677 121.98 132.934 122.16L130.996 120.595C130.797 121.077 129.173 119.903 129.031 120.294L131.481 121.438C131.281 121.89 129.43 121.709 128.091 120.625C127.834 120.204 128.831 120.053 128.888 119.903C128.603 119.903 127.378 119.21 127.321 119.03L128.062 119.24C127.35 118.548 126.495 118.819 125.697 117.856C125.355 117.645 124.928 116.742 124.729 116.953C125.042 117.765 124.33 119.361 123.76 119.572C123.675 119.481 122.222 118.157 121.937 117.675C121.566 116.983 123.247 117.163 122.934 116.561C122.848 116.682 122.449 116.652 122.307 116.652C121.994 116.35 122.649 116.35 121.823 115.989C121.481 116.381 120.199 115.086 121.253 116.17C120.427 115.899 120.455 115.628 119.544 115.176C119.686 115.658 118.318 115.718 117.464 115.598C117.549 115.508 117.435 115.267 117.378 115.176C115.726 114.544 114.9 114.002 113.333 113.461C113.219 113.28 112.507 112.889 112.905 112.798C112.649 112.798 112.393 112.889 111.908 112.738C111.082 111.985 113.019 113.039 112.45 112.287C112.307 112.557 111.082 112.226 110.341 112.166C110.427 112.678 111.908 112.798 112.649 112.858C112.478 113.461 111.082 113.671 109.43 113.4C108.091 113.25 108.945 112.889 108.689 112.919C106.21 112.317 106.324 113.581 104.358 112.708C103.618 112.136 104.472 111.895 104.358 111.594C105.469 111.654 105.982 112.196 106.723 112.317L105.84 111.955C106.21 111.895 106.951 111.955 107.35 112.136C106.723 111.654 103.105 111.203 101.224 110.48C100.854 110.541 100.256 110.571 100.512 110.781L101.139 110.842C101.652 111.263 99.9139 111.052 100.683 111.353C99.8284 111.353 98.8883 111.594 97.7202 111.383L97.5493 110.902C97.5493 110.902 98.29 111.233 98.6319 111.112C98.119 111.293 96.894 110.36 96.2957 110.932L97.0934 111.293C96.2387 111.474 95.1846 111.895 94.159 111.654C94.5863 112.136 94.4154 111.624 95.0991 112.196C94.5293 111.504 97.7202 112.407 96.78 111.654C97.4638 112.317 98.0621 112.016 98.9738 112.588C98.9738 112.437 98.6603 112.226 99.515 112.437C99.572 112.407 99.6575 112.377 99.7145 112.347C99.7145 112.347 99.743 112.347 99.7715 112.347H99.7145C99.7145 112.347 99.7715 112.287 99.7145 112.317C99.5151 112.196 99.3726 112.106 99.3156 111.985C99.7715 111.715 101.139 111.985 101.623 111.925C102.108 112.106 101.395 112.046 101.623 112.256L102.336 112.136C102.336 112.497 103.589 112.949 102.364 112.919L103.418 113.16C104.016 113.461 104.843 113.731 105.412 113.671C105.897 113.852 106.752 113.551 106.267 113.731L107.977 113.852V113.942C109.629 114.213 111.424 114.454 113.076 115.598C113.646 115.718 114.216 115.809 115.071 116.2L115.156 116.531C115.868 116.682 117.093 117.525 117.492 117.344C117.891 118.428 120.512 119.12 121.595 119.842L121.794 119.511C122.563 119.933 123.361 120.234 124.387 120.595L124.472 120.264C125.441 120.475 126.353 121.859 127.606 122.702C127.464 122.763 127.179 122.492 126.979 122.281C127.977 123.997 130.427 123.967 131.31 125.532C131.68 125.713 131.88 125.953 132.022 126.224C132.022 126.224 131.965 126.194 131.937 126.164C131.965 126.194 132.022 126.224 132.051 126.285C132.136 126.465 132.25 126.646 132.336 126.796C132.25 126.616 132.193 126.465 132.108 126.345C132.336 126.556 132.706 126.857 133.105 127.128L133.019 127.549C133.019 127.549 133.076 127.579 133.105 127.609C133.361 128.031 133.475 127.73 133.475 127.368C133.675 127.489 133.874 127.579 134.073 127.639C133.959 128.332 135.099 128.362 135.042 129.144C135.526 129.084 136.78 130.74 137.378 130.499C137.321 130.559 137.378 130.71 137.236 130.499C137.521 130.951 137.806 131.432 138.233 131.673L138.034 132.155L139.202 132.667C139.43 133.389 139.487 133.72 138.803 133.389C140.284 134.352 139.828 134.292 141.025 135.195L140.769 135.316C141.053 135.737 141.823 136.219 141.794 136.61C141.851 137.272 142.677 138.416 143.447 139.891C144.159 141.397 145.042 143.052 145.441 144.527C145.982 143.624 145.612 145.972 146.239 145.792C146.125 146.032 146.182 146.454 145.84 146.093C146.552 147.417 146.438 148.29 147.236 149.103C147.093 149.344 146.865 148.892 146.808 149.103C146.894 149.193 147.122 149.494 147.036 149.675C146.979 149.856 146.808 149.524 146.666 149.314C147.15 150.759 147.777 150.699 148.347 150.638C148.318 151.481 148.518 151.842 148.974 152.294C148.86 152.625 148.774 153.107 148.489 152.204C148.575 152.746 149.031 155.485 149.43 155.455C149.344 155.635 149.543 156.207 149.6 156.328C149.686 156.87 149.714 157.141 149.743 157.412L151.595 156.96C151.452 156.569 151.338 156.238 151.082 155.605L151.139 155.967C150.455 155.726 150.655 155.064 150.256 154.16H150.313C149.885 151.873 149.8 153.318 149.43 151.03L149.145 151.27C148.404 151.361 148.86 149.223 148.034 148.17V148.682C147.521 148.14 148.147 146.424 147.948 145.731C147.948 145.551 148.147 145.912 148.261 146.093C147.891 144.166 147.749 146.093 147.093 144.828C147.207 144.467 147.777 144.828 147.435 143.955C147.435 143.413 145.583 141.848 145.384 140.493C145.355 140.825 145.327 141.186 144.9 140.674C144.387 139.831 144.273 137.905 143.361 137.423C143.361 137.272 143.361 137.212 143.418 137.182C142.934 136.58 141.937 135.195 141.452 134.985C142.079 133.72 138.575 131.282 139.401 130.71L138.005 128.843H138.119C137.321 127.549 136.808 127.278 136.296 127.037C136.153 126.706 136.381 126.857 136.438 126.826C135.242 124.99 135.042 124.84 133.504 123.816L133.646 123.425C133.247 123.154 131.965 120.685 130.17 119.451C130.199 119.451 130.284 119.421 130.455 119.511C128.575 118.066 126.837 114.845 125.412 115.297L123.959 114.635C125.498 115.929 123.39 114.936 123.931 115.598C123.276 115.207 122.535 114.063 123.333 114.574L123.418 114.725C124.102 114.364 121.566 113.039 121.851 112.648C118.518 110.51 115.327 108.192 111.851 106.838L112.051 107.5L110.883 106.988C110.626 106.747 110.598 106.416 111.452 106.778C111.11 106.296 109.942 106.416 109.885 106.537C108.233 105.784 110.74 106.145 110.227 105.965L109.487 105.784L109.629 105.905C108.974 105.905 108.86 106.145 107.834 105.784C107.207 105.453 107.578 105.363 107.321 105.242C107.321 105.212 107.236 105.152 106.922 105.092C106.41 104.911 105.897 104.761 105.355 104.61L105.897 105.182C105.156 105.212 104.415 104.821 105.042 105.453C104.586 104.971 103.162 104.49 101.737 104.249C100.313 104.008 98.9168 103.858 98.6034 103.677C97.5777 103.888 96.6091 103.797 95.384 103.677C95.6689 103.797 95.8114 104.309 94.7857 104.159C95.2131 103.165 92.9054 103.677 92.0507 102.924C92.8199 103.376 89.0592 103.045 90.2558 103.737C89.3726 103.677 90.1988 103.376 89.5151 103.135C87.4353 103.587 84.8997 103.135 82.3356 103.647C82.3356 103.797 82.7629 103.918 82.2501 104.189L80.7971 103.737C80.3128 103.888 80.4553 104.58 79.4581 104.309C79.6006 104.399 79.8285 104.52 79.4866 104.64C74.3584 104.911 69.629 107.56 64.4439 108.373C65.1846 108.343 64.7573 108.554 64.2729 108.764C64.6148 108.674 64.3869 109.065 64.5009 109.216C63.7886 109.336 63.0479 109.457 62.3356 109.607C62.1647 110.209 60.2274 110.631 60.2274 111.173L60.7971 110.781C60.1989 111.684 62.4211 111.353 62.592 112.076C63.2473 111.052 65.2986 111.865 66.4951 110.45C66.8655 110.45 66.2957 110.781 66.4951 110.872C66.78 110.45 67.2074 110.179 68.1191 109.999L68.0336 110.119C70.4553 109.186 71.5949 109.126 74.4154 108.554L74.1305 108.253C74.7288 108.132 74.8997 108.223 75.1846 108.223C75.7544 107.5 73.5037 108.644 73.988 107.891C74.9282 108.343 78.2615 106.838 78.9453 107.56C79.8855 107.38 78.6034 107.199 79.5436 107.049L79.8285 107.229L80.0279 106.898C80.6547 106.838 80.9966 107.049 81.0535 107.229C80.9111 107.229 80.6547 107.35 80.4837 107.41C81.31 107.5 82.706 106.988 82.9909 107.018H82.0792C84.6148 106.386 87.7772 106.416 90.2558 105.935L90.0564 105.784C91.9652 105.393 91.5949 105.965 93.6746 105.844H93.5892C94.0165 105.724 94.5863 105.634 95.1561 105.724C94.6148 105.874 96.1248 106.206 95.4125 106.356C97.4923 106.206 96.4382 106.176 97.8627 105.694L98.1475 105.995C98.6319 105.814 98.6888 105.694 99.743 105.784C98.8598 105.874 100.341 106.326 99.3441 106.477C101.424 107.38 102.677 106.416 103.475 107.56C104.615 107.049 101.709 106.687 102.279 106.657C101.851 106.296 103.19 106.296 103.874 106.537C104.558 106.747 104.843 107.681 106.524 108.253C106.353 108.192 106.324 108.253 106.153 108.192C106.723 108.584 107.464 108.343 108.148 108.885C108.717 108.584 109.145 109.216 109.43 108.704C108.917 108.554 108.375 108.463 107.834 108.313C108.746 108.433 109.8 108.042 111.11 108.975C110.968 109.035 110.484 109.005 110.17 108.975C110.512 109.306 110.997 109.186 111.367 109.547C111.025 110.089 109.515 108.855 108.432 109.035C108.803 109.366 110.313 109.276 109.629 109.698C110.541 109.186 111.196 110.45 112.507 110.33L112.307 110.631C112.506 110.631 112.934 110.631 113.219 110.811C112.962 110.872 112.734 110.902 112.478 110.962C113.504 111.022 113.988 112.106 114.9 112.347C113.19 111.474 114.7 111.775 114.073 111.143C116.41 111.865 114.957 112.497 117.293 113.762C116.951 113.611 116.239 112.858 116.78 113.009C117.179 113.34 117.692 113.822 117.863 114.153C119.401 115.026 117.806 113.701 118.546 113.912C118.86 114.604 119.373 114.213 120.113 114.514L119.942 114.815C121.481 116.23 120.769 114.514 122.108 115.839L121.196 115.779L122.051 116.26L121.68 116.471C122.677 116.862 122.905 117.103 123.646 117.826C123.618 117.464 124.13 117.404 124.814 118.006C125.156 118.578 124.358 118.036 125.355 118.849C124.985 118.849 124.586 118.849 124.358 118.217C124.244 118.277 124.016 118.217 123.903 118.247C124.244 118.879 125.128 119.391 125.469 119.692C125.355 119.572 125.185 119.421 125.156 119.301L126.865 120.174C127.008 120.475 126.752 120.384 126.524 120.324C126.837 120.565 127.15 120.565 127.549 120.956C127.236 121.077 127.122 121.287 126.438 120.896C126.951 121.197 127.407 121.558 127.92 121.92C127.92 122.1 128.318 122.823 128.091 122.732C128.632 123.575 130.199 124.027 130.854 125.231C130.94 125.231 131.053 125.321 131.281 125.502C132.022 126.525 132.449 127.579 133.675 128.482C133.732 128.813 133.76 129.144 133.789 129.476C134.558 130.349 133.618 128.121 134.9 129.596C135.811 130.62 134.843 130.288 135.014 130.77C135.612 131.161 136.694 131.824 137.093 133.088C136.78 132.817 136.638 132.486 136.381 132.185L136.524 132.245ZM143.846 144.708C143.675 144.467 143.219 144.076 143.304 143.805C143.789 143.895 143.76 144.196 143.846 144.708ZM149.487 149.254C149.657 149.434 149.714 149.765 149.686 150.157C149.572 149.916 149.487 149.615 149.487 149.254ZM104.216 113.22H104.244C104.814 113.461 104.615 113.37 104.216 113.22ZM103.019 112.828C103.019 112.828 102.877 112.919 102.934 112.979C103.048 112.919 103.304 112.979 103.618 113.039C103.561 112.919 103.39 112.828 103.019 112.828ZM107.122 105.393L107.35 105.573C106.78 105.513 106.951 105.453 107.122 105.393Z" fill="#CADEEC"/>
<path d="M150.712 151.602C150.712 151.602 150.626 151.752 150.569 151.782C150.655 151.873 150.712 151.873 150.712 151.602Z" fill="#CADEEC"/>
<path d="M130.996 125.291C130.996 125.291 130.94 125.261 130.911 125.291H130.996Z" fill="#CADEEC"/>
<path d="M122.592 116.2C122.82 116.381 122.905 116.501 122.962 116.621C123.019 116.561 122.962 116.411 122.592 116.2Z" fill="#CADEEC"/>
<path d="M96.4096 112.467H97.2073C96.8085 112.407 96.6945 112.317 96.4951 112.256C96.4951 112.347 96.6375 112.467 96.4096 112.467Z" fill="#CADEEC"/>
<path d="M89.572 109.758C89.572 109.758 89.3156 109.758 89.2017 109.758V109.938C89.743 109.938 90.0849 109.848 89.572 109.758Z" fill="#CADEEC"/>
<path d="M95.7829 111.233C95.7544 110.932 95.2416 110.992 94.6718 111.022H94.7857C94.5863 111.444 95.1846 111.353 95.8114 111.233H95.7829Z" fill="#CADEEC"/>
<path d="M94.5293 110.992C94.3583 110.992 94.1874 110.992 94.0165 110.992C93.931 111.173 94.2159 111.052 94.5293 110.992Z" fill="#CADEEC"/>
<path d="M101.424 112.708C101.167 112.588 101.196 113.069 101.082 112.919C100.74 113.25 102.877 112.798 101.424 112.708Z" fill="#CADEEC"/>
<path d="M95.4125 110.179L95.5834 110.571L95.9253 110.3L95.4125 110.179Z" fill="#CADEEC"/>
<path d="M99.8569 110.842C99.572 110.751 99.2586 110.661 98.9737 110.601C98.9737 110.661 98.8597 110.691 98.7173 110.721C99.2871 110.721 99.8569 110.962 99.8569 110.842Z" fill="#CADEEC"/>
<path d="M98.7173 110.721C98.4324 110.721 98.1475 110.691 97.9766 110.721C98.1475 110.721 98.4609 110.721 98.7173 110.721Z" fill="#CADEEC"/>
<path d="M96.666 110.179L96.9225 110.27L97.5492 110.33L96.666 110.179Z" fill="#CADEEC"/>
<path d="M109.43 112.828L110.398 113.039C110.398 113.039 110.284 112.768 109.914 112.708C109.657 112.708 109.316 112.648 109.43 112.828V112.828Z" fill="#CADEEC"/>
<path d="M106.694 111.233C106.951 111.353 106.951 111.444 107.065 111.594L107.179 111.143L106.666 111.233H106.694Z" fill="#CADEEC"/>
<path d="M109.601 111.715C109.601 111.715 111.082 111.835 109.857 111.444C109.743 111.504 108.717 111.444 109.601 111.715Z" fill="#CADEEC"/>
<path d="M123.447 118.066L123.219 117.946L122.905 118.638L123.447 118.066Z" fill="#CADEEC"/>
<path d="M135.441 124.659C134.643 123.666 134.928 124.81 134.244 123.846C133.931 123.786 134.786 124.629 134.472 124.539C135.128 124.9 135.355 125.261 135.412 124.659H135.441Z" fill="#CADEEC"/>
<path d="M134.501 124.539C134.501 124.539 134.301 124.418 134.159 124.358C134.358 124.478 134.444 124.509 134.501 124.539Z" fill="#CADEEC"/>
<path d="M60.8826 109.908L60.1134 110.119H60.6547L60.8826 109.908Z" fill="#CADEEC"/>
<path d="M59.743 111.112L59.3726 110.751L59.1162 111.383C59.2872 111.263 59.5721 111.082 59.743 111.112Z" fill="#CADEEC"/>
<path d="M143.874 147.116H143.988C144.045 146.966 143.988 146.785 143.845 146.454V147.116H143.874Z" fill="#CADEEC"/>
<path d="M139.43 137.604L139.515 137.754L139.714 137.242L139.43 137.604Z" fill="#CADEEC"/>
<path d="M134.273 130.62C134.472 130.921 134.786 131.191 134.957 131.493C134.444 130.921 134.615 130.198 134.273 130.62Z" fill="#CADEEC"/>
</svg>
