<svg width="790" height="570" viewBox="0 0 790 570" fill="none" xmlns="http://www.w3.org/2000/svg">
<g filter="url(#filter0_d_557_13)">
<path d="M31.0841 202.672H136.988C107.665 200.031 84.9265 181.2 84.9265 158.348C84.9265 136.645 103 115.539 132.601 115.539L182.441 114.539C202.486 114.539 218.733 102.27 218.733 87.1324C218.733 71.9948 202.482 59.7255 182.441 59.7255H114.119C97.6697 55.6747 85.7802 44.0031 85.7802 30.2298C85.7802 15.508 99.3602 3.1802 117.577 0H677.773L689.849 0.695162C706.375 4.71021 713.338 16.4143 713.338 30.2298C713.338 44.0031 704.5 59.7255 684.999 59.7255H612.718C592.677 59.7255 576.426 71.9948 576.426 87.1324C576.426 102.27 592.677 114.539 612.718 114.539H722.085C749.257 118.567 769.759 136.648 769.759 158.348C769.759 179.384 750.492 197.014 724.558 201.743H631.575C608.884 201.743 590.491 215.633 590.491 232.769C590.491 249.904 608.889 263.795 631.575 263.795H741.73C759.168 267.381 771.991 279.419 771.991 293.722C771.991 310.858 753.593 324.748 730.907 324.748H632.319C656.941 331.566 680.518 349.426 680.518 370.385C680.518 390.775 657.879 408.219 634.302 415.431H738.863C761.553 415.431 779.947 429.321 779.947 446.457C779.947 463.592 761.553 477.482 738.863 477.482L649.194 477.349C667.902 482.715 681.202 496.375 681.202 512.387C681.202 533.085 658.984 549.867 631.575 549.867H160.72C133.311 549.867 111.094 533.219 111.094 512.52C111.094 491.821 133.311 475.043 160.72 475.043H206.48C191.734 470.329 181.389 459.307 181.389 446.457C181.389 434.522 190.319 424.166 203.405 418.975H117.66C82.125 418.975 53.3176 397.22 53.3176 370.385C53.3176 345.694 77.7117 325.32 109.285 322.217H158.052C178.893 322.217 194.746 309.434 195.781 293.726C198 260.016 128.888 265.234 108.052 265.234H154.327C154.851 265.061 105.372 264.88 105.909 264.727H51.0841C28.3934 264.727 10 250.837 10 233.701C10 216.566 28.3934 202.676 51.0841 202.676L31.0841 202.672Z" fill="#ECF3F9" fill-opacity="0.6" shape-rendering="crispEdges"/>
</g>
<defs>
<filter id="filter0_d_557_13" x="0" y="0" width="789.947" height="569.867" filterUnits="userSpaceOnUse" color-interpolation-filters="sRGB">
<feFlood flood-opacity="0" result="BackgroundImageFix"/>
<feColorMatrix in="SourceAlpha" type="matrix" values="0 0 0 0 0 0 0 0 0 0 0 0 0 0 0 0 0 0 127 0" result="hardAlpha"/>
<feOffset dy="10"/>
<feGaussianBlur stdDeviation="5"/>
<feComposite in2="hardAlpha" operator="out"/>
<feColorMatrix type="matrix" values="0 0 0 0 0 0 0 0 0 0 0 0 0 0 0 0 0 0 0.25 0"/>
<feBlend mode="normal" in2="BackgroundImageFix" result="effect1_dropShadow_557_13"/>
<feBlend mode="normal" in="SourceGraphic" in2="effect1_dropShadow_557_13" result="shape"/>
</filter>
</defs>
</svg>
