<svg width="37" height="46" viewBox="0 0 37 46" fill="none" xmlns="http://www.w3.org/2000/svg">
<path d="M3.28888 38.4224C3.28888 40.435 4.58388 42.0817 6.16666 42.0817C6.82204 42.0745 7.45179 41.7975 7.93443 41.3041C8.09375 41.1405 8.28089 41.0141 8.48482 40.9323C8.68875 40.8504 8.90534 40.8149 9.12183 40.8277C9.33831 40.8405 9.5503 40.9013 9.7453 41.0067C9.9403 41.1121 10.1144 41.2599 10.2572 41.4413C10.5515 41.7993 10.706 42.2726 10.6867 42.7572C10.6674 43.2418 10.476 43.6981 10.1544 44.0257C9.05843 45.1208 7.63972 45.7311 6.16666 45.741C2.775 45.741 0 42.4476 0 38.4224C0 34.3972 2.775 31.1039 6.16666 31.1039C7.63972 31.1138 9.05843 31.724 10.1544 32.8192C10.476 33.1468 10.6674 33.603 10.6867 34.0877C10.706 34.5723 10.5515 35.0456 10.2572 35.4035C10.1144 35.585 9.9403 35.7327 9.7453 35.8381C9.5503 35.9435 9.33831 36.0044 9.12183 36.0172C8.90534 36.03 8.68875 35.9944 8.48482 35.9126C8.28089 35.8308 8.09375 35.7043 7.93443 35.5408C7.45179 35.0474 6.82204 34.7704 6.16666 34.7632C4.58388 34.7632 3.28888 36.4098 3.28888 38.4224ZM36.9999 14.6371V23.7853C36.9999 24.2706 36.8267 24.736 36.5183 25.0791C36.2099 25.4222 35.7916 25.615 35.3555 25.615C34.9194 25.615 34.5011 25.4222 34.1927 25.0791C33.8843 24.736 33.7111 24.2706 33.7111 23.7853V16.4668H23.8444C23.4083 16.4668 22.99 16.274 22.6816 15.9309C22.3732 15.5878 22.2 15.1224 22.2 14.6371V3.65931H4.1111V23.7853C4.1111 24.2706 3.93785 24.736 3.62946 25.0791C3.32107 25.4222 2.9028 25.615 2.46666 25.615C2.03053 25.615 1.61226 25.4222 1.30387 25.0791C0.995474 24.736 0.822221 24.2706 0.822221 23.7853V3.65931C0.822221 2.68881 1.16873 1.75805 1.78551 1.07181C2.4023 0.385559 3.23884 2.94803e-05 4.1111 2.94803e-05H23.8444C24.2819 -0.00271488 24.7028 0.186245 25.0161 0.52605L36.5066 13.3335C36.6644 13.5019 36.7895 13.7044 36.8744 13.9286C36.9592 14.1528 37.0019 14.3939 36.9999 14.6371ZM31.3883 12.8075L25.4888 6.24367V12.8075H31.3883ZM23.8444 41.1669C23.8444 44.1629 21.9122 45.9697 18.7055 45.9697C17.213 45.9648 15.7625 45.4188 14.5739 44.4145C14.3818 44.2465 14.2277 44.0307 14.1242 43.7844C14.0207 43.5381 13.9705 43.2683 13.9778 42.9965C13.9778 42.5113 14.151 42.0459 14.4594 41.7028C14.7678 41.3597 15.1861 41.1669 15.6222 41.1669C16.0031 41.17 16.3722 41.315 16.6705 41.5786H16.65C17.2567 42.0395 17.971 42.2938 18.7055 42.3104C20.5555 42.3104 20.5555 41.6243 20.5555 41.1669C20.5555 40.7095 20.5555 40.9611 20.3089 40.801C20.0622 40.6409 19.1166 40.2978 18.4177 40.092C16.65 39.566 13.9778 38.7655 13.9778 35.678C13.9778 32.5905 15.9305 30.8752 18.7055 30.8752C20.1981 30.8801 21.6485 31.4261 22.8372 32.4304C23.0293 32.5984 23.1833 32.8142 23.2868 33.0605C23.3904 33.3067 23.4405 33.5766 23.4333 33.8483C23.4333 34.3336 23.26 34.799 22.9516 35.1421C22.6433 35.4852 22.225 35.678 21.7888 35.678C21.4079 35.6748 21.0389 35.5299 20.7405 35.2663H20.7611C20.1543 34.8054 19.44 34.5511 18.7055 34.5345C17.76 34.5345 17.2666 34.9233 17.2666 35.678V35.7237C17.4927 36.021 18.6233 36.3641 19.2605 36.5471C20.9666 37.0502 23.8444 37.8964 23.8444 41.1669ZM36.9999 41.1669C36.9999 44.1629 35.0677 45.9697 31.8611 45.9697C30.3685 45.9648 28.9181 45.4188 27.7294 44.4145C27.5373 44.2465 27.3833 44.0307 27.2797 43.7844C27.1762 43.5381 27.1261 43.2683 27.1333 42.9965C27.1333 42.5113 27.3065 42.0459 27.6149 41.7028C27.9233 41.3597 28.3416 41.1669 28.7777 41.1669C29.1587 41.17 29.5277 41.315 29.8261 41.5786H29.8055C30.4123 42.0395 31.1265 42.2938 31.8611 42.3104C33.7111 42.3104 33.7111 41.6243 33.7111 41.1669C33.7111 40.7095 33.7111 40.9611 33.4644 40.801C33.2177 40.6409 32.2722 40.2978 31.5733 40.092C29.8055 39.566 27.1333 38.7655 27.1333 35.678C27.1333 32.5905 29.0861 30.8752 31.8611 30.8752C33.3536 30.8801 34.804 31.4261 35.9927 32.4304C36.1848 32.5984 36.3388 32.8142 36.4424 33.0605C36.5459 33.3067 36.5961 33.5766 36.5888 33.8483C36.5888 34.3336 36.4156 34.799 36.1072 35.1421C35.7988 35.4852 35.3805 35.678 34.9444 35.678C34.5634 35.6748 34.1944 35.5299 33.896 35.2663H33.9166C33.3099 34.8054 32.5956 34.5511 31.8611 34.5345C30.8949 34.5345 30.4222 34.9233 30.4222 35.678V35.7237C30.6483 36.021 31.7788 36.3641 32.4161 36.5471C34.1222 37.0502 36.9999 37.8964 36.9999 41.1669Z" fill="black"/>
</svg>
