<svg width="194" height="241" viewBox="0 0 194 241" fill="none" xmlns="http://www.w3.org/2000/svg">
<g clip-path="url(#clip0_517_42981)">
<path d="M106.517 158.991C68.9431 169.778 29.8689 147.403 19.2419 109.017C8.6149 70.6304 30.4594 30.768 68.033 19.9817C105.607 9.19535 144.681 31.5696 155.308 69.956C165.935 108.342 144.09 148.205 106.517 158.991Z" fill="#EC6A46"/>
<path d="M48.6769 203.555C50.5052 200.73 53.7668 199.252 57.0838 199.242C63.0934 199.233 68.8318 196.094 73.8904 191.767C66.0029 195.039 58.3267 196.276 52.6158 193.032C42.5318 187.31 45.5172 180.886 48.4008 178.75C51.0888 176.761 54.6437 176.549 57.7603 177.73C62.1743 179.413 67.0851 179.236 71.9911 178.011C70.5509 175.991 69.4318 173.687 68.7265 171.14C65.5441 159.644 72.0854 147.708 83.3373 144.478C93.2215 141.64 103.45 146.471 107.951 155.479C107.161 145.406 113.405 135.846 123.297 133.006C134.549 129.776 146.25 136.476 149.432 147.971C150.135 150.511 150.363 153.071 150.171 155.56C154.898 153.986 159.099 151.538 161.96 147.817C164.002 145.147 167.152 143.443 170.464 143.709C174.019 143.997 179.852 147.889 174.196 158.13C170.641 164.559 162.227 167.583 152.661 168.77C159.476 169.931 166.33 169.672 171.689 166.342C174.521 164.579 178.06 164.104 181.07 165.549C184.305 167.095 188.429 172.828 179.597 180.381C169.762 188.788 149.284 181.674 134.579 174.703C134.504 174.725 134.428 174.746 134.353 174.768C141.854 182.182 151.877 189.421 161.648 188.267C164.95 187.877 168.357 188.957 170.5 191.542C172.803 194.323 174.219 201.292 163.1 204.384C150.815 207.802 135.253 192.869 124.733 180.33C128.039 188.94 133.117 197.324 140.773 200.435C143.861 201.69 146.359 204.289 147.05 207.608C147.791 211.17 145.793 217.978 134.556 215.311C128.043 213.764 123.088 207.328 119.346 199.235C120.307 208.127 119.381 216.243 114.622 221.034C106.417 229.29 101.219 224.54 100.017 221.11C98.9034 217.913 99.7001 214.367 101.69 211.654C106.55 205.017 106.648 195.355 105.123 186.368C102.552 202.598 96.9283 223.272 84.8124 226.858C73.7449 230.135 71.3698 223.442 71.9153 219.843C72.4148 216.491 74.7736 213.756 77.7837 212.342C86.7081 208.13 91.5396 196.617 94.1414 186.303C93.7971 186.385 93.4603 186.465 93.1117 186.532C84.1472 200.323 70.2994 217.365 57.5734 215.418C46.1683 213.676 46.7499 206.583 48.7093 203.554L48.6769 203.555Z" fill="#EC6A46"/>
<path d="M133.128 170.519C124.701 172.938 115.939 167.921 113.556 159.312C111.172 150.704 116.071 141.764 124.497 139.345C132.924 136.926 141.686 141.944 144.069 150.552C146.453 159.161 141.554 168.1 133.128 170.519Z" fill="white"/>
<path d="M132.389 159.573C128.379 160.724 124.208 158.336 123.073 154.238C121.939 150.141 124.271 145.886 128.281 144.734C132.292 143.583 136.463 145.971 137.597 150.069C138.732 154.166 136.4 158.421 132.389 159.573Z" fill="#231815"/>
<path d="M96.1754 181.127C87.7492 183.546 78.9865 178.529 76.6033 169.92C74.2201 161.312 79.1189 152.372 87.5451 149.953C95.9713 147.534 104.734 152.552 107.117 161.161C109.5 169.769 104.602 178.708 96.1754 181.127Z" fill="white"/>
<path d="M95.4446 170.178C91.4339 171.33 87.263 168.941 86.1287 164.844C84.9944 160.747 87.3261 156.492 91.3368 155.34C95.3475 154.189 99.5183 156.577 100.653 160.675C101.787 164.772 99.4553 169.027 95.4446 170.178Z" fill="#231815"/>
<path d="M48.6271 40.9032C48.6271 40.9032 22.6503 54.6191 25.8561 94.309" stroke="#EFEFEF" stroke-width="8" stroke-linecap="round" stroke-linejoin="round"/>
<path d="M27.7461 109.976C25.1836 110.711 22.5188 109.185 21.794 106.567C21.0693 103.949 22.559 101.231 25.1215 100.495C27.684 99.7595 30.3489 101.285 31.0736 103.903C31.7984 106.521 30.3086 109.24 27.7461 109.976Z" fill="#EFEFEF"/>
</g>
<defs>
<clipPath id="clip0_517_42981">
<rect width="143.197" height="208.435" fill="white" transform="matrix(-0.961178 0.275928 0.266807 0.96375 137.638 0)"/>
</clipPath>
</defs>
</svg>
