<svg width="172" height="82" viewBox="0 0 172 82" fill="none" xmlns="http://www.w3.org/2000/svg">
<path d="M113.605 12.2633C110.972 12.2633 113.388 10.3206 114.151 9.70776C115.356 8.78844 117.572 7.46438 118.671 6.44099C121.087 4.08778 123.372 2.75795 126.557 1.63049C130.177 0.202369 133.908 0.0983156 137.863 0.711192C143.023 1.42814 148.214 4.05307 153.044 6.09985C155.788 7.3256 157.067 6.74165 159.595 5.20946C162.885 3.16846 166.294 1.1217 170.243 0.306455C170.795 0.10409 171.454 0 172 0C169.038 2.45151 165.636 3.67727 164.537 7.56268C163.221 12.061 166.84 14.7148 169.696 17.5769C167.169 17.4728 164.58 15.9521 162.451 14.6108C160.507 13.385 157.434 11.1995 155.739 11.6794C151.703 12.8184 146.096 16.964 140.496 18.1897C134.349 19.7219 128.215 20.2249 121.236 17.4901C119.789 16.9235 114.754 14.4142 113.53 13.1595C113.419 12.9571 113.928 12.3616 113.822 12.2575" fill="#1E617F" fill-opacity="0.5"/>
<path d="M77.8355 43.1905C75.2029 43.1905 77.6182 41.2478 78.3819 40.635C79.5864 39.7156 81.803 38.3916 82.902 37.3682C85.3172 35.015 87.6021 33.6851 90.7873 32.5577C94.4071 31.1296 98.1387 31.0255 102.094 31.6384C107.253 32.3553 112.444 34.9803 117.275 37.0271C120.019 38.2528 121.298 37.6688 123.825 36.1367C127.116 34.0957 130.525 32.0489 134.473 31.2337C135.026 31.0313 135.684 30.9272 136.231 30.9272C133.269 33.3787 129.866 34.6045 128.767 38.4899C127.451 42.9882 131.071 45.642 133.927 48.5041C131.4 48.4 128.811 46.8793 126.681 45.538C124.738 44.3122 121.664 42.1267 119.969 42.6066C115.934 43.7456 110.327 47.8912 104.726 49.1169C98.5796 50.6491 92.4451 51.1521 85.4663 48.4173C84.0196 47.8507 78.9841 45.3414 77.761 44.0867C77.6492 43.8843 78.1583 43.2888 78.0528 43.1847" fill="#1E617F" fill-opacity="0.5"/>
<path d="M36.9618 12.2633C34.3292 12.2633 36.7445 10.3206 37.5082 9.70776C38.7127 8.78844 40.9293 7.46438 42.0283 6.44099C44.4436 4.08778 46.7285 2.75795 49.9137 1.63049C53.5335 0.202369 57.2651 0.0983156 61.2202 0.711192C66.3798 1.42814 71.5705 4.05307 76.401 6.09985C79.1454 7.3256 80.4244 6.74165 82.9515 5.20946C86.2422 3.16846 89.6509 1.1217 93.5998 0.306455C94.1524 0.10409 94.8105 0 95.3569 0C92.3953 2.45151 88.9928 3.67727 87.8938 7.56268C86.5775 12.061 90.1973 14.7148 93.0534 17.5769C90.5264 17.4728 87.9372 15.9521 85.8076 14.6108C83.8642 13.385 80.7908 11.1995 79.0957 11.6794C75.0599 12.8184 69.4532 16.964 63.8528 18.1897C57.7059 19.7219 51.5715 20.2249 44.5926 17.4901C43.1459 16.9235 38.1105 14.4142 36.8873 13.1595C36.7755 12.9571 37.2847 12.3616 37.1791 12.2575" fill="#1E617F" fill-opacity="0.5"/>
<path d="M1.19815 43.1905C-1.43444 43.1905 0.980819 41.2478 1.74452 40.635C2.94905 39.7156 5.16565 38.3916 6.26463 37.3682C8.67991 35.015 10.9648 33.6851 14.15 32.5577C17.7698 31.1296 21.5014 31.0255 25.4565 31.6384C30.6161 32.3553 35.8068 34.9803 40.6374 37.0271C43.3817 38.2528 44.6608 37.6688 47.1878 36.1367C50.4785 34.0957 53.8872 32.0489 57.8361 31.2337C58.3887 31.0313 59.0469 30.9272 59.5933 30.9272C56.6316 33.3787 53.2291 34.6045 52.1301 38.4899C50.8138 42.9882 54.4336 45.642 57.2897 48.5041C54.7627 48.4 52.1736 46.8793 50.0439 45.538C48.1005 44.3122 45.0271 42.1267 43.332 42.6066C39.2962 43.7456 33.6895 47.8912 28.0891 49.1169C21.9422 50.6491 15.8078 51.1521 8.82893 48.4173C7.38224 47.8507 2.34679 45.3414 1.12362 44.0867C1.01186 43.8843 1.521 43.2888 1.41545 43.1847" fill="#1E617F" fill-opacity="0.5"/>
<path d="M36.9618 74.1175C34.3292 74.1175 36.7445 72.1748 37.5082 71.562C38.7127 70.6427 40.9293 69.3186 42.0283 68.2952C44.4436 65.942 46.7285 64.6122 49.9137 63.4847C53.5335 62.0566 57.2651 61.9525 61.2202 62.5654C66.3798 63.2824 71.5705 65.9073 76.401 67.9541C79.1454 69.1799 80.4244 68.5959 82.9515 67.0637C86.2422 65.0227 89.6509 62.9759 93.5998 62.1607C94.1524 61.9583 94.8105 61.8542 95.3569 61.8542C92.3953 64.3058 88.9928 65.5315 87.8938 69.4169C86.5775 73.9152 90.1973 76.5691 93.0534 79.4311C90.5264 79.327 87.9372 77.8064 85.8076 76.465C83.8642 75.2393 80.7908 73.0537 79.0957 73.5336C75.0599 74.6726 69.4532 78.8182 63.8528 80.0439C57.7059 81.5761 51.5715 82.0792 44.5926 79.3444C43.1459 78.7777 38.1105 76.2684 36.8873 75.0138C36.7755 74.8114 37.2847 74.2158 37.1791 74.1118" fill="#1E617F" fill-opacity="0.5"/>
</svg>
