<svg width="277" height="131" viewBox="0 0 277 131" fill="none" xmlns="http://www.w3.org/2000/svg">
<path d="M182.913 19.745C178.675 19.745 182.564 16.6171 183.793 15.6303C185.733 14.1501 189.302 12.0183 191.071 10.3705C194.96 6.58167 198.639 4.44053 203.767 2.62522C209.595 0.325831 215.603 0.158296 221.971 1.14508C230.279 2.29943 238.636 6.52579 246.414 9.82128C250.833 11.7948 252.892 10.8546 256.961 8.38767C262.259 5.10149 267.747 1.80603 274.105 0.493419C274.995 0.167594 276.055 0 276.935 0C272.166 3.94713 266.688 5.92072 264.918 12.1765C262.799 19.4192 268.627 23.6921 273.226 28.3002C269.157 28.1327 264.988 25.6843 261.559 23.5246C258.43 21.551 253.482 18.0321 250.753 18.8047C244.255 20.6387 235.227 27.3134 226.21 29.287C216.313 31.754 206.436 32.5638 195.2 28.1606C192.87 27.2483 184.763 23.208 182.794 21.1879C182.614 20.8621 183.433 19.9032 183.263 19.7357" fill="#1E617F" fill-opacity="0.3"/>
<path d="M125.322 69.5404C121.083 69.5404 124.972 66.4125 126.201 65.4257C128.141 63.9455 131.71 61.8137 133.479 60.166C137.368 56.3771 141.047 54.2359 146.175 52.4206C152.003 50.1212 158.012 49.9537 164.38 50.9405C172.687 52.0948 181.045 56.3213 188.822 59.6167C193.241 61.5903 195.3 60.65 199.369 58.1831C204.667 54.8969 210.156 51.6014 216.514 50.2888C217.403 49.963 218.463 49.7954 219.343 49.7954C214.574 53.7425 209.096 55.7161 207.326 61.972C205.207 69.2146 211.035 73.4875 215.634 78.0956C211.565 77.9281 207.396 75.4797 203.967 73.32C200.838 71.3464 195.89 67.8275 193.161 68.6002C186.663 70.4341 177.636 77.1088 168.618 79.0824C158.721 81.5494 148.844 82.3593 137.608 77.956C135.279 77.0437 127.171 73.0034 125.202 70.9833C125.022 70.6575 125.842 69.6987 125.672 69.5311" fill="#1E617F" fill-opacity="0.3"/>
<path d="M59.5116 19.745C55.2729 19.745 59.1617 16.6171 60.3913 15.6303C62.3308 14.1501 65.8997 12.0183 67.6691 10.3705C71.5579 6.58167 75.2368 4.44053 80.3652 2.62522C86.1934 0.325831 92.2016 0.158296 98.5696 1.14508C106.877 2.29943 115.234 6.52579 123.012 9.82128C127.431 11.7948 129.49 10.8546 133.559 8.38767C138.857 5.10149 144.346 1.80603 150.704 0.493419C151.593 0.167594 152.653 0 153.533 0C148.764 3.94713 143.286 5.92072 141.516 12.1765C139.397 19.4192 145.225 23.6921 149.824 28.3002C145.755 28.1327 141.586 25.6843 138.157 23.5246C135.028 21.551 130.08 18.0321 127.351 18.8047C120.853 20.6387 111.826 27.3134 102.808 29.287C92.9114 31.754 83.0344 32.5638 71.7978 28.1606C69.4686 27.2483 61.361 23.208 59.3917 21.1879C59.2117 20.8621 60.0315 19.9032 59.8615 19.7357" fill="#1E617F" fill-opacity="0.3"/>
<path d="M1.92912 69.5404C-2.30958 69.5404 1.5792 66.4125 2.80882 65.4257C4.74822 63.9455 8.31713 61.8137 10.0866 60.166C13.9754 56.3771 17.6543 54.2359 22.7827 52.4206C28.6109 50.1212 34.6191 49.9537 40.9871 50.9405C49.2945 52.0948 57.652 56.3213 65.4296 59.6167C69.8482 61.5903 71.9076 60.65 75.9763 58.1831C81.2747 54.8969 86.763 51.6014 93.1211 50.2888C94.0108 49.963 95.0705 49.7954 95.9502 49.7954C91.1817 53.7425 85.7033 55.7161 83.9339 61.972C81.8145 69.2146 87.6427 73.4875 92.2413 78.0956C88.1726 77.9281 84.0039 75.4797 80.5749 73.32C77.4459 71.3464 72.4974 67.8275 69.7682 68.6002C63.2702 70.4341 54.243 77.1088 45.2258 79.0824C35.3288 81.5494 25.4519 82.3593 14.2153 77.956C11.886 77.0437 3.77852 73.0034 1.80913 70.9833C1.62918 70.6575 2.44893 69.6987 2.27898 69.5311" fill="#1E617F" fill-opacity="0.3"/>
<path d="M59.5116 119.336C55.2729 119.336 59.1617 116.208 60.3913 115.221C62.3308 113.741 65.8997 111.609 67.6691 109.961C71.5579 106.172 75.2368 104.031 80.3652 102.216C86.1934 99.9164 92.2016 99.7488 98.5696 100.736C106.877 101.89 115.234 106.116 123.012 109.412C127.431 111.385 129.49 110.445 133.559 107.978C138.857 104.692 144.346 101.397 150.704 100.084C151.593 99.7581 152.653 99.5906 153.533 99.5906C148.764 103.538 143.286 105.511 141.516 111.767C139.397 119.01 145.225 123.283 149.824 127.891C145.755 127.723 141.586 125.275 138.157 123.115C135.028 121.142 130.08 117.623 127.351 118.395C120.853 120.229 111.826 126.904 102.808 128.878C92.9114 131.344 83.0344 132.154 71.7978 127.751C69.4686 126.839 61.361 122.799 59.3917 120.778C59.2117 120.453 60.0315 119.494 59.8615 119.326" fill="#1E617F" fill-opacity="0.3"/>
</svg>
