<svg width="277" height="131" viewBox="0 0 277 131" fill="none" xmlns="http://www.w3.org/2000/svg">
<path d="M94.0211 19.745C98.2598 19.745 94.371 16.6171 93.1414 15.6303C91.202 14.1501 87.6331 12.0183 85.8636 10.3705C81.9748 6.58167 78.2959 4.44053 73.1675 2.62522C67.3393 0.325831 61.3311 0.158296 54.9631 1.14508C46.6557 2.29943 38.2982 6.52579 30.5206 9.82128C26.102 11.7948 24.0426 10.8546 19.9739 8.38767C14.6755 5.10149 9.18718 1.80603 2.82913 0.493419C1.9394 0.167594 0.879729 0 0 0C4.76853 3.94713 10.2468 5.92072 12.0163 12.1765C14.1357 19.4192 8.30745 23.6921 3.70886 28.3002C7.77761 28.1327 11.9463 25.6843 15.3753 23.5246C18.5043 21.551 23.4528 18.0321 26.182 18.8047C32.68 20.6387 41.7072 27.3134 50.7244 29.287C60.6214 31.754 70.4983 32.5638 81.7349 28.1606C84.0642 27.2483 92.1717 23.208 94.1411 21.1879C94.321 20.8621 93.5013 19.9032 93.6712 19.7357" fill="#1E617F" fill-opacity="0.3"/>
<path d="M151.613 69.5404C155.852 69.5404 151.963 66.4125 150.733 65.4257C148.794 63.9455 145.225 61.8137 143.455 60.166C139.567 56.3771 135.888 54.2359 130.759 52.4206C124.931 50.1212 118.923 49.9537 112.555 50.9405C104.247 52.0948 95.89 56.3213 88.1124 59.6167C83.6938 61.5903 81.6344 60.65 77.5657 58.1831C72.2673 54.8969 66.779 51.6014 60.4209 50.2888C59.5312 49.963 58.4715 49.7954 57.5918 49.7954C62.3603 53.7425 67.8387 55.7161 69.6081 61.972C71.7275 69.2146 65.8992 73.4875 61.3007 78.0956C65.3694 77.9281 69.5381 75.4797 72.9671 73.32C76.0961 71.3464 81.0446 67.8275 83.7737 68.6002C90.2718 70.4341 99.299 77.1088 108.316 79.0824C118.213 81.5494 128.09 82.3593 139.327 77.956C141.656 77.0437 149.763 73.0034 151.733 70.9833C151.913 70.6575 151.093 69.6987 151.263 69.5311" fill="#1E617F" fill-opacity="0.3"/>
<path d="M217.423 19.745C221.662 19.745 217.773 16.6171 216.543 15.6303C214.604 14.1501 211.035 12.0183 209.265 10.3705C205.377 6.58167 201.698 4.44053 196.569 2.62522C190.741 0.325831 184.733 0.158296 178.365 1.14508C170.058 2.29943 161.7 6.52579 153.922 9.82128C149.504 11.7948 147.444 10.8546 143.376 8.38767C138.077 5.10149 132.589 1.80603 126.231 0.493419C125.341 0.167594 124.282 0 123.402 0C128.17 3.94713 133.649 5.92072 135.418 12.1765C137.538 19.4192 131.709 23.6921 127.111 28.3002C131.179 28.1327 135.348 25.6843 138.777 23.5246C141.906 21.551 146.855 18.0321 149.584 18.8047C156.082 20.6387 165.109 27.3134 174.126 29.287C184.023 31.754 193.9 32.5638 205.137 28.1606C207.466 27.2483 215.574 23.208 217.543 21.1879C217.723 20.8621 216.903 19.9032 217.073 19.7357" fill="#1E617F" fill-opacity="0.3"/>
<path d="M275.005 69.5404C279.244 69.5404 275.355 66.4125 274.126 65.4257C272.186 63.9455 268.617 61.8137 266.848 60.166C262.959 56.3771 259.28 54.2359 254.152 52.4206C248.324 50.1212 242.316 49.9537 235.947 50.9405C227.64 52.0948 219.283 56.3213 211.505 59.6167C207.086 61.5903 205.027 60.65 200.958 58.1831C195.66 54.8969 190.172 51.6014 183.814 50.2888C182.924 49.963 181.864 49.7954 180.984 49.7954C185.753 53.7425 191.231 55.7161 193.001 61.972C195.12 69.2146 189.292 73.4875 184.693 78.0956C188.762 77.9281 192.931 75.4797 196.36 73.32C199.489 71.3464 204.437 67.8275 207.166 68.6002C213.664 70.4341 222.692 77.1088 231.709 79.0824C241.606 81.5494 251.483 82.3593 262.719 77.956C265.049 77.0437 273.156 73.0034 275.125 70.9833C275.305 70.6575 274.486 69.6987 274.656 69.5311" fill="#1E617F" fill-opacity="0.3"/>
<path d="M217.423 119.336C221.662 119.336 217.773 116.208 216.543 115.221C214.604 113.741 211.035 111.609 209.265 109.961C205.377 106.172 201.698 104.031 196.569 102.216C190.741 99.9164 184.733 99.7488 178.365 100.736C170.058 101.89 161.7 106.116 153.922 109.412C149.504 111.385 147.444 110.445 143.376 107.978C138.077 104.692 132.589 101.397 126.231 100.084C125.341 99.7581 124.282 99.5906 123.402 99.5906C128.17 103.538 133.649 105.511 135.418 111.767C137.538 119.01 131.709 123.283 127.111 127.891C131.179 127.723 135.348 125.275 138.777 123.115C141.906 121.142 146.855 117.623 149.584 118.395C156.082 120.229 165.109 126.904 174.126 128.878C184.023 131.344 193.9 132.154 205.137 127.751C207.466 126.839 215.574 122.799 217.543 120.778C217.723 120.453 216.903 119.494 217.073 119.326" fill="#1E617F" fill-opacity="0.3"/>
</svg>
