<svg width="271" height="285" viewBox="0 0 271 285" fill="none" xmlns="http://www.w3.org/2000/svg">
<g clip-path="url(#clip0_517_42961)">
<path d="M124.527 20.7694C124.527 20.7694 179.151 15.3171 152.64 102.917L139.786 100.638C139.786 100.638 147.676 74.7942 146.66 54.6959C146.109 43.8214 138.111 34.8972 127.488 33.0137L123.733 32.3479L124.538 20.7714L124.527 20.7694Z" fill="#036EB8"/>
<path d="M106.212 99.7954C106.212 99.7954 93.1036 70.9666 139.708 77.674C186.312 84.3815 175.172 108.9 175.172 108.9L106.212 99.7954Z" fill="#DB7836"/>
<path d="M244.875 196.729C265.708 186.648 279.242 171.923 275.41 163.09C271.571 154.234 251.72 154.507 230.314 163.441C220.085 130.138 184.921 101.646 139.109 93.5228C79.2136 82.8918 23.7858 111.152 15.3246 156.619C6.86349 202.087 48.5685 247.569 108.476 258.191C154.714 266.389 198.279 251.424 219.644 223.257C236.027 238.835 254.019 245.954 260.834 239.18C267.746 232.308 260.607 213.634 244.888 196.72L244.875 196.729Z" fill="#F8B62D"/>
<path d="M40.9495 115.047C40.9495 115.047 64.1255 162.581 24.6712 204.938C24.6712 204.938 -6.95996 157.585 40.9495 115.047V115.047Z" fill="#DB7836"/>
<path d="M89.4568 200.708C107.707 203.944 125.283 191.625 128.713 173.192C132.143 154.759 120.129 137.194 101.878 133.958C83.6281 130.722 66.0526 143.041 62.6225 161.474C59.1923 179.906 71.2064 197.472 89.4568 200.708Z" fill="#DB7836"/>
<path d="M91.3143 190.726C104.106 192.994 116.425 184.36 118.83 171.44C121.234 158.52 112.813 146.208 100.021 143.94C87.2289 141.671 74.9098 150.306 72.5055 163.226C70.1013 176.146 78.5222 188.458 91.3143 190.726Z" fill="#036EB8"/>
<path d="M99.3386 154.856L83.4712 166.17" stroke="#C9CACA" stroke-width="4" stroke-linecap="round" stroke-linejoin="round"/>
<path d="M88.1558 180.752L110.023 164.507" stroke="#C9CACA" stroke-width="4" stroke-linecap="round" stroke-linejoin="round"/>
<path d="M164.516 214.016C182.766 217.252 200.342 204.933 203.772 186.5C207.202 168.068 195.188 150.502 176.938 147.266C158.687 144.03 141.112 156.35 137.682 174.782C134.251 193.215 146.266 210.781 164.516 214.016Z" fill="#DB7836"/>
<path d="M166.373 204.035C179.165 206.303 191.485 197.668 193.889 184.748C196.293 171.828 187.872 159.516 175.08 157.248C162.288 154.98 149.969 163.615 147.565 176.535C145.16 189.454 153.581 201.767 166.373 204.035Z" fill="#036EB8"/>
<path d="M174.398 168.165L158.53 179.478" stroke="#C9CACA" stroke-width="4" stroke-linecap="round" stroke-linejoin="round"/>
<path d="M163.215 194.061L185.071 177.813" stroke="#C9CACA" stroke-width="4" stroke-linecap="round" stroke-linejoin="round"/>
<path d="M123.26 38.4532C126.921 39.1023 130.876 34.3228 132.094 27.7778C133.312 21.2329 131.332 15.401 127.671 14.7519C124.01 14.1029 120.055 18.8824 118.837 25.4273C117.619 31.9722 119.599 37.8041 123.26 38.4532Z" fill="#DB7836"/>
<path d="M138.98 37.1751L145.569 27.7483" stroke="#C9CACA" stroke-width="2" stroke-linecap="round" stroke-linejoin="round"/>
<path d="M145.73 45.8552L155.178 40.7053" stroke="#C9CACA" stroke-width="2" stroke-linecap="round" stroke-linejoin="round"/>
<path d="M148.073 56.1048L158.097 55.7131" stroke="#C9CACA" stroke-width="2" stroke-linecap="round" stroke-linejoin="round"/>
<path d="M147.434 68.8462L158.096 71.1228" stroke="#C9CACA" stroke-width="2" stroke-linecap="round" stroke-linejoin="round"/>
</g>
<defs>
<clipPath id="clip0_517_42961">
<rect width="258.281" height="243.072" fill="white" transform="matrix(0.984643 0.174582 -0.182951 0.983122 44.4702 0)"/>
</clipPath>
</defs>
</svg>
