<svg width="220" height="93" viewBox="0 0 220 93" fill="none" xmlns="http://www.w3.org/2000/svg">
<path d="M94.0211 81.4044C98.2598 81.4044 94.371 78.2765 93.1414 77.2897C91.202 75.8095 87.6331 73.6777 85.8636 72.03C81.9748 68.2411 78.2959 66.0999 73.1675 64.2846C67.3393 61.9852 61.3312 61.8177 54.9631 62.8045C46.6557 63.9588 38.2983 68.1852 30.5206 71.4807C26.102 73.4543 24.0426 72.514 19.9739 70.0471C14.6755 66.7609 9.18719 63.4654 2.82915 62.1528C1.93942 61.827 0.879729 61.6594 0 61.6594C4.76853 65.6066 10.2469 67.5801 12.0163 73.836C14.1357 81.0786 8.30747 85.3515 3.70888 89.9596C7.77763 89.7921 11.9463 87.3437 15.3753 85.184C18.5043 83.2104 23.4528 79.6915 26.182 80.4642C32.68 82.2981 41.7072 88.9728 50.7245 90.9464C60.6214 93.4134 70.4983 94.2233 81.7349 89.82C84.0642 88.9077 92.1717 84.8674 94.1411 82.8473C94.321 82.5215 93.5013 81.5627 93.6712 81.3951" fill="#1E617F" fill-opacity="0.5"/>
<path d="M159.841 20.1213C164.08 20.1213 160.191 16.9934 158.961 16.0066C157.022 14.5264 153.453 12.3946 151.683 10.7469C147.795 6.958 144.116 4.81687 138.987 3.00156C133.159 0.702167 127.151 0.534601 120.783 1.52138C112.475 2.67573 104.118 6.90215 96.3404 10.1976C91.9218 12.1712 89.8624 11.231 85.7937 8.764C80.4953 5.47783 75.007 2.18234 68.649 0.869734C67.7592 0.54391 66.6996 0.376343 65.8198 0.376343C70.5884 4.32348 76.0667 6.29704 77.8361 12.5529C79.9555 19.7955 74.1273 24.0685 69.5287 28.6765C73.5975 28.509 77.7662 26.0606 81.1951 23.9009C84.3241 21.9273 89.2726 18.4084 92.0018 19.1811C98.4998 21.015 107.527 27.6898 116.544 29.6633C126.441 32.1303 136.318 32.9402 147.555 28.5369C149.884 27.6246 157.991 23.5844 159.961 21.5643C160.141 21.2384 159.321 20.2796 159.491 20.112" fill="#1E617F" fill-opacity="0.5"/>
<path d="M217.423 81.4044C221.662 81.4044 217.773 78.2765 216.544 77.2897C214.604 75.8095 211.035 73.6777 209.266 72.03C205.377 68.2411 201.698 66.0999 196.57 64.2846C190.741 61.9852 184.733 61.8177 178.365 62.8045C170.058 63.9588 161.7 68.1852 153.923 71.4807C149.504 73.4543 147.445 72.514 143.376 70.0471C138.078 66.7609 132.589 63.4654 126.231 62.1528C125.342 61.827 124.282 61.6594 123.402 61.6594C128.171 65.6066 133.649 67.5801 135.418 73.836C137.538 81.0786 131.71 85.3515 127.111 89.9596C131.18 89.7921 135.348 87.3437 138.777 85.184C141.906 83.2104 146.855 79.6915 149.584 80.4642C156.082 82.2981 165.109 88.9728 174.126 90.9464C184.023 93.4134 193.9 94.2233 205.137 89.82C207.466 88.9077 215.574 84.8674 217.543 82.8473C217.723 82.5215 216.903 81.5627 217.073 81.3951" fill="#1E617F" fill-opacity="0.5"/>
</svg>
