<svg width="221" height="170" viewBox="0 0 221 170" fill="none" xmlns="http://www.w3.org/2000/svg">
<path d="M199.124 68.6428C195.551 67.9271 193.631 64.3613 195.119 61.3202C197.572 56.2792 199.761 49.4787 196.458 45.3686C193.218 41.3354 179.852 49.0564 168.829 56.5586C156.379 28.7767 126.902 11.6436 95.8176 16.6244C63.1476 21.8591 39.5329 49.7794 38.0027 82.1342C37.6493 82.0603 37.2972 81.9948 36.9438 81.9209C22.8409 79.2889 10.177 76.287 9.26231 89.0633C8.56243 98.9153 15.2849 100.536 25.7125 103.949C19.1908 113.637 14.1846 121.072 21.4914 127.082C28.5529 132.888 36.4348 126.689 45.3418 117.167C58.4254 143.403 87.0184 159.302 117.11 154.481C144.374 150.112 165.331 129.938 172.405 104.581C185.883 109.75 202.938 115.051 207.545 110.953C212.355 106.675 205.15 100.44 198.732 96.1933C196.084 94.4415 196.608 90.3624 199.609 89.368C205.562 87.3957 212.208 83.8762 211.633 78.1105C211.047 72.2768 204.594 69.7421 199.117 68.6526L199.124 68.6428Z" fill="#EDC21A"/>
<path d="M45.5078 118.185C45.5078 118.185 56.819 65.9237 168.977 57.5706C168.977 57.5706 176.453 68.7674 173.177 100.445C172.781 104.303 171.747 108.063 170.165 111.598C164.504 124.256 148.4 152.757 117.268 155.5C117.268 155.5 69.6982 166.551 45.4994 118.187L45.5078 118.185Z" fill="#E5CF92"/>
<path d="M199.124 68.6428C195.551 67.9271 193.631 64.3613 195.119 61.3202C197.572 56.2792 199.761 49.4787 196.458 45.3686C193.218 41.3354 179.852 49.0564 168.829 56.5586C156.379 28.7767 126.902 11.6436 95.8176 16.6244C63.1476 21.8591 39.5329 49.7794 38.0027 82.1342C37.6493 82.0603 37.2972 81.9948 36.9438 81.9209C22.8409 79.2889 10.177 76.287 9.26231 89.0633C8.56243 98.9153 15.2849 100.536 25.7125 103.949C19.1908 113.637 14.1846 121.072 21.4914 127.082C28.5529 132.888 36.4348 126.689 45.3418 117.167C58.4254 143.403 87.0184 159.302 117.11 154.481C144.374 150.112 165.331 129.938 172.405 104.581C185.883 109.75 202.938 115.051 207.545 110.953C212.355 106.675 205.15 100.44 198.732 96.1933C196.084 94.4415 196.608 90.3624 199.609 89.368C205.562 87.3957 212.208 83.8762 211.633 78.1105C211.047 72.2768 204.594 69.7421 199.117 68.6526L199.124 68.6428Z" fill="#EDC21A"/>
<path d="M45.5078 118.185C45.5078 118.185 56.819 65.9237 168.977 57.5706C168.977 57.5706 176.453 68.7674 173.177 100.445C172.781 104.303 171.747 108.063 170.165 111.598C164.504 124.256 148.4 152.757 117.268 155.5C117.268 155.5 69.6982 166.551 45.4994 118.187L45.5078 118.185Z" fill="#E5CF92"/>
<path opacity="0.47" d="M115.434 154.697C115.434 154.697 225.722 80.4316 99.6895 16.0651C99.6895 16.0651 112.534 12.5448 140.848 26.0865C144.3 27.7355 147.449 29.9641 150.213 32.6372C160.101 42.2377 181.26 67.0662 173.596 97.9056C173.596 97.9056 168.242 147.28 115.434 154.697Z" fill="#EDC21A"/>
<path d="M81.6109 97.9953C92.5815 96.2374 100.075 85.758 98.3487 74.5888C96.6221 63.4196 86.3291 55.7902 75.3586 57.548C64.388 59.3058 56.8943 69.7852 58.6208 80.9544C60.3474 92.1236 70.6404 99.7531 81.6109 97.9953Z" fill="white"/>
<path d="M76.7764 85.026C82.0014 84.1889 85.5704 79.1978 84.7481 73.8782C83.9258 68.5587 79.0236 64.925 73.7986 65.7622C68.5737 66.5994 65.0046 71.5904 65.8269 76.91C66.6492 82.2296 71.5515 85.8632 76.7764 85.026Z" fill="#231815"/>
<path d="M83.8089 112.214C87.8451 111.567 90.8003 108.993 90.4094 106.465C90.0186 103.936 86.4297 102.411 82.3935 103.057C78.3573 103.704 75.4022 106.278 75.793 108.807C76.1839 111.335 79.7727 112.86 83.8089 112.214Z" fill="#EDC21A"/>
<path d="M118.999 118.195C123.035 117.549 125.991 114.975 125.6 112.446C125.209 109.918 121.62 108.392 117.584 109.039C113.548 109.686 110.592 112.26 110.983 114.788C111.374 117.317 114.963 118.842 118.999 118.195Z" fill="#EDC21A"/>
<path d="M146.188 123.022C150.224 122.375 153.18 119.801 152.789 117.272C152.398 114.744 148.809 113.219 144.773 113.865C140.737 114.512 137.782 117.086 138.172 119.614C138.563 122.143 142.152 123.668 146.188 123.022Z" fill="#EDC21A"/>
<path d="M160.382 109.319C164.418 108.672 167.374 106.098 166.983 103.57C166.592 101.041 163.003 99.5158 158.967 100.163C154.931 100.809 151.976 103.383 152.366 105.912C152.757 108.44 156.346 109.965 160.382 109.319Z" fill="#EDC21A"/>
<path d="M144.541 63.9147C148.577 63.2679 151.532 60.694 151.141 58.1655C150.75 55.6371 147.162 54.1117 143.125 54.7584C139.089 55.4051 136.134 57.9791 136.525 60.5075C136.916 63.036 140.505 64.5614 144.541 63.9147Z" fill="#EDC21A"/>
<path d="M161.313 86.1385C165.349 85.4918 168.304 82.9178 167.914 80.3893C167.523 77.8609 163.934 76.3355 159.898 76.9822C155.861 77.6289 152.906 80.2029 153.297 82.7313C153.688 85.2598 157.277 86.7852 161.313 86.1385Z" fill="#EDC21A"/>
<path d="M68.9969 35.5382C70.7401 33.6937 69.7663 29.8604 66.822 26.9761C63.8778 24.0919 60.0779 23.2489 58.3348 25.0933C56.5917 26.9377 57.5654 30.7711 60.5097 33.6553C63.454 36.5396 67.2538 37.3826 68.9969 35.5382Z" fill="#EDC21A"/>
<path d="M91.2097 24.96C93.6591 24.3832 94.8982 20.6301 93.9775 16.5772C93.0567 12.5244 90.3246 9.70647 87.8753 10.2833C85.4259 10.8601 84.1867 14.6132 85.1075 18.6661C86.0283 22.7189 88.7604 25.5368 91.2097 24.96Z" fill="#EDC21A"/>
<path d="M123.215 18.1405C124.109 14.0815 122.846 10.3368 120.393 9.77647C117.94 9.21611 115.226 12.0523 114.332 16.1112C113.437 20.1702 114.7 23.9149 117.154 24.4753C119.607 25.0356 122.32 22.1994 123.215 18.1405Z" fill="#EDC21A"/>
<path d="M151.556 27.8611C153.354 24.126 152.982 20.1847 150.725 19.058C148.468 17.9313 145.18 20.0459 143.381 23.781C141.582 27.5162 141.954 31.4575 144.212 32.5842C146.469 33.7109 149.757 31.5963 151.556 27.8611Z" fill="#EDC21A"/>
<path d="M174.081 71.8374C178.117 71.1907 181.072 68.6167 180.681 66.0883C180.29 63.5598 176.702 62.0344 172.665 62.6811C168.629 63.3278 165.674 65.9018 166.065 68.4302C166.456 70.9587 170.045 72.4841 174.081 71.8374Z" fill="#EDC21A"/>
<path d="M128.541 141.76C132.577 141.114 135.532 138.54 135.141 136.011C134.751 133.483 131.162 131.957 127.126 132.604C123.089 133.251 120.134 135.825 120.525 138.353C120.916 140.882 124.505 142.407 128.541 141.76Z" fill="#EDC21A"/>
<path d="M99.998 133.652C104.034 133.005 106.989 130.431 106.598 127.903C106.208 125.374 102.619 123.849 98.5826 124.496C94.5464 125.142 91.5913 127.716 91.9821 130.245C92.373 132.773 95.9618 134.299 99.998 133.652Z" fill="#EDC21A"/>
<path d="M99.7573 151.064C103.793 150.417 106.749 147.843 106.358 145.315C105.967 142.786 102.378 141.261 98.3419 141.908C94.3057 142.554 91.3505 145.128 91.7414 147.657C92.1322 150.185 95.7211 151.711 99.7573 151.064Z" fill="#EDC21A"/>
<path d="M68.6343 126.265C72.6705 125.618 75.6257 123.044 75.2348 120.516C74.844 117.988 71.2552 116.462 67.219 117.109C63.1828 117.756 60.2276 120.33 60.6185 122.858C61.0093 125.386 64.5981 126.912 68.6343 126.265Z" fill="#EDC21A"/>
<path d="M114.264 72.2997C114.264 72.2997 149.433 76.9267 142.206 88.9649C138.46 95.2054 134.347 101.009 131.252 105.152C127.9 109.632 121.534 110.312 117.362 106.611C113.748 103.413 109.12 98.0874 103.615 89.2469" stroke="#C59B19" stroke-width="4" stroke-miterlimit="10" stroke-linecap="round"/>
<path d="M114.02 85.987L123.371 98.0846" stroke="#C59B19" stroke-width="4" stroke-miterlimit="10" stroke-linecap="round"/>
<path d="M133.324 88.247L119.094 80.6478" stroke="#C59B19" stroke-width="4" stroke-miterlimit="10" stroke-linecap="round"/>
<path d="M176.81 66.7085L190.32 54.9954" stroke="#C59B19" stroke-width="4" stroke-miterlimit="10" stroke-linecap="round"/>
<path d="M178.659 78.6678L201.959 77.2497" stroke="#C59B19" stroke-width="4" stroke-miterlimit="10" stroke-linecap="round"/>
<path d="M177.681 95.1272L198.13 105.516" stroke="#C59B19" stroke-width="4" stroke-miterlimit="10" stroke-linecap="round"/>
<path d="M81.6109 97.9953C92.5815 96.2374 100.075 85.758 98.3487 74.5888C96.6221 63.4196 86.3291 55.7902 75.3586 57.548C64.388 59.3058 56.8943 69.7852 58.6208 80.9544C60.3474 92.1236 70.6404 99.7531 81.6109 97.9953Z" fill="white"/>
<path d="M76.7764 85.026C82.0014 84.1889 85.5704 79.1978 84.7481 73.8782C83.9258 68.5587 79.0236 64.925 73.7986 65.7622C68.5737 66.5994 65.0046 71.5904 65.8269 76.91C66.6492 82.2296 71.5515 85.8632 76.7764 85.026Z" fill="#231815"/>
<path d="M83.8089 112.214C87.8451 111.567 90.8003 108.993 90.4094 106.465C90.0186 103.936 86.4297 102.411 82.3935 103.057C78.3573 103.704 75.4022 106.278 75.793 108.807C76.1839 111.335 79.7727 112.86 83.8089 112.214Z" fill="#EDC21A"/>
<path d="M118.999 118.195C123.035 117.549 125.991 114.975 125.6 112.446C125.209 109.918 121.62 108.392 117.584 109.039C113.548 109.686 110.592 112.26 110.983 114.788C111.374 117.317 114.963 118.842 118.999 118.195Z" fill="#EDC21A"/>
<path d="M146.188 123.022C150.224 122.375 153.18 119.801 152.789 117.272C152.398 114.744 148.809 113.219 144.773 113.865C140.737 114.512 137.782 117.086 138.172 119.614C138.563 122.143 142.152 123.668 146.188 123.022Z" fill="#EDC21A"/>
<path d="M160.382 109.319C164.418 108.672 167.374 106.098 166.983 103.57C166.592 101.041 163.003 99.5158 158.967 100.163C154.931 100.809 151.976 103.383 152.366 105.912C152.757 108.44 156.346 109.965 160.382 109.319Z" fill="#EDC21A"/>
<path d="M144.541 63.9147C148.577 63.2679 151.532 60.694 151.141 58.1655C150.75 55.6371 147.162 54.1117 143.125 54.7584C139.089 55.4051 136.134 57.9791 136.525 60.5075C136.916 63.036 140.505 64.5614 144.541 63.9147Z" fill="#EDC21A"/>
<path d="M161.313 86.1385C165.349 85.4918 168.304 82.9178 167.914 80.3893C167.523 77.8609 163.934 76.3355 159.898 76.9822C155.861 77.6289 152.906 80.2029 153.297 82.7313C153.688 85.2598 157.277 86.7852 161.313 86.1385Z" fill="#EDC21A"/>
<path d="M68.9969 35.5382C70.7401 33.6937 69.7663 29.8604 66.822 26.9761C63.8778 24.0919 60.0779 23.2489 58.3348 25.0933C56.5917 26.9377 57.5654 30.7711 60.5097 33.6553C63.454 36.5396 67.2538 37.3826 68.9969 35.5382Z" fill="#EDC21A"/>
<path d="M91.2097 24.96C93.6591 24.3832 94.8982 20.6301 93.9775 16.5772C93.0567 12.5244 90.3246 9.70647 87.8753 10.2833C85.4259 10.8601 84.1867 14.6132 85.1075 18.6661C86.0283 22.7189 88.7604 25.5368 91.2097 24.96Z" fill="#EDC21A"/>
<path d="M123.215 18.1405C124.109 14.0815 122.846 10.3368 120.393 9.77647C117.94 9.21611 115.226 12.0523 114.332 16.1112C113.437 20.1702 114.7 23.9149 117.154 24.4753C119.607 25.0356 122.32 22.1994 123.215 18.1405Z" fill="#EDC21A"/>
<path d="M151.556 27.8611C153.354 24.126 152.982 20.1847 150.725 19.058C148.468 17.9313 145.18 20.0459 143.381 23.781C141.582 27.5162 141.954 31.4575 144.212 32.5842C146.469 33.7109 149.757 31.5963 151.556 27.8611Z" fill="#EDC21A"/>
<path d="M174.081 71.8374C178.117 71.1907 181.072 68.6167 180.681 66.0883C180.29 63.5598 176.702 62.0344 172.665 62.6811C168.629 63.3278 165.674 65.9018 166.065 68.4302C166.456 70.9587 170.045 72.4841 174.081 71.8374Z" fill="#EDC21A"/>
<path d="M128.541 141.76C132.577 141.114 135.532 138.54 135.141 136.011C134.751 133.483 131.162 131.957 127.126 132.604C123.089 133.251 120.134 135.825 120.525 138.353C120.916 140.882 124.505 142.407 128.541 141.76Z" fill="#EDC21A"/>
<path d="M99.998 133.652C104.034 133.005 106.989 130.431 106.598 127.903C106.208 125.374 102.619 123.849 98.5826 124.496C94.5464 125.142 91.5913 127.716 91.9821 130.245C92.373 132.773 95.9618 134.299 99.998 133.652Z" fill="#EDC21A"/>
<path d="M99.7573 151.064C103.793 150.417 106.749 147.843 106.358 145.315C105.967 142.786 102.378 141.261 98.3419 141.908C94.3057 142.554 91.3505 145.128 91.7414 147.657C92.1322 150.185 95.7211 151.711 99.7573 151.064Z" fill="#EDC21A"/>
<path d="M68.6343 126.265C72.6705 125.618 75.6257 123.044 75.2348 120.516C74.844 117.988 71.2552 116.462 67.219 117.109C63.1828 117.756 60.2276 120.33 60.6185 122.858C61.0093 125.386 64.5981 126.912 68.6343 126.265Z" fill="#EDC21A"/>
<path d="M114.264 72.2997C114.264 72.2997 149.433 76.9267 142.206 88.9649C138.46 95.2054 134.347 101.009 131.252 105.152C127.9 109.632 121.534 110.312 117.362 106.611C113.748 103.413 109.12 98.0874 103.615 89.2469" stroke="#C59B19" stroke-width="4" stroke-miterlimit="10" stroke-linecap="round"/>
<path d="M114.02 85.987L123.371 98.0846" stroke="#C59B19" stroke-width="4" stroke-miterlimit="10" stroke-linecap="round"/>
<path d="M133.324 88.247L119.094 80.6478" stroke="#C59B19" stroke-width="4" stroke-miterlimit="10" stroke-linecap="round"/>
<path d="M176.81 66.7085L190.32 54.9954" stroke="#C59B19" stroke-width="4" stroke-miterlimit="10" stroke-linecap="round"/>
<path d="M178.659 78.6678L201.959 77.2497" stroke="#C59B19" stroke-width="4" stroke-miterlimit="10" stroke-linecap="round"/>
<path d="M177.681 95.1272L198.13 105.516" stroke="#C59B19" stroke-width="4" stroke-miterlimit="10" stroke-linecap="round"/>
</svg>
