<svg width="590" height="1075" viewBox="0 0 590 1075" fill="none" xmlns="http://www.w3.org/2000/svg">
<g clip-path="url(#clip0_563_32)">
<path d="M392.93 10.9899C409.77 18.5499 429.18 16.3699 447.49 14.0399C472.19 10.8999 492.51 3.7299 504.77 32.2699C512.48 50.2099 509.85 71.7299 508.94 90.6599C507.07 129.72 498.8 168.49 484.25 204.8L392.93 10.9899Z" fill="#D5619A"/>
<path d="M270.45 747.93C321.27 761.43 367.66 791.11 401.22 831.58C409.45 841.5 416.96 852.12 422.31 863.85C435.75 893.32 434.1 929.2 418.02 957.32C401.94 985.43 371.84 1005.05 339.63 1008.4C360.3 1023.33 387.11 1029.48 412.22 1025.05C437.33 1020.62 460.41 1005.67 474.73 984.57C492.97 957.68 496.34 922.75 489.97 890.89C483.6 859.03 468.36 829.68 451.7 801.79C429.3 764.28 401.36 726.42 360.22 711.69C351.09 708.42 338.93 707.32 333.54 715.39L270.45 747.93V747.93Z" fill="#D5619A"/>
<path d="M538.87 378.06C547.04 380.74 554.31 387.31 555.92 395.76C558.92 411.54 542.54 423.83 527.75 430.09C540.46 430.5 553.74 431.15 564.78 437.47C575.82 443.79 583.62 457.69 578.81 469.46C573.9 481.45 559.34 485.61 546.66 488.27C569.34 486.01 591.25 507.75 589.17 530.45C588.91 533.27 588.3 536.17 586.63 538.46C584.76 541.03 581.79 542.54 578.87 543.81C570.56 547.41 561.73 549.8 552.74 550.86C570.21 562.6 579.46 585.38 575.13 605.97C573.94 611.63 571.68 617.3 567.41 621.21C561.07 627 551.37 627.8 543.12 625.4C534.87 623 527.72 617.89 520.75 612.87C528.05 625 531.85 639.21 531.58 653.37C531.36 664.69 526.94 677.78 516.09 681.02C507.87 683.47 498.86 678.98 493.45 672.32C488.05 665.66 485.49 657.21 483.05 648.99C476.01 625.26 468.97 601.53 461.93 577.79C449.5 535.88 435.5 484.18 449.41 440.62C458.9 410.9 506.61 367.5 538.86 378.08L538.87 378.06Z" fill="#D5619A"/>
<path d="M13.45 160.75C20.28 167.82 29.36 172.22 38.36 176.18C76.19 192.84 116.31 204.32 157.23 210.2C170.49 212.11 184.11 213.52 197.5 215.59C220.41 219.12 242.68 224.58 261.48 237.67C262.7 238.52 263.89 239.39 265.06 240.3C285.1 255.64 299.27 278.02 320.06 292.46C328.28 298.16 337.29 302.32 346.75 305.04C380.78 314.84 420.42 305.99 448.5 283.43C456.51 276.99 463.63 269.65 469.87 261.6C491.57 233.62 502.6 197.23 503.32 161.49C503.8 137.53 500.01 113.29 490.41 91.33C476.3 59.06 449.72 32.72 418.03 17.35C386.31 1.97999 348.95 -3.34001 314.13 2.03999C272.15 8.50999 250.76 32.86 221.42 61.32C210.79 71.62 200.13 81.95 188.3 90.83C164.15 108.94 100.58 157.84 83.67 104.29C80.31 93.65 82.05 85.79 72.68 77.61C62.72 68.9 48.72 67.52 36.21 70C9.25003 75.36 2.61003 90.91 0.260026 117.58C-1.08997 133.04 2.65003 149.59 13.45 160.75Z" fill="#E8BAE3"/>
<path d="M151.85 681.26C179.64 725.52 232.57 752.5 284.75 749.76C304.58 748.72 323.97 743.76 342.96 737.9C344.78 737.34 346.6 736.77 348.42 736.2C386.33 724.19 423.93 709.33 455.78 685.52C487.63 661.71 513.46 627.95 521.1 588.92C526.78 559.88 522.15 529.53 512.28 501.63C502.41 473.73 487.48 447.93 472.09 422.64C457.8 399.16 442.55 374.48 441.8 347.01C440.98 316.74 457.72 289.55 469.89 261.59C470.96 259.11 472.01 256.63 473 254.14L290.3 231.41L244.31 225.69C251.92 229.58 258.86 234.54 265.08 240.3C285.07 258.82 297.48 285.74 299.62 313.13C302.42 349.05 288.95 385.12 266.73 413.49C232.32 457.41 178.23 484.31 149.68 532.24C122.94 577.15 124.08 637 151.86 681.26H151.85Z" fill="#E8BAE3"/>
<path d="M310.88 713.3C357.36 749.73 405.18 787.73 432.73 839.97C444.88 863.01 452.76 888.78 451.98 914.82C451.2 940.86 441.14 967.14 421.87 984.67C411.99 993.66 399.71 1000.25 386.5 1002.26C372.35 1004.41 357.71 1001.21 344.86 994.91C322.08 983.76 304.2 962.21 299.31 937.32C296.13 921.17 300.71 900.94 316.16 895.27C329.25 890.47 343.64 898.49 353.5 908.34C357.36 912.19 361.71 916.71 367.14 916.31C371.43 916 374.88 912.56 377.01 908.83C382.76 898.77 381.51 885.68 375.69 875.66C369.87 865.64 360.08 858.42 349.55 853.59C333.07 846.03 313.21 843.95 296.96 852C279.9 860.44 269.52 878.43 263.93 896.62C247.87 948.87 266.39 1009.99 308.75 1044.53C351.11 1079.07 414.71 1084.91 462.65 1058.65C481.51 1048.32 497.77 1033.68 511.63 1017.25C524.06 1002.52 534.85 985.9 539.55 967.21C547.24 936.63 537.7 904.06 522.5 876.43C507.31 848.8 486.66 824.58 469.65 798.04C461.15 784.78 453.44 770.61 450.64 755.11C447.7 738.84 450.33 722.09 454.12 705.99C457.65 690.98 462.19 676.22 467.69 661.81C471.38 652.15 475.59 642.12 474.39 631.84L310.86 713.29L310.88 713.3Z" fill="#E8BAE3"/>
<path d="M148.17 675.01C149.34 677.13 150.56 679.21 151.85 681.26C155.55 687.16 159.71 692.75 164.25 698.01C181.45 717.94 204.18 733.03 229.12 741.67C241.25 745.88 253.89 748.56 266.67 749.53C272.68 749.99 278.71 750.08 284.75 749.76C304.58 748.72 323.97 743.76 342.96 737.9C336.36 730.26 329.6 722.76 322.67 715.4C321.54 714.21 320.42 713.02 319.29 711.82C315.08 707.39 310.8 702.96 306.59 698.47C296.72 688.01 287.12 677.29 279.06 665.68C275.01 659.84 271.35 653.78 268.25 647.4C266.65 644.11 265.19 640.73 263.9 637.26C257.82 620.86 256.05 603.56 257.3 586.2C257.83 578.81 258.91 571.42 260.44 564.08C263.77 548.01 269.25 532.21 275.81 517.32C277.42 513.66 279.1 510.03 280.83 506.43C283.26 501.35 285.78 496.32 288.38 491.32C296.96 474.72 306.21 458.42 314.68 441.78C317.11 437.04 319.46 432.27 321.71 427.45C324.92 420.61 327.94 413.68 330.67 406.61C336.98 390.27 341.72 373.3 344.77 356.05C345.45 352.21 346.05 348.35 346.57 344.48C346.71 343.38 346.86 342.27 346.98 341.16C348.39 329.16 348.8 316.8 346.77 305.03C345.54 297.9 343.4 291 340.06 284.52C338.58 281.67 336.9 278.96 335.07 276.34C331.17 270.74 326.57 265.59 321.93 260.53C321.28 259.82 320.63 259.11 319.97 258.41C310.88 248.56 301.57 238.53 290.3 231.41C288.65 230.37 286.98 229.4 285.25 228.49C263.64 217.18 233.2 214.43 209.13 214.28C204.73 214.25 200.86 214.67 197.51 215.58C220.42 219.11 242.69 224.57 261.49 237.66C262.71 238.51 263.9 239.38 265.07 240.29C271.63 246.36 277.36 253.33 282.18 260.92C286.03 266.96 289.3 273.4 291.94 280.1C296.11 290.66 298.73 301.85 299.61 313.12C299.96 317.65 300.05 322.19 299.91 326.7C299.67 334.06 298.78 341.39 297.3 348.61C292.75 370.97 282.62 392.34 268.86 410.69C268.15 411.63 267.44 412.55 266.72 413.48C261.91 419.62 256.72 425.42 251.27 430.99C234.9 447.74 216.18 462.42 198.43 477.84C190.38 484.85 182.54 492 175.21 499.57C165.57 509.53 156.81 520.22 149.67 532.22C143.57 542.48 138.91 553.51 135.69 564.96C133 574.57 131.32 584.47 130.64 594.45C128.75 622.25 134.65 650.64 148.17 675V675.01Z" fill="#D5619A"/>
<path d="M282.17 260.93C286.02 266.97 289.29 273.41 291.93 280.11C296.61 278.61 301.38 277.37 306.39 276.59C312.55 275.63 318.86 275.36 325.09 275.53C328.35 275.62 331.7 276.07 335.05 276.35C331.15 270.75 326.55 265.6 321.91 260.54C316.24 259.68 310.49 259.19 304.75 259.15C297.36 259.09 289.67 259.59 282.16 260.93H282.17Z" fill="#F5C1BA"/>
<path d="M297.3 348.62C304.28 348.34 311.28 348.5 318.27 349.53C324.84 350.5 331.41 352.01 337.82 353.79C340.17 354.44 342.48 355.23 344.77 356.04C345.45 352.2 346.05 348.34 346.57 344.47C346.71 343.37 346.86 342.26 346.98 341.15C346.37 340.81 345.74 340.47 345.11 340.13C338.15 336.43 330.86 333.5 323.29 331.3C315.65 329.08 307.81 327.48 299.91 326.69C299.67 334.05 298.78 341.38 297.3 348.6V348.62Z" fill="#F5C1BA"/>
<path d="M251.27 431C260.87 431.08 270.48 431.72 280.02 433.22C289.89 434.78 299.65 437.05 309.2 440.03C311.03 440.6 312.86 441.18 314.68 441.78C317.11 437.04 319.46 432.27 321.71 427.45C312.17 422.72 301.87 419.12 291.71 416.14C284.27 413.95 276.62 412.1 268.86 410.7C268.15 411.64 267.44 412.56 266.72 413.49C261.91 419.63 256.72 425.43 251.27 431V431Z" fill="#F5C1BA"/>
<path d="M175.21 499.58C195.25 501.11 215.3 502.53 235.36 503.89C249.76 504.86 264.17 505.63 278.59 506.32C279.34 506.35 280.08 506.39 280.83 506.42C283.26 501.34 285.78 496.31 288.38 491.31C283.96 490.5 279.52 489.73 275.08 489.03C249.58 484.99 224.02 481.24 198.44 477.84C190.39 484.85 182.55 492 175.22 499.57L175.21 499.58Z" fill="#F5C1BA"/>
<path d="M130.64 594.47C132.06 594.39 133.48 594.3 134.9 594.22C168.1 592.26 201.3 590.27 234.46 587.77C242.06 587.2 249.69 586.72 257.31 586.2C257.84 578.81 258.92 571.42 260.45 564.08C232.82 564.08 205.19 564.15 177.57 564.47C163.62 564.64 149.66 564.72 135.7 564.97C133.01 574.58 131.33 584.48 130.65 594.46L130.64 594.47Z" fill="#F5C1BA"/>
<path d="M148.17 675.01C149.34 677.13 150.56 679.21 151.85 681.26C155.55 687.16 159.71 692.75 164.25 698.01C188.76 691.24 213.25 684.44 237.7 677.45C251.46 673.51 265.28 669.67 279.06 665.68C275.01 659.84 271.35 653.78 268.25 647.4C236.33 654.1 204.54 661.78 172.81 669.27C164.6 671.21 156.39 673.11 148.17 675.02V675.01Z" fill="#F5C1BA"/>
<path d="M229.11 741.68C241.24 745.89 253.88 748.57 266.66 749.54C271.08 747.06 275.46 744.46 279.75 741.76C293.05 733.39 305.94 724.1 317.51 713.46C318.1 712.92 318.69 712.38 319.27 711.83C315.06 707.4 310.78 702.97 306.57 698.48C304.42 700.11 302.25 701.7 300.03 703.27C277.95 718.89 254.12 731.53 229.09 741.68H229.11Z" fill="#F5C1BA"/>
<path d="M38.35 145.63C36.55 147.1 34.47 148.47 32.14 148.49C29.49 148.51 27.17 146.78 25.25 144.95C15.74 135.9 10.78 122.28 12.26 109.23C14.54 89.1101 37.38 76.8501 48.27 97.9401C56.23 113.36 51.68 134.68 38.35 145.62V145.63Z" fill="#D5619A"/>
<path d="M417.78 459.45C426.01 460.5 434.14 464.61 438.55 471.63C442.97 478.65 442.82 488.7 437.06 494.67C429.57 502.43 416.86 500.85 406.83 504.8C416.2 507.82 425.95 511.07 432.89 518.05C439.83 525.03 442.89 536.94 436.98 544.82C433.32 549.7 426.92 552.03 420.82 551.8C414.72 551.57 408.91 549.05 403.78 545.75C409.71 551.57 414.84 558.21 418.97 565.43C421.93 570.6 424.39 576.98 421.8 582.34C419.91 586.26 415.66 588.6 411.39 589.41C399.77 591.62 388.08 583.96 381.87 573.9C375.66 563.84 373.76 551.79 371.98 540.1C370.93 533.21 369.89 526.32 368.84 519.43C368.23 515.41 367.61 511.33 368.02 507.28C370.35 483.92 392.58 456.24 417.77 459.45H417.78Z" fill="#F08D85"/>
<path d="M370.5 183C412.75 183 447 148.75 447 106.5C447 64.2502 412.75 30 370.5 30C328.25 30 294 64.2502 294 106.5C294 148.75 328.25 183 370.5 183Z" fill="white"/>
<path d="M359.833 132.267C379.955 132.267 396.268 115.955 396.268 95.8327C396.268 75.7103 379.955 59.3979 359.833 59.3979C339.711 59.3979 323.398 75.7103 323.398 95.8327C323.398 115.955 339.711 132.267 359.833 132.267Z" fill="#231815"/>
</g>
<defs>
<clipPath id="clip0_563_32">
<rect width="589.31" height="1075" fill="white"/>
</clipPath>
</defs>
</svg>
