<svg width="516" height="417" viewBox="0 0 516 417" fill="none" xmlns="http://www.w3.org/2000/svg">
<g clip-path="url(#clip0_563_57)">
<path fill-rule="evenodd" clip-rule="evenodd" d="M494.676 226.706C494.242 225.038 493.9 221.968 493.651 217.495C487.517 198.912 477.879 197.576 460.181 192.925C442.293 190.669 424.262 190.583 406.512 194.029C392.103 178.646 377.324 166.119 360.051 154.265C353.079 150.967 346.108 147.659 339.146 144.362C337.016 126.646 332.162 108.466 323.476 92.8568C323.03 92.5586 322.569 92.3795 322.227 92.2154C321.847 86.5937 314.331 78.0161 311.424 73.1744C302.717 64.4466 293.862 55.9419 284.445 47.9712C276.254 43.7837 230.052 12.5281 218.308 28.8471L217.39 36.1294C223.85 67.4639 231.941 101.302 215.386 130.833C190.915 135.619 167.259 147.533 145.647 159.463C131.145 170.717 118.959 183.826 108.361 199.695C106.097 187.909 101.087 175.767 94.4805 165.731C90.3478 162.056 86.3081 158.522 82.2684 154.989C68.2223 147.282 44.1416 137.462 28.5375 146.027C23.5982 155.463 25.9345 168.589 28.1849 178.559C33.5975 190.389 39.0467 198.091 49.0126 206.504C61.517 212.928 76.4151 219.635 82.3293 221.731C82.4488 222.062 77.2749 224.034 66.8074 227.646C60.6863 231.107 51.6119 235.769 48.7147 242.439C46.3335 242.138 37.8575 255.483 36.2314 257.828C30.2044 272.933 24.3077 288.044 30.0119 304.275C29.6398 304.349 29.2663 304.433 28.8954 304.497C37.6879 311.663 54.8562 309.957 65.2295 307.385C73.7277 303.377 81.707 298.688 88.8689 292.808C92.6511 287.832 96.4071 282.984 100.293 278.142C103.384 269.934 106.222 261.815 108.153 253.219L109.105 253.339C114.31 265.859 120.039 275.179 128.087 286.252C126.81 296.382 117.461 301.382 129.379 308.7C135.372 309.214 141.34 309.846 147.438 310.484C169.596 333.628 199.761 346.996 229.288 357.745C238.111 369.39 248.653 381.867 263.331 385.522C268.423 383.503 273.645 381.5 278.853 379.607C283.188 375.92 287.653 372.24 292.093 368.688C324.533 370.722 355.732 362.541 383.585 346.197C393.86 338.653 403.506 330.415 412.739 321.54C416.319 316.166 420.011 310.947 423.693 305.726C431.383 303.625 438.835 301.172 446.05 298.365C455.025 293.45 457.217 291.418 461.665 288.834C474.826 278.62 482.811 268.127 489.231 252.709C491.911 241.738 493.731 233.084 494.691 226.748" fill="#4B6DC9"/>
<path fill-rule="evenodd" clip-rule="evenodd" d="M423.155 306.636C421.968 304.541 420.155 303.174 419.136 300.858C407.152 302.855 394.664 302.217 381.655 298.672C370.831 292.348 360.952 285.166 351.008 277.623L351.159 276.422C347.68 273.323 340.578 267.216 340.142 262.918L338.952 262.768C336.933 257.675 334.73 251.142 332.342 243.167C327.631 242.079 324.634 244.745 320.42 246.512C320.449 247.241 320.582 248.104 320.715 248.968C323.736 248.986 325.295 248.215 326.62 248.261C327.17 256.444 334.818 266.853 339.914 273.442L338.272 289.341C342.748 299.965 350.324 297.513 359.789 294.474L359.94 293.273C361.11 293.589 363.939 295.158 368.428 297.982C368.18 306.659 371.842 313.189 377.908 318.801C386.744 318.827 390.167 315.741 394.939 308.592C401.214 309.262 408.022 309.788 414.274 308.722C415.996 308.334 417.734 308.221 419.494 308.251C420.644 307.529 421.882 307.06 423.156 306.626" fill="#231815"/>
<path fill-rule="evenodd" clip-rule="evenodd" d="M357.255 290.505C354.229 287.543 350.034 283.991 344.67 279.847C344.039 283.89 341.98 288.71 344.684 292.206C349.025 292.39 353.767 293.23 357.254 290.515" fill="white"/>
<path fill-rule="evenodd" clip-rule="evenodd" d="M391.443 307.536L376.068 302.695C375.153 309.957 378 317.11 386.364 314.163C386.812 313.171 388.505 310.962 391.443 307.536" fill="white"/>
<path fill-rule="evenodd" clip-rule="evenodd" d="M215.798 130.048C262.66 120.818 304.149 126.392 342.81 147.041L342.922 146.148L339.146 144.362C337.016 126.646 332.159 108.486 323.476 92.8566C323.03 92.5584 322.569 92.3793 322.227 92.2152C321.847 86.5936 314.331 78.0159 311.424 73.1742C302.717 64.4464 293.862 55.9418 284.445 47.9711C276.254 43.7835 230.052 12.5279 218.308 28.8469L217.39 36.1293C223.794 67.1945 231.792 100.719 215.796 130.058M108.861 198.921L99.2523 223.169C99.2523 223.169 104.877 236.831 108.771 253.277L108.146 253.198C106.215 261.794 103.367 269.911 100.286 278.12C96.4096 282.964 92.6437 287.811 88.8614 292.786C81.7095 298.668 73.7203 303.355 65.2221 307.364C54.8488 309.936 37.6693 311.65 28.888 304.476C29.2589 304.411 29.6323 304.327 30.0045 304.253C24.299 288.032 30.2069 272.913 36.224 257.807C37.8501 255.462 46.3162 242.116 48.7073 242.417C51.6032 235.757 60.6789 231.086 66.8 227.625C77.2675 224.012 82.4414 222.041 82.3219 221.71C76.4052 219.633 61.5096 212.907 49.0051 206.482C39.0492 198.071 33.5901 190.367 28.1775 178.537C25.9283 168.557 23.5808 155.441 28.53 146.006C44.1441 137.442 68.2248 147.262 82.261 154.968C86.3007 158.501 90.3305 162.033 94.4631 165.709C101.07 175.744 106.08 187.886 108.353 199.673L108.861 198.921V198.921ZM189.132 303.797C189.132 303.797 153.325 312.153 143.863 315.889C134.392 319.623 114.052 315.869 116.823 292.371C119.587 268.852 128.873 246.609 128.873 246.609C128.873 246.609 159.788 259.861 171.047 274.565C182.306 289.269 189.13 303.807 189.13 303.807L189.132 303.797ZM333.178 321.023C333.178 321.023 295.495 362.726 286.85 375.656C278.204 388.586 249.4 401.595 232.391 369.666C215.384 337.718 207.661 301.688 207.661 301.688C207.661 301.688 258.035 291.39 284.985 300.039C311.942 308.709 333.17 321.012 333.17 321.012L333.178 321.023Z" fill="#6DBCE9"/>
<path fill-rule="evenodd" clip-rule="evenodd" d="M203.541 251.953C192.755 225.022 198.384 213.233 204.761 196.157C204.258 195.61 203.328 195.291 201.968 195.2C193.682 203.922 184.656 240.732 203.541 251.953ZM241.599 182.176C230.175 173.66 187.722 242.157 237.131 277.002C213.216 254.755 224.506 187.681 241.599 182.176ZM276.984 190.115C242.264 184.82 237.227 263.447 268.724 287.436C249.139 245.476 250.132 211.221 276.984 190.115V190.115Z" fill="#231815"/>
<path d="M328.713 259.239C353.096 262.314 375.355 245.039 378.43 220.656C381.505 196.272 364.23 174.013 339.847 170.938C315.463 167.864 293.204 185.138 290.129 209.521C287.055 233.905 304.329 256.164 328.713 259.239Z" fill="white"/>
<path d="M326.248 229.184C337.862 230.648 348.463 222.421 349.927 210.807C351.392 199.194 343.164 188.593 331.551 187.128C319.938 185.664 309.337 193.891 307.872 205.505C306.408 217.118 314.635 227.719 326.248 229.184Z" fill="#231815"/>
</g>
<defs>
<clipPath id="clip0_563_57">
<rect width="474.09" height="359.08" fill="white" transform="translate(45.3231 0.755615) rotate(7.18665)"/>
</clipPath>
</defs>
</svg>
