<svg width="217" height="204" viewBox="0 0 217 204" fill="none" xmlns="http://www.w3.org/2000/svg">
<path d="M106.655 128.235C106.655 128.235 110.649 128.69 112.876 131.062C114.215 132.488 114.307 134.633 113.215 136.249C112.199 137.782 110.269 139.453 106.816 139.105C106.816 139.105 84.2475 133.492 80.3331 130.546L106.638 128.22L106.655 128.235Z" fill="#D5619A" stroke="#D23977" stroke-width="2" stroke-linecap="round" stroke-linejoin="round"/>
<path d="M62.6642 115.229C62.6642 115.229 59.0682 113.441 55.883 114.222C53.9713 114.682 52.6763 116.408 52.674 118.351C52.6644 120.184 53.3258 122.626 56.3907 124.21C56.3907 124.21 78.3573 131.759 83.2878 131.436L62.6652 115.245L62.6642 115.229Z" fill="#D5619A" stroke="#D23977" stroke-width="2" stroke-linecap="round" stroke-linejoin="round"/>
<path d="M119.779 113.898C119.779 113.898 125.847 112.418 130.379 114.655C133.105 116.006 134.437 119.057 133.772 122C133.144 124.766 131.283 128.233 126.065 129.594C126.065 129.594 90.1598 133.583 82.8164 131.403L119.778 113.883L119.779 113.898Z" fill="#D5619A" stroke="#D23977" stroke-width="2" stroke-linecap="round" stroke-linejoin="round"/>
<path d="M126.441 87.1119C126.441 87.1119 135.9 82.3032 141.918 88.7123C141.918 88.7123 151.155 96.3288 139.685 109.49C139.685 109.49 105.424 135.883 82.9156 131.19L126.442 87.1278L126.441 87.1119Z" fill="#D5619A" stroke="#D23977" stroke-width="2" stroke-linecap="round" stroke-linejoin="round"/>
<path d="M59.7994 96.1708C59.7994 96.1708 55.066 91.0955 49.6221 90.9896C47.1272 90.9457 44.8791 92.4469 43.844 94.6813C42.6254 97.326 41.8177 101.553 45.7237 105.854C45.7237 105.854 73.4282 128.64 80.7545 130.805L59.7994 96.1708V96.1708Z" fill="#D5619A" stroke="#D23977" stroke-width="2" stroke-linecap="round" stroke-linejoin="round"/>
<path d="M71.3146 71.0901C71.3146 71.0901 66.1222 61.9664 57.5028 64.0277C57.5028 64.0277 45.5191 65.3692 47.6793 82.5614C47.6793 82.5614 61.4012 123.134 82.8174 131.419L71.2984 71.0911L71.3146 71.0901Z" fill="#D5619A" stroke="#D23977" stroke-width="2" stroke-linecap="round" stroke-linejoin="round"/>
<path d="M113.28 62.0362C113.28 62.0362 119.543 57.5958 127.305 60.7364C135.067 63.877 137.96 72.482 136.547 77.099C136.547 77.099 131.686 100.502 82.8174 131.419L113.28 62.0362V62.0362Z" fill="#D5619A" stroke="#D23977" stroke-width="2" stroke-linecap="round" stroke-linejoin="round"/>
<path d="M96.4657 57.0663C96.4657 57.0663 93.7519 49.9631 85.5082 48.3675C77.2645 46.7719 70.0106 52.3922 68.5974 57.0092C68.5974 57.0092 59.4797 79.1609 82.8345 131.434L96.4657 57.0663Z" fill="#D5619A" stroke="#D23977" stroke-width="2" stroke-linecap="round" stroke-linejoin="round"/>
<path d="M81.8933 131.145C81.8933 131.145 82.9232 63.7669 90.529 53.137C90.529 53.137 97.4633 43.1245 107.692 47.3623C117.922 51.616 118.703 60.0883 118.703 60.0883C118.703 60.0883 114.925 90.3982 81.8933 131.145V131.145Z" fill="#D5619A" stroke="#D23977" stroke-width="2" stroke-linecap="round" stroke-linejoin="round"/>
<path opacity="0.5" d="M51.705 81.5173C51.705 81.5173 52.8019 93.0915 66.5525 111.836" stroke="white" stroke-width="2" stroke-linecap="round" stroke-linejoin="round"/>
<path opacity="0.5" d="M71.9155 61.9697C71.9155 61.9697 69.7771 71.3339 72.0427 84.6956" stroke="white" stroke-width="2" stroke-linecap="round" stroke-linejoin="round"/>
<path d="M143.741 159.539C143.741 159.539 146.145 160.208 147.276 161.887C147.955 162.901 147.815 164.237 146.999 165.146C146.226 166.004 144.898 166.863 142.81 166.319C142.81 166.319 129.534 160.684 127.415 158.485L143.741 159.539Z" fill="#3985C7" stroke="#648FED" stroke-width="2" stroke-linecap="round" stroke-linejoin="round"/>
<path d="M118.054 147.273C118.054 147.273 116.028 145.819 114.003 145.999C112.783 146.102 111.835 147.058 111.639 148.266C111.456 149.402 111.63 150.984 113.369 152.257C113.369 152.257 126.095 159.035 129.143 159.305L118.067 147.278L118.054 147.273Z" fill="#3985C7" stroke="#648FED" stroke-width="2" stroke-linecap="round" stroke-linejoin="round"/>
<path d="M153.14 151.88C153.14 151.88 156.992 151.54 159.557 153.36C161.101 154.456 161.63 156.483 160.934 158.245C160.283 159.911 158.818 161.887 155.493 162.238C155.493 162.238 133.137 161.302 128.85 159.258L153.14 151.88V151.88Z" fill="#3985C7" stroke="#648FED" stroke-width="2" stroke-linecap="round" stroke-linejoin="round"/>
<path d="M159.763 135.854C159.763 135.854 166.008 133.768 169.092 138.317C169.092 138.317 174.02 143.93 165.736 151.019C165.736 151.019 142.251 164.174 128.917 159.109L159.753 135.858L159.763 135.854Z" fill="#3985C7" stroke="#648FED" stroke-width="2" stroke-linecap="round" stroke-linejoin="round"/>
<path d="M118.121 135.157C118.121 135.157 115.707 131.549 112.384 130.973C110.862 130.707 109.341 131.421 108.495 132.713C107.498 134.235 106.601 136.793 108.576 139.839C108.576 139.839 123.355 156.637 127.641 158.681L118.112 135.161L118.121 135.157Z" fill="#3985C7" stroke="#648FED" stroke-width="2" stroke-linecap="round" stroke-linejoin="round"/>
<path d="M127.55 120.651C127.55 120.651 125.245 114.478 119.769 114.945C119.769 114.945 112.314 114.644 112.001 125.538C112.001 125.538 116.528 152.076 128.85 159.258L127.55 120.651Z" fill="#3985C7" stroke="#648FED" stroke-width="2" stroke-linecap="round" stroke-linejoin="round"/>
<path d="M154.105 119.004C154.105 119.004 158.362 116.832 162.81 119.526C167.267 122.215 168.214 127.843 166.904 130.579C166.904 130.579 161.699 144.672 128.846 159.249L154.092 118.999L154.105 119.004Z" fill="#3985C7" stroke="#648FED" stroke-width="2" stroke-linecap="round" stroke-linejoin="round"/>
<path d="M144.284 114.324C144.284 114.324 143.294 109.652 138.406 107.88C133.518 106.108 128.541 108.908 127.232 111.645C127.232 111.645 119.548 124.544 128.854 159.267L144.288 114.333L144.284 114.324Z" fill="#3985C7" stroke="#648FED" stroke-width="2" stroke-linecap="round" stroke-linejoin="round"/>
<path d="M128.3 158.995C128.3 158.995 135.348 117.194 141.018 111.315C141.018 111.315 146.222 105.746 152.071 109.358C157.92 112.97 157.596 118.309 157.596 118.309C157.596 118.309 152.398 136.79 128.296 158.986L128.3 158.995Z" fill="#3985C7" stroke="#648FED" stroke-width="2" stroke-linecap="round" stroke-linejoin="round"/>
<path opacity="0.5" d="M114.559 125.279C114.559 125.279 114.124 132.573 120.755 145.535" stroke="white" stroke-width="2" stroke-linecap="round" stroke-linejoin="round"/>
<path opacity="0.5" d="M128.788 115.035C128.788 115.035 126.582 120.656 126.702 129.182" stroke="white" stroke-width="2" stroke-linecap="round" stroke-linejoin="round"/>
</svg>
