<svg width="525" height="437" viewBox="0 0 525 437" fill="none" xmlns="http://www.w3.org/2000/svg">
<g clip-path="url(#clip0_562_14)">
<path d="M324.994 301.427C321.265 294.757 307.171 293.501 300.374 292.326C288.772 290.328 277.056 288.101 265.292 290.106C246.601 293.295 258.563 307.027 269.446 317.467C273.127 322.472 278.305 326.285 282.971 330.68C290.121 337.408 298.086 342.383 308.085 340.161C315.486 338.519 320.265 331.724 323.174 325.272C325.971 319.078 328.505 307.699 325.003 301.431L324.994 301.427Z" fill="#F18D1B"/>
<path d="M193.989 267.338C182.759 262.13 170.007 258.824 158.094 255.496C148.484 252.816 136.457 249.152 126.096 252.609C124.822 253.027 123.79 254.242 123.934 255.774C123.966 256.099 123.991 256.388 124.017 256.646C114.975 279.115 128.939 305.298 140.653 320.33C155.302 339.134 178.612 343.679 195.784 321.063C209.557 302.908 214.526 276.882 193.976 267.343L193.989 267.338Z" fill="#F18D1B"/>
<path d="M307.762 103.384C306.21 89.7241 297.603 77.8107 285.66 71.3077C273.445 64.653 257.014 67.8693 244.718 72.3212C236.773 75.1989 229.165 79.7175 221.93 84.0292C214.793 88.2831 206.127 93.4037 201.423 100.444C200.218 102.257 202.222 104.119 203.835 103.308C204.221 103.719 204.767 104.023 205.497 104.108C220.658 105.983 236.223 113.388 250.215 119.824C263.337 125.849 274.82 134.645 287.533 141.131C288.382 141.566 289.691 141.333 290.397 140.72C301.592 131.053 309.491 118.74 307.745 103.399L307.762 103.384Z" fill="#EA823D"/>
<path d="M391.317 208.142C391.608 200.348 387.083 192.781 381.714 187.557C375.432 181.432 365.978 180.363 357.714 181.145C352.549 181.631 347.423 183.617 342.747 185.74C341.076 186.507 339.548 187.858 338.025 189.2C332.108 188.924 325.332 192.46 324.606 198.941C323.875 205.57 331.07 215.566 334.983 220.448C338.58 224.934 344.283 226.696 347.891 231.262C350.773 234.894 354.912 236.798 359.106 238.402C369.798 242.502 373.658 238.452 381.863 232.051C388.147 227.156 391.018 215.632 391.295 208.144L391.317 208.142Z" fill="#F18D1B"/>
<path d="M381.714 187.557C375.432 181.432 365.978 180.363 357.714 181.145C354.74 181.426 351.782 182.208 348.924 183.224C358.296 185.961 366.115 192.901 370.704 202.335C378.901 219.175 362.09 230.871 346.968 230.228C347.284 230.569 347.617 230.895 347.909 231.27C350.791 234.901 354.931 236.806 359.125 238.409C369.816 242.51 373.676 238.459 381.882 232.058C388.165 227.164 391.037 215.639 391.313 208.151C391.604 200.357 387.08 192.79 381.71 187.566L381.714 187.557Z" fill="#3E3A39"/>
<path d="M282.971 330.68C290.121 337.408 298.086 342.383 308.085 340.161C315.486 338.519 320.265 331.724 323.174 325.273C325.555 319.988 327.745 310.937 326.163 304.496C318.234 315.56 306.663 324.712 293.129 320.589C279.358 316.383 267.913 306.871 257.353 297.216C257.109 296.72 256.852 296.231 256.617 295.739C256.49 295.463 256.291 295.233 256.086 295.044C253.298 300.812 261.648 309.987 269.455 317.471C273.137 322.475 278.314 326.288 282.98 330.684L282.971 330.68Z" fill="#3E3A39"/>
<path d="M201.889 273.019C201.053 281.21 201.698 289.548 198.339 297.209C190.846 314.268 175.769 312.588 163.173 308.838C144.494 303.283 132.47 288.515 125.327 269.941C125.415 266.177 125.175 262.477 124.521 258.708C124.414 258.085 124.134 257.651 123.768 257.354C115.292 279.672 129.069 305.457 140.662 320.334C155.311 339.138 178.622 343.682 195.793 321.067C207.383 305.777 212.735 284.93 201.889 273.019Z" fill="#3E3A39"/>
<path d="M464.719 315.05C470.478 297.969 465.493 274.131 451.636 262.077C442.531 254.152 433.092 249.064 421.655 245.108C410.736 241.337 398.173 244.81 387.505 247.606C380.261 249.504 372.241 254.085 364.844 254.447C364.844 254.447 364.84 254.446 364.834 254.443C362.01 252.481 359.795 249.254 357.948 245.13C352.24 232.421 350.079 218.207 345.372 205.121C336.934 181.631 326.129 158.9 309.22 140.285C292.348 121.716 269.387 107.603 245.094 101.634C194.907 89.3076 137.806 94.3668 91.3518 117.822C80.8745 123.115 71.1726 129.868 62.3212 137.54C53.6237 145.069 46.9109 151.504 44.8382 163.239C40.5496 187.501 54.996 209.087 70.1981 226.959C87.0717 246.798 110.31 259.644 133.011 271.619C142.806 276.784 154.849 279.109 165.466 282.233C178.46 286.065 192.472 287.634 205.867 289.807C235.425 294.609 265.06 299.053 294.966 300.894C309.495 301.786 325.242 302.021 339.361 305.784C352.612 309.321 357.776 327.538 364.509 338.265C376.693 357.692 396.633 366.084 419.004 361.517C439.856 357.25 458.262 334.21 464.709 315.047L464.719 315.05Z" fill="#F18D1B"/>
<path d="M136.868 120.704C140.415 133.49 142.478 147.192 142.353 160.443C142.201 175.277 139.137 189.071 129.952 200.991C121.407 212.089 108.904 220.095 95.0516 222.346C89.646 223.221 79.8846 225.387 72.3553 229.356C78.5139 236.196 85.4488 242.192 92.8505 247.611C101.878 245.476 110.931 243.738 119.511 239.724C128.749 235.412 136.137 227.847 144.8 222.596C155.481 216.114 162.952 208.259 169.484 197.652C174.892 188.868 179.299 178.137 181.481 168.05C184.246 155.331 181.946 141.955 183.372 129.113C184.572 118.355 191.818 106.224 188.631 95.1309C169.057 95.2896 149.421 97.8772 130.589 102.937C133.161 108.673 135.201 114.639 136.89 120.702L136.868 120.704Z" fill="white"/>
<path d="M309.23 140.288C306.297 137.056 303.174 133.974 299.898 131.036C295.259 144.3 283.975 155.708 270.8 161.209C247.876 170.765 223.872 177.276 208.731 198.654C203.172 206.517 202.978 217.965 201.363 227.17C199.138 239.802 201.659 251.458 202.997 263.979C203.948 272.848 205.618 281.637 208.148 290.187C231.879 294.027 255.67 297.579 279.605 299.714C279.603 299.638 279.582 299.555 279.584 299.469C278.657 283.206 278.562 268.048 284.974 252.841C295.699 227.415 324.939 218.67 343.508 200.065C335.351 178.387 324.915 157.567 309.235 140.301L309.23 140.288Z" fill="white"/>
<path d="M308.558 214.696C302.385 196.013 288.406 185.267 270.178 178.955C250.47 172.119 224.831 171.319 204.881 177.537C189.623 182.296 173.517 194.004 175.952 211.749C177.259 221.265 183.444 228.525 191.025 234.52C201.913 248.331 220.297 255.792 235.943 261.776C253.722 268.567 272.296 267.892 288.908 258.484C303.648 250.13 314.128 231.568 308.555 214.706L308.558 214.696Z" fill="#F18D1B"/>
<path d="M356.575 293.237C357.191 281.784 358.853 271.027 364.831 261.028C366.378 258.436 368.15 255.956 370.091 253.564C368.317 254.02 366.563 254.345 364.851 254.428C364.851 254.428 364.848 254.427 364.842 254.425C362.017 252.462 359.802 249.236 357.956 245.111C355.506 239.661 353.719 233.924 352.098 228.125C346.815 232.18 341.932 236.802 337.185 241.404C324.62 253.572 314.675 268.623 309.636 285.409C308.066 290.628 307.901 296.159 308.67 301.641C319.05 302.249 329.603 303.152 339.368 305.766C345.128 307.303 349.356 311.61 352.848 316.873C355.169 309.412 356.126 301.485 356.57 293.224L356.575 293.237Z" fill="white"/>
<path d="M464.719 315.05C470.478 297.969 465.493 274.131 451.637 262.077C443.632 255.117 435.374 250.337 425.723 246.597C430.294 250.717 434.191 256.668 436.534 261.926C442.897 276.208 442.819 292.75 438.979 307.656C435.366 321.641 428.02 334.485 414.356 340.459C406.953 343.703 396.28 345.185 388.255 345.125C383.116 345.083 375.794 344.959 370.925 343.862C370.152 343.695 369.458 343.924 368.892 344.345C381.196 359.386 399.135 365.583 419.004 361.517C439.856 357.25 458.262 334.21 464.709 315.047L464.719 315.05Z" fill="#3E3A39"/>
<path d="M288.908 258.484C303.648 250.13 314.128 231.568 308.555 214.706C302.381 196.022 288.402 185.277 270.175 178.965C255.619 173.919 237.848 172.169 221.509 174.098C224.248 174.897 235.182 175.327 238.043 175.658C242.627 176.2 247.39 177.889 251.631 179.619C265.19 185.14 276.924 197.823 279.362 212.449C282.471 231.044 265.575 245.579 248.842 248.579C241.636 249.867 233.915 248.853 226.651 248.418C221.901 248.132 217.028 246.313 212.326 246.961C210.768 247.171 209.8 248.658 209.937 250.101C218.338 254.927 227.537 258.585 235.954 261.803C253.733 268.593 272.307 267.918 288.919 258.51L288.908 258.484Z" fill="#3E3A39"/>
<path d="M100.189 167.234C112.408 172.093 126.253 166.126 131.112 153.907C135.971 141.688 130.004 127.843 117.785 122.984C105.566 118.125 91.7211 124.092 86.8621 136.311C82.0032 148.53 87.9699 162.375 100.189 167.234Z" fill="white"/>
<path d="M102.939 151.335C108.758 153.649 115.352 150.807 117.666 144.987C119.98 139.168 117.139 132.574 111.319 130.26C105.499 127.946 98.9055 130.787 96.5913 136.607C94.2772 142.427 97.1189 149.021 102.939 151.335Z" fill="#231815"/>
</g>
<defs>
<clipPath id="clip0_562_14">
<rect width="447.08" height="291.52" fill="white" transform="translate(108.679 0.716553) rotate(21.685)"/>
</clipPath>
</defs>
</svg>
