<svg width="284" height="238" viewBox="0 0 284 238" fill="none" xmlns="http://www.w3.org/2000/svg">
<path d="M149.836 87.1179L114.31 104.296C93.9299 114.151 85.542 138.959 95.5748 159.708L97.9074 164.532C107.94 185.281 132.595 194.113 152.974 184.259L188.501 167.08C208.881 157.226 217.269 132.417 207.236 111.668L204.903 106.844C194.87 86.0952 170.216 77.2635 149.836 87.1179Z" fill="#EC6A46"/>
<path d="M51.9597 122.118C51.9597 122.118 68.3094 151.799 95.7909 140.545" stroke="#EC6A46" stroke-width="14" stroke-miterlimit="10"/>
<path d="M203.517 49.6978C203.517 49.6978 216.628 80.9451 190.741 95.4963" stroke="#EC6A46" stroke-width="14" stroke-miterlimit="10"/>
<path d="M33.0443 93.4028C28.7788 94.3613 24.9656 96.2383 21.7478 98.7903L26.0895 106.387L34.2513 120.669L18.034 120.5L10.9218 120.428C10.8439 122.931 11.0819 125.497 11.679 128.064C15.3288 143.74 30.8146 153.626 46.2601 150.159C61.7123 146.688 71.2721 131.166 67.6255 115.497C63.9789 99.8283 48.4965 89.9322 33.0443 93.4028Z" fill="#EC6A46"/>
<path d="M188.758 16.3083C192.158 13.5602 195.997 11.7369 199.996 10.7996L203.254 18.92L209.38 34.1868L219.319 21.3706L223.679 15.7511C225.689 17.2444 227.553 19.0245 229.194 21.0865C239.214 33.6819 237.346 51.9592 225.037 61.9124C212.721 71.8687 194.618 69.7228 184.601 57.1341C174.581 44.5387 176.448 26.2615 188.758 16.3083V16.3083Z" fill="#EC6A46"/>
<path d="M97.5158 81.5366L124.887 117.959" stroke="#EC6A46" stroke-width="9" stroke-miterlimit="10"/>
<path d="M137.479 62.321L149.881 106.164" stroke="#EC6A46" stroke-width="9" stroke-miterlimit="10"/>
<path d="M143.764 74.8964C151.132 71.3334 154.165 62.3633 150.538 54.8611C146.91 47.359 137.996 44.1657 130.627 47.7287C123.258 51.2918 120.226 60.2619 123.853 67.764C127.481 75.2662 136.395 78.4595 143.764 74.8964Z" fill="white"/>
<path d="M137.544 66.7887C141.051 65.0928 142.495 60.8232 140.768 57.2523C139.042 53.6815 134.799 52.1615 131.291 53.8575C127.784 55.5534 126.34 59.823 128.067 63.3938C129.794 66.9647 134.037 68.4846 137.544 66.7887Z" fill="#231815"/>
<path d="M102.871 94.736C110.24 91.173 113.272 82.2029 109.645 74.7007C106.017 67.1986 97.1029 64.0053 89.7342 67.5683C82.3655 71.1314 79.3327 80.1015 82.9603 87.6036C86.5878 95.1058 95.5021 98.2991 102.871 94.736Z" fill="white"/>
<path d="M96.5258 87.1954C100.033 85.4995 101.477 81.2299 99.75 77.6591C98.0234 74.0882 93.7804 72.5683 90.2731 74.2642C86.7657 75.9601 85.3222 80.2297 87.0488 83.8006C88.7755 87.3714 93.0184 88.8914 96.5258 87.1954Z" fill="#231815"/>
<path d="M102.05 207.414C100.096 198.82 98.2892 180.211 116.06 171.536C116.357 171.392 116.719 171.399 116.985 171.561L123.976 175.768C124.515 176.089 124.467 176.834 123.882 177.142C119.691 179.367 106.759 187.712 103.816 207.257C103.679 208.17 102.245 208.307 102.043 207.417L102.05 207.414Z" fill="#EC6A46"/>
<path d="M119.441 204.715C117.487 196.122 115.68 177.513 133.451 168.838C133.748 168.694 134.11 168.701 134.376 168.863L141.368 173.07C141.906 173.391 141.859 174.136 141.274 174.444C137.083 176.669 124.15 185.014 121.208 204.558C121.07 205.472 119.636 205.609 119.434 204.719L119.441 204.715Z" fill="#EC6A46"/>
<path d="M133.09 201.428C131.136 192.834 129.329 174.225 147.1 165.55C147.397 165.406 147.759 165.413 148.025 165.575L155.017 169.782C155.555 170.103 155.508 170.848 154.923 171.156C150.732 173.381 137.8 181.726 134.857 201.271C134.719 202.184 133.285 202.321 133.083 201.431L133.09 201.428Z" fill="#EC6A46"/>
<path d="M238.762 142.503C233.24 135.635 219.776 122.663 201.941 131.204C201.643 131.348 201.424 131.636 201.386 131.945L200.342 140.038C200.259 140.659 200.872 141.084 201.477 140.817C205.824 138.914 220.396 133.96 237.542 143.79C238.343 144.25 239.341 143.211 238.769 142.5L238.762 142.503Z" fill="#EC6A46"/>
<path d="M225.844 154.452C220.322 147.585 206.858 134.612 189.023 143.153C188.725 143.297 188.506 143.586 188.468 143.895L187.424 151.987C187.341 152.608 187.954 153.034 188.559 152.766C192.906 150.863 207.478 145.909 224.624 155.74C225.425 156.199 226.423 155.16 225.851 154.449L225.844 154.452Z" fill="#EC6A46"/>
<path d="M214.801 163.112C209.279 156.244 195.815 143.272 177.98 151.813C177.682 151.957 177.463 152.246 177.425 152.555L176.381 160.647C176.298 161.268 176.911 161.694 177.516 161.426C181.863 159.523 196.435 154.569 213.581 164.4C214.382 164.859 215.38 163.82 214.808 163.109L214.801 163.112Z" fill="#EC6A46"/>
</svg>
