<svg width="206" height="132" viewBox="0 0 206 132" fill="none" xmlns="http://www.w3.org/2000/svg">
<path d="M87.9124 120.792C91.8757 120.792 88.2396 117.867 87.0899 116.945C85.2765 115.561 81.9394 113.567 80.2849 112.027C76.6488 108.484 73.2089 106.482 68.4137 104.785C62.9642 102.635 57.3464 102.478 51.3921 103.401C43.6244 104.48 35.81 108.432 28.5377 111.513C24.4061 113.359 22.4806 112.479 18.6762 110.173C13.722 107.1 8.59029 104.019 2.64533 102.791C1.81341 102.487 0.822572 102.33 0 102.33C4.45871 106.021 9.58111 107.866 11.2356 113.715C13.2173 120.488 7.76772 124.483 3.46791 128.792C7.27231 128.635 11.1702 126.346 14.3763 124.326C17.3021 122.481 21.929 119.191 24.4809 119.913C30.5567 121.628 38.9974 127.869 47.4288 129.714C56.6827 132.021 65.9179 132.778 76.4244 128.661C78.6024 127.808 86.1832 124.03 88.0246 122.141C88.1929 121.837 87.4263 120.94 87.5852 120.783" fill="#1E617F" fill-opacity="0.5"/>
<path d="M141.754 76.0253C145.717 76.0253 142.081 73.1006 140.931 72.1779C139.118 70.7939 135.781 68.8006 134.126 67.2599C130.49 63.7172 127.05 61.7152 122.255 60.0178C116.805 57.8678 111.188 57.7111 105.233 58.6338C97.4655 59.7132 89.6511 63.665 82.3788 66.7463C78.2472 68.5917 76.3217 67.7125 72.5173 65.4059C67.5632 62.3332 62.4315 59.2518 56.4865 58.0245C55.6546 57.7199 54.6638 57.5632 53.8412 57.5632C58.2999 61.2539 63.4223 63.0992 65.0768 68.9486C67.0584 75.7206 61.6089 79.716 57.3091 84.0247C61.1135 83.868 65.0113 81.5787 68.2175 79.5593C71.1432 77.7139 75.7702 74.4237 78.3221 75.1461C84.3979 76.8609 92.8386 83.102 101.27 84.9473C110.524 87.254 119.759 88.0113 130.266 83.8941C132.444 83.0411 140.024 79.2633 141.866 77.3745C142.034 77.0698 141.268 76.1733 141.426 76.0166" fill="#1E617F" fill-opacity="0.5"/>
<path d="M203.288 120.792C207.251 120.792 203.615 117.867 202.465 116.945C200.652 115.561 197.314 113.567 195.66 112.027C192.024 108.484 188.584 106.482 183.789 104.785C178.339 102.635 172.721 102.478 166.767 103.401C158.999 104.48 151.185 108.432 143.913 111.513C139.781 113.359 137.856 112.479 134.051 110.173C129.097 107.1 123.965 104.019 118.02 102.791C117.188 102.487 116.198 102.33 115.375 102.33C119.834 106.021 124.956 107.866 126.611 113.715C128.592 120.488 123.143 124.483 118.843 128.792C122.647 128.635 126.545 126.346 129.751 124.326C132.677 122.481 137.304 119.191 139.856 119.913C145.932 121.628 154.373 127.869 162.804 129.714C172.058 132.021 181.293 132.778 191.799 128.661C193.977 127.808 201.558 124.03 203.4 122.141C203.568 121.837 202.801 120.94 202.96 120.783" fill="#1E617F" fill-opacity="0.5"/>
<path d="M203.288 18.7239C207.251 18.7239 203.615 15.7993 202.465 14.8766C200.652 13.4926 197.314 11.4993 195.66 9.95858C192.024 6.41588 188.584 4.41386 183.789 2.71649C178.339 0.566496 172.721 0.409816 166.767 1.33249C158.999 2.41184 151.185 6.36365 143.913 9.44502C139.781 11.2904 137.856 10.4112 134.051 8.10454C129.097 5.03187 123.965 1.9505 118.02 0.723176C117.188 0.418521 116.198 0.261841 115.375 0.261841C119.834 3.95252 124.956 5.79786 126.611 11.6472C128.592 18.4193 123.143 22.4146 118.843 26.7233C122.647 26.5666 126.545 24.2774 129.751 22.258C132.677 20.4126 137.304 17.1223 139.856 17.8448C145.932 19.5596 154.373 25.8007 162.804 27.646C172.058 29.9527 181.293 30.71 191.799 26.5928C193.977 25.7397 201.558 21.962 203.4 20.0731C203.568 19.7685 202.801 18.8719 202.96 18.7152" fill="#1E617F" fill-opacity="0.5"/>
</svg>
