<svg width="49" height="50" viewBox="0 0 49 50" fill="none" xmlns="http://www.w3.org/2000/svg">
<path d="M34.5 16.0556V36.5" stroke="black" stroke-width="4" stroke-linecap="round" stroke-linejoin="round"/>
<path d="M43.25 2H5.75C4.75544 2 3.80161 2.40387 3.09835 3.12276C2.39509 3.84165 2 4.81667 2 5.83333V44.1667C2 45.1833 2.39509 46.1584 3.09835 46.8772C3.80161 47.5961 4.75544 48 5.75 48H43.25C44.2446 48 45.1984 47.5961 45.9016 46.8772C46.6049 46.1584 47 45.1833 47 44.1667V5.83333C47 4.81667 46.6049 3.84165 45.9016 3.12276C45.1984 2.40387 44.2446 2 43.25 2Z" stroke="black" stroke-width="4"/>
<path d="M14.5 13.5V36.5" stroke="black" stroke-width="4" stroke-linecap="round" stroke-linejoin="round"/>
<path d="M29.5 36.5C26.375 36.5 24.5 34.4555 24.5 31.3889C24.5 28.3222 26.375 26.2778 29.5 26.2778H34.5V36.5H29.5Z" stroke="black" stroke-width="4" stroke-linecap="round" stroke-linejoin="round"/>
</svg>
