<svg width="49" height="49" viewBox="0 0 49 49" fill="none" xmlns="http://www.w3.org/2000/svg">
<path d="M43.25 2H5.75C4.75544 2 3.80161 2.39509 3.09835 3.09835C2.39509 3.80161 2 4.75544 2 5.75V43.25C2 44.2446 2.39509 45.1984 3.09835 45.9016C3.80161 46.6049 4.75544 47 5.75 47H43.25C44.2446 47 45.1984 46.6049 45.9016 45.9016C46.6049 45.1984 47 44.2446 47 43.25V5.75C47 4.75544 46.6049 3.80161 45.9016 3.09835C45.1984 2.39509 44.2446 2 43.25 2Z" stroke="black" stroke-width="4"/>
<path d="M17 13.25L9.5 35.75" stroke="black" stroke-width="4" stroke-linecap="round" stroke-linejoin="round"/>
<path d="M17 13.25L24.5 35.75" stroke="black" stroke-width="4" stroke-linecap="round" stroke-linejoin="round"/>
<path d="M12 28.25H22" stroke="black" stroke-width="4" stroke-linecap="round" stroke-linejoin="round"/>
<path d="M28.378 29.798C28.378 34.738 30.718 36.402 33.396 36.87C36.672 37.442 38.232 36.402 38.7 35.544C39.506 34.114 38.05 32.684 36.802 32.97C33.63 33.698 33.396 32.164 33.136 32.034C33.136 32.034 36.49 32.268 37.842 31.41C39.506 30.344 40 28.394 38.96 26.47C37.894 24.52 36.022 23.454 32.98 23.792C29.938 24.104 28.378 27.328 28.378 29.798ZM35.84 28.03C36.126 29.044 33.708 29.434 32.98 28.914C32.486 28.524 32.85 27.796 33.578 27.12C34.566 26.73 35.632 27.172 35.84 28.03Z" fill="black"/>
</svg>
