<svg width="49" height="49" viewBox="0 0 49 49" fill="none" xmlns="http://www.w3.org/2000/svg">
<path d="M43.25 2H5.75C4.75544 2 3.80161 2.39509 3.09835 3.09835C2.39509 3.80161 2 4.75544 2 5.75V43.25C2 44.2446 2.39509 45.1984 3.09835 45.9016C3.80161 46.6049 4.75544 47 5.75 47H43.25C44.2446 47 45.1984 46.6049 45.9016 45.9016C46.6049 45.1984 47 44.2446 47 43.25V5.75C47 4.75544 46.6049 3.80161 45.9016 3.09835C45.1984 2.39509 44.2446 2 43.25 2Z" stroke="black" stroke-width="4"/>
<path d="M12 13.25V35.75" stroke="black" stroke-width="4" stroke-linecap="round" stroke-linejoin="round"/>
<path d="M14.5 25.75C18.25 25.75 23.25 24.75 23.25 19.5C23.25 14.25 18.25 13.25 14.5 13.25H12V25.75H14.5Z" stroke="black" stroke-width="4" stroke-linecap="round" stroke-linejoin="round"/>
<path d="M37 20.7812C35.75 20.7812 29.5 20.1587 29.5 24.515C29.5 28.8725 37 27.6275 37 31.985C37 36.3412 29.5 35.7187 29.5 35.7187" stroke="black" stroke-width="4" stroke-linecap="round" stroke-linejoin="round"/>
</svg>
