<svg width="48" height="49" viewBox="0 0 48 49" fill="none" xmlns="http://www.w3.org/2000/svg">
<path d="M42.3333 2H5.66667C3.64162 2 2 3.67893 2 5.75V43.25C2 45.3211 3.64162 47 5.66667 47H42.3333C44.3584 47 46 45.3211 46 43.25V5.75C46 3.67893 44.3584 2 42.3333 2Z" stroke="black" stroke-width="4" stroke-linejoin="round"/>
<path d="M24.0001 13.25H20.3334C19.361 13.25 18.4283 13.6451 17.7407 14.3483C17.0531 15.0516 16.6667 16.0054 16.6667 17C16.6667 17.9946 17.0531 18.9484 17.7407 19.6517C18.4283 20.3549 19.361 20.75 20.3334 20.75M24.0001 13.25V20.75M24.0001 13.25H27.6667C28.6392 13.25 29.5718 13.6451 30.2595 14.3483C30.9471 15.0516 31.3334 16.0054 31.3334 17C31.3334 17.9946 30.9471 18.9484 30.2595 19.6517C29.5718 20.3549 28.6392 20.75 27.6667 20.75H24.0001M24.0001 20.75H20.3334M24.0001 20.75V28.25M20.3334 20.75C19.361 20.75 18.4283 21.1451 17.7407 21.8483C17.0531 22.5516 16.6667 23.5054 16.6667 24.5C16.6667 25.4946 17.0531 26.4484 17.7407 27.1517C18.4283 27.8549 19.361 28.25 20.3334 28.25M24.0001 28.25H20.3334M24.0001 28.25V32C24.0001 32.9946 23.6138 33.9484 22.9261 34.6516C22.2385 35.3549 21.3059 35.75 20.3334 35.75C19.361 35.75 18.4283 35.3549 17.7407 34.6516C17.0531 33.9484 16.6667 32.9946 16.6667 32C16.6667 31.0054 17.0531 30.0516 17.7407 29.3483C18.4283 28.6451 19.361 28.25 20.3334 28.25" stroke="black" stroke-width="4" stroke-linejoin="round"/>
<path d="M24 24.5C24 23.5054 24.3863 22.5516 25.0739 21.8483C25.7616 21.1451 26.6942 20.75 27.6667 20.75C28.6391 20.75 29.5718 21.1451 30.2594 21.8483C30.947 22.5516 31.3333 23.5054 31.3333 24.5C31.3333 25.4946 30.947 26.4484 30.2594 27.1517C29.5718 27.8549 28.6391 28.25 27.6667 28.25C26.6942 28.25 25.7616 27.8549 25.0739 27.1517C24.3863 26.4484 24 25.4946 24 24.5Z" stroke="black" stroke-width="4" stroke-linejoin="round"/>
</svg>
