<svg width="49" height="49" viewBox="0 0 49 49" fill="none" xmlns="http://www.w3.org/2000/svg">
<path d="M46.4131 32.0794C45.8269 32.0794 45.2647 31.8541 44.8502 31.4531C44.4358 31.052 44.2029 30.508 44.2029 29.9408V19.2477H30.942C30.3559 19.2477 29.7937 19.0224 29.3792 18.6213C28.9647 18.2202 28.7319 17.6763 28.7319 17.1091V4.27729H4.42029V29.9408C4.42029 30.508 4.18744 31.052 3.77295 31.4531C3.35847 31.8541 2.79631 32.0794 2.21015 32.0794C1.62398 32.0794 1.06182 31.8541 0.647336 31.4531C0.232854 31.052 0 30.508 0 29.9408V4.27729C0 3.14289 0.465708 2.05495 1.29467 1.25281C2.12364 0.450672 3.24796 3.44589e-05 4.42029 3.44589e-05H30.942C31.53 -0.00317337 32.0957 0.217698 32.5168 0.61489L47.9602 15.5853C48.1722 15.7821 48.3404 16.0188 48.4544 16.2809C48.5684 16.5429 48.6259 16.8247 48.6232 17.1091V29.9408C48.6232 30.508 48.3903 31.052 47.9759 31.4531C47.5614 31.8541 46.9992 32.0794 46.4131 32.0794ZM33.1522 14.9704H41.0811L33.1522 7.2981V14.9704Z" fill="black"/>
<path d="M16.28 43.0625C16.008 43.0625 15.72 43.1265 15.416 43.1905C15.192 43.2385 14.936 43.2865 14.696 43.3185C14.584 43.3345 14.472 43.3345 14.344 43.3345C13.608 43.3345 12.568 43.1265 12.024 42.6785C11.144 41.9585 10.776 41.0145 10.856 39.6865C10.952 38.2785 12.168 37.2385 13.016 37.0305C13.32 36.9665 13.608 36.9345 13.912 36.9345C14.552 36.9345 15.16 37.0785 15.608 37.3665C15.944 37.5905 16.296 37.7025 16.616 37.7025C16.968 37.7025 17.256 37.5585 17.448 37.3345C17.752 36.9505 17.992 36.4385 17.464 35.6385C16.984 34.8705 15.304 34.0385 13.448 34.0385C13.384 34.0385 13.32 34.0545 13.256 34.0545C11.416 34.1025 8.504 35.5425 8.04 39.2705C7.544 43.1265 9.848 44.8705 10.856 45.4465C11.576 45.8625 12.824 46.1025 14.2 46.1025C15.128 46.1025 15.928 45.9905 16.408 45.7825C17.016 45.5265 17.416 45.1425 17.544 44.6945C17.64 44.3265 17.544 43.9265 17.256 43.5425C17.016 43.2065 16.712 43.0625 16.28 43.0625ZM29.3313 35.8945C29.1553 35.2385 28.3233 34.3265 26.5953 33.8625C26.2593 33.7825 25.8913 33.7345 25.5073 33.7345C24.2273 33.7345 22.6593 34.2945 22.0833 35.8785C21.6993 36.9345 21.6353 38.4705 22.6273 39.6065C23.1713 40.2145 23.9873 40.7105 24.7073 41.1425C25.2193 41.4465 25.6513 41.7025 25.8753 41.9425C26.0673 42.1505 26.1633 42.4065 26.1153 42.6625C26.0833 42.9185 25.9233 43.1585 25.6993 43.2865C25.5713 43.3505 25.3473 43.3985 25.0753 43.3985C24.5312 43.3985 23.8913 43.2545 23.4273 43.0625C23.1713 42.9345 22.9153 42.8865 22.6753 42.8865C22.2433 42.8865 21.8593 43.0945 21.5553 43.4945C21.1873 44.0065 21.2833 44.6945 21.7953 45.2545C22.0993 45.5905 23.2833 46.0545 23.9713 46.1185C24.2593 46.1345 24.5312 46.1505 24.8033 46.1505C25.9713 46.1505 26.9153 45.9105 27.5873 45.4465C28.8193 44.5825 29.2673 42.8545 28.5953 41.4945C28.1153 40.5345 26.9953 39.6065 26.0833 39.1265C25.3473 38.7425 24.5953 38.2625 24.5312 37.6225C24.4673 37.1105 24.8193 36.6465 25.3153 36.5345C25.3953 36.5185 25.4913 36.5025 25.5873 36.5025C26.0993 36.5025 26.7873 36.6945 27.1393 36.9185C27.5073 37.1425 27.8113 37.2545 28.1313 37.2545C28.2913 37.2545 28.4353 37.2225 28.6112 37.1905C28.8673 37.1265 29.0753 36.9665 29.2193 36.7265C29.3793 36.4705 29.4113 36.1825 29.3313 35.8945ZM40.8313 35.8945C40.6553 35.2385 39.8233 34.3265 38.0953 33.8625C37.7593 33.7825 37.3913 33.7345 37.0073 33.7345C35.7273 33.7345 34.1593 34.2945 33.5833 35.8785C33.1993 36.9345 33.1353 38.4705 34.1273 39.6065C34.6713 40.2145 35.4873 40.7105 36.2073 41.1425C36.7193 41.4465 37.1513 41.7025 37.3753 41.9425C37.5673 42.1505 37.6633 42.4065 37.6153 42.6625C37.5833 42.9185 37.4233 43.1585 37.1993 43.2865C37.0713 43.3505 36.8473 43.3985 36.5753 43.3985C36.0312 43.3985 35.3913 43.2545 34.9273 43.0625C34.6713 42.9345 34.4153 42.8865 34.1753 42.8865C33.7433 42.8865 33.3593 43.0945 33.0553 43.4945C32.6873 44.0065 32.7833 44.6945 33.2953 45.2545C33.5993 45.5905 34.7833 46.0545 35.4713 46.1185C35.7593 46.1345 36.0312 46.1505 36.3033 46.1505C37.4713 46.1505 38.4153 45.9105 39.0873 45.4465C40.3193 44.5825 40.7673 42.8545 40.0953 41.4945C39.6153 40.5345 38.4953 39.6065 37.5833 39.1265C36.8473 38.7425 36.0953 38.2625 36.0312 37.6225C35.9673 37.1105 36.3193 36.6465 36.8153 36.5345C36.8953 36.5185 36.9913 36.5025 37.0873 36.5025C37.5993 36.5025 38.2873 36.6945 38.6393 36.9185C39.0073 37.1425 39.3113 37.2545 39.6313 37.2545C39.7913 37.2545 39.9353 37.2225 40.1112 37.1905C40.3673 37.1265 40.5753 36.9665 40.7193 36.7265C40.8793 36.4705 40.9113 36.1825 40.8313 35.8945Z" fill="black"/>
<path d="M15.416 43.1905L15.3542 42.8969L15.3531 42.8971L15.416 43.1905ZM14.696 43.3185L14.6563 43.0211L14.6536 43.0215L14.696 43.3185ZM12.024 42.6785L12.2147 42.4469L12.214 42.4463L12.024 42.6785ZM10.856 39.6865L10.5567 39.666L10.5565 39.6684L10.856 39.6865ZM13.016 37.0305L12.9542 36.7367L12.9445 36.7391L13.016 37.0305ZM15.608 37.3665L15.7744 37.1168L15.7702 37.1141L15.608 37.3665ZM17.448 37.3345L17.676 37.5298L17.6832 37.5207L17.448 37.3345ZM17.464 35.6385L17.2095 35.7975L17.2136 35.8037L17.464 35.6385ZM13.256 34.0545V33.7543L13.2482 33.7546L13.256 34.0545ZM8.04 39.2705L8.33755 39.3087L8.3377 39.3075L8.04 39.2705ZM10.856 45.4465L11.0061 45.1867L11.0048 45.186L10.856 45.4465ZM16.408 45.7825L16.2916 45.5059L16.2887 45.5072L16.408 45.7825ZM17.544 44.6945L17.8325 44.7769L17.8343 44.7702L17.544 44.6945ZM17.256 43.5425L17.0118 43.7169L17.016 43.7225L17.256 43.5425ZM16.28 42.7625C15.9698 42.7625 15.6472 42.8352 15.3542 42.8969L15.4778 43.484C15.7928 43.4177 16.0462 43.3625 16.28 43.3625V42.7625ZM15.3531 42.8971C15.134 42.9441 14.8862 42.9904 14.6564 43.0211L14.7356 43.6158C14.9858 43.5825 15.25 43.5328 15.4789 43.4838L15.3531 42.8971ZM14.6536 43.0215C14.5664 43.0339 14.4762 43.0345 14.344 43.0345V43.6345C14.4678 43.6345 14.6016 43.635 14.7384 43.6154L14.6536 43.0215ZM14.344 43.0345C14.0012 43.0345 13.5823 42.9856 13.1867 42.8839C12.7863 42.7809 12.4384 42.631 12.2147 42.4469L11.8333 42.91C12.1536 43.1739 12.5977 43.352 13.0373 43.465C13.4817 43.5793 13.9508 43.6345 14.344 43.6345V43.0345ZM12.214 42.4463C11.422 41.7983 11.0801 40.9552 11.1555 39.7045L10.5565 39.6684C10.4719 41.0737 10.866 42.1186 11.834 42.9106L12.214 42.4463ZM11.1553 39.7069C11.1977 39.085 11.4884 38.5346 11.8755 38.1108C12.2661 37.6832 12.7325 37.4089 13.0875 37.3218L12.9445 36.7391C12.4515 36.86 11.8859 37.2097 11.4325 37.7061C10.9756 38.2063 10.6103 38.8799 10.5567 39.666L11.1553 39.7069ZM13.0778 37.324C13.3631 37.264 13.6303 37.2345 13.912 37.2345V36.6345C13.5857 36.6345 13.2769 36.6689 12.9542 36.7369L13.0778 37.324ZM13.912 37.2345C14.5126 37.2345 15.0594 37.3704 15.4458 37.6188L15.7702 37.1141C15.2606 36.7865 14.5914 36.6345 13.912 36.6345V37.2345ZM15.4416 37.6161C15.8181 37.8671 16.2271 38.0025 16.616 38.0025V37.4025C16.3649 37.4025 16.0699 37.3138 15.7744 37.1168L15.4416 37.6161ZM16.616 38.0025C17.0546 38.0025 17.4261 37.821 17.6758 37.5297L17.2202 37.1392C17.0859 37.296 16.8814 37.4025 16.616 37.4025V38.0025ZM17.6832 37.5207C17.8498 37.3103 18.0247 37.0335 18.066 36.677C18.108 36.3145 18.0071 35.9167 17.7144 35.4732L17.2136 35.8037C17.4489 36.1602 17.492 36.4184 17.47 36.6079C17.4473 36.8034 17.3502 36.9746 17.2128 37.1482L17.6832 37.5207ZM17.7184 35.4795C17.4311 35.0198 16.8255 34.5887 16.0898 34.2745C15.343 33.9557 14.4191 33.7385 13.448 33.7385V34.3385C14.3329 34.3385 15.177 34.5372 15.8542 34.8264C16.5425 35.1202 17.0169 35.4891 17.2096 35.7975L17.7184 35.4795ZM13.448 33.7385C13.3942 33.7385 13.3436 33.7452 13.3148 33.7488C13.2796 33.7532 13.2662 33.7545 13.256 33.7545V34.3545C13.3098 34.3545 13.3604 34.3477 13.3892 34.3441C13.4244 34.3397 13.4378 34.3385 13.448 34.3385V33.7385ZM13.2482 33.7546C11.2872 33.8057 8.22781 35.3326 7.7423 39.2334L8.3377 39.3075C8.78019 35.7523 11.5448 34.3992 13.2638 34.3543L13.2482 33.7546ZM7.74245 39.2322C7.48541 41.2305 7.95354 42.7017 8.63206 43.7513C9.30663 44.7948 10.1776 45.4043 10.7072 45.7069L11.0048 45.186C10.5264 44.9126 9.74137 44.3621 9.13594 43.4256C8.53446 42.4952 8.09859 41.1664 8.33755 39.3087L7.74245 39.2322ZM10.7059 45.7062C11.4932 46.1611 12.8037 46.4025 14.2 46.4025V45.8025C12.8443 45.8025 11.6588 45.5638 11.0061 45.1867L10.7059 45.7062ZM14.2 46.4025C15.14 46.4025 15.9899 46.2906 16.5273 46.0577L16.2887 45.5072C15.8661 45.6903 15.116 45.8025 14.2 45.8025V46.4025ZM16.5244 46.0589C17.1802 45.7828 17.6704 45.344 17.8325 44.7769L17.2555 44.612C17.1616 44.9409 16.8518 45.2701 16.2916 45.506L16.5244 46.0589ZM17.8343 44.7702C17.9585 44.294 17.8253 43.8015 17.496 43.3625L17.016 43.7225C17.2627 44.0514 17.3215 44.3589 17.2537 44.6187L17.8343 44.7702ZM17.5001 43.3681C17.356 43.1664 17.1834 43.0101 16.9715 42.9068C16.7609 42.8041 16.5294 42.7625 16.28 42.7625V43.3625C16.4626 43.3625 16.5991 43.3928 16.7085 43.4461C16.8166 43.4988 16.916 43.5826 17.0119 43.7168L17.5001 43.3681ZM29.3313 35.8945L29.0415 35.9722L29.0422 35.9747L29.3313 35.8945ZM26.5953 33.8625L26.6731 33.5726L26.6647 33.5706L26.5953 33.8625ZM22.0833 35.8785L21.8013 35.7759L21.8013 35.7759L22.0833 35.8785ZM22.6273 39.6065L22.4013 39.8038L22.4037 39.8065L22.6273 39.6065ZM24.7073 41.1425L24.5529 41.3997L24.5541 41.4004L24.7073 41.1425ZM25.8753 41.9425L26.0957 41.739L26.0946 41.7378L25.8753 41.9425ZM26.1153 42.6625L25.8204 42.6072L25.8187 42.6162L25.8176 42.6252L26.1153 42.6625ZM25.6993 43.2865L25.8334 43.5548L25.8409 43.5511L25.8481 43.5469L25.6993 43.2865ZM23.4273 43.0625L23.2931 43.3308L23.3027 43.3356L23.3125 43.3397L23.4273 43.0625ZM21.5553 43.4945L21.3163 43.3129L21.3116 43.3194L21.5553 43.4945ZM21.7953 45.2545L22.0177 45.0532L22.0167 45.052L21.7953 45.2545ZM23.9713 46.1185L23.9434 46.4174L23.9546 46.418L23.9713 46.1185ZM27.5873 45.4465L27.7577 45.6933L27.7595 45.6921L27.5873 45.4465ZM28.5953 41.4945L28.8642 41.3616L28.8636 41.3603L28.5953 41.4945ZM26.0833 39.1265L26.223 38.861L26.222 38.8605L26.0833 39.1265ZM24.5312 37.6225L24.8299 37.5926L24.8289 37.5852L24.5312 37.6225ZM25.3153 36.5345L25.2564 36.2402L25.2492 36.2418L25.3153 36.5345ZM27.1393 36.9185L26.9782 37.1716L26.9833 37.1747L27.1393 36.9185ZM28.6112 37.1905L28.6649 37.4856L28.6745 37.4839L28.684 37.4815L28.6112 37.1905ZM29.2193 36.7265L28.9648 36.5674L28.962 36.5721L29.2193 36.7265ZM29.621 35.8167C29.4068 35.0182 28.4584 34.0521 26.673 33.5727L26.5175 34.1522C28.1881 34.6008 28.9037 35.4587 29.0415 35.9722L29.621 35.8167ZM26.6647 33.5706C26.3073 33.4855 25.916 33.4345 25.5073 33.4345V34.0345C25.8665 34.0345 26.2112 34.0794 26.5258 34.1543L26.6647 33.5706ZM25.5073 33.4345C24.1615 33.4345 22.4379 34.0252 21.8013 35.7759L22.3652 35.981C22.8806 34.5637 24.293 34.0345 25.5073 34.0345V33.4345ZM21.8013 35.7759C21.396 36.8906 21.3111 38.5554 22.4013 39.8038L22.8532 39.4091C21.9594 38.3855 22.0025 36.9783 22.3652 35.981L21.8013 35.7759ZM22.4037 39.8065C22.9835 40.4545 23.8415 40.9729 24.5529 41.3997L24.8616 40.8852C24.133 40.448 23.359 39.9744 22.8508 39.4064L22.4037 39.8065ZM24.5541 41.4004C24.812 41.5535 25.0412 41.6896 25.234 41.8168C25.4292 41.9457 25.5689 42.0539 25.6559 42.1471L26.0946 41.7378C25.9576 41.591 25.7693 41.4512 25.5645 41.3161C25.3573 41.1793 25.1145 41.0354 24.8604 40.8845L24.5541 41.4004ZM25.6548 42.1459C25.7989 42.3021 25.8469 42.4658 25.8204 42.6072L26.4101 42.7177C26.4796 42.3471 26.3356 41.9988 26.0957 41.739L25.6548 42.1459ZM25.8176 42.6252C25.7973 42.7875 25.6924 42.9448 25.5504 43.026L25.8481 43.5469C26.1541 43.3721 26.3692 43.0494 26.4129 42.6997L25.8176 42.6252ZM25.5651 43.0181C25.4938 43.0538 25.3211 43.0985 25.0753 43.0985V43.6985C25.3734 43.6985 25.6487 43.6471 25.8334 43.5548L25.5651 43.0181ZM25.0753 43.0985C24.5748 43.0985 23.9737 42.9639 23.542 42.7852L23.3125 43.3397C23.8088 43.545 24.4877 43.6985 25.0753 43.6985V43.0985ZM23.5614 42.7941C23.2591 42.6429 22.9563 42.5865 22.6753 42.5865V43.1865C22.8742 43.1865 23.0834 43.226 23.2931 43.3308L23.5614 42.7941ZM22.6753 42.5865C22.1337 42.5865 21.6669 42.8518 21.3164 43.3129L21.7941 43.676C22.0516 43.3371 22.3528 43.1865 22.6753 43.1865V42.5865ZM21.3116 43.3194C20.8386 43.9775 20.9943 44.8231 21.5738 45.4569L22.0167 45.052C21.5722 44.5658 21.5359 44.0354 21.7989 43.6695L21.3116 43.3194ZM21.5728 45.4557C21.6824 45.5769 21.8483 45.6881 22.0206 45.7842C22.1993 45.8839 22.4098 45.9808 22.629 46.0675C23.0626 46.2388 23.5601 46.3815 23.9435 46.4172L23.999 45.8197C23.6944 45.7914 23.2559 45.6701 22.8495 45.5095C22.6487 45.4301 22.4632 45.344 22.3129 45.2602C22.1562 45.1728 22.0601 45.1 22.0177 45.0532L21.5728 45.4557ZM23.9546 46.418C24.2401 46.4339 24.5212 46.4505 24.8033 46.4505V45.8505C24.5413 45.8505 24.2784 45.8351 23.9879 45.8189L23.9546 46.418ZM24.8033 46.4505C26.0075 46.4505 27.0186 46.2037 27.7577 45.6933L27.4168 45.1996C26.8119 45.6172 25.935 45.8505 24.8033 45.8505V46.4505ZM27.7595 45.6921C29.1124 44.7433 29.602 42.8547 28.8642 41.3616L28.3263 41.6273C28.9325 42.8542 28.5261 44.4216 27.415 45.2008L27.7595 45.6921ZM28.8636 41.3603C28.3455 40.324 27.1666 39.3576 26.223 38.861L25.9435 39.3919C26.8239 39.8553 27.885 40.7449 28.3269 41.6286L28.8636 41.3603ZM26.222 38.8605C25.8582 38.6707 25.5117 38.4676 25.251 38.2431C24.9873 38.0161 24.8506 37.8008 24.8298 37.5926L24.2327 37.6523C24.2759 38.0842 24.5472 38.4288 24.8595 38.6978C25.1748 38.9693 25.5723 39.1982 25.9445 39.3924L26.222 38.8605ZM24.8289 37.5852C24.7854 37.2368 25.0254 36.9075 25.3813 36.8271L25.2492 36.2418C24.6131 36.3855 24.1491 36.9841 24.2336 37.6597L24.8289 37.5852ZM25.3741 36.8286C25.4488 36.8137 25.5215 36.8025 25.5873 36.8025V36.2025C25.461 36.2025 25.3417 36.2232 25.2564 36.2403L25.3741 36.8286ZM25.5873 36.8025C25.81 36.8025 26.0829 36.8449 26.3447 36.916C26.6086 36.9876 26.837 37.0817 26.9782 37.1715L27.3003 36.6654C27.0895 36.5312 26.7979 36.4173 26.5018 36.3369C26.2036 36.256 25.8765 36.2025 25.5873 36.2025V36.8025ZM26.9833 37.1747C27.375 37.4131 27.7342 37.5545 28.1313 37.5545V36.9545C27.8883 36.9545 27.6395 36.8718 27.2952 36.6622L26.9833 37.1747ZM28.1313 37.5545C28.3257 37.5545 28.5046 37.5148 28.6649 37.4856L28.5576 36.8953C28.3659 36.9301 28.2568 36.9545 28.1313 36.9545V37.5545ZM28.684 37.4815C29.0235 37.3966 29.295 37.1833 29.4765 36.8808L28.962 36.5721C28.8555 36.7496 28.711 36.8563 28.5385 36.8994L28.684 37.4815ZM29.4737 36.8855C29.6819 36.5523 29.7209 36.1764 29.6203 35.8142L29.0422 35.9747C29.1016 36.1885 29.0766 36.3886 28.9649 36.5675L29.4737 36.8855ZM40.8313 35.8945L40.5415 35.9722L40.5422 35.9747L40.8313 35.8945ZM38.0953 33.8625L38.1731 33.5726L38.1647 33.5706L38.0953 33.8625ZM33.5833 35.8785L33.3013 35.7759L33.3013 35.7759L33.5833 35.8785ZM34.1273 39.6065L33.9013 39.8038L33.9037 39.8065L34.1273 39.6065ZM36.2073 41.1425L36.0529 41.3997L36.0541 41.4004L36.2073 41.1425ZM37.3753 41.9425L37.5957 41.739L37.5946 41.7378L37.3753 41.9425ZM37.6153 42.6625L37.3204 42.6072L37.3187 42.6162L37.3176 42.6252L37.6153 42.6625ZM37.1993 43.2865L37.3334 43.5548L37.3409 43.5511L37.3481 43.5469L37.1993 43.2865ZM34.9273 43.0625L34.7931 43.3308L34.8027 43.3356L34.8125 43.3397L34.9273 43.0625ZM33.0553 43.4945L32.8163 43.3129L32.8116 43.3194L33.0553 43.4945ZM33.2953 45.2545L33.5177 45.0532L33.5167 45.052L33.2953 45.2545ZM35.4713 46.1185L35.4434 46.4174L35.4546 46.418L35.4713 46.1185ZM39.0873 45.4465L39.2577 45.6933L39.2595 45.6921L39.0873 45.4465ZM40.0953 41.4945L40.3642 41.3616L40.3636 41.3603L40.0953 41.4945ZM37.5833 39.1265L37.723 38.861L37.722 38.8605L37.5833 39.1265ZM36.0312 37.6225L36.3299 37.5926L36.3289 37.5852L36.0312 37.6225ZM36.8153 36.5345L36.7564 36.2402L36.7492 36.2418L36.8153 36.5345ZM38.6393 36.9185L38.4782 37.1716L38.4833 37.1747L38.6393 36.9185ZM40.1112 37.1905L40.1649 37.4856L40.1745 37.4839L40.184 37.4815L40.1112 37.1905ZM40.7193 36.7265L40.4648 36.5674L40.462 36.5721L40.7193 36.7265ZM41.121 35.8167C40.9068 35.0182 39.9584 34.0521 38.173 33.5727L38.0175 34.1522C39.6881 34.6008 40.4037 35.4587 40.5415 35.9722L41.121 35.8167ZM38.1647 33.5706C37.8073 33.4855 37.416 33.4345 37.0073 33.4345V34.0345C37.3665 34.0345 37.7112 34.0794 38.0258 34.1543L38.1647 33.5706ZM37.0073 33.4345C35.6615 33.4345 33.9379 34.0252 33.3013 35.7759L33.8652 35.981C34.3806 34.5637 35.793 34.0345 37.0073 34.0345V33.4345ZM33.3013 35.7759C32.896 36.8906 32.8111 38.5554 33.9013 39.8038L34.3532 39.4091C33.4594 38.3855 33.5025 36.9783 33.8652 35.981L33.3013 35.7759ZM33.9037 39.8065C34.4835 40.4545 35.3415 40.9729 36.0529 41.3997L36.3616 40.8852C35.633 40.448 34.859 39.9744 34.3508 39.4064L33.9037 39.8065ZM36.0541 41.4004C36.312 41.5535 36.5412 41.6896 36.734 41.8168C36.9292 41.9457 37.0689 42.0539 37.1559 42.1471L37.5946 41.7378C37.4576 41.591 37.2693 41.4512 37.0645 41.3161C36.8573 41.1793 36.6145 41.0354 36.3604 40.8845L36.0541 41.4004ZM37.1548 42.1459C37.2989 42.3021 37.3469 42.4658 37.3204 42.6072L37.9101 42.7177C37.9796 42.3471 37.8356 41.9988 37.5957 41.739L37.1548 42.1459ZM37.3176 42.6252C37.2973 42.7875 37.1924 42.9448 37.0504 43.026L37.3481 43.5469C37.6541 43.3721 37.8692 43.0494 37.9129 42.6997L37.3176 42.6252ZM37.0651 43.0181C36.9938 43.0538 36.8211 43.0985 36.5753 43.0985V43.6985C36.8734 43.6985 37.1487 43.6471 37.3334 43.5548L37.0651 43.0181ZM36.5753 43.0985C36.0748 43.0985 35.4737 42.9639 35.042 42.7852L34.8125 43.3397C35.3088 43.545 35.9877 43.6985 36.5753 43.6985V43.0985ZM35.0614 42.7941C34.7591 42.6429 34.4563 42.5865 34.1753 42.5865V43.1865C34.3742 43.1865 34.5834 43.226 34.7931 43.3308L35.0614 42.7941ZM34.1753 42.5865C33.6337 42.5865 33.1669 42.8518 32.8164 43.3129L33.2941 43.676C33.5516 43.3371 33.8528 43.1865 34.1753 43.1865V42.5865ZM32.8116 43.3194C32.3386 43.9775 32.4943 44.8231 33.0738 45.4569L33.5167 45.052C33.0722 44.5658 33.0359 44.0354 33.2989 43.6695L32.8116 43.3194ZM33.0728 45.4557C33.1824 45.5769 33.3483 45.6881 33.5206 45.7842C33.6993 45.8839 33.9098 45.9808 34.129 46.0675C34.5626 46.2388 35.0601 46.3815 35.4435 46.4172L35.499 45.8197C35.1944 45.7914 34.7559 45.6701 34.3495 45.5095C34.1487 45.4301 33.9632 45.344 33.8129 45.2602C33.6562 45.1728 33.5601 45.1 33.5177 45.0532L33.0728 45.4557ZM35.4546 46.418C35.7401 46.4339 36.0212 46.4505 36.3033 46.4505V45.8505C36.0413 45.8505 35.7784 45.8351 35.4879 45.8189L35.4546 46.418ZM36.3033 46.4505C37.5075 46.4505 38.5186 46.2037 39.2577 45.6933L38.9168 45.1996C38.3119 45.6172 37.435 45.8505 36.3033 45.8505V46.4505ZM39.2595 45.6921C40.6124 44.7433 41.102 42.8547 40.3642 41.3616L39.8263 41.6273C40.4325 42.8542 40.0261 44.4216 38.915 45.2008L39.2595 45.6921ZM40.3636 41.3603C39.8455 40.324 38.6666 39.3576 37.723 38.861L37.4435 39.3919C38.3239 39.8553 39.385 40.7449 39.8269 41.6286L40.3636 41.3603ZM37.722 38.8605C37.3582 38.6707 37.0117 38.4676 36.751 38.2431C36.4873 38.0161 36.3506 37.8008 36.3298 37.5926L35.7327 37.6523C35.7759 38.0842 36.0472 38.4288 36.3595 38.6978C36.6748 38.9693 37.0723 39.1982 37.4445 39.3924L37.722 38.8605ZM36.3289 37.5852C36.2854 37.2368 36.5254 36.9075 36.8813 36.8271L36.7492 36.2418C36.1131 36.3855 35.6491 36.9841 35.7336 37.6597L36.3289 37.5852ZM36.8741 36.8286C36.9488 36.8137 37.0215 36.8025 37.0873 36.8025V36.2025C36.961 36.2025 36.8417 36.2232 36.7564 36.2403L36.8741 36.8286ZM37.0873 36.8025C37.31 36.8025 37.5829 36.8449 37.8447 36.916C38.1086 36.9876 38.337 37.0817 38.4782 37.1715L38.8003 36.6654C38.5895 36.5312 38.2979 36.4173 38.0018 36.3369C37.7036 36.256 37.3765 36.2025 37.0873 36.2025V36.8025ZM38.4833 37.1747C38.875 37.4131 39.2342 37.5545 39.6313 37.5545V36.9545C39.3883 36.9545 39.1395 36.8718 38.7952 36.6622L38.4833 37.1747ZM39.6313 37.5545C39.8257 37.5545 40.0046 37.5148 40.1649 37.4856L40.0576 36.8953C39.8659 36.9301 39.7568 36.9545 39.6313 36.9545V37.5545ZM40.184 37.4815C40.5235 37.3966 40.795 37.1833 40.9765 36.8808L40.462 36.5721C40.3555 36.7496 40.211 36.8563 40.0385 36.8994L40.184 37.4815ZM40.9737 36.8855C41.1819 36.5523 41.2209 36.1764 41.1203 35.8142L40.5422 35.9747C40.6016 36.1885 40.5766 36.3886 40.4649 36.5675L40.9737 36.8855Z" fill="black"/>
</svg>
