<svg width="49" height="49" viewBox="0 0 49 49" fill="none" xmlns="http://www.w3.org/2000/svg">
<path d="M43.25 2H5.75C4.75544 2 3.80161 2.39509 3.09835 3.09835C2.39509 3.80161 2 4.75544 2 5.75V43.25C2 44.2446 2.39509 45.1984 3.09835 45.9016C3.80161 46.6049 4.75544 47 5.75 47H43.25C44.2446 47 45.1984 46.6049 45.9016 45.9016C46.6049 45.1984 47 44.2446 47 43.25V5.75C47 4.75544 46.6049 3.80161 45.9016 3.09835C45.1984 2.39509 44.2446 2 43.25 2Z" stroke="black" stroke-width="4"/>
<path d="M19.5001 13.25L12.0001 35.75" stroke="black" stroke-width="4" stroke-linecap="round" stroke-linejoin="round"/>
<path d="M34.5001 35.75V25.75" stroke="black" stroke-width="4" stroke-linecap="round" stroke-linejoin="round"/>
<path d="M34.5001 19.5V18.25" stroke="black" stroke-width="4" stroke-linecap="round" stroke-linejoin="round"/>
<path d="M19.5 13.25L27 35.75" stroke="black" stroke-width="4" stroke-linecap="round" stroke-linejoin="round"/>
<path d="M14.5 28.25H24.5" stroke="black" stroke-width="4" stroke-linecap="round" stroke-linejoin="round"/>
</svg>
