<svg width="48" height="45" viewBox="0 0 48 45" fill="none" xmlns="http://www.w3.org/2000/svg">
<path d="M22.2222 34.2C22.2222 34.6774 22.0349 35.1352 21.7015 35.4728C21.3681 35.8104 20.9159 36 20.4444 36H18.6667V43.2C18.6667 43.6774 18.4794 44.1352 18.146 44.4728C17.8126 44.8104 17.3604 45 16.8889 45C16.4174 45 15.9652 44.8104 15.6318 44.4728C15.2984 44.1352 15.1111 43.6774 15.1111 43.2V36H13.3333C12.8618 36 12.4097 35.8104 12.0763 35.4728C11.7429 35.1352 11.5556 34.6774 11.5556 34.2C11.5556 33.7226 11.7429 33.2648 12.0763 32.9272C12.4097 32.5896 12.8618 32.4 13.3333 32.4H20.4444C20.9159 32.4 21.3681 32.5896 21.7015 32.9272C22.0349 33.2648 22.2222 33.7226 22.2222 34.2ZM8 32.4C7.5285 32.4 7.07632 32.5896 6.74292 32.9272C6.40952 33.2648 6.22222 33.7226 6.22222 34.2V36.9H3.55556V34.2C3.55556 33.7226 3.36825 33.2648 3.03486 32.9272C2.70146 32.5896 2.24927 32.4 1.77778 32.4C1.30628 32.4 0.854097 32.5896 0.520699 32.9272C0.187301 33.2648 0 33.7226 0 34.2V43.2C0 43.6774 0.187301 44.1352 0.520699 44.4728C0.854097 44.8104 1.30628 45 1.77778 45C2.24927 45 2.70146 44.8104 3.03486 44.4728C3.36825 44.1352 3.55556 43.6774 3.55556 43.2V40.5H6.22222V43.2C6.22222 43.6774 6.40952 44.1352 6.74292 44.4728C7.07632 44.8104 7.5285 45 8 45C8.4715 45 8.92368 44.8104 9.25708 44.4728C9.59048 44.1352 9.77778 43.6774 9.77778 43.2V34.2C9.77778 33.7226 9.59048 33.2648 9.25708 32.9272C8.92368 32.5896 8.4715 32.4 8 32.4ZM46.2222 41.4H42.6667V34.2C42.6667 33.7226 42.4794 33.2648 42.146 32.9272C41.8126 32.5896 41.3604 32.4 40.8889 32.4C40.4174 32.4 39.9652 32.5896 39.6318 32.9272C39.2984 33.2648 39.1111 33.7226 39.1111 34.2V43.2C39.1111 43.6774 39.2984 44.1352 39.6318 44.4728C39.9652 44.8104 40.4174 45 40.8889 45H46.2222C46.6937 45 47.1459 44.8104 47.4793 44.4728C47.8127 44.1352 48 43.6774 48 43.2C48 42.7226 47.8127 42.2648 47.4793 41.9272C47.1459 41.5896 46.6937 41.4 46.2222 41.4ZM35.2 32.49C34.8427 32.3697 34.4564 32.3705 34.0995 32.4923C33.7427 32.6141 33.4347 32.8502 33.2222 33.165L30.2222 37.395L27.2222 33.165C27.0035 32.8564 26.6941 32.6257 26.338 32.506C25.982 32.3863 25.5977 32.3837 25.2401 32.4985C24.8826 32.6134 24.57 32.8398 24.3473 33.1454C24.1245 33.4511 24.003 33.8202 24 34.2V43.2C24 43.6774 24.1873 44.1352 24.5207 44.4728C24.8541 44.8104 25.3063 45 25.7778 45C26.2493 45 26.7015 44.8104 27.0349 44.4728C27.3683 44.1352 27.5556 43.6774 27.5556 43.2V39.825L28.7778 41.535C28.9393 41.7717 29.1551 41.9652 29.4066 42.0988C29.6582 42.2324 29.9381 42.3023 30.2222 42.3023C30.5063 42.3023 30.7862 42.2324 31.0378 42.0988C31.2894 41.9652 31.5052 41.7717 31.6667 41.535L32.8889 39.825V43.2C32.8889 43.6774 33.0762 44.1352 33.4096 44.4728C33.743 44.8104 34.1952 45 34.6667 45C35.1382 45 35.5904 44.8104 35.9237 44.4728C36.2571 44.1352 36.4444 43.6774 36.4444 43.2V34.2C36.4501 33.8164 36.3315 33.4416 36.1067 33.1327C35.882 32.8239 35.5635 32.5982 35.2 32.49ZM40 27C39.5285 27 39.0763 26.8104 38.7429 26.4728C38.4095 26.1352 38.2222 25.6774 38.2222 25.2V16.2H27.5556C27.0841 16.2 26.6319 16.0104 26.2985 15.6728C25.9651 15.3352 25.7778 14.8774 25.7778 14.4V3.60003H6.22222V25.2C6.22222 25.6774 6.03492 26.1352 5.70152 26.4728C5.36813 26.8104 4.91594 27 4.44444 27C3.97295 27 3.52076 26.8104 3.18737 26.4728C2.85397 26.1352 2.66667 25.6774 2.66667 25.2V3.60003C2.66667 2.64525 3.04127 1.72957 3.70806 1.05444C4.37486 0.379313 5.27923 2.90027e-05 6.22222 2.90027e-05H27.5556C28.0285 -0.0026709 28.4836 0.183228 28.8222 0.517529L41.2444 13.1175C41.415 13.2832 41.5503 13.4824 41.642 13.703C41.7337 13.9235 41.7799 14.1607 41.7778 14.4V25.2C41.7778 25.6774 41.5905 26.1352 41.2571 26.4728C40.9237 26.8104 40.4715 27 40 27ZM29.3333 12.6H35.7111L29.3333 6.14253V12.6Z" fill="black"/>
</svg>
