<svg width="169" height="15" viewBox="0 0 169 15" fill="none" xmlns="http://www.w3.org/2000/svg">
<g clip-path="url(#clip0_157_13865)">
<path d="M0.867737 1.34943C3.29739 4.13692 8.17406 6.03654 13.8143 6.03654C19.4546 6.03654 24.3313 4.13692 26.7609 1.34943C29.1906 4.13692 34.0673 6.03654 39.7075 6.03654C45.3478 6.03654 50.2245 4.12659 52.6541 1.34943C55.0838 4.13692 59.9605 6.03654 65.6007 6.03654C71.241 6.03654 76.1177 4.12659 78.5473 1.34943C80.977 4.13692 85.8537 6.03654 91.494 6.03654C97.1342 6.03654 102.011 4.12659 104.441 1.34943C106.87 4.13692 111.747 6.03654 117.387 6.03654C123.027 6.03654 127.904 4.12659 130.334 1.34943C130.334 1.34943 135.714 9.46412 124.867 13.5524C124.867 13.5524 139.809 12.6646 142.222 1.34943C144.651 4.13692 149.528 6.03654 155.168 6.03654C160.809 6.03654 165.685 4.12659 168.115 1.34943" stroke="#231815" stroke-width="2" stroke-linecap="round" stroke-linejoin="round"/>
</g>
<defs>
<clipPath id="clip0_157_13865">
<rect width="169" height="13.2354" fill="white" transform="translate(0 0.833252)"/>
</clipPath>
</defs>
</svg>
