<svg width="30" height="23" viewBox="0 0 30 23" fill="none" xmlns="http://www.w3.org/2000/svg">
<path d="M28.2648 0H0.970458C0.713104 0.000301627 0.466381 0.102695 0.28444 0.284708C0.102498 0.466721 0.00020096 0.713484 0 0.970838V2.9239C0 3.01389 0.0975774 3.11716 0.17731 3.15893L14.5238 11.3535C14.5606 11.3745 14.6023 11.3854 14.6446 11.385C14.6878 11.3852 14.7303 11.3736 14.7676 11.3516L28.6805 3.1669C28.7588 3.12324 28.9661 3.00781 29.0439 2.95466C29.1381 2.89049 29.2353 2.8324 29.2353 2.71736V0.970459C29.2349 0.71317 29.1326 0.466505 28.9507 0.284574C28.7687 0.102643 28.5221 0.000301452 28.2648 0Z" fill="black"/>
<path d="M29.1142 5.86866C29.0769 5.84736 29.0346 5.83629 28.9916 5.83655C28.9486 5.83682 28.9064 5.84842 28.8693 5.87018L20.9959 10.5026C20.9646 10.5209 20.9377 10.546 20.9174 10.5761C20.897 10.6062 20.8837 10.6405 20.8784 10.6764C20.8731 10.7123 20.876 10.749 20.8868 10.7836C20.8976 10.8183 20.9161 10.8501 20.9409 10.8766L28.8154 19.3651C28.838 19.3896 28.8654 19.4092 28.8959 19.4225C28.9265 19.4358 28.9594 19.4427 28.9927 19.4426C29.0571 19.4425 29.1187 19.4169 29.1642 19.3714C29.2097 19.3259 29.2353 19.2643 29.2354 19.1999V6.07938C29.2355 6.0367 29.2244 5.99474 29.2031 5.95773C29.1819 5.92073 29.1512 5.89 29.1142 5.86866Z" fill="black"/>
<path d="M18.7269 12.0582C18.6896 12.0175 18.6393 11.9908 18.5847 11.9827C18.53 11.9745 18.4742 11.9854 18.4266 12.0134L15.2707 13.8704C15.0858 13.9772 14.8763 14.0342 14.6628 14.0355C14.4492 14.0369 14.239 13.9828 14.0527 13.8784L11.2754 12.2917C11.2305 12.2662 11.1787 12.2556 11.1275 12.2614C11.0762 12.2673 11.0281 12.2893 10.9902 12.3244L0.443507 22.1072C0.415857 22.133 0.394628 22.1649 0.381512 22.2005C0.368396 22.236 0.363755 22.274 0.367959 22.3116C0.372163 22.3493 0.385096 22.3854 0.405727 22.4171C0.426358 22.4488 0.454116 22.4753 0.48679 22.4944C0.650811 22.5909 0.809137 22.6368 0.970121 22.6368H27.9854C28.0327 22.6369 28.0789 22.6231 28.1184 22.5971C28.1579 22.5711 28.1889 22.5341 28.2075 22.4906C28.2264 22.4474 28.2323 22.3996 28.2243 22.3531C28.2164 22.3066 28.1949 22.2635 28.1627 22.229L18.7269 12.0582Z" fill="black"/>
<path d="M8.66958 11.1671C8.69752 11.1413 8.71899 11.1093 8.73226 11.0736C8.74553 11.038 8.75023 10.9997 8.74598 10.9619C8.74173 10.9241 8.72865 10.8878 8.70779 10.856C8.68694 10.8242 8.65889 10.7977 8.62592 10.7787L0.361838 6.05856C0.324956 6.03762 0.283224 6.02673 0.240814 6.02698C0.198404 6.02723 0.156802 6.03861 0.120169 6.05998C0.0835372 6.08135 0.053158 6.11197 0.0320702 6.14877C0.0109823 6.18556 -7.49839e-05 6.22725 3.87148e-06 6.26966V18.6548C-0.000263715 18.7021 0.0133452 18.7484 0.0391461 18.7881C0.064947 18.8277 0.101807 18.8589 0.145165 18.8778C0.188522 18.8967 0.236473 18.9025 0.283082 18.8945C0.329692 18.8864 0.372914 18.8648 0.407399 18.8325L8.66958 11.1671Z" fill="black"/>
</svg>
