<svg width="31" height="31" viewBox="0 0 31 31" fill="none" xmlns="http://www.w3.org/2000/svg">
<path fill-rule="evenodd" clip-rule="evenodd" d="M21.9583 27.125L21.1226 28.1105L21.1213 28.108L21.1162 28.1054L21.1032 28.0925L21.0529 28.0498L20.8759 27.8935C19.9931 27.1021 19.1633 26.2533 18.392 25.3528C17.7139 24.5559 17.0074 23.6181 16.4662 22.6287C15.9327 21.6561 15.5 20.5272 15.5 19.375C15.5 17.3768 16.1949 15.726 17.4246 14.5816C18.64 13.4501 20.2663 12.9167 21.9583 12.9167C23.6504 12.9167 25.2766 13.4501 26.4921 14.5816C27.7218 15.726 28.4167 17.3768 28.4167 19.375C28.4167 20.5272 27.984 21.6561 27.4505 22.63C26.908 23.6181 26.204 24.5559 25.5259 25.3528C24.7028 26.3131 23.8132 27.2143 22.8638 28.0498L22.8147 28.0925L22.8005 28.1054L22.7953 28.108L22.794 28.1093L21.9583 27.125ZM21.9583 27.125L22.7928 28.1105C22.5595 28.3079 22.2639 28.4162 21.9583 28.4162C21.6528 28.4162 21.3559 28.3079 21.1226 28.1105L21.9583 27.125ZM21.9583 20.6667C22.3009 20.6667 22.6294 20.5306 22.8717 20.2884C23.1139 20.0461 23.25 19.7176 23.25 19.375C23.25 19.0324 23.1139 18.7039 22.8717 18.4617C22.6294 18.2194 22.3009 18.0833 21.9583 18.0833C21.6158 18.0833 21.2872 18.2194 21.045 18.4617C20.8028 18.7039 20.6667 19.0324 20.6667 19.375C20.6667 19.7176 20.8028 20.0461 21.045 20.2884C21.2872 20.5306 21.6158 20.6667 21.9583 20.6667Z" fill="black"/>
<path fill-rule="evenodd" clip-rule="evenodd" d="M28.4167 5.16667C28.4167 4.93282 28.3533 4.70335 28.2331 4.50274C28.113 4.30213 27.9406 4.1379 27.7344 4.02758C27.5282 3.91726 27.2959 3.86499 27.0624 3.87633C26.8288 3.88768 26.6027 3.96222 26.4082 4.092L19.375 8.78075L12.3419 4.092C12.1297 3.95039 11.8802 3.87481 11.625 3.87481C11.3699 3.87481 11.1204 3.95039 10.9082 4.092L3.15817 9.25867C2.98132 9.37666 2.83632 9.53648 2.73606 9.72395C2.63579 9.91142 2.58334 10.1207 2.58337 10.3333V25.8333C2.58334 26.0672 2.64679 26.2967 2.76695 26.4973C2.88712 26.6979 3.05949 26.8621 3.26568 26.9724C3.47187 27.0827 3.70414 27.135 3.93771 27.1237C4.17128 27.1123 4.39739 27.0378 4.59192 26.908L11.625 22.2193L12.5938 22.8651C12.2657 21.9519 12.0552 20.9922 12.0552 20.0208C12.0552 17.0242 13.1208 14.5468 15.0066 12.8301C16.8705 11.1342 19.3634 10.3333 21.9584 10.3333C24.3312 10.3333 26.6187 11.0024 28.4167 12.4129V5.16667Z" fill="black"/>
</svg>
