<svg width="248" height="388" viewBox="0 0 248 388" fill="none" xmlns="http://www.w3.org/2000/svg">
<path d="M91.8646 33.0945C93.1504 25.2031 82.0488 16.829 67.0685 14.3904C52.0882 11.9517 38.902 16.372 37.6163 24.2634C36.3306 32.1548 47.4322 40.5289 62.4124 42.9675C77.3927 45.4062 90.5789 40.9859 91.8646 33.0945Z" fill="#F0D88A"/>
<path d="M190.418 41.7049C206.482 37.7964 217.84 27.7916 215.787 19.3585C213.733 10.9253 199.046 7.25733 182.982 11.1658C166.917 15.0742 155.559 25.0791 157.613 33.5122C159.666 41.9453 174.354 45.6133 190.418 41.7049Z" fill="#F0D88A"/>
<path d="M164.597 26.5817C173.925 19.7231 190.056 13.507 201.687 15.4232C202.575 15.6102 203.452 15.949 204.27 16.2411C204.399 16.2879 204.352 16.4982 204.212 16.4748C197.385 15.5751 190.547 17.8068 184.048 19.688C177.478 21.6977 171.014 24.1047 164.69 26.8037C164.562 26.8622 164.457 26.6518 164.597 26.5817V26.5817Z" fill="white"/>
<path d="M86.2786 29.5846C80.0482 28.5798 74.0166 26.6518 68.0433 24.8174C62.0818 23.018 56.4125 20.763 50.1587 20.0035C50.0301 20.0035 50.0185 19.7932 50.1587 19.7698C56.4826 18.8467 62.7481 20.8564 68.7681 22.539C74.7647 24.4786 80.6444 26.7804 86.3955 29.3626C86.454 29.386 86.4774 29.4561 86.454 29.5145C86.4189 29.5729 86.3605 29.5963 86.302 29.5729L86.2786 29.5846Z" fill="white"/>
<path d="M84.2213 35.1113C77.9909 34.1064 71.9593 32.1785 65.986 30.3441C60.0245 28.5447 54.3552 26.2896 48.1014 25.5302C47.9728 25.5302 47.9611 25.3198 48.1014 25.2965C54.4253 24.3734 60.6908 26.3831 66.7108 28.0657C72.7074 30.0052 78.5871 32.307 84.3382 34.8893C84.3967 34.9126 84.42 34.9827 84.3967 35.0412C84.3616 35.0996 84.3031 35.123 84.2447 35.0996L84.2213 35.1113Z" fill="white"/>
<path d="M82.9822 40.6379C76.7519 39.6331 70.7202 37.7052 64.747 35.8708C58.7854 34.0714 53.1161 31.8163 46.8623 31.0568C46.7338 31.0568 46.7221 30.8465 46.8623 30.8231C53.1862 29.9001 59.4517 31.9098 65.4717 33.5923C71.4683 35.5319 77.348 37.8337 83.0991 40.4159C83.1576 40.4393 83.181 40.5094 83.1576 40.5678C83.1225 40.6263 83.0641 40.6496 83.0056 40.6263L82.9822 40.6379Z" fill="white"/>
<path d="M166.853 32.5524C176.181 25.6937 192.312 19.4777 203.943 21.3939C204.831 21.5809 205.708 21.9197 206.526 22.2118C206.655 22.2586 206.608 22.4689 206.468 22.4455C199.641 21.5458 192.803 23.7775 186.304 25.6587C179.735 27.6684 173.27 30.0753 166.946 32.7744C166.818 32.8328 166.713 32.6225 166.853 32.5524V32.5524Z" fill="white"/>
<path d="M168.197 38.5231C177.525 31.6644 193.657 25.4484 205.287 27.3646C206.176 27.5515 207.052 27.8904 207.871 28.1825C207.999 28.2292 207.953 28.4395 207.812 28.4162C200.986 27.5165 194.147 29.7482 187.648 31.6293C181.079 33.639 174.615 36.046 168.291 38.7451C168.162 38.8035 168.057 38.5932 168.197 38.5231V38.5231Z" fill="white"/>
<path d="M205.673 93.3457C205.673 137.337 166.923 151.72 123.918 151.72C80.9133 151.72 42.1633 137.337 42.1633 93.3457C42.1633 49.3544 98.1082 0 123.918 0C149.728 0 205.673 49.3544 205.673 93.3457Z" fill="#3D82A5"/>
<path d="M123.918 151.557C150.878 151.557 172.733 126.311 172.733 95.1685C172.733 64.0261 150.878 38.7802 123.918 38.7802C96.9587 38.7802 75.1037 64.0261 75.1037 95.1685C75.1037 126.311 96.9587 151.557 123.918 151.557Z" fill="#F1D0B8"/>
<path d="M124.444 47.2396C119.722 56.5052 87.1553 91.8969 76.2492 85.5757C73.5724 84.4073 85.2851 38.8035 124.444 38.009V47.2396V47.2396Z" fill="#956134"/>
<path d="M171.844 80.9838C173.235 79.8738 161.23 38.9203 124.456 38.009L100.703 50.1606C97.3718 70.7717 153.819 94.0351 171.844 80.9838Z" fill="#956134"/>
<path d="M123.556 47.9056C128.862 47.9056 133.164 43.6055 133.164 38.3011C133.164 32.9967 128.862 28.6966 123.556 28.6966C118.249 28.6966 113.947 32.9967 113.947 38.3011C113.947 43.6055 118.249 47.9056 123.556 47.9056Z" fill="#E29763"/>
<path d="M106.747 36.3498C113.674 36.3498 119.289 30.7367 119.289 23.8126C119.289 16.8884 113.674 11.2753 106.747 11.2753C99.8195 11.2753 94.204 16.8884 94.204 23.8126C94.204 30.7367 99.8195 36.3498 106.747 36.3498Z" fill="white"/>
<path d="M140.26 36.3498C147.187 36.3498 152.802 30.7367 152.802 23.8126C152.802 16.8884 147.187 11.2753 140.26 11.2753C133.333 11.2753 127.717 16.8884 127.717 23.8126C127.717 30.7367 133.333 36.3498 140.26 36.3498Z" fill="white"/>
<path d="M123.556 43.1267C126.209 43.1267 128.36 40.9767 128.36 38.3245C128.36 35.6723 126.209 33.5222 123.556 33.5222C120.902 33.5222 118.751 35.6723 118.751 38.3245C118.751 40.9767 120.902 43.1267 123.556 43.1267Z" fill="#EA823D"/>
<path d="M216.416 115.242C216.112 115.067 216.38 114.903 216.416 114.728C216.544 114.728 216.661 114.705 216.79 114.705C216.766 114.763 216.731 114.821 216.708 114.868C216.591 114.973 216.603 115.195 216.404 115.242H216.416Z" fill="#948C87"/>
<path d="M113.211 32.938C115.089 32.938 116.612 31.4157 116.612 29.5379C116.612 27.66 115.089 26.1378 113.211 26.1378C111.332 26.1378 109.809 27.66 109.809 29.5379C109.809 31.4157 111.332 32.938 113.211 32.938Z" fill="#231815"/>
<path d="M132.767 33.0665C134.646 33.0665 136.169 31.5442 136.169 29.6664C136.169 27.7886 134.646 26.2663 132.767 26.2663C130.888 26.2663 129.365 27.7886 129.365 29.6664C129.365 31.5442 130.888 33.0665 132.767 33.0665Z" fill="#231815"/>
<path d="M157.369 113.504C162.185 113.065 165.921 110.87 165.714 108.602C165.507 106.333 161.435 104.85 156.62 105.289C151.805 105.728 148.069 107.923 148.276 110.191C148.482 112.46 152.554 113.943 157.369 113.504Z" fill="#F0AD8F"/>
<path d="M157.583 97.6456C157.583 90.892 152.101 85.4238 145.345 85.4238C138.588 85.4238 133.106 90.892 133.106 97.6456" fill="#F08960"/>
<path d="M145.345 111.351C152.104 111.351 157.583 105.879 157.583 99.1295C157.583 92.3796 152.104 86.9077 145.345 86.9077C138.585 86.9077 133.106 92.3796 133.106 99.1295C133.106 105.879 138.585 111.351 145.345 111.351Z" fill="white"/>
<path d="M133.094 99.1295C132.521 92.411 138.565 86.1716 145.333 86.3235C152.183 86.1132 158.261 92.3292 157.864 99.1295L157.63 98.849C159.454 99.3164 161.827 98.8023 162.388 96.7342C162.049 98.9893 159.5 99.737 157.513 99.4216C157.373 99.3982 157.279 99.2814 157.279 99.1411C156.122 83.6828 134.439 83.7296 133.083 99.1411L133.094 99.1295Z" fill="#6A3906"/>
<path d="M145.345 111.188C150.406 111.188 154.509 106.752 154.509 101.279C154.509 95.8072 150.406 91.3711 145.345 91.3711C140.283 91.3711 136.18 95.8072 136.18 101.279C136.18 106.752 140.283 111.188 145.345 111.188Z" fill="#956134" stroke="#7F4F21" stroke-width="0.6" stroke-miterlimit="10"/>
<path opacity="0.65" d="M145.345 107.53C148.172 107.53 150.465 105.056 150.465 102.004C150.465 98.9515 148.172 96.4771 145.345 96.4771C142.517 96.4771 140.225 98.9515 140.225 102.004C140.225 105.056 142.517 107.53 145.345 107.53Z" fill="#604C3F"/>
<path opacity="0.55" d="M141.92 99.7838C143.805 99.7838 145.333 98.4132 145.333 96.7225C145.333 95.0318 143.805 93.6612 141.92 93.6612C140.035 93.6612 138.506 95.0318 138.506 96.7225C138.506 98.4132 140.035 99.7838 141.92 99.7838Z" fill="white"/>
<path d="M122.784 105.135C122.784 105.135 123.906 112.076 118.588 116.469C114.38 119.939 122.41 124.239 122.41 124.239" stroke="#E58E7A" stroke-width="1.02" stroke-linecap="round" stroke-linejoin="round"/>
<path d="M124.444 121.89C124.678 122.685 126.256 123.818 128.068 123.737" stroke="#E58E7A" stroke-width="0.51" stroke-linecap="round" stroke-linejoin="round"/>
<path d="M115.362 136.391C115.362 136.391 119.628 138.751 122.434 138.237" stroke="#E58E7A" stroke-width="1.02" stroke-linecap="round" stroke-linejoin="round"/>
<path d="M125.438 138.307C125.438 138.307 130.99 137.734 132.463 134.206" stroke="#E58E7A" stroke-width="1.02" stroke-linecap="round" stroke-linejoin="round"/>
<path d="M111.902 81.5096C107.202 80.4697 102.293 79.7219 97.4653 79.5349C93.8767 79.4648 90.066 79.4648 86.8398 81.1941C85.8111 81.79 84.8993 82.6897 84.5019 83.8815C86.0215 78.8105 92.9766 78.3081 97.4186 77.7472C102.468 77.3383 107.448 77.5019 112.509 77.9926C113.491 78.0978 114.204 78.9741 114.111 79.9556C114.006 81.0305 112.942 81.7783 111.902 81.5096Z" fill="#7F4F21"/>
<path d="M134.287 77.9809C140.926 77.4551 160.038 75.9128 162.294 83.8698C160.26 79.1961 153.656 79.5583 149.331 79.5232C144.491 79.7102 139.57 80.4697 134.871 81.5096C132.416 81.9886 131.797 78.3197 134.287 77.9809V77.9809Z" fill="#7F4F21"/>
<path d="M157.607 96.2201C158.799 96.407 160.26 95.9981 160.903 94.8647C161.149 94.5025 161.265 94.0702 161.382 93.6378C161.324 94.0819 161.254 94.5375 161.055 94.9465C160.482 96.2902 158.939 96.9211 157.537 96.8861C157.35 96.8861 157.209 96.7225 157.209 96.5356C157.209 96.3252 157.408 96.1733 157.618 96.2084L157.607 96.2201Z" fill="#6A3906"/>
<path d="M156.566 94.1052C158.098 94.1403 159.5 92.9251 159.465 91.336C159.711 93.077 158.285 94.5258 156.601 94.6894C156.192 94.7478 156.157 94.0818 156.578 94.1052H156.566Z" fill="#6A3906"/>
<path d="M101.172 109.807C101.419 107.38 97.4375 104.988 92.28 104.464C87.1225 103.941 82.7417 105.484 82.495 107.91C82.2484 110.337 86.2295 112.729 91.387 113.253C96.5445 113.776 100.925 112.233 101.172 109.807Z" fill="#F0AD8F"/>
<path d="M113.795 97.2833C113.795 90.5298 108.313 85.0616 101.557 85.0616C94.8001 85.0616 89.3179 90.5298 89.3179 97.2833" fill="#F08960"/>
<path d="M101.545 111.304C108.304 111.304 113.784 105.833 113.784 99.0827C113.784 92.3328 108.304 86.861 101.545 86.861C94.7856 86.861 89.3062 92.3328 89.3062 99.0827C89.3062 105.833 94.7856 111.304 101.545 111.304Z" fill="white"/>
<path d="M113.795 99.0827C112.428 83.6828 90.744 83.6361 89.5634 99.0827C89.5634 99.1996 89.4932 99.3047 89.388 99.3281C87.81 99.702 85.5656 99.737 84.7941 98.0311C85.7176 99.5501 87.7866 99.3164 89.2361 98.849L89.0607 99.0944C88.9321 95.8228 90.1712 92.4577 92.5324 90.0741C100.282 81.9769 114.485 87.8191 113.807 99.0944L113.795 99.0827Z" fill="#6A3906"/>
<path d="M101.545 111.141C106.606 111.141 110.709 106.705 110.709 101.233C110.709 95.7605 106.606 91.3244 101.545 91.3244C96.4835 91.3244 92.3805 95.7605 92.3805 101.233C92.3805 106.705 96.4835 111.141 101.545 111.141Z" fill="#956134" stroke="#7F4F21" stroke-width="0.6" stroke-miterlimit="10"/>
<path opacity="0.65" d="M101.545 107.484C104.373 107.484 106.665 105.009 106.665 101.957C106.665 98.9048 104.373 96.4304 101.545 96.4304C98.7172 96.4304 96.425 98.9048 96.425 101.957C96.425 105.009 98.7172 107.484 101.545 107.484Z" fill="#604C3F"/>
<path opacity="0.55" d="M105.472 99.737C107.358 99.737 108.886 98.3664 108.886 96.6757C108.886 94.985 107.358 93.6145 105.472 93.6145C103.587 93.6145 102.059 94.985 102.059 96.6757C102.059 98.3664 103.587 99.737 105.472 99.737Z" fill="white"/>
<path d="M89.353 96.7342C87.4125 96.851 85.5539 95.484 85.4955 93.486C85.6825 94.3389 86.1033 95.1685 86.8631 95.6242C87.5762 96.0799 88.4996 96.185 89.2945 96.0682C89.7504 95.9981 89.8088 96.7342 89.353 96.7342V96.7342Z" fill="#6A3906"/>
<path d="M90.2881 94.5375C88.5931 94.3623 87.1787 92.9134 87.4242 91.1841C87.4593 91.5697 87.506 91.967 87.658 92.3175C88.0554 93.3925 89.2594 93.9416 90.3231 93.9533C90.744 93.93 90.7089 94.596 90.2998 94.5375H90.2881Z" fill="#6A3906"/>
<path d="M91.8646 33.0945C93.1504 25.2031 82.0488 16.829 67.0685 14.3904C52.0882 11.9517 38.902 16.372 37.6163 24.2634C36.3306 32.1548 47.4322 40.5289 62.4124 42.9675C77.3927 45.4062 90.5789 40.9859 91.8646 33.0945Z" fill="#F0D88A"/>
<path d="M190.418 41.7049C206.482 37.7964 217.84 27.7916 215.787 19.3585C213.733 10.9253 199.046 7.25733 182.982 11.1658C166.917 15.0742 155.559 25.0791 157.613 33.5122C159.666 41.9453 174.354 45.6133 190.418 41.7049Z" fill="#F0D88A"/>
<path d="M164.597 26.5817C173.925 19.7231 190.056 13.507 201.687 15.4232C202.575 15.6102 203.452 15.949 204.27 16.2411C204.399 16.2879 204.352 16.4982 204.212 16.4748C197.385 15.5751 190.547 17.8068 184.048 19.688C177.478 21.6977 171.014 24.1047 164.69 26.8037C164.562 26.8622 164.457 26.6518 164.597 26.5817V26.5817Z" fill="white"/>
<path d="M86.2786 29.5846C80.0482 28.5798 74.0166 26.6518 68.0433 24.8174C62.0818 23.018 56.4125 20.763 50.1587 20.0035C50.0301 20.0035 50.0185 19.7932 50.1587 19.7698C56.4826 18.8467 62.7481 20.8564 68.7681 22.539C74.7647 24.4786 80.6444 26.7804 86.3955 29.3626C86.454 29.386 86.4774 29.4561 86.454 29.5145C86.4189 29.5729 86.3605 29.5963 86.302 29.5729L86.2786 29.5846Z" fill="white"/>
<path d="M84.2213 35.1113C77.9909 34.1064 71.9593 32.1785 65.986 30.3441C60.0245 28.5447 54.3552 26.2896 48.1014 25.5302C47.9728 25.5302 47.9611 25.3198 48.1014 25.2965C54.4253 24.3734 60.6908 26.3831 66.7108 28.0657C72.7074 30.0052 78.5871 32.307 84.3382 34.8893C84.3967 34.9126 84.42 34.9827 84.3967 35.0412C84.3616 35.0996 84.3031 35.123 84.2447 35.0996L84.2213 35.1113Z" fill="white"/>
<path d="M82.9822 40.6379C76.7519 39.6331 70.7202 37.7052 64.747 35.8708C58.7854 34.0714 53.1161 31.8163 46.8623 31.0568C46.7338 31.0568 46.7221 30.8465 46.8623 30.8231C53.1862 29.9001 59.4517 31.9098 65.4717 33.5923C71.4683 35.5319 77.348 37.8337 83.0991 40.4159C83.1576 40.4393 83.181 40.5094 83.1576 40.5678C83.1225 40.6263 83.0641 40.6496 83.0056 40.6263L82.9822 40.6379Z" fill="white"/>
<path d="M166.853 32.5524C176.181 25.6937 192.312 19.4777 203.943 21.3939C204.831 21.5809 205.708 21.9197 206.526 22.2118C206.655 22.2586 206.608 22.4689 206.468 22.4455C199.641 21.5458 192.803 23.7775 186.304 25.6587C179.735 27.6684 173.27 30.0753 166.946 32.7744C166.818 32.8328 166.713 32.6225 166.853 32.5524V32.5524Z" fill="white"/>
<path d="M168.197 38.5231C177.525 31.6644 193.657 25.4484 205.287 27.3646C206.176 27.5515 207.052 27.8904 207.871 28.1825C207.999 28.2292 207.953 28.4395 207.812 28.4162C200.986 27.5165 194.147 29.7482 187.648 31.6293C181.079 33.639 174.615 36.046 168.291 38.7451C168.162 38.8035 168.057 38.5932 168.197 38.5231V38.5231Z" fill="white"/>
<path d="M205.673 93.0186C205.673 138.12 166.923 152.865 123.918 152.865C80.9133 152.865 42.1633 138.12 42.1633 93.0186" fill="#7FBFD8"/>
<path d="M97.3134 134.124L57.8152 158.287L60.6557 162.844L67.1316 162.003L65.8224 166.232L72.9178 176.608L77.3481 173.079L76.8688 180.137L81.8952 187.673L106.279 141.368" fill="#956134"/>
<path d="M148.571 138.19L188.069 162.341L185.229 166.898L168.373 159.35L180.062 170.287L172.966 180.674L160.751 166.127L169.027 184.203L164.001 191.727L139.605 145.423" fill="#956134"/>
<path d="M172.733 95.1685C172.733 126.307 150.874 151.557 123.918 151.557C105.706 151.557 89.8205 140.036 81.4276 122.965C77.3948 114.763 75.092 105.275 75.092 95.1685C75.092 64.0299 96.951 38.7802 123.906 38.7802C150.862 38.7802 172.721 64.0299 172.721 95.1685H172.733Z" fill="#F8DFD3"/>
<path d="M124.444 47.2396C119.722 56.5052 87.1553 91.8969 76.2492 85.5757C73.5724 84.4073 85.2851 38.8035 124.444 38.009V47.2396V47.2396Z" fill="#956134"/>
<path d="M171.844 80.9838C173.235 79.8738 161.23 38.9203 124.456 38.009L100.703 50.1606C97.3718 70.7717 153.819 94.0351 171.844 80.9838Z" fill="#956134"/>
<path d="M123.556 47.9056C128.862 47.9056 133.164 43.6055 133.164 38.3011C133.164 32.9967 128.862 28.6966 123.556 28.6966C118.249 28.6966 113.947 32.9967 113.947 38.3011C113.947 43.6055 118.249 47.9056 123.556 47.9056Z" fill="#E29763"/>
<path d="M106.747 36.3498C113.674 36.3498 119.289 30.7367 119.289 23.8126C119.289 16.8884 113.674 11.2753 106.747 11.2753C99.8195 11.2753 94.204 16.8884 94.204 23.8126C94.204 30.7367 99.8195 36.3498 106.747 36.3498Z" fill="white"/>
<path d="M140.26 36.3498C147.187 36.3498 152.802 30.7367 152.802 23.8126C152.802 16.8884 147.187 11.2753 140.26 11.2753C133.333 11.2753 127.717 16.8884 127.717 23.8126C127.717 30.7367 133.333 36.3498 140.26 36.3498Z" fill="white"/>
<path d="M123.556 43.1267C126.209 43.1267 128.36 40.9767 128.36 38.3245C128.36 35.6723 126.209 33.5222 123.556 33.5222C120.902 33.5222 118.751 35.6723 118.751 38.3245C118.751 40.9767 120.902 43.1267 123.556 43.1267Z" fill="#EA823D"/>
<path d="M100.095 115.464C100.095 119.519 95.8872 122.814 90.7089 122.814C85.5305 122.814 81.3224 119.519 81.3224 115.464C81.3224 111.41 85.5305 108.115 90.7089 108.115C95.8872 108.115 100.095 111.41 100.095 115.464Z" fill="#F5C1BA"/>
<path d="M165.976 115.417C165.976 119.472 161.768 122.767 156.59 122.767C151.411 122.767 147.203 119.472 147.203 115.417C147.203 111.363 151.411 108.068 156.59 108.068C161.768 108.068 165.976 111.363 165.976 115.417Z" fill="#F5C1BA"/>
<path d="M113.211 32.938C115.089 32.938 116.612 31.4157 116.612 29.5379C116.612 27.66 115.089 26.1378 113.211 26.1378C111.332 26.1378 109.809 27.66 109.809 29.5379C109.809 31.4157 111.332 32.938 113.211 32.938Z" fill="#231815"/>
<path d="M132.767 33.0665C134.646 33.0665 136.169 31.5442 136.169 29.6664C136.169 27.7886 134.646 26.2663 132.767 26.2663C130.888 26.2663 129.365 27.7886 129.365 29.6664C129.365 31.5442 130.888 33.0665 132.767 33.0665Z" fill="#231815"/>
<path d="M133.118 79.6284C139.652 78.3548 158.472 74.6743 161.604 82.3275C159.056 77.9108 152.534 79.0091 148.232 79.4765C143.451 80.2126 138.647 81.5096 134.088 83.0753C131.703 83.8231 130.675 80.2594 133.106 79.6284H133.118Z" fill="#7F4F21"/>
<path d="M111.738 82.6546C107.144 81.2291 102.316 80.0724 97.5238 79.4765C93.9585 79.1143 90.1478 78.7871 86.793 80.2477C85.7176 80.7501 84.7357 81.5797 84.2447 82.7247C85.0045 80.2126 87.7398 79.0208 90.1011 78.4483C95.0456 77.3266 100.154 77.6421 105.145 78.1094C107.647 78.3782 110.113 78.717 112.638 79.1961C113.608 79.383 114.251 80.3178 114.064 81.2876C113.877 82.3508 112.755 83.0051 111.738 82.6546V82.6546Z" fill="#7F4F21"/>
<path d="M159.126 99.4917C159.126 92.0254 152.709 85.9846 144.795 85.9846C136.882 85.9846 130.464 92.0371 130.464 99.4917" fill="#E6777D"/>
<path d="M144.795 114.646C152.71 114.646 159.126 108.599 159.126 101.139C159.126 93.6794 152.71 87.6321 144.795 87.6321C136.88 87.6321 130.464 93.6794 130.464 101.139C130.464 108.599 136.88 114.646 144.795 114.646Z" fill="white"/>
<path d="M130.452 101.139C129.833 88.3565 146.385 82.456 155.187 90.9972C157.992 93.5794 159.582 97.4002 159.454 101.139L159.185 100.824C161.277 101.314 164.048 100.859 164.761 98.4868C164.305 101.069 161.312 101.793 159.056 101.466C158.893 101.443 158.787 101.303 158.787 101.151C157.455 84.0918 132.019 84.1151 130.441 101.151L130.452 101.139Z" fill="#6A3906"/>
<path d="M144.795 114.459C150.722 114.459 155.526 109.558 155.526 103.511C155.526 97.4645 150.722 92.5629 144.795 92.5629C138.869 92.5629 134.064 97.4645 134.064 103.511C134.064 109.558 138.869 114.459 144.795 114.459Z" fill="#956134" stroke="#7F4F21" stroke-width="0.68" stroke-miterlimit="10"/>
<path opacity="0.65" d="M144.795 110.428C148.101 110.428 150.78 107.692 150.78 104.317C150.78 100.942 148.101 98.2064 144.795 98.2064C141.49 98.2064 138.81 100.942 138.81 104.317C138.81 107.692 141.49 110.428 144.795 110.428Z" fill="#604C3F"/>
<path opacity="0.55" d="M140.786 101.852C142.994 101.852 144.784 100.34 144.784 98.4751C144.784 96.6102 142.994 95.0984 140.786 95.0984C138.578 95.0984 136.788 96.6102 136.788 98.4751C136.788 100.34 138.578 101.852 140.786 101.852Z" fill="white"/>
<path d="M159.419 98.1363C160.798 98.3349 162.469 97.9493 163.264 96.6874C163.557 96.2785 163.709 95.7877 163.837 95.297C163.732 96.3252 163.299 97.3768 162.411 97.9961C161.523 98.6387 160.447 98.9074 159.337 98.8958C159.126 98.8958 158.963 98.7205 158.963 98.4985C158.963 98.2648 159.196 98.0895 159.419 98.1363Z" fill="#6A3906"/>
<path d="M158.203 95.7877C159.921 95.8345 161.628 94.5726 161.593 92.7381C161.604 93.1821 161.616 93.6378 161.464 94.0818C161.067 95.4839 159.617 96.2785 158.238 96.4654C158.051 96.4888 157.887 96.3603 157.864 96.1733C157.84 95.963 158.004 95.7877 158.215 95.7877H158.203Z" fill="#6A3906"/>
<path d="M115.116 99.3515C115.116 92.0838 108.862 86.1949 101.159 86.1949C93.4559 86.1949 87.2021 92.0838 87.2021 99.3515" fill="#E6777D"/>
<path d="M101.159 114.436C108.867 114.436 115.116 108.546 115.116 101.279C115.116 94.0132 108.867 88.1229 101.159 88.1229C93.4509 88.1229 87.2021 94.0132 87.2021 101.279C87.2021 108.546 93.4509 114.436 101.159 114.436Z" fill="white"/>
<path d="M115.116 101.279C114.099 87.4568 94.8352 84.1852 88.7451 96.3018C87.9736 97.8442 87.5762 99.5618 87.4826 101.314C87.4826 101.431 87.3891 101.525 87.2839 101.548C85.4955 101.922 82.994 102.015 82.0588 100.146C83.1459 101.793 85.4838 101.513 87.1203 101.011L86.9216 101.279C86.7579 97.6455 88.3243 93.9299 91.0362 91.4061C99.5811 83.0869 115.724 88.8122 115.116 101.279V101.279Z" fill="#6A3906"/>
<path d="M101.159 114.261C106.931 114.261 111.609 109.485 111.609 103.593C111.609 97.7012 106.931 92.9251 101.159 92.9251C95.3876 92.9251 90.7089 97.7012 90.7089 103.593C90.7089 109.485 95.3876 114.261 101.159 114.261Z" fill="#956134" stroke="#7F4F21" stroke-width="0.66" stroke-miterlimit="10"/>
<path opacity="0.65" d="M101.159 110.335C104.381 110.335 106.992 107.672 106.992 104.387C106.992 101.103 104.381 98.4401 101.159 98.4401C97.9377 98.4401 95.3262 101.103 95.3262 104.387C95.3262 107.672 97.9377 110.335 101.159 110.335Z" fill="#604C3F"/>
<path opacity="0.55" d="M105.624 101.98C107.774 101.98 109.517 100.51 109.517 98.6971C109.517 96.8838 107.774 95.4138 105.624 95.4138C103.475 95.4138 101.732 96.8838 101.732 98.6971C101.732 100.51 103.475 101.98 105.624 101.98Z" fill="white"/>
<path d="M87.2489 98.7672C85.1331 98.8724 82.9472 97.4937 82.8654 95.262C83.1342 96.7225 84.3032 97.8676 85.7877 98.0195C86.2553 98.0896 86.7579 98.0896 87.1904 98.0195C87.7047 97.9493 87.7749 98.7439 87.2606 98.7672H87.2489Z" fill="#6A3906"/>
<path d="M88.3243 96.3953C86.4774 96.2084 84.7824 94.7128 85.0513 92.7732C85.0162 94.5609 86.6761 95.7877 88.3477 95.741C88.8152 95.741 88.7802 96.4421 88.3243 96.3953V96.3953Z" fill="#6A3906"/>
<path d="M128.535 235.73C128.535 235.73 152.908 215.984 152.206 212.853L151.657 211.345C148.922 203.914 148.127 195.91 149.342 188.082L149.623 186.259C149.623 186.259 165.988 205.398 177.841 204.837C177.841 204.837 188.618 203.458 206.772 199.088L212.231 197.172C216.708 200.479 224.563 198.341 226.094 197.394C229.379 197.523 235.679 198.2 236.077 196.553C236.451 194.987 226.877 194.602 226.877 194.602C226.877 194.602 238.064 192.919 238.041 190.98C238.006 188.409 226.048 189.776 226.048 189.776C226.048 189.776 238.275 187.696 238.029 185.546C237.725 182.894 224.154 186.061 224.154 186.061C230.606 183.397 235.504 181.831 235.259 180.697C234.464 177.169 219.022 183.63 218.087 183.887C220.028 180.499 219.864 178.337 219.233 177.029C218.695 175.93 217.175 175.802 216.439 176.783L208.864 186.843C207.099 188.619 177.876 189.835 177.876 189.835L151.294 164.234C151.294 164.234 144.585 155.857 137.104 156.102C131.142 156.301 138.109 145.528 138.109 145.528L108.874 146.252C108.874 146.252 108.897 146.369 108.991 146.568C113.059 155.553 106.232 156.184 101.124 158.03C96.0977 159.853 84.8526 174.516 75.9336 190.804L67.6459 165.742L68.2772 163.019C68.2772 163.019 69.4928 147.117 60.7493 143.109C60.7493 143.109 49.5743 134.848 45.448 139.709C45.448 139.709 43.6712 141.006 44.279 144.406C44.279 144.406 42.21 143.705 42.2919 147C42.2919 147 40.4683 148.215 40.4683 152.468C40.4683 152.468 40.4683 155.144 41.8009 155.751C41.8009 155.751 38.6448 157.212 42.0464 161.22C42.0464 161.22 42.4555 162.785 45.5415 162.493C45.5415 162.493 48.5106 163.615 51.0355 166.583C53.4902 169.469 52.029 168.476 56.2255 170.205L64.8405 200.713C64.8405 200.713 66.5238 210.013 75.1505 209.967C75.1505 209.967 80.1418 208.845 87.471 199.065L98.4355 185.897C99.3707 184.775 101.206 185.348 101.323 186.808L105.718 201.986C106.232 205.947 102.983 214.43 99.4525 216.323L128.594 235.707L128.535 235.73Z" fill="#F8DFD3"/>
<path d="M101.405 217.69C101.405 217.69 98.6225 222.107 98.2485 239.586C98.003 251.2 105.461 266.974 124.444 270.222C127.939 270.818 132.042 275.434 130.149 281.159C128.477 286.23 121.989 313.139 88.3827 306.654C88.3827 306.654 89.1659 320.582 89.9842 321.318C90.8024 322.054 121.744 326.622 138.506 313.209C172.779 285.774 165.462 245.756 161.838 229.444C157.981 212.07 152.545 210.878 151.189 209.371C151.189 209.371 141.242 221.99 130.569 232.728C130.569 232.728 119.254 222.901 111.352 221.16C111.352 221.16 104.748 220.681 101.393 217.69H101.405Z" fill="#41A381"/>
<path d="M104.572 208.67C104.537 207.653 104.175 206.648 102.62 207.98C102.62 207.98 98.9966 212.467 99.359 221.324C99.359 221.324 99.8733 228.486 106.057 227.657C106.057 227.657 122.995 226.488 128.103 232.938C128.103 232.938 130.897 237.109 132.896 230.648C132.896 230.648 149.12 211.158 153.878 211.626C153.878 211.626 155.012 206.333 150.394 202.021C150.394 202.021 148.828 202.512 149.588 205.363C149.588 205.363 139.056 211.439 134.848 221.849C133.959 224.034 133.679 225.553 132.171 229.304C132.171 229.327 132.159 229.351 132.147 229.362C131.236 231.559 129.4 231.582 128.208 229.526C125.87 225.495 120.704 217.772 114.239 215.33C114.239 215.33 107.892 212.198 105.402 210.679C104.923 210.387 104.607 209.569 104.572 208.67Z" fill="#A4D6C5"/>
<path d="M90.5686 307.671C90.5686 307.671 75.5829 298.405 62.5494 297.342C62.5494 297.342 53.8642 295.788 47.704 304.749C46.0908 307.11 45.0037 309.785 44.4076 312.578C43.2854 317.801 39.6384 330.864 29.9479 338.459C29.9479 338.459 38.3525 345.528 56.1086 332.675L63.0169 327.499C64.8054 326.155 65.9977 326.178 65.8107 328.948C65.7055 330.513 64.9574 331.95 63.8118 333.025C61.2752 335.409 59.1127 338.307 57.5814 341.73C54.5656 348.46 51.9822 358.287 57.2074 366.361C58.6919 368.651 60.831 370.427 63.2624 371.642C68.4525 374.248 80.0833 380.756 82.5497 388C82.5497 388 84.5252 384.869 82.1523 376.877C82.1523 376.877 72.7424 353.263 78.0377 340.924C78.4234 340.024 78.7975 339.136 79.078 338.202C80.3638 333.972 84.9811 321.68 95.0222 322.545C95.0222 322.545 86.9917 315.826 90.5569 307.694L90.5686 307.671Z" fill="#7ECAC9"/>
<path d="M129.669 184.623C129.669 184.623 115.256 167.95 101.884 173.675C99.7564 174.587 98.2251 176.573 98.1316 178.875C98.0965 179.739 98.2485 180.662 98.7511 181.539C98.7511 181.539 98.9031 183.385 97.7225 184.986C96.6938 186.388 96.2029 188.129 96.5886 189.823C96.9744 191.517 97.9212 193.176 100.224 193.655C100.224 193.655 98.833 197.523 101.931 199.135C105.028 200.748 108.477 201.963 113.339 200.701C113.339 200.701 123.942 196.646 127.46 192.066C127.46 192.066 130.184 186.937 129.669 184.612V184.623Z" fill="#D55657"/>
<path d="M111.305 234.749C111.013 237.682 108.161 239.785 104.935 239.458C101.708 239.131 99.3473 236.49 99.6395 233.569" stroke="#66BFA0" stroke-width="0.84" stroke-linecap="round" stroke-linejoin="round"/>
<path d="M122.679 235.906C122.387 238.838 119.535 240.942 116.308 240.614C113.082 240.287 110.721 237.647 111.013 234.726" stroke="#66BFA0" stroke-width="0.84" stroke-linecap="round" stroke-linejoin="round"/>
<path d="M117.676 243.968C117.384 246.901 114.532 249.004 111.305 248.677C108.079 248.349 105.718 245.709 106.01 242.788" stroke="#66BFA0" stroke-width="0.84" stroke-linecap="round" stroke-linejoin="round"/>
<path d="M129.05 245.125C128.758 248.057 125.905 250.161 122.679 249.833C119.453 249.506 117.092 246.866 117.384 243.944" stroke="#66BFA0" stroke-width="0.84" stroke-linecap="round" stroke-linejoin="round"/>
<path d="M114.672 252.532C114.38 255.465 111.528 257.568 108.301 257.241C105.075 256.914 102.714 254.273 103.006 251.352" stroke="#66BFA0" stroke-width="0.84" stroke-linecap="round" stroke-linejoin="round"/>
<path d="M126.046 253.677C125.753 256.61 122.901 258.713 119.675 258.386C117.419 258.153 114.099 255.325 114.38 252.497" stroke="#66BFA0" stroke-width="0.84" stroke-linecap="round" stroke-linejoin="round"/>
<path d="M124.444 261.938C124.152 264.871 121.3 266.974 118.074 266.647C114.847 266.32 112.486 263.679 112.778 260.758" stroke="#66BFA0" stroke-width="0.84" stroke-linecap="round" stroke-linejoin="round"/>
<path d="M136.274 261.938C135.982 264.871 133.129 266.974 129.903 266.647C126.677 266.32 124.316 263.679 124.608 260.758" stroke="#66BFA0" stroke-width="0.84" stroke-linecap="round" stroke-linejoin="round"/>
<path d="M140.377 237.705C140.084 240.638 137.232 242.741 134.006 242.414C130.78 242.087 128.419 239.446 128.711 236.525" stroke="#66BFA0" stroke-width="0.84" stroke-linecap="round" stroke-linejoin="round"/>
<path d="M151.739 238.85C151.446 241.783 148.594 243.886 145.368 243.559C142.142 243.232 139.781 240.591 140.073 237.67" stroke="#66BFA0" stroke-width="0.84" stroke-linecap="round" stroke-linejoin="round"/>
<path d="M147.192 246.959C146.899 249.892 144.047 251.995 140.821 251.668C137.595 251.341 135.233 248.7 135.526 245.779" stroke="#66BFA0" stroke-width="0.84" stroke-linecap="round" stroke-linejoin="round"/>
<path d="M159.617 248.221C159.325 251.154 156.473 253.257 153.247 252.93C150.02 252.603 147.659 249.962 147.951 247.041" stroke="#66BFA0" stroke-width="0.84" stroke-linecap="round" stroke-linejoin="round"/>
<path d="M141.955 254.612C141.663 257.545 138.81 259.648 135.584 259.321C132.358 258.994 129.997 256.353 130.289 253.432" stroke="#66BFA0" stroke-width="0.84" stroke-linecap="round" stroke-linejoin="round"/>
<path d="M154.31 256.178C154.018 259.111 151.166 261.214 147.94 260.887C144.713 260.56 142.352 257.919 142.644 254.998" stroke="#66BFA0" stroke-width="0.84" stroke-linecap="round" stroke-linejoin="round"/>
<path d="M158.39 229.935C158.098 232.868 155.245 234.971 152.019 234.644C148.793 234.317 146.432 231.676 146.724 228.755" stroke="#66BFA0" stroke-width="0.84" stroke-linecap="round" stroke-linejoin="round"/>
<path d="M104.759 313.115C104.467 316.048 101.615 318.151 98.3888 317.824C95.1625 317.497 92.8013 314.856 93.0935 311.935" stroke="#66BFA0" stroke-width="0.84" stroke-linecap="round" stroke-linejoin="round"/>
<path d="M161.184 240.416C160.95 242.683 158.752 244.307 156.262 244.061C153.773 243.816 151.937 241.771 152.171 239.504" stroke="#66BFA0" stroke-width="0.65" stroke-linecap="round" stroke-linejoin="round"/>
<path d="M151.984 223.24C151.75 225.507 149.553 227.131 147.063 226.885C144.573 226.64 142.738 224.595 142.972 222.329" stroke="#66BFA0" stroke-width="0.65" stroke-linecap="round" stroke-linejoin="round"/>
<path d="M150.827 265.444C150.944 268.388 148.419 270.877 145.181 271.005C141.943 271.134 139.231 268.855 139.114 265.911" stroke="#66BFA0" stroke-width="0.84" stroke-linecap="round" stroke-linejoin="round"/>
<path d="M162.236 264.988C162.353 267.932 159.828 270.421 156.59 270.55C153.352 270.678 150.64 268.4 150.523 265.455" stroke="#66BFA0" stroke-width="0.84" stroke-linecap="round" stroke-linejoin="round"/>
<path d="M145.567 273.471C145.275 276.403 142.422 278.507 139.196 278.179C135.97 277.852 133.609 275.212 133.901 272.291" stroke="#66BFA0" stroke-width="0.84" stroke-linecap="round" stroke-linejoin="round"/>
<path d="M156.94 274.627C156.648 277.56 153.796 279.663 150.57 279.336C147.344 279.009 144.982 276.368 145.275 273.447" stroke="#66BFA0" stroke-width="0.84" stroke-linecap="round" stroke-linejoin="round"/>
<path d="M148.489 282.327C148.197 285.26 145.345 287.363 142.118 287.036C138.892 286.709 136.531 284.068 136.823 281.147" stroke="#66BFA0" stroke-width="0.84" stroke-linecap="round" stroke-linejoin="round"/>
<path d="M159.851 283.484C159.559 286.417 156.707 288.52 153.48 288.193C150.254 287.866 147.893 285.225 148.185 282.304" stroke="#66BFA0" stroke-width="0.84" stroke-linecap="round" stroke-linejoin="round"/>
<path d="M141.37 290.179C141.078 293.112 138.226 295.215 135 294.888C131.773 294.561 129.412 291.92 129.704 288.999" stroke="#66BFA0" stroke-width="0.84" stroke-linecap="round" stroke-linejoin="round"/>
<path d="M152.732 291.336C152.44 294.269 149.588 296.372 146.362 296.045C143.135 295.717 140.774 293.077 141.066 290.156" stroke="#66BFA0" stroke-width="0.84" stroke-linecap="round" stroke-linejoin="round"/>
<path d="M138.167 298.417C137.875 301.349 135.023 303.452 131.797 303.125C128.57 302.798 126.209 300.158 126.501 297.236" stroke="#66BFA0" stroke-width="0.84" stroke-linecap="round" stroke-linejoin="round"/>
<path d="M149.529 299.573C149.237 302.506 146.385 304.609 143.159 304.282C139.932 303.955 137.571 301.314 137.863 298.393" stroke="#66BFA0" stroke-width="0.84" stroke-linecap="round" stroke-linejoin="round"/>
<path d="M128.769 305.848C128.477 308.781 125.625 310.884 122.399 310.557C119.172 310.229 116.811 307.589 117.103 304.668" stroke="#66BFA0" stroke-width="0.84" stroke-linecap="round" stroke-linejoin="round"/>
<path d="M140.131 306.993C139.839 309.926 136.987 312.029 133.761 311.702C130.534 311.374 128.173 308.734 128.465 305.813" stroke="#66BFA0" stroke-width="0.84" stroke-linecap="round" stroke-linejoin="round"/>
<path d="M116.542 311.632C116.25 314.564 113.398 316.667 110.172 316.34C106.945 316.013 104.584 313.372 104.876 310.451" stroke="#66BFA0" stroke-width="0.84" stroke-linecap="round" stroke-linejoin="round"/>
<path d="M127.916 312.788C127.624 315.721 124.772 317.824 121.545 317.497C118.319 317.17 115.958 314.529 116.25 311.608" stroke="#66BFA0" stroke-width="0.84" stroke-linecap="round" stroke-linejoin="round"/>
<path d="M87.0852 312.251C87.0852 312.251 75.8518 316.854 65.4133 337.068C54.3786 358.45 64.7587 369.247 64.7587 369.247" stroke="#BADFD0" stroke-width="0.99" stroke-linecap="round" stroke-linejoin="round"/>
<path d="M81.2639 383.151C81.299 382.193 79.3235 380.58 78.026 378.466C74.5426 372.752 72.0878 365.975 70.8838 358.427C66.6523 331.986 87.0969 312.251 87.0969 312.251" stroke="#BADFD0" stroke-width="0.99" stroke-linecap="round" stroke-linejoin="round"/>
<path d="M41.9645 332.359C57.8737 317.812 87.0852 312.251 87.0852 312.251C87.0852 312.251 70.6617 298.884 48.6976 317.812" stroke="#BADFD0" stroke-width="0.99" stroke-linecap="round" stroke-linejoin="round"/>
<g opacity="0.57">
<path d="M103.883 182.836C107.951 182.789 112.018 182.976 116.063 183.467C119.967 184.004 124.573 184.623 127.565 187.252C120.33 183.618 111.715 183.432 103.883 182.824V182.836Z" fill="#EFEFEF"/>
</g>
<g opacity="0.57">
<path d="M105.636 192.908C109.108 191.424 112.685 190.162 116.355 189.204C119.897 188.339 124.199 187.252 127.577 188.806C123.883 188.047 120.119 188.97 116.472 189.659C112.825 190.442 109.096 191.798 105.648 192.908H105.636Z" fill="#EFEFEF"/>
</g>
<path d="M127.647 183.805C127.647 183.805 133.141 170.462 141.896 168.113C141.896 168.113 146.63 166.852 147.683 173.079C147.683 173.079 147.928 174.248 149.062 175.241C150.909 176.865 151.961 179.249 151.844 181.702C151.821 182.251 151.739 182.801 151.563 183.338C151.563 183.338 154.193 188.14 150.149 192.16C150.149 192.16 147.531 193.562 143.17 193.971C138.319 194.426 133.457 192.674 130.242 189.028C128.968 187.58 127.939 185.827 127.647 183.805V183.805Z" fill="#D55657"/>
<g opacity="0.57">
<path d="M129.775 186.259C134.181 181.106 139.991 175.767 147.075 175.311C140.166 176.596 134.789 181.656 129.775 186.259Z" fill="#EFEFEF"/>
</g>
<g opacity="0.57">
<path d="M130.429 187.626C133.422 186.025 136.589 184.81 139.839 183.841C143.065 183.011 146.595 182.135 149.892 183.093C143.159 182.497 136.706 185.546 130.429 187.615V187.626Z" fill="#EFEFEF"/>
</g>
<path opacity="0.61" d="M120.505 114.915C121.043 113.338 122.258 113.618 123.334 114.039C124.409 114.459 125.636 114.856 125.181 116.586C124.923 117.532 124.584 118.432 124.269 119.343C123.345 119.904 122.539 120.734 121.323 120.664C120.435 119.343 120.61 117.848 120.622 116.387C120.622 115.896 120.926 115.382 120.505 114.927V114.915Z" fill="#E6777D"/>
<path d="M39.0773 175.089C39.0773 175.089 34.5769 171.49 31.4676 179.284C28.3582 187.089 24.3371 180.522 24.3371 180.522C24.3371 180.522 26.3827 189.554 32.9872 187.486C39.5916 185.418 41.836 178.805 41.836 178.805C41.836 178.805 38.1188 176.491 39.0773 175.077V175.089Z" fill="#956134" stroke="#C9A063" stroke-width="0.56" stroke-linecap="round" stroke-linejoin="round"/>
<path opacity="0.39" d="M128.793 210.808C128.945 209.16 129.634 209.254 130.265 209.487C130.897 209.733 131.598 209.92 131.505 211.708C131.446 212.677 131.341 213.624 131.247 214.57C130.791 215.283 130.417 216.218 129.751 216.346C129.143 215.189 129.108 213.682 128.98 212.233C128.933 211.743 129.05 211.193 128.793 210.808V210.808Z" fill="#F5C1BA"/>
<path d="M114.076 130.432C117.547 130.899 126.677 131.927 131.528 130.49C133.118 130.023 134.965 130.034 136.449 130.642C138.214 131.355 139.769 132.71 138.46 135.211C137.571 136.916 135.713 138.342 133.328 139.23C131.481 139.919 128.851 140.562 126.139 140.912C124.444 141.134 122.691 141.111 120.984 140.901C119.09 140.655 116.367 140.223 113.725 139.452C110.616 138.541 108.395 136.648 108.067 134.416C107.892 133.224 108.219 131.974 109.798 131.109C110.978 130.467 112.568 130.233 114.076 130.443V130.432Z" fill="#963F3D"/>
<path d="M113.316 136.566C113.316 136.566 112.1 136.134 111.866 136.683C111.633 137.232 110.604 137.758 111.025 138.073C111.446 138.389 111.831 138.751 111.831 138.751L113.316 136.566V136.566Z" fill="#FBE5D7"/>
<path d="M132.603 136.601C132.603 136.601 133.667 136.017 134.064 136.519C134.462 137.022 135.631 137.407 135.315 137.769C135 138.132 134.731 138.541 134.731 138.541L132.615 136.601H132.603Z" fill="#FBE5D7"/>
<path d="M114.999 130.56C114.999 130.56 113.632 133.692 123.345 133.703C123.345 133.703 131.528 133.703 131.516 130.502C131.516 130.502 126.864 131.986 114.999 130.56Z" fill="#FFFDFC"/>
<path d="M111.82 138.751C111.82 138.751 112.135 135.257 119.897 134.79C119.897 134.79 122.071 134.603 123.275 135.912C123.275 135.912 123.86 134.778 127.822 135.047C127.822 135.047 132.44 135.14 134.988 138.506C134.988 138.506 130.289 141.251 123.17 141.088C123.17 141.088 114.029 140.539 111.82 138.751V138.751Z" fill="#F08D85"/>
<path d="M65.4075 128.954L65.3972 128.948C64.058 128.249 62.4057 128.768 61.7065 130.106L38.1398 175.224C37.4406 176.562 37.9594 178.214 39.2985 178.913L39.3088 178.918C40.648 179.617 42.3003 179.098 42.9995 177.76L66.5662 132.643C67.2654 131.304 66.7466 129.652 65.4075 128.954Z" fill="#E8B76E"/>
<path d="M52.333 139.207C52.333 139.207 47.3884 140.246 49.4808 146.766C49.4808 146.766 51.1056 152.795 48.4521 153.929C48.4521 153.929 43.2972 148.262 44.2206 144.792" stroke="#F5C1BA" stroke-width="0.31" stroke-linecap="round" stroke-linejoin="round"/>
<path d="M41.836 156.079C41.836 156.079 42.7127 159.537 45.6584 160.589C46.1727 160.776 46.7455 160.671 47.1429 160.308C47.4819 160.005 47.7742 159.584 47.6105 159.175" fill="#F6DED2"/>
<path d="M41.836 156.079C41.836 156.079 42.7127 159.537 45.6584 160.589C46.1727 160.776 46.7455 160.671 47.1429 160.308C47.4819 160.005 47.7742 159.584 47.6105 159.175" stroke="#F5C1BA" stroke-width="0.31" stroke-linecap="round" stroke-linejoin="round"/>
<path d="M44.7933 162.458C44.7933 162.458 46.839 161.932 45.6817 160.752Z" fill="#F6DED2"/>
<path d="M44.7933 162.458C44.7933 162.458 46.839 161.932 45.6817 160.752" stroke="#F5C1BA" stroke-width="0.31" stroke-linecap="round" stroke-linejoin="round"/>
<path d="M42.2334 147.386C42.2334 147.386 41.6139 154.583 47.5754 159.397C47.5754 159.397 49.9367 159.245 48.4638 153.929" fill="#F6DED2"/>
<path d="M42.2334 147.386C42.2334 147.386 41.6139 154.583 47.5754 159.397C47.5754 159.397 49.9367 159.245 48.4638 153.929" stroke="#F5C1BA" stroke-width="0.31" stroke-linecap="round" stroke-linejoin="round"/>
<path d="M64.5599 148.893C64.5599 148.893 54.9513 144.581 51.3744 146.299C51.3744 146.299 50.1003 146.848 51.4796 148.858C52.2044 149.909 53.2213 150.727 54.3786 151.241C56.0969 152.013 59.1829 153.274 62.3156 153.917" fill="#F6DED2"/>
<path d="M64.5599 148.893C64.5599 148.893 54.9513 144.581 51.3744 146.299C51.3744 146.299 50.1003 146.848 51.4796 148.858C52.2044 149.909 53.2213 150.727 54.3786 151.241C56.0969 152.013 59.1829 153.274 62.3156 153.917" stroke="#F5C1BA" stroke-width="0.31" stroke-linecap="round" stroke-linejoin="round"/>
<path d="M57.8971 154.338C58.2945 153.45 55.454 158.252 55.302 161.664" stroke="#F5C1BA" stroke-width="0.31" stroke-linecap="round" stroke-linejoin="round"/>
<path d="M218.695 184.635C218.695 184.635 221.161 191.26 210.489 188.865" stroke="#F5C1BA" stroke-width="0.31" stroke-linecap="round" stroke-linejoin="round"/>
</svg>
