<svg width="428" height="566" viewBox="0 0 428 566" fill="none" xmlns="http://www.w3.org/2000/svg">
<path fill-rule="evenodd" clip-rule="evenodd" d="M0 302.642V145.49C3.72083 144.347 7.45808 143.226 11.1842 142.108C25.9836 137.669 40.6082 133.281 53.3354 127.799C55.8398 126.721 58.3457 125.633 60.8537 124.545C95.5478 109.492 130.66 94.2583 168.1 98.8229C190.153 101.512 207.485 114.829 225.091 128.356C237.421 137.829 249.885 147.406 264.198 153.508C283.187 161.602 305.199 164.351 326.877 167.059C363.061 171.578 398.314 175.98 417.019 204.932C438.143 237.63 424.618 277.365 411.221 316.724C406.178 331.54 401.154 346.302 398.002 360.616C394.426 376.861 392.414 394.095 390.403 411.336C385.081 456.945 379.754 502.598 345.426 530.099C312.275 556.658 268.569 552.335 224.519 547.979C205.503 546.098 186.423 544.211 168.1 544.799C148.301 545.434 126.375 550.401 104.452 555.368C65.704 564.146 26.9656 572.922 0 557.773V418.342C12.1722 390.427 22.5118 362.062 17.5182 334.825C15.288 322.661 8.73036 312.185 0 302.642Z" fill="#517CA2"/>
<g clip-path="url(#clip0_678_1308)">
<path d="M297.133 244.635H309.668C333.352 40.6319 273.864 -18.8407 215.17 4.9254C215.17 4.9254 165.117 -24.254 146.619 113.583C138.662 172.889 149.297 215.743 147.338 245.852L297.133 244.635Z" fill="#956134"/>
<path d="M312.761 112.441C312.761 121.431 305.774 128.721 297.156 128.721C288.538 128.721 275.12 127.642 275.12 118.647C275.12 109.651 288.538 96.1549 297.156 96.1549C305.774 96.1549 312.761 103.445 312.761 112.435V112.441Z" fill="#F8DFD3"/>
<path d="M149.489 112.441C149.489 121.431 156.476 128.721 165.094 128.721C173.712 128.721 187.13 127.642 187.13 118.647C187.13 109.657 173.712 96.1549 165.094 96.1549C156.476 96.1549 149.489 103.445 149.489 112.435V112.441Z" fill="#F8DFD3"/>
<path d="M297.133 107.114C297.133 146.402 267.578 178.251 231.125 178.251C206.499 178.251 185.025 163.722 173.683 142.183C168.234 131.833 165.117 119.869 165.117 107.114C165.117 67.8251 194.672 35.9763 231.125 35.9763C267.578 35.9763 297.133 67.8251 297.133 107.114Z" fill="#F8DFD3"/>
<path d="M186.223 140.076C193.237 140.076 198.922 135.707 198.922 130.317C198.922 124.927 193.237 120.558 186.223 120.558C179.21 120.558 173.525 124.927 173.525 130.317C173.525 135.707 179.21 140.076 186.223 140.076Z" fill="#F5C1BA"/>
<path d="M275.296 140.007C282.309 140.007 287.995 135.638 287.995 130.248C287.995 124.859 282.309 120.489 275.296 120.489C268.283 120.489 262.597 124.859 262.597 130.248C262.597 135.638 268.283 140.007 275.296 140.007Z" fill="#F5C1BA"/>
<path d="M243.567 82.7162C252.991 80.8218 270.28 77.9515 278.827 82.5612C280.312 83.4051 281.575 84.7139 282.084 86.2926C278.243 78.692 261.095 82.8655 254.342 84.4786C251.15 85.2937 247.934 86.2352 244.888 87.2857C241.643 88.2559 240.269 83.5773 243.567 82.7162Z" fill="#7F4F21"/>
<path d="M214.661 86.7346C208.452 84.8345 201.922 83.3017 195.432 82.5153C189.989 81.9929 180.254 81.0399 177.483 86.8322C179.617 80.529 189.913 80.2535 195.572 80.1444C202.424 80.1731 209.119 80.9251 215.877 82.1364C217.193 82.3832 218.058 83.6232 217.807 84.9148C217.549 86.3213 216.035 87.1939 214.655 86.7289L214.661 86.7346Z" fill="#7F4F21"/>
<path d="M278.734 109.106C278.734 99.1975 270.057 91.1606 259.352 91.1606C248.647 91.1606 239.971 99.1917 239.971 109.106" fill="#E6777D"/>
<path d="M259.352 129.227C270.056 129.227 278.734 121.192 278.734 111.281C278.734 101.371 270.056 93.3363 259.352 93.3363C248.648 93.3363 239.971 101.371 239.971 111.281C239.971 121.192 248.648 129.227 259.352 129.227Z" fill="white"/>
<path d="M239.971 111.281C239.164 100.851 249.033 92.2915 259.352 92.458C269.748 92.1537 279.769 100.822 279.178 111.281L278.821 110.851C281.639 111.488 285.428 110.868 286.364 107.751C285.75 111.172 281.71 112.165 278.646 111.706C278.424 111.678 278.278 111.488 278.289 111.281C278.085 104.186 272.963 97.8542 266.269 95.4603C254.57 91.0688 240.784 98.6464 239.971 111.281Z" fill="#6A3906"/>
<path d="M259.352 128.974C267.367 128.974 273.864 122.464 273.864 114.433C273.864 106.402 267.367 99.8921 259.352 99.8921C251.338 99.8921 244.841 106.402 244.841 114.433C244.841 122.464 251.338 128.974 259.352 128.974Z" fill="#956134" stroke="#7F4F21" stroke-width="1.84" stroke-miterlimit="10"/>
<path opacity="0.65" d="M259.352 123.629C263.825 123.629 267.45 119.995 267.45 115.512C267.45 111.029 263.825 107.395 259.352 107.395C254.88 107.395 251.255 111.029 251.255 115.512C251.255 119.995 254.88 123.629 259.352 123.629Z" fill="#604C3F"/>
<path d="M279.125 107.292C280.996 107.556 283.259 107.033 284.329 105.363C284.726 104.823 284.931 104.169 285.106 103.514C285.001 104.536 284.662 105.57 283.972 106.379C282.739 107.762 280.856 108.319 279.009 108.302C278.722 108.296 278.494 108.061 278.5 107.78C278.5 107.464 278.81 107.229 279.12 107.292H279.125Z" fill="#6A3906"/>
<path d="M277.483 104.186C279.125 104.163 281.008 103.428 281.68 101.832C281.938 101.31 282.014 100.719 282.066 100.133C282.16 101.333 281.862 102.619 280.944 103.491C280.026 104.398 278.816 104.892 277.523 105.076C277.272 105.11 277.044 104.938 277.015 104.691C276.974 104.421 277.208 104.175 277.483 104.186Z" fill="#6A3906"/>
<path d="M219.221 108.911C219.221 99.2606 210.773 91.4362 200.349 91.4362C189.924 91.4362 181.476 99.2606 181.476 108.911" fill="#E6777D"/>
<path d="M200.349 128.945C210.772 128.945 219.221 121.122 219.221 111.471C219.221 101.82 210.772 93.9965 200.349 93.9965C189.926 93.9965 181.476 101.82 181.476 111.471C181.476 121.122 189.926 128.945 200.349 128.945Z" fill="white"/>
<path d="M219.221 111.471C218.415 99.1687 205.014 91.8036 193.614 96.0631C187.083 98.3938 182.096 104.548 181.862 111.471C181.868 111.643 181.751 111.798 181.587 111.832C179.184 112.355 175.787 112.447 174.519 109.961C175.986 112.16 179.149 111.758 181.365 111.103L181.09 111.465C180.979 109.054 181.423 106.597 182.4 104.347C187.562 92.28 204.558 89.4269 213.93 98.4684C217.485 101.792 219.596 106.672 219.221 111.471Z" fill="#6A3906"/>
<path d="M200.349 128.71C208.153 128.71 214.48 122.369 214.48 114.548C214.48 106.726 208.153 100.386 200.349 100.386C192.544 100.386 186.218 106.726 186.218 114.548C186.218 122.369 192.544 128.71 200.349 128.71Z" fill="#956134" stroke="#7F4F21" stroke-width="1.79" stroke-miterlimit="10"/>
<path opacity="0.65" d="M200.349 123.492C204.705 123.492 208.236 119.955 208.236 115.593C208.236 111.23 204.705 107.694 200.349 107.694C195.993 107.694 192.462 111.23 192.462 115.593C192.462 119.955 195.993 123.492 200.349 123.492Z" fill="#604C3F"/>
<path opacity="0.55" d="M206.4 112.407C209.309 112.407 211.668 110.451 211.668 108.038C211.668 105.625 209.309 103.669 206.4 103.669C203.491 103.669 201.132 105.625 201.132 108.038C201.132 110.451 203.491 112.407 206.4 112.407Z" fill="white"/>
<path opacity="0.55" d="M253.798 112.125C256.707 112.125 259.066 110.169 259.066 107.757C259.066 105.344 256.707 103.388 253.798 103.388C250.889 103.388 248.53 105.344 248.53 107.757C248.53 110.169 250.889 112.125 253.798 112.125Z" fill="white"/>
<path d="M181.552 108.13C178.635 108.239 175.782 106.499 175.618 103.474C175.98 105.415 177.565 106.936 179.57 107.142C180.202 107.229 180.874 107.24 181.464 107.142C182.166 107.056 182.26 108.095 181.552 108.13Z" fill="#6A3906"/>
<path d="M183.002 104.99C180.47 104.703 178.249 102.814 178.576 100.173C178.594 101.896 179.728 103.428 181.429 103.87C181.955 104.031 182.54 104.123 183.06 104.123C183.68 104.14 183.622 105.053 183.002 104.99Z" fill="#6A3906"/>
<path opacity="0.61" d="M226.512 129.577C227.243 127.481 228.88 127.86 230.336 128.417C231.792 128.974 233.452 129.496 232.827 131.798C232.487 133.055 232.026 134.244 231.593 135.455C230.342 136.207 229.248 137.304 227.611 137.2C226.413 135.449 226.653 133.463 226.664 131.517C226.664 130.863 227.073 130.185 226.512 129.577Z" fill="#E6777D"/>
<path d="M217.818 150.191C222.519 150.817 234.855 152.177 241.415 150.277C243.561 149.652 246.478 148.687 248.484 149.485C250.875 150.438 253.126 153.578 250.787 156.546C249.402 158.308 242.403 163.613 234.124 164.118C231.809 164.256 229.459 164.388 227.161 164.101C224.606 163.785 220.97 162.981 217.351 162.172C208.388 160.157 204.769 152.407 212.176 149.841C213.895 149.244 215.79 149.921 217.824 150.197L217.818 150.191Z" fill="#963F3D"/>
<path d="M216.789 158.343C216.789 158.343 215.141 157.769 214.825 158.498C214.509 159.227 213.112 159.927 213.685 160.341C214.258 160.754 214.778 161.242 214.778 161.242L216.789 158.343Z" fill="#FBE5D7"/>
<path d="M242.877 158.383C242.877 158.383 244.315 157.608 244.847 158.28C245.379 158.951 246.963 159.462 246.531 159.939C246.098 160.415 245.736 160.966 245.736 160.966L242.877 158.383Z" fill="#FBE5D7"/>
<path d="M219.075 150.352C219.075 150.352 217.228 154.514 230.359 154.525C230.359 154.525 241.433 154.52 241.415 150.272C241.415 150.272 235.118 152.241 219.075 150.352Z" fill="#FFFDFC"/>
<path d="M214.778 161.242C214.778 161.242 215.199 156.598 225.699 155.983C225.699 155.983 228.634 155.731 230.271 157.464C230.271 157.464 231.061 155.966 236.416 156.316C236.416 156.316 242.163 155.955 245.607 160.421C245.607 160.421 242.046 164.261 230.125 164.33C230.125 164.33 217.766 163.601 214.778 161.236V161.242Z" fill="#F08D85"/>
<path d="M237.638 39.989C237.755 40.2014 237.79 40.4253 237.545 40.4367C232.429 40.6778 210.089 38.5021 194.929 65.127C183.236 85.6611 174.969 94.2663 168.105 98.5201C165.638 100.047 158.897 99.186 159.277 96.4362C162.194 75.3855 217.438 4.47191 237.638 39.9832V39.989Z" fill="#956134"/>
<path d="M239.065 31.6479C233.814 31.5101 232.429 38.6686 237.322 40.5458C243.438 42.888 250.489 46.7916 257.411 53.2785C271.332 66.3326 272.174 94.7026 294.613 97.5557C317.415 100.455 279.137 32.6927 239.059 31.6479H239.065Z" fill="#956134"/>
<path d="M211.662 170.72H248.53C248.53 170.72 244.876 181.81 252.927 183.423C260.978 185.037 263.217 189.003 275.185 203.16H187.06C187.06 203.16 190.76 186.03 197.835 184.795C202.243 184.026 206.534 183.039 209.136 182.402C211.773 181.759 213.936 179.755 214.357 177.172C214.655 175.335 214.158 173.09 211.662 170.72Z" fill="#F8DFD3"/>
<path d="M298.396 97.2227C289.755 97.349 282.727 94.6107 277.775 87.435C272.186 79.3178 268.783 70.0065 263.422 61.763C257.517 52.3829 248.583 44.2772 237.673 41.0911L237.334 41.005C237.282 40.9936 237.229 40.9821 237.188 40.9763C234.937 40.7467 232.657 40.8156 230.4 41.0395C217.52 42.1933 205.885 49.7078 198.624 60.0753C194.707 65.7068 191.626 71.8837 187.767 77.5669C183.417 84.0882 178.868 90.6899 172.712 95.7244C169.713 98.1239 165.649 100.334 161.738 98.8817C163.626 99.5534 165.725 99.3582 167.555 98.6406C179.026 93.7324 189.913 72.6644 196.315 62.0902C201.6 53.7377 209.271 46.6825 218.637 42.9913C224.589 40.6893 231.119 39.4321 237.521 40.1439C250.84 43.8638 260.943 54.6504 267.035 66.4875C268.906 69.9434 270.63 73.4738 272.379 76.9756C275.033 82.1708 277.617 87.5727 281.944 91.6371C286.293 95.7646 292.479 97.1825 298.39 97.2284L298.396 97.2227Z" fill="#C9A063"/>
<path d="M217.853 479.374L224.326 396.646L193.964 382.266C193.964 382.266 196.794 455.114 190.895 473.72L217.853 479.368V479.374Z" fill="#F8DFD3"/>
<path d="M239.451 478.542L238.463 395.579L268.543 383.167C268.543 383.167 262.071 455.677 266.731 474.621L239.451 478.542Z" fill="#F8DFD3"/>
<path d="M197.566 208.217C197.566 208.217 195.701 250.393 180.757 261.392L149.489 394.982C149.489 394.982 207.622 428.673 305.879 400.297L275.062 261.668C275.062 261.668 261.884 244.922 262.463 208.223H197.566V208.217Z" fill="#C9A063"/>
<path d="M200.098 181.489C200.098 181.489 180.213 194.543 176.296 202.161C176.296 202.161 143.626 252.075 143.626 256.966C143.626 256.966 136.826 272.609 151.068 283.448C151.068 283.448 149.823 298.281 167.45 297.529C167.45 297.529 178.641 300.847 185.37 306.967C185.37 306.967 186.013 291.68 191.392 283.597L184.136 276.903C184.136 276.903 186.311 270.979 185.826 268.373C185.341 265.767 182.996 262.477 182.996 262.477C182.996 262.477 182.891 258.585 186.516 258.528C188.223 258.505 201.144 227.293 200.103 215.777L256.704 215.611C256.704 215.611 264.743 254.905 267.76 256.059C270.777 257.213 269.268 261.978 269.268 261.978C269.268 261.978 265.749 267.242 265.749 269.71C265.749 272.179 265.918 277.937 265.918 277.937C265.918 277.937 268.093 278.758 266.924 279.745C265.755 280.732 262.399 283.694 262.399 283.694L273.788 306.973L285.013 300.962C285.013 300.962 290.544 301.456 292.047 299.481C292.047 299.481 308.633 297.673 304.944 280.732C304.944 280.732 316.503 273.987 314.492 261.49C314.492 261.49 309.072 239.348 294.619 219.566C294.619 219.566 274.554 187.109 261.153 183.211C261.153 183.211 229.74 211.696 200.098 181.489Z" fill="#EFEFEF"/>
<path d="M192 277.334L212.673 278.757C212.673 278.757 216.649 318.218 205.447 322.708C205.447 322.708 191.006 330.825 173.256 314.585L176.746 309.361C186.72 299.544 189.842 286.215 192 277.328V277.334Z" fill="#B28247"/>
<path d="M221.198 215.823L216.649 255.164L236.451 256.518C236.451 256.518 241 255.973 238.591 247.293L235.113 215.818H221.198V215.823Z" fill="#B28247"/>
<path d="M227.898 238.809C229.68 238.809 231.125 237.39 231.125 235.64C231.125 233.89 229.68 232.471 227.898 232.471C226.115 232.471 224.671 233.89 224.671 235.64C224.671 237.39 226.115 238.809 227.898 238.809Z" fill="#DCDDDD"/>
<path d="M227.898 249.021C229.68 249.021 231.125 247.603 231.125 245.852C231.125 244.102 229.68 242.684 227.898 242.684C226.115 242.684 224.671 244.102 224.671 245.852C224.671 247.603 226.115 249.021 227.898 249.021Z" fill="#DCDDDD"/>
<path d="M227.974 228.602C229.756 228.602 231.201 227.183 231.201 225.433C231.201 223.683 229.756 222.264 227.974 222.264C226.191 222.264 224.746 223.683 224.746 225.433C224.746 227.183 226.191 228.602 227.974 228.602Z" fill="#DCDDDD"/>
<path d="M261.293 279.458L242.959 280.307C242.959 280.307 241.298 302.954 242.865 315.893C243.52 321.301 248.039 325.509 253.576 325.739C260.966 326.043 271.946 323.781 280.038 310.285L277.822 308.023C267.847 298.207 263.451 288.344 261.293 279.458Z" fill="#B28247"/>
<path d="M228.36 255.967L227.682 411.652" stroke="#B28247" stroke-miterlimit="10"/>
<path d="M189.03 451.28C189.03 451.28 209.861 457.858 221.402 454.144L223.928 477.583C224.191 480.011 222.765 482.319 220.449 483.209C207.721 488.088 168.017 502.181 161.802 490.453C151.91 471.791 188.445 466.131 188.445 466.131L189.042 451.28H189.03Z" fill="#956134"/>
<path d="M188.433 466.131C188.433 466.131 202.109 467.256 204.687 473.14C204.687 473.14 212.03 459.253 207.283 455" stroke="#B28247" stroke-miterlimit="10"/>
<path d="M204.687 473.14C204.687 473.14 206.529 486.722 204.687 488.72" stroke="#B28247" stroke-miterlimit="10"/>
<path d="M161.791 490.453C161.791 490.453 175.922 496.315 204.517 486.119L221.852 479.776C221.852 479.776 223.829 479.03 223.677 477.589" stroke="#B28247" stroke-miterlimit="10"/>
<path d="M270.151 451.28C270.151 451.28 249.32 457.858 237.779 454.144L235.253 477.583C234.99 480.011 236.416 482.319 238.732 483.209C251.459 488.088 291.164 502.181 297.378 490.453C307.271 471.791 270.736 466.131 270.736 466.131L270.139 451.28H270.151Z" fill="#956134"/>
<path d="M270.741 466.131C270.741 466.131 257.066 467.256 254.488 473.14C254.488 473.14 247.145 459.253 251.892 455" stroke="#B28247" stroke-miterlimit="10"/>
<path d="M254.488 473.14C254.488 473.14 252.646 486.722 254.488 488.72" stroke="#B28247" stroke-miterlimit="10"/>
<path d="M297.384 490.453C297.384 490.453 283.253 496.315 254.658 486.119L237.322 479.776C237.322 479.776 235.346 479.03 235.498 477.589" stroke="#B28247" stroke-miterlimit="10"/>
</g>
<defs>
<clipPath id="clip0_678_1308">
<rect width="173" height="495" fill="white" transform="translate(142)"/>
</clipPath>
</defs>
</svg>
