<svg width="376" height="159" viewBox="0 0 376 159" fill="none" xmlns="http://www.w3.org/2000/svg">
<path fill-rule="evenodd" clip-rule="evenodd" d="M376 155.703C359.073 142.33 341.608 129.787 322.789 127.207C307.095 125.056 292.652 133.794 278.213 142.531C263.737 151.29 249.265 160.046 233.541 157.825C217.525 155.562 205.893 143.19 194.2 130.754C183.162 119.014 172.069 107.216 157.184 103.812C137.054 99.2092 114.061 105.349 91.6516 111.332C60.9974 119.518 31.4348 127.411 11.786 107.12C-11.1344 83.4494 3.96956 46.8015 18.3885 11.8157C20.0235 7.84867 21.6497 3.90298 23.2106 0H346C362.569 0 376 13.4315 376 30V155.703Z" fill="#517CA2"/>
</svg>
