<svg width="392" height="433" viewBox="0 0 392 433" fill="none" xmlns="http://www.w3.org/2000/svg">
<path fill-rule="evenodd" clip-rule="evenodd" d="M392 76.3556V403C392 419.569 378.569 433 362 433H54.0403C44.1177 409.215 40.8565 381.267 37.5974 353.336L37.5972 353.335C35.5854 336.095 33.5744 318.861 29.9978 302.616C26.8464 288.302 21.8216 273.54 16.7785 258.724C3.38187 219.365 -10.1432 179.63 10.9813 146.932C29.6857 117.98 64.9386 113.578 101.123 109.059C122.801 106.351 144.813 103.602 163.802 95.5075C178.115 89.406 190.579 79.8295 202.909 70.3561C220.515 56.8287 237.847 43.5116 259.9 40.8229C297.34 36.2583 332.452 51.4923 367.146 66.5451L367.151 66.5474C369.658 67.6348 372.162 68.7213 374.665 69.7993C380.138 72.1568 385.962 74.3118 392 76.3556Z" fill="#517CA2"/>
<g clip-path="url(#clip0_676_1306)">
<path d="M131.731 283.016C131.731 283.016 116.715 299.735 138.568 295.347C160.421 290.959 143.813 281.5 143.813 281.5" fill="white"/>
<path d="M278.513 250.151C278.513 250.151 286.097 256.278 292.415 268.952C298.733 281.631 308.005 290.809 308.005 290.809C308.005 290.809 291.995 308.293 272.195 307.857C252.395 307.421 239.334 309.605 212.795 296.49V289.932L278.513 250.151Z" fill="#7F4F21"/>
<path d="M214.775 293.109C214.775 293.109 262.864 302.704 281.205 293.109C299.545 283.515 306.011 292.01 306.011 292.01C306.011 292.01 290.674 308.632 276.475 308.869C262.275 309.106 237.889 308.128 227.415 303.609C216.942 299.091 214.77 298.011 214.77 298.011V293.114" fill="#956134"/>
<path d="M270.181 301.725C270.181 301.725 280.512 321.95 274.718 323.185C268.925 324.42 265.145 312.458 265.145 312.458C265.145 312.458 269.682 324.42 267.158 325.655C264.635 326.89 259.599 324.42 258.337 313.693C258.337 313.693 263.631 327.384 259.851 327.137C256.071 326.89 252.291 325.655 250.025 315.543C250.025 315.543 254.814 325.418 251.035 327.137C247.255 328.856 242.213 316.526 245.241 304.936C248.264 293.342 270.186 301.73 270.186 301.73L270.181 301.725Z" fill="#F8DFD3"/>
<path d="M149.859 210.157H140.038C121.48 34.9042 168.085 -16.1856 214.072 4.22803C214.072 4.22803 253.286 -20.8399 267.777 97.574C274.011 148.519 265.679 185.336 267.213 211.203L149.859 210.157Z" fill="#956134"/>
<path d="M247.408 293.666H267C269.577 293.666 271.666 295.711 271.666 298.233V300.277C271.666 302.8 269.577 304.844 267 304.844H247.408C244.831 304.844 242.743 302.8 242.743 300.277V298.233C242.743 295.711 244.831 293.666 247.408 293.666Z" fill="white"/>
<path d="M242.743 154.824H176.966C165.958 154.824 157.023 163.571 157.023 174.347V271.659H242.743V154.819V154.824Z" fill="#B28247"/>
<path d="M228.212 256.399C228.212 256.399 206.324 242.731 184.194 270.386C184.194 270.386 176.041 277.616 184.194 345.696C184.194 345.696 188.078 366.119 184.194 369.524C184.194 369.524 195.469 370.802 204.39 375.481C213.31 380.159 219.658 389.947 219.658 389.947C219.658 389.947 217.036 291.918 216.887 290.543C215.848 280.919 239.383 298.756 239.383 298.756L228.207 256.399H228.212Z" fill="#F8DFD3"/>
<path d="M184.555 142.964C184.555 142.964 158.452 153.691 155.078 168.768C155.078 168.768 143.407 219.499 143.719 232.837C143.719 232.837 122.529 276.904 127.446 282.992C132.359 289.08 140.958 290.528 140.958 290.528L171.049 258.636C171.049 258.636 163.984 256.897 166.136 249.357C168.283 241.821 172.889 229.064 172.889 229.064L167.056 202.103C167.056 202.103 162.45 188.188 165.829 179.49L184.56 142.964H184.555Z" fill="#C9A063"/>
<path d="M135.521 374.764C135.521 374.764 162.994 322.589 168.896 309.557C183.739 276.812 178.153 266.366 178.153 266.366C178.153 266.366 172.568 256.079 162.425 259.237C152.283 262.394 126.076 321.03 111.768 357.281L135.521 374.764Z" fill="#F8DFD3"/>
<path d="M235.153 297.342C235.153 297.342 194.272 252.611 179.059 283.907C179.059 283.907 162.485 271.083 149.453 279.558C136.421 288.039 158.601 248.824 170.974 251.129C183.353 253.435 233.382 251.033 233.382 251.033L235.158 297.347L235.153 297.342Z" fill="#7F4F21"/>
<path d="M219.316 142.964C219.316 142.964 256.665 155.347 262.518 177.553C268.366 199.759 274.669 242.891 280.517 246.737C286.365 250.582 295.369 291.579 270.166 298.408C270.166 298.408 267.609 299.948 261.37 296.524C261.37 296.524 253.167 302.544 239.383 298.756C225.599 294.969 222.651 278.154 222.651 278.154C222.651 278.154 220.899 262.908 226.876 257.73C226.876 257.73 219.86 246.635 226.876 237.762C226.876 237.762 221.419 206.699 225.055 194.373C228.692 182.047 230.275 175.359 233.115 174.686C235.955 174.013 219.311 142.964 219.311 142.964H219.316Z" fill="#C9A063"/>
<path d="M137.613 87.8248C137.613 94.8473 143.085 100.543 149.839 100.543C156.592 100.543 167.105 99.6952 167.105 92.6727C167.105 85.6502 156.592 75.1068 149.839 75.1068C143.085 75.1068 137.613 80.8023 137.613 87.8248Z" fill="#F8DFD3"/>
<path d="M265.531 87.8248C265.531 94.8473 260.059 100.543 253.306 100.543C246.552 100.543 236.039 99.6952 236.039 92.6727C236.039 85.6502 246.552 75.1068 253.306 75.1068C260.059 75.1068 265.531 80.8023 265.531 87.8248Z" fill="#F8DFD3"/>
<path d="M149.859 82.8413C149.859 113.527 173.013 138.406 201.575 138.406C220.865 138.406 237.691 127.059 246.577 110.234C250.847 102.151 253.286 92.8035 253.286 82.8413C253.286 52.1554 230.132 27.2764 201.57 27.2764C173.008 27.2764 149.854 52.1554 149.854 82.8413H149.859Z" fill="#F8DFD3"/>
<path d="M236.751 109.415C231.256 109.415 226.802 106.002 226.802 101.792C226.802 97.5823 231.256 94.1693 236.751 94.1693C242.246 94.1693 246.701 97.5823 246.701 101.792C246.701 106.002 242.246 109.415 236.751 109.415Z" fill="#F5C1BA"/>
<path d="M166.967 109.362C161.472 109.362 157.017 105.949 157.017 101.739C157.017 97.529 161.472 94.116 166.967 94.116C172.462 94.116 176.916 97.529 176.916 101.739C176.916 105.949 172.462 109.362 166.967 109.362Z" fill="#F5C1BA"/>
<path d="M191.823 64.6118C184.422 63.1347 170.92 60.8826 164.206 64.5004C163.048 65.1591 162.054 66.1713 161.648 67.4063C164.741 61.4735 178.044 64.728 183.383 65.9921C185.881 66.6314 188.399 67.3627 190.789 68.1812C193.322 68.9464 194.406 65.2705 191.823 64.6118Z" fill="#7F4F21"/>
<path d="M214.468 67.7502C219.331 66.2682 224.447 65.0671 229.528 64.4568C232.076 64.1663 234.668 64.0064 237.211 64.3019C239.685 64.6021 242.485 65.3964 243.589 67.8276C241.862 62.9119 233.887 62.694 229.414 62.6068C224.046 62.6213 218.802 63.2122 213.508 64.1614C212.479 64.3503 211.801 65.3238 211.994 66.3311C212.197 67.4305 213.384 68.1085 214.463 67.7502H214.468Z" fill="#7F4F21"/>
<path opacity="0.6" d="M164.271 85.2192C164.271 77.48 171.068 71.2033 179.454 71.2033C187.84 71.2033 194.638 77.48 194.638 85.2192" fill="#C9A063"/>
<path d="M179.454 100.935C171.069 100.935 164.271 94.6599 164.271 86.9191C164.271 79.1783 171.069 72.9032 179.454 72.9032C187.84 72.9032 194.638 79.1783 194.638 86.9191C194.638 94.6599 187.84 100.935 179.454 100.935Z" fill="white"/>
<path d="M194.643 86.9192C195.291 78.7973 187.519 72.0702 179.459 72.2155C171.316 71.9782 163.464 78.7489 163.929 86.9192L164.211 86.585C162.554 86.9047 160.535 86.8611 159.234 85.6503C158.799 85.2532 158.497 84.7253 158.299 84.1635C158.428 84.7446 158.67 85.321 159.076 85.7907C160.352 87.2388 162.499 87.4665 164.345 87.2485C164.503 87.2291 164.617 87.0984 164.622 86.9482C164.77 81.3932 168.788 76.4339 174.042 74.5596C183.209 71.1307 194.01 77.0489 194.643 86.9143V86.9192Z" fill="#6A3906"/>
<path d="M179.454 100.741C173.175 100.741 168.085 95.6566 168.085 89.3843C168.085 83.112 173.175 78.0272 179.454 78.0272C185.734 78.0272 190.824 83.112 190.824 89.3843C190.824 95.6566 185.734 100.741 179.454 100.741Z" fill="#956134" stroke="#7F4F21" stroke-width="1.71" stroke-miterlimit="10"/>
<path opacity="0.65" d="M183.907 96.5618C180.404 96.5618 177.564 93.7235 177.564 90.2222C177.564 86.7209 180.404 83.8826 183.907 83.8826C187.41 83.8826 190.25 86.7209 190.25 90.2222C190.25 93.7235 187.41 96.5618 183.907 96.5618Z" fill="#604C3F"/>
<path d="M163.964 83.805C162.499 84.0084 160.728 83.6065 159.887 82.2988C159.575 81.8775 159.417 81.369 159.278 80.8556C159.382 81.9259 159.852 83.0156 160.792 83.6598C161.737 84.3329 162.88 84.6042 164.053 84.5945C164.275 84.5896 164.454 84.4056 164.449 84.1876C164.449 83.9406 164.206 83.7566 163.964 83.805Z" fill="#6A3906"/>
<path d="M165.25 81.3786C163.964 81.3641 162.49 80.7878 161.96 79.5382C161.757 79.1314 161.698 78.6713 161.658 78.2112C161.643 78.6713 161.639 79.146 161.797 79.6012C162.217 81.059 163.756 81.8775 165.221 82.076C165.413 82.1003 165.597 81.9646 165.621 81.7758C165.651 81.5627 165.473 81.3738 165.255 81.3835L165.25 81.3786Z" fill="#6A3906"/>
<path opacity="0.6" d="M210.896 85.0691C210.896 77.5333 217.515 71.4213 225.679 71.4213C233.842 71.4213 240.462 77.5333 240.462 85.0691" fill="#C9A063"/>
<path d="M225.684 100.717C217.519 100.717 210.901 94.6068 210.901 87.0693C210.901 79.5318 217.519 73.4214 225.684 73.4214C233.848 73.4214 240.467 79.5318 240.467 87.0693C240.467 94.6068 233.848 100.717 225.684 100.717Z" fill="white"/>
<path d="M210.896 87.0693C211.771 75.1891 226.693 70.0603 235.554 77.7366C238.29 80.0952 240.026 83.5048 240.165 87.1032C240.17 87.2291 240.259 87.3308 240.378 87.355C242.263 87.7618 244.925 87.8345 245.919 85.8924C244.766 87.6117 242.292 87.2969 240.556 86.7884L240.774 87.0741C240.858 85.1902 240.511 83.2723 239.744 81.5142C235.702 72.0896 222.384 69.8617 215.042 76.923C212.256 79.5189 210.604 83.3304 210.901 87.079L210.896 87.0693Z" fill="#6A3906"/>
<path d="M225.684 100.533C219.569 100.533 214.611 95.5807 214.611 89.4715C214.611 83.3623 219.569 78.4099 225.684 78.4099C231.799 78.4099 236.756 83.3623 236.756 89.4715C236.756 95.5807 231.799 100.533 225.684 100.533Z" fill="#956134" stroke="#7F4F21" stroke-width="1.66" stroke-miterlimit="10"/>
<path opacity="0.65" d="M230.137 96.4601C226.724 96.4601 223.957 93.6976 223.957 90.29C223.957 86.8823 226.724 84.1199 230.137 84.1199C233.549 84.1199 236.316 86.8823 236.316 90.29C236.316 93.6976 233.549 96.4601 230.137 96.4601Z" fill="#604C3F"/>
<path d="M240.407 84.4589C242.693 84.5461 244.929 83.1852 245.058 80.8217C244.771 82.3376 243.534 83.5242 241.961 83.684C241.466 83.7518 240.937 83.7566 240.477 83.684C239.928 83.6162 239.853 84.4298 240.407 84.454V84.4589Z" fill="#6A3906"/>
<path d="M239.274 82.0034C241.258 81.7806 243 80.3035 242.743 78.2452C242.733 79.5916 241.842 80.7878 240.506 81.1317C240.091 81.2576 239.636 81.3302 239.23 81.3302C238.745 81.3448 238.795 82.0567 239.274 82.0083V82.0034Z" fill="#6A3906"/>
<path opacity="0.61" d="M205.186 101.211C204.612 99.5742 203.331 99.8696 202.188 100.306C201.045 100.741 199.749 101.148 200.239 102.945C200.506 103.923 200.867 104.853 201.204 105.802C202.183 106.388 203.039 107.246 204.32 107.168C205.26 105.798 205.072 104.248 205.063 102.727C205.063 102.219 204.746 101.686 205.181 101.211H205.186Z" fill="#E6777D"/>
<path d="M196.469 31.2332C196.375 31.3978 196.35 31.577 196.543 31.5819C200.55 31.7707 218.055 30.0708 229.934 50.8671C239.096 66.9075 245.573 73.6297 250.951 76.952C252.88 78.1434 258.164 77.4751 257.867 75.3248C255.581 58.8824 212.296 3.49187 196.474 31.2283L196.469 31.2332Z" fill="#956134"/>
<path d="M195.351 24.7192C199.467 24.6126 200.55 30.2016 196.716 31.669C191.927 33.4997 186.401 36.546 180.978 41.6168C170.069 51.8163 169.411 73.9735 151.833 76.2014C133.967 78.4631 163.954 25.5377 195.356 24.724L195.351 24.7192Z" fill="#956134"/>
<path d="M216.818 133.35H187.929C187.929 133.35 190.794 142.009 184.486 143.273C178.178 144.538 177.911 144.707 168.53 155.769H235.599C235.599 155.769 233.194 145.312 227.653 144.349C224.195 143.748 220.835 142.978 218.797 142.479C216.729 141.976 215.037 140.411 214.705 138.392C214.473 136.958 214.864 135.205 216.813 133.35H216.818Z" fill="#F8DFD3"/>
<path d="M148.869 75.9399C155.617 76.0464 161.164 73.8912 165.023 68.2974C169.401 61.9578 172.068 54.6835 176.268 48.2421C180.894 40.9194 187.89 34.5846 196.439 32.0952L196.706 32.0274C196.746 32.0178 196.785 32.0081 196.82 32.0081C198.581 31.8289 200.367 31.8821 202.139 32.0565C211.425 32.904 219.979 37.9263 225.644 45.1038C227.584 47.4866 229.162 50.0874 230.691 52.7462C235.455 60.563 240.2 68.7575 247.334 74.7678C249.684 76.6421 252.865 78.3711 255.933 77.233C253.667 78.0466 251.242 77.2233 249.313 75.998C246.067 73.8815 243.544 70.903 241.194 67.8906C237.449 63.0233 234.233 57.7879 231.18 52.475C230.052 50.4797 228.895 48.4504 227.544 46.5713C223.512 40.8903 217.946 36.1731 211.356 33.5724C206.69 31.7756 201.575 30.7924 196.563 31.3446C186.129 34.2504 178.213 42.6774 173.443 51.9229C171.979 54.6254 170.628 57.3811 169.253 60.1174C167.17 64.176 165.146 68.3943 161.757 71.5665C158.348 74.792 153.505 75.9011 148.874 75.935L148.869 75.9399Z" fill="#C9A063"/>
<path opacity="0.55" d="M187.939 82.5361C189.443 84.3039 190.418 86.5365 190.611 88.9871C190.22 89.0889 189.805 89.1421 189.374 89.1421C187.093 89.1421 185.248 87.6166 185.248 85.7326C185.248 84.2651 186.366 83.0204 187.934 82.5361H187.939Z" fill="white"/>
<path opacity="0.55" d="M233.793 82.4442C235.361 84.0908 236.43 86.2169 236.751 88.5804C236.068 88.992 235.232 89.239 234.327 89.239C232.046 89.239 230.201 87.7135 230.201 85.8295C230.201 84.0957 231.769 82.6669 233.793 82.449V82.4442Z" fill="white"/>
<path d="M215.368 115.75C215.368 115.75 199.982 117.261 189.325 114.786C189.325 114.786 187.177 114.709 188.211 117.498C189.245 120.288 195.756 124.022 195.756 124.022C195.756 124.022 204.904 127.301 210.579 123.165C216.249 119.029 216.467 118.671 216.467 118.671C216.467 118.671 217.773 116.21 215.368 115.75Z" fill="#97302D"/>
<path d="M209.115 117.082C209.115 117.082 210.5 117.285 210.445 119.649C210.391 122.012 207.225 132.517 202.648 133.098C198.072 133.679 194.905 123.179 194.539 121.383C194.173 119.586 193.995 118.084 194.539 117.615C195.84 116.491 209.115 117.077 209.115 117.077V117.082Z" fill="#F08D85"/>
<path d="M213.439 116.665C213.439 116.665 213.498 118.196 211.994 118.259C210.49 118.322 203.43 119 197.325 118.244C194.005 117.833 192.348 117.605 191.531 117.484C191.051 117.411 190.66 117.082 190.522 116.627L190.265 115.803C190.265 115.803 201.332 117.155 213.439 116.661V116.665Z" fill="#ECF3F9"/>
<path d="M201.832 118.947C201.832 118.947 200.922 122.976 201.634 124.046Z" fill="#97302D"/>
<path d="M227.024 143.104L237.078 145.157C237.078 145.157 242.287 168.772 221.815 169.542C201.342 170.313 198.364 154.829 198.364 154.829C198.364 154.829 220.326 153.12 227.029 143.109L227.024 143.104Z" fill="white"/>
<path d="M181.236 143.104C181.236 143.104 178.257 149.095 198.359 154.824C198.359 154.824 196.558 166.714 181.077 165.687C165.596 164.661 167.086 148.746 167.086 148.746C167.086 148.746 168.946 144.126 181.231 143.099L181.236 143.104Z" fill="white"/>
<path d="M221.414 383.608C220.538 381.593 198.26 371.035 198.26 371.035C198.26 371.035 178.747 361.179 168.055 367.034C167.575 367.296 167.13 367.611 166.7 367.95C164.622 369.577 159.135 374.503 158.922 381.21C158.789 385.4 161.04 389.318 164.642 391.589C168.52 394.035 175.432 397.953 183.353 400.447C185.337 401.072 187.118 402.191 188.538 403.687C189.681 404.888 191.452 406.346 194.03 407.46C202.47 411.102 212.617 407.838 216.907 400.384C216.907 400.384 223.512 388.417 221.419 383.612L221.414 383.608Z" fill="#956134"/>
<path d="M209.624 406.375C209.624 406.375 206.418 396.97 192.545 389.754C180.399 383.433 168.877 381.637 158.922 381.06C158.922 381.06 157.923 385.312 161.797 389.7C161.797 389.7 172.092 397.963 186.826 401.416C186.524 401.605 190.438 407.77 198.621 408.743C198.621 408.743 204.795 409.998 209.906 406.893L209.624 406.37V406.375Z" fill="#7F4F21"/>
<path d="M142.605 364.55C141.73 362.535 119.451 351.977 119.451 351.977C119.451 351.977 99.9383 342.122 89.2468 347.977C88.7669 348.238 88.3216 348.553 87.8912 348.892C85.8132 350.52 80.3265 355.445 80.1137 362.153C79.9802 366.342 82.2313 370.26 85.833 372.531C89.7119 374.977 96.6235 378.895 104.544 381.389C106.528 382.014 108.309 383.133 109.729 384.629C110.872 385.831 112.643 387.288 115.221 388.402C123.662 392.044 133.809 388.78 138.098 381.326C138.098 381.326 144.703 369.359 142.61 364.555L142.605 364.55Z" fill="#956134"/>
<path d="M130.816 387.317C130.816 387.317 127.61 377.912 113.737 370.696C101.591 364.376 90.0682 362.579 80.1138 362.003C80.1138 362.003 79.1144 366.255 82.9883 370.643C82.9883 370.643 93.284 378.905 108.018 382.358C107.716 382.547 111.629 388.712 119.812 389.686C119.812 389.686 125.987 390.94 131.098 387.836L130.816 387.313V387.317Z" fill="#7F4F21"/>
</g>
<defs>
<clipPath id="clip0_676_1306">
<rect width="228" height="409" fill="white" transform="matrix(-1 0 0 1 308 0)"/>
</clipPath>
</defs>
</svg>
