<svg width="428" height="468" viewBox="0 0 428 468" fill="none" xmlns="http://www.w3.org/2000/svg">
<path fill-rule="evenodd" clip-rule="evenodd" d="M0 204.642V47.49C3.72083 46.3472 7.45808 45.2261 11.1842 44.1082C25.9836 39.6686 40.6082 35.2813 53.3354 29.7993C55.8398 28.7206 58.3457 27.6333 60.8537 26.5451C95.5478 11.4923 130.66 -3.74172 168.1 0.822934C190.153 3.51164 207.485 16.8287 225.091 30.3561C237.421 39.8295 249.885 49.406 264.198 55.5075C283.187 63.602 305.199 66.3511 326.877 69.0585C363.061 73.5776 398.314 77.9804 417.019 106.932C438.143 139.63 424.618 179.365 411.221 218.724C406.178 233.54 401.154 248.302 398.002 262.616C394.426 278.861 392.414 296.095 390.403 313.336C385.081 358.945 379.754 404.598 345.426 432.099C312.275 458.658 268.569 454.335 224.519 449.979C205.503 448.098 186.423 446.211 168.1 446.799C148.301 447.434 126.375 452.401 104.452 457.368C65.704 466.146 26.9656 474.922 0 459.773V320.342C12.1722 292.427 22.5118 264.062 17.5182 236.825C15.288 224.661 8.73036 214.185 0 204.642Z" fill="#517CA2"/>
</svg>
