<svg width="31" height="31" viewBox="0 0 31 31" fill="none" xmlns="http://www.w3.org/2000/svg">
<path d="M22.6042 2.58333C23.7885 2.58342 24.9445 2.94526 25.9174 3.62042C26.8904 4.29558 27.6339 5.25184 28.0485 6.3612C28.463 7.47056 28.5288 8.68008 28.2371 9.82786C27.9453 10.9756 27.3099 12.0069 26.4159 12.7836C26.8864 14.0675 27.1264 15.4243 27.125 16.7917C27.1241 18.4901 26.751 20.1676 26.032 21.7063C25.313 23.2451 24.2656 24.6075 22.9635 25.6979C21.6613 26.7883 20.1361 27.5802 18.495 28.0177C16.8539 28.4553 15.1369 28.528 13.4647 28.2306C11.7926 27.9333 10.2059 27.2731 8.81626 26.2967C7.42664 25.3202 6.26787 24.051 5.42146 22.5786C4.57505 21.1061 4.06156 19.4661 3.91712 17.7738C3.77268 16.0816 4.00079 14.3782 4.58542 12.7836C3.95261 12.2337 3.44626 11.5534 3.10109 10.7894C2.75592 10.0254 2.5801 9.19578 2.5857 8.35744C2.5913 7.5191 2.77819 6.69189 3.13354 5.93257C3.48889 5.17325 4.00429 4.49978 4.64438 3.95837C5.28448 3.41696 6.03411 3.02043 6.84187 2.79597C7.64962 2.57151 8.49637 2.52445 9.32402 2.658C10.1517 2.79155 10.9406 3.10256 11.6368 3.5697C12.3329 4.03683 12.9198 4.64903 13.3571 5.36429C14.7743 5.09985 16.2282 5.09985 17.6455 5.36429C18.1641 4.5144 18.8926 3.8122 19.761 3.32518C20.6294 2.83816 21.6085 2.58269 22.6042 2.58333ZM12.9167 16.7917H10.3333C10.3333 18.1396 10.8601 19.4342 11.8012 20.3991C12.7423 21.3641 14.0233 21.9231 15.3708 21.9568C16.7183 21.9905 18.0256 21.4963 19.0138 20.5796C20.002 19.6628 20.5928 18.3962 20.6602 17.05L20.6667 16.7917H18.0833C18.0863 17.462 17.8286 18.1073 17.3647 18.5912C16.9007 19.075 16.2668 19.3596 15.597 19.3847C14.9271 19.4099 14.2736 19.1737 13.7747 18.7259C13.2758 18.2782 12.9704 17.6541 12.9231 16.9854L12.9167 16.7917Z" fill="black"/>
</svg>
