<svg width="31" height="31" viewBox="0 0 31 31" fill="none" xmlns="http://www.w3.org/2000/svg">
<g clip-path="url(#clip0_682_1471)">
<path d="M30.5693 25.7776L26.1986 30.1132C25.5534 30.7748 24.6983 30.999 23.8654 31C20.1823 30.8897 16.701 29.0805 13.8426 27.2228C9.15069 23.8094 4.84567 19.577 2.14376 14.4623C1.10748 12.3176 -0.108444 9.58101 0.00772882 7.18706C0.018088 6.28651 0.260766 5.40268 0.895 4.8222L5.26564 0.453759C6.17322 -0.318219 7.0509 -0.0513087 7.63169 0.847898L11.1479 7.51553C11.518 8.30544 11.3057 9.15179 10.7535 9.71622L9.14327 11.3256C9.04387 11.4618 8.98058 11.6168 8.97897 11.7855C9.59644 14.1757 11.4671 16.3786 13.1196 17.8947C14.772 19.4108 16.5483 21.4648 18.854 21.9511C19.139 22.0306 19.4881 22.0585 19.692 21.869L21.5651 19.9639C22.2109 19.4745 23.1432 19.2353 23.8325 19.6355H23.8654L30.2077 23.3799C31.1388 23.9635 31.2359 25.0914 30.5693 25.7776Z" fill="black"/>
</g>
<defs>
<clipPath id="clip0_682_1471">
<rect width="31" height="31" fill="white"/>
</clipPath>
</defs>
</svg>
