<svg width="202" height="140" viewBox="0 0 202 140" fill="none" xmlns="http://www.w3.org/2000/svg">
<g clip-path="url(#clip0_198_20233)">
<path d="M165.339 107.341C165.339 107.341 165.331 107.339 165.323 107.337C164.395 107.137 163.689 106.388 163.501 105.437C163.071 103.281 162.409 100.894 162.117 98.1496C159.236 70.9959 142.011 50.7127 112.346 39.0732C114.142 32.6444 113.075 26.3705 109.763 24.1874C106.369 21.9555 94.6851 23.0923 88.3895 31.4615C88.2159 31.6965 88.0561 31.9442 87.8825 32.1792C57.5888 27.0482 30.2629 35.7343 20.4841 53.5487C13.8234 54.3527 9.00532 57.0095 7.91325 61.1592C6.32065 67.2108 13.1446 74.5436 23.8959 79.206C30.8773 83.2283 48.5195 84.3169 66.1764 88.1274C67.1579 90.116 68.3362 92.1406 69.7347 94.1458C76.3554 103.656 84.9821 108.974 88.9911 106.026C91.2387 104.38 91.558 100.487 90.2506 95.7182C115.985 99.1906 121.102 92.2295 152.043 114.472C154.038 115.907 155.524 117.972 156.293 120.343C158.169 126.123 154.894 139.676 164.132 133.036C167.694 130.478 168.16 122.301 165.727 117.825C170.634 120.646 182.524 116.441 184.363 111.966C186.79 106.045 170.201 108.403 165.336 107.349L165.339 107.341Z" fill="#E8BAE3"/>
<path d="M49.3398 68.3915C55.521 70.0776 61.8851 66.3021 63.5545 59.9587C65.2239 53.6153 61.5664 47.1061 55.3852 45.4199C49.204 43.7338 42.8399 47.5093 41.1705 53.8527C39.5011 60.1961 43.1586 66.7053 49.3398 68.3915Z" fill="white"/>
<path d="M48.7666 61.6167C51.7088 62.4193 54.738 60.6222 55.5326 57.6028C56.3272 54.5834 54.5863 51.4851 51.6441 50.6825C48.702 49.88 45.6727 51.677 44.8781 54.6964C44.0835 57.7158 45.8245 60.8141 48.7666 61.6167Z" fill="#231815"/>
<path d="M90.2608 95.712C90.2608 95.712 105.969 88.0397 128.158 97.1105C150.346 106.181 153.211 115.425 153.211 115.425C153.211 115.425 137.843 104.976 120.709 99.3408C110.42 95.9605 99.9401 98.0435 90.2608 95.712Z" fill="#EFEFEF"/>
<path d="M7.91544 61.1508C7.91544 61.1508 12.7302 72.8508 38.7401 78.2163C64.7499 83.5818 66.1786 88.1191 66.1786 88.1191L52.3207 85.5566C52.3207 85.5566 31.6817 82.7858 26.5767 80.4225C26.5767 80.4225 5.48298 72.877 7.9176 61.1426L7.91544 61.1508Z" fill="#EFEFEF"/>
<path d="M136.115 62.4296C136.115 62.4296 150.411 70.4855 154.755 90.3787" stroke="#EFEFEF" stroke-width="6" stroke-miterlimit="10" stroke-linecap="round"/>
<path d="M157.31 99.8475C158.626 100.206 159.981 99.4027 160.337 98.0521C160.692 96.7016 159.913 95.3158 158.597 94.9568C157.281 94.5978 155.926 95.4016 155.571 96.7521C155.216 98.1027 155.994 99.4885 157.31 99.8475Z" fill="#EFEFEF"/>
</g>
<defs>
<clipPath id="clip0_198_20233">
<rect width="183.619" height="93.7889" fill="white" transform="matrix(0.964749 0.26317 -0.254503 0.967072 23.8696 0.527283)"/>
</clipPath>
</defs>
</svg>
