<svg width="31" height="27" viewBox="0 0 31 27" fill="none" xmlns="http://www.w3.org/2000/svg">
<path d="M15.3673 20.4882C15.189 20.4882 15.0137 20.4416 14.8589 20.3531L5.89148 15.2278C5.81356 15.1828 5.72516 15.1592 5.63519 15.1592C5.54521 15.1592 5.45683 15.183 5.37894 15.228C5.30106 15.2731 5.23641 15.3378 5.19151 15.4158C5.14661 15.4938 5.12304 15.5822 5.12317 15.6722V20.4882C5.12302 20.671 5.1718 20.8506 5.26446 21.0082C5.35712 21.1658 5.49027 21.2958 5.6501 21.3845L14.8698 26.5066C15.022 26.5911 15.1932 26.6355 15.3673 26.6355C15.5414 26.6355 15.7126 26.5911 15.8648 26.5066L25.0845 21.3845C25.2443 21.2958 25.3774 21.1658 25.4701 21.0082C25.5628 20.8506 25.6115 20.671 25.6114 20.4882V15.6722C25.6115 15.5822 25.5879 15.4938 25.543 15.4158C25.4981 15.3378 25.4335 15.2731 25.3556 15.228C25.2777 15.183 25.1893 15.1592 25.0994 15.1592C25.0094 15.1592 24.921 15.1828 24.8431 15.2278L15.8756 20.3531C15.7208 20.4416 15.5456 20.4882 15.3673 20.4882Z" fill="black"/>
<path d="M30.7284 9.12361V9.11656C30.7118 8.95418 30.6567 8.79811 30.5676 8.66135C30.4785 8.52459 30.358 8.4111 30.2162 8.33033L15.8744 0.135038C15.7196 0.0465472 15.5444 0 15.3661 0C15.1877 0 15.0125 0.0465472 14.8577 0.135038L0.515949 8.33033C0.359206 8.41994 0.228933 8.5494 0.138326 8.70557C0.0477202 8.86174 0 9.03909 0 9.21964C0 9.4002 0.0477202 9.57754 0.138326 9.73372C0.228933 9.88989 0.359206 10.0193 0.515949 10.109L14.8577 18.3042C15.0125 18.3927 15.1877 18.4393 15.3661 18.4393C15.5444 18.4393 15.7196 18.3927 15.8744 18.3042L28.4926 11.0943C28.5121 11.0831 28.5342 11.0771 28.5568 11.0772C28.5793 11.0772 28.6014 11.0831 28.6209 11.0944C28.6404 11.1057 28.6565 11.122 28.6677 11.1415C28.6789 11.1611 28.6848 11.1832 28.6847 11.2057V20.4594C28.6847 21.0106 29.1085 21.4838 29.6598 21.5113C29.7983 21.518 29.9367 21.4965 30.0667 21.448C30.1966 21.3996 30.3154 21.3254 30.4158 21.2297C30.5162 21.134 30.5961 21.019 30.6507 20.8915C30.7053 20.7641 30.7335 20.6268 30.7335 20.4882V9.21964C30.7334 9.18757 30.7317 9.15551 30.7284 9.12361Z" fill="black"/>
</svg>
