<svg width="1440" height="145" viewBox="0 0 1440 145" fill="none" xmlns="http://www.w3.org/2000/svg">
<path fill-rule="evenodd" clip-rule="evenodd" d="M1440 145V42.6078C1382 7.99999 1322 -23.9397 1204 26C1084.52 76.5662 1022.3 61.0384 954.864 44.2091C919.012 35.2621 881.687 25.9471 833.5 26C762.917 26.0775 730.711 40.8102 699.231 55.2103C668.806 69.1281 639.059 82.7353 576 82.5C530.219 82.3275 486.368 66.2177 442.495 50.1003C381.147 27.5627 319.759 5.01038 253 26C250.563 26.7661 248.134 27.5313 245.711 28.2944L245.594 28.3312C155.839 56.5982 75.4313 81.9215 0 42.598V145H1440Z" fill="#B5D8E9"/>
</svg>
