<svg width="164" height="227" viewBox="0 0 164 227" fill="none" xmlns="http://www.w3.org/2000/svg">
<g clip-path="url(#clip0_217_20339)">
<path d="M130.454 192.789C128.577 190.405 125.518 189.349 122.529 189.614C117.115 190.103 111.69 187.761 106.781 184.297C114.152 186.581 121.168 187.056 126.049 183.673C134.667 177.705 131.454 172.188 128.683 170.51C126.099 168.948 122.88 169.052 120.168 170.369C116.329 172.244 111.891 172.492 107.372 171.798C108.504 169.867 109.325 167.707 109.753 165.363C111.684 154.786 104.819 144.617 94.4199 142.65C85.2848 140.921 76.4638 146.101 73.143 154.556C73.0346 145.452 66.6306 137.392 57.4886 135.662C47.0895 133.694 37.0947 140.673 35.164 151.25C34.7374 153.587 34.741 155.902 35.1166 158.119C30.7295 157.098 26.7463 155.25 23.8661 152.147C21.8088 149.921 18.8324 148.652 15.8704 149.165C12.6917 149.717 7.75383 153.692 13.6834 162.412C17.4094 167.886 25.2345 169.904 33.9486 170.178C27.9044 171.783 21.7092 172.117 16.6103 169.572C13.9156 168.225 10.6886 168.092 8.09451 169.637C5.30691 171.292 2.05865 176.777 10.6296 182.822C20.1739 189.552 38.0421 181.476 50.7204 174.006C50.7903 174.019 50.8601 174.032 50.9299 174.045C44.7761 181.317 36.3367 188.642 27.4407 188.414C24.4346 188.337 21.4534 189.588 19.7333 192.085C17.8848 194.77 17.1772 201.14 27.4452 202.994C38.7901 205.046 51.5933 190.36 60.0483 178.24C57.7719 186.238 53.8799 194.181 47.2363 197.605C44.5564 198.986 42.5178 201.525 42.1662 204.56C41.7883 207.817 44.1428 213.76 54.0479 210.438C59.7896 208.512 63.7291 202.327 66.4405 194.757C66.2992 202.814 67.7945 210.019 72.4716 213.924C80.535 220.653 84.8306 215.962 85.6344 212.785C86.3772 209.824 85.3708 206.709 83.3574 204.439C78.4392 198.886 77.5636 190.225 78.206 182.036C81.8436 196.385 88.5928 214.469 99.7992 216.685C110.036 218.71 111.631 212.508 110.846 209.325C110.123 206.358 107.776 204.099 104.949 203.079C96.5665 200.038 91.2767 190.108 88.093 181.07C88.4098 181.115 88.7197 181.159 89.0392 181.19C98.2378 192.822 112.1 206.968 123.406 204.168C133.538 201.662 132.436 195.346 130.425 192.791L130.454 192.789Z" fill="#EC6A46"/>
<path d="M88.0149 16.2075L44.2384 58.7117C36.0968 66.6217 40.1792 80.5925 51.2558 82.6883L120.879 95.862C131.949 97.9565 140.696 86.4132 135.889 76.0532L110.035 20.374C106.011 11.7053 94.8226 9.58833 88.0079 16.2061L88.0149 16.2075Z" fill="#EC6A46"/>
<path d="M100.373 178.198L41.3371 167.027C36.2737 166.069 32.8177 161.491 33.6657 156.845L64.0577 56.2154C64.6502 52.9691 68.0335 50.8608 71.5814 51.5321L112.906 59.3512C116.453 60.0225 118.867 63.2276 118.274 66.4739L111.124 171.509C110.277 176.147 105.435 179.163 100.371 178.205L100.373 178.198Z" fill="#EC6A46"/>
<path d="M87.7027 175.727C95.4903 177.2 102.975 171.974 104.421 164.053C105.867 156.132 100.726 148.517 92.9387 147.043C85.1511 145.57 77.6659 150.796 76.22 158.717C74.7742 166.638 79.9151 174.253 87.7027 175.727Z" fill="white"/>
<path d="M87.4764 165.844C91.1831 166.545 94.7459 164.058 95.4341 160.287C96.1223 156.517 93.6753 152.893 89.9686 152.191C86.2619 151.49 82.6991 153.978 82.0109 157.748C81.3227 161.518 83.7697 165.143 87.4764 165.844Z" fill="#231815"/>
<path d="M52.5524 169.076C60.3399 170.549 67.8251 165.323 69.271 157.402C70.7169 149.481 65.5759 141.866 57.7883 140.392C50.0008 138.919 42.5156 144.145 41.0697 152.066C39.6238 159.987 44.7648 167.602 52.5524 169.076Z" fill="white"/>
<path d="M52.3261 159.193C56.0328 159.894 59.5956 157.407 60.2838 153.637C60.972 149.867 58.525 146.242 54.8183 145.54C51.1116 144.839 47.5488 147.327 46.8606 151.097C46.1724 154.867 48.6194 158.492 52.3261 159.193Z" fill="#231815"/>
<path d="M108.251 31.2579L126.012 73.9197" stroke="#EFEFEF" stroke-width="8" stroke-linecap="round" stroke-linejoin="round"/>
<path d="M129.271 85.1185C130.979 85.4418 132.622 84.2951 132.939 82.5571C133.256 80.8192 132.128 79.1482 130.419 78.8249C128.711 78.5016 127.068 79.6484 126.751 81.3863C126.434 83.1242 127.562 84.7952 129.271 85.1185Z" fill="#EFEFEF"/>
</g>
<defs>
<clipPath id="clip0_217_20339">
<rect width="128.731" height="205.085" fill="white" transform="matrix(0.982566 0.185915 -0.179575 0.983744 36.8281 0.591797)"/>
</clipPath>
</defs>
</svg>
