<svg width="282" height="250" viewBox="0 0 282 250" fill="none" xmlns="http://www.w3.org/2000/svg">
<g clip-path="url(#clip0_142_9076)">
<path d="M62.4232 122.808C62.4232 122.808 51.7268 121.601 36.1195 111.548C20.5121 101.496 21.3106 89.8485 25.6904 85.8772C30.0733 81.8917 44.9959 85.2233 51.9941 97.1369C60.2596 111.215 62.4232 122.808 62.4232 122.808Z" fill="#F39800"/>
<path d="M65.6332 115.715C65.6332 115.715 58.0936 121.862 43.8599 132.794C33.3348 140.862 17.3658 135.03 15.5669 129.372C13.7679 123.713 25.3699 112.274 37.3402 112.292C53.9522 112.319 65.6332 115.715 65.6332 115.715Z" fill="#73C6BC"/>
<path d="M172.115 32.5524L171.629 32.4396C170.165 32.0996 168.707 33.0308 168.374 34.5194L163.673 55.5043C163.339 56.9929 164.256 58.4753 165.72 58.8153L166.206 58.9282C167.67 59.2682 169.127 58.337 169.461 56.8484L174.162 35.8635C174.496 34.3749 173.579 32.8925 172.115 32.5524Z" fill="#2175A1"/>
<path d="M183.233 35.1343L170.893 32.2688C169.835 32.0231 168.782 32.6959 168.541 33.7715L168.462 34.1243C168.221 35.1998 168.884 36.2709 169.942 36.5166L182.282 39.3821C183.34 39.6277 184.393 38.955 184.633 37.8794L184.712 37.5266C184.953 36.451 184.291 35.38 183.233 35.1343Z" fill="#2175A1"/>
<path d="M211.43 89.309L127.34 69.7823C94.7435 62.213 62.3003 82.9421 54.8762 116.082C47.452 149.222 67.8582 182.223 100.455 189.793L184.545 209.319C217.141 216.889 249.584 196.159 257.009 163.02C264.433 129.88 244.027 96.8783 211.43 89.309Z" fill="#2175A1"/>
<path d="M127.507 69.821C127.507 69.821 136.402 42.4316 190.884 57.8888C190.884 57.8888 206.625 61.544 198.327 86.2662L127.507 69.821Z" fill="#73C6BC"/>
<path d="M176.409 81.1766C176.409 81.1766 174.752 63.867 188.269 58.677C190.026 58.0014 191.976 58.0978 193.619 59.0434C197.802 61.4252 204.709 68.2699 198.34 86.2694L176.409 81.1766Z" fill="#649E96"/>
<path d="M182.77 41.96C184.533 42.3695 186.421 40.6543 186.987 38.129C187.553 35.6038 186.582 33.2248 184.819 32.8153C183.056 32.4059 181.168 34.1211 180.602 36.6463C180.036 39.1716 181.007 41.5506 182.77 41.96Z" fill="#99C2E8"/>
<path d="M176.409 81.1766C176.409 81.1766 147.552 125.636 169.346 150.903C180.764 164.14 206.298 172.252 250.201 180.501C250.201 180.501 270.912 150.63 249.258 116.725C249.258 116.725 238.444 96.0274 213.068 89.6893L176.423 81.1798L176.409 81.1766Z" fill="#99C2E8"/>
<path d="M110.505 158.752C126.856 162.549 143.131 152.15 146.856 135.525C150.58 118.901 140.343 102.346 123.991 98.5489C107.64 94.7518 91.3645 105.15 87.6402 121.775C83.9159 138.399 94.1526 154.954 110.505 158.752Z" fill="#F39800"/>
<path d="M112.436 150.129C124.104 152.838 135.717 145.419 138.375 133.556C141.032 121.694 133.728 109.881 122.06 107.171C110.392 104.462 98.7789 111.882 96.1214 123.744C93.4639 135.607 100.768 147.42 112.436 150.129Z" fill="#99C2E8"/>
<path d="M144.739 189.624C135.048 196.252 86.474 225.8 81.3619 209.9C79.1508 203.017 113.813 174.752 113.813 174.752" fill="#2175A1"/>
<path d="M167.891 201.918C167.891 201.918 193.627 237.157 201.203 223.416C208.356 210.454 181.338 180.025 174.443 172.931" fill="#2175A1"/>
<path d="M183.254 39.8009C184.335 40.0519 185.453 39.1749 185.752 37.8422C186.05 36.5094 185.416 35.2255 184.335 34.9745C183.254 34.7235 182.136 35.6004 181.837 36.9332C181.539 38.266 182.173 39.5499 183.254 39.8009Z" fill="white"/>
<path opacity="0.81" d="M227.663 115.6C217.926 109.331 223.568 98.4223 234.049 105.741C243.342 112.234 247.96 119.126 251.266 129.989C253.141 136.155 245.586 144.912 239.543 131.409C236.885 125.477 233.478 120.024 227.663 115.6Z" fill="white"/>
<path opacity="0.42" d="M72.7432 109.334C68.437 119.365 59.2349 115.268 64.3252 104.41C68.8331 94.7819 74.0193 89.5577 82.5166 85.1321C87.3444 82.6158 94.956 88.7927 84.5611 96.1478C79.9968 99.3785 75.8676 103.274 72.7571 109.337L72.7432 109.334Z" fill="#99C2E8"/>
<path opacity="0.81" d="M248.991 152.072C251.95 152.759 254.895 150.877 255.569 147.869C256.243 144.86 254.391 141.864 251.432 141.177C248.472 140.49 245.527 142.372 244.853 145.38C244.179 148.389 246.032 151.385 248.991 152.072Z" fill="white"/>
<path opacity="0.42" d="M127.499 84.6507C129.339 85.078 131.17 83.9079 131.589 82.0374C132.008 80.1668 130.857 78.3041 129.017 77.8769C127.177 77.4496 125.346 78.6196 124.927 80.4902C124.508 82.3607 125.659 84.2235 127.499 84.6507Z" fill="#99C2E8"/>
<path d="M53.2357 131.097C53.2357 131.097 60.9242 147.164 63.4714 150.265C80.9502 171.649 106.178 179.823 106.178 179.823L96.6105 188.766C96.6105 188.766 55.7748 178.363 53.2495 131.1L53.2357 131.097Z" fill="#1E617F"/>
<path d="M229.663 176.356C229.663 176.356 228.16 198.84 142.225 192.44L135.574 197.814L171.081 206.059C171.081 206.059 195.752 210.853 204.462 210.5C204.462 210.5 234.811 208.001 250.17 180.509L229.649 176.353L229.663 176.356Z" fill="#1E617F"/>
<path opacity="0.42" d="M163.228 91.7746L155.259 89.0185C152.901 88.2036 150.486 87.6427 148.014 87.3359L139.659 86.3014C138.035 85.9243 137.047 84.0767 137.464 82.2138C137.885 80.3369 139.559 79.1222 141.183 79.4994L147.625 80.0749C151.779 80.2379 157.456 82.2094 158.924 82.6986L164.766 84.9757C166.39 85.3529 167.378 87.2005 166.961 89.0633C166.54 90.9403 164.866 92.1549 163.242 91.7778L163.228 91.7746Z" fill="#99C2E8"/>
<path opacity="0.83" d="M174.737 54.2877C174.737 54.2877 164.63 58.5325 165.36 78.6109L168.219 79.2749C168.219 79.2749 171.085 59.0516 177.863 54.6723L174.74 54.2736L174.737 54.2877Z" fill="white"/>
<path opacity="0.62" d="M163.615 53.2194C163.615 53.2194 154.593 56.1424 155.293 76.2882L158.152 76.9522C158.152 76.9522 160.028 57.7607 166.795 53.3641L163.601 53.2162L163.615 53.2194Z" fill="white"/>
<path opacity="0.62" d="M144.955 73.8727L147.814 74.5367C147.814 74.5367 149.007 57.7403 155.792 53.3327L153.307 53.6021C153.307 53.6021 144.555 55.9049 144.955 73.8727Z" fill="white"/>
<path opacity="0.54" d="M140.876 57.0102C140.876 57.0102 135.752 60.0664 135.738 71.7324L138.292 72.3255C138.292 72.3255 139.608 59.9969 143.863 55.8034C143.863 55.8034 141.887 56.473 140.876 57.0102Z" fill="white"/>
</g>
<defs>
<clipPath id="clip0_142_9076">
<rect width="244.376" height="198.983" fill="white" transform="matrix(0.974082 0.226194 -0.218606 0.975813 43.5537 0.0118408)"/>
</clipPath>
</defs>
</svg>
