<svg width="459" height="76" viewBox="0 0 459 76" fill="none" xmlns="http://www.w3.org/2000/svg">
<g clip-path="url(#clip0_724_1923)">
<path d="M61.7148 2H12.2852C5.50025 2 0 7.48004 0 14.24V61.6448C0 68.4048 5.50025 73.8848 12.2852 73.8848H61.7148C68.4997 73.8848 74 68.4048 74 61.6448V14.24C74 7.48004 68.4997 2 61.7148 2Z" fill="#330000"/>
<path d="M35.8592 45.1395H24.392L22.0587 52.3606C22.027 52.4923 21.9501 52.6088 21.8413 52.6901C21.7326 52.7714 21.5988 52.8123 21.463 52.8058H15.6548C15.3239 52.8058 15.208 52.6244 15.3074 52.2615L25.2358 23.7731C25.335 23.4765 25.4344 23.1386 25.5336 22.7593C25.6636 22.0992 25.7301 21.4288 25.7321 20.7563C25.7254 20.7093 25.7297 20.6613 25.7448 20.6162C25.7598 20.5711 25.7852 20.5302 25.8189 20.4965C25.8527 20.4629 25.8938 20.4376 25.939 20.4225C25.9842 20.4075 26.0324 20.4031 26.0796 20.4098H33.9727C34.204 20.4098 34.3364 20.4925 34.3699 20.6575L45.6384 52.311C45.7379 52.6411 45.6384 52.8061 45.3407 52.8058H38.8871C38.7763 52.8181 38.6648 52.7897 38.5734 52.726C38.4821 52.6622 38.4171 52.5676 38.3908 52.4596L35.8592 45.1395ZM26.179 38.9078H34.0224L33.9106 38.54L33.7311 37.9577L33.603 37.5487L33.3987 36.9047L32.9642 35.5491L32.5821 34.3473L31.5897 31.2167C31.3427 30.4385 31.1057 29.6572 30.8786 28.873L30.6971 28.2365L30.4849 27.484L30.1612 26.3176L30.1005 26.0978H30.051C29.8026 27.285 29.5002 28.4603 29.1445 29.6201L28.408 31.9805L28.0027 33.2846L27.5937 34.6048C27.5197 34.8432 27.4463 35.0791 27.3726 35.3121L27.1529 36.0027L26.9344 36.6772L26.717 37.335L26.5008 37.9764C26.4291 38.1875 26.3574 38.3957 26.286 38.6014L26.179 38.9078ZM52.3395 25.6526C51.8332 25.6728 51.3283 25.5864 50.8578 25.3989C50.3873 25.2114 49.9619 24.9271 49.6093 24.5645C49.2576 24.1862 48.9845 23.7424 48.8055 23.2586C48.6266 22.7748 48.5454 22.2605 48.5666 21.7453C48.5486 21.2353 48.6388 20.7272 48.8313 20.2543C49.0237 19.7813 49.3142 19.3542 49.6836 19.0006C50.3961 18.3191 51.3451 17.9377 52.3328 17.9359L52.4386 17.9371C53.6301 17.9371 54.5653 18.2913 55.2437 19.0004C55.5861 19.3688 55.8522 19.8008 56.0268 20.2719C56.2014 20.7429 56.2811 21.2436 56.2612 21.7453C56.282 22.2625 56.1983 22.7787 56.0149 23.263C55.8316 23.7474 55.5524 24.1901 55.194 24.5648C54.8321 24.9202 54.4025 25.1999 53.9305 25.3873C53.4585 25.5748 52.9536 25.6662 52.4456 25.6563L52.3395 25.6526ZM48.9141 52.311V28.6697C48.9141 28.373 49.0459 28.2244 49.3113 28.2244H55.4174C55.6819 28.2244 55.8143 28.3727 55.8146 28.6697V52.311C55.8146 52.6411 55.6822 52.8061 55.4174 52.8058H49.361C49.0788 52.8058 48.9303 52.6578 48.9155 52.3617L48.9141 52.311Z" fill="#FF9A00"/>
</g>
<path d="M272.036 67.7277L266 0H332.349L326.305 67.7169L299.134 75.25L272.036 67.7277Z" fill="#1572B6"/>
<path d="M299.174 69.4934L321.131 63.4062L326.297 5.53894H299.174V69.4934Z" fill="#33A9DC"/>
<path d="M299.174 30.0758H310.166L310.924 21.5699H299.174V13.2628H320.002L319.804 15.4908L317.764 38.3829H299.174V30.0758Z" fill="white"/>
<path d="M299.225 51.6483L299.188 51.6591L289.937 49.1597L289.346 42.535H281.007L282.171 55.5775L299.185 60.3021L299.225 60.2913V51.6483Z" fill="#EBEBEB"/>
<path d="M309.459 38.0308L308.46 49.1543L299.196 51.6537V60.2967L316.224 55.5775L316.35 54.1746L317.793 38.0308H309.459Z" fill="white"/>
<path d="M299.204 13.2628V21.5699H279.139L278.972 19.7021L278.593 15.4908L278.395 13.2628H299.204ZM299.174 30.0758V38.3829H290.039L289.873 36.5151L289.497 32.3038L289.298 30.0758H299.174Z" fill="#EBEBEB"/>
<path d="M398.039 67.7277L392 0H458.354L452.307 67.7169L425.137 75.25L398.039 67.7277Z" fill="#E44F26"/>
<path d="M425.177 69.4934L447.134 63.4062L452.299 5.53894H425.177V69.4934Z" fill="#F1662A"/>
<path d="M425.177 30.6563H414.185L413.427 22.1503H425.177V13.8433H404.349L404.548 16.0739L406.588 38.9633H425.177V30.6563ZM425.177 52.2288L425.14 52.2396L415.889 49.7429L415.298 43.1182H406.959L408.122 56.1579L425.14 60.8826L425.177 60.8718V52.2288Z" fill="#EBEBEB"/>
<path d="M425.148 30.6563V38.9633H435.377L434.414 49.7375L425.148 52.2369V60.8799L442.179 56.158L442.302 54.7551L444.253 32.8869L444.458 30.6563H425.148ZM425.148 13.8433V22.1503H445.213L445.379 20.2852L445.758 16.0739L445.957 13.8433H425.148Z" fill="white"/>
<g clip-path="url(#clip1_724_1923)">
<path d="M189.125 2H150.875C141.555 2 134 9.55519 134 18.875V57.125C134 66.4448 141.555 74 150.875 74H189.125C198.445 74 206 66.4448 206 57.125V18.875C206 9.55519 198.445 2 189.125 2Z" fill="#242938"/>
<mask id="mask0_724_1923" style="mask-type:luminance" maskUnits="userSpaceOnUse" x="151" y="9" width="38" height="58">
<path d="M151.156 9.875H188.664V66.125H151.156V9.875Z" fill="white"/>
</mask>
<g mask="url(#mask0_724_1923)">
<path d="M160.535 66.125C165.71 66.125 169.91 61.9251 169.91 56.7501V47.3749H160.535C155.36 47.3749 151.16 51.5751 151.16 56.7501C151.16 61.9251 155.36 66.125 160.535 66.125Z" fill="#0ACF83"/>
<path d="M151.16 38C151.16 32.825 155.36 28.6251 160.535 28.6251H169.91V47.3749H160.535C155.36 47.3749 151.16 43.175 151.16 38Z" fill="#A259FF"/>
<path d="M151.16 19.2499C151.16 14.0749 155.36 9.875 160.535 9.875H169.91V28.6251H160.535C155.36 28.6251 151.16 24.4249 151.16 19.2499Z" fill="#F24E1E"/>
<path d="M169.91 9.875H179.285C184.46 9.875 188.66 14.0749 188.66 19.2499C188.66 24.4249 184.46 28.6251 179.285 28.6251H169.91V9.875Z" fill="#FF7262"/>
<path d="M188.66 38C188.66 43.175 184.46 47.3749 179.285 47.3749C174.11 47.3749 169.91 43.175 169.91 38C169.91 32.825 174.11 28.6251 179.285 28.6251C184.46 28.6251 188.66 32.825 188.66 38Z" fill="#1ABCFE"/>
</g>
</g>
<defs>
<clipPath id="clip0_724_1923">
<rect width="74" height="72" fill="white" transform="translate(0 2)"/>
</clipPath>
<clipPath id="clip1_724_1923">
<rect width="72" height="72" fill="white" transform="translate(134 2)"/>
</clipPath>
</defs>
</svg>
